<?xml version="1.0" standalone="no"?>
<!DOCTYPE svg PUBLIC "-//W3C//DTD SVG 20010904//EN"
 "http://www.w3.org/TR/2001/REC-SVG-20010904/DTD/svg10.dtd">
<svg version="1.0" xmlns="http://www.w3.org/2000/svg"
 width="641.000000pt" height="641.000000pt" viewBox="0 0 641.000000 641.000000"
 preserveAspectRatio="xMidYMid meet">

<g transform="translate(0.000000,641.000000) scale(0.100000,-0.100000)"
fill="#000000" stroke="none">
<path d="M3093 6158 c5 -252 14 -327 42 -355 8 -8 15 -21 15 -29 0 -17 112
-134 128 -134 6 0 15 -6 19 -14 8 -14 91 -46 118 -46 8 0 15 -4 15 -9 0 -6
139 -11 348 -13 260 -2 353 -6 370 -16 37 -21 82 -71 98 -107 18 -43 18 -136
0 -178 -16 -40 -65 -90 -103 -105 -20 -9 -291 -12 -961 -14 -607 -2 -935 -6
-940 -13 -4 -5 -31 -18 -60 -28 -29 -10 -63 -26 -74 -35 -26 -21 -98 -93 -119
-118 -20 -25 -49 -99 -49 -124 0 -11 -4 -20 -10 -20 -6 0 -10 -38 -10 -95 0
-57 4 -95 10 -95 6 0 10 -8 10 -17 0 -25 31 -103 41 -103 5 0 9 -6 9 -14 0
-14 106 -126 120 -126 5 0 16 -7 25 -16 16 -17 104 -44 143 -44 12 0 22 -4 22
-10 0 -6 113 -10 320 -10 233 0 327 -3 347 -12 37 -17 89 -67 97 -95 4 -13 12
-23 17 -23 5 0 9 -62 9 -145 l0 -145 -110 0 -110 0 0 -214 0 -215 -697 -4
c-515 -3 -718 -7 -773 -17 -41 -7 -77 -16 -80 -20 -3 -4 -40 -15 -83 -25 -42
-10 -77 -21 -77 -25 0 -3 -25 -14 -55 -24 -30 -9 -55 -20 -55 -25 0 -4 -22
-15 -50 -25 -27 -10 -50 -22 -50 -26 0 -4 -10 -10 -23 -14 -13 -3 -34 -15 -47
-26 -13 -11 -28 -20 -34 -20 -6 0 -24 -11 -40 -25 -16 -14 -32 -25 -35 -25 -3
0 -22 -14 -41 -30 -19 -16 -38 -30 -42 -30 -4 0 -28 -20 -52 -45 -25 -25 -48
-45 -52 -45 -9 0 -134 -123 -134 -133 0 -4 -18 -24 -40 -46 -22 -21 -40 -43
-40 -49 0 -6 -8 -17 -17 -24 -20 -15 -41 -44 -49 -70 -4 -10 -10 -18 -15 -18
-5 0 -17 -16 -26 -35 -9 -19 -19 -35 -23 -35 -3 0 -14 -20 -25 -45 -11 -25
-23 -45 -26 -45 -4 0 -15 -22 -25 -50 -10 -27 -21 -50 -26 -50 -4 0 -15 -25
-23 -55 -9 -30 -20 -55 -24 -55 -5 0 -16 -36 -25 -80 -10 -44 -21 -80 -25 -80
-17 0 -36 -213 -36 -395 1 -178 17 -363 34 -375 4 -3 15 -41 24 -84 9 -44 20
-82 25 -85 4 -3 16 -34 27 -68 10 -35 21 -63 24 -63 4 0 13 -21 20 -46 8 -25
21 -53 31 -62 9 -10 23 -33 30 -52 8 -19 20 -39 27 -43 7 -4 13 -14 13 -21 0
-7 8 -21 18 -32 10 -10 27 -34 38 -53 26 -47 36 -57 187 -208 151 -151 161
-161 208 -187 19 -11 43 -28 53 -38 11 -10 25 -18 32 -18 7 0 17 -6 21 -13 4
-8 29 -22 55 -32 26 -9 49 -23 52 -30 2 -7 25 -17 50 -24 25 -6 46 -15 46 -20
0 -4 28 -16 63 -26 34 -11 65 -23 68 -27 3 -5 41 -16 85 -25 43 -9 81 -20 84
-24 6 -8 158 -29 212 -29 21 0 38 -4 38 -10 0 -6 52 -10 135 -10 83 0 135 4
135 10 0 6 16 10 36 10 60 0 214 23 214 32 0 4 8 8 17 8 25 0 147 32 153 40 3
4 33 15 68 25 34 10 62 22 62 26 0 4 24 15 53 25 28 9 55 22 59 29 4 6 25 17
48 25 22 7 40 17 40 22 0 5 16 16 35 24 19 8 35 18 35 22 0 4 23 16 50 26 28
10 50 21 50 25 0 4 34 15 75 26 41 10 75 22 75 25 0 13 172 30 292 30 117 0
279 -17 288 -30 3 -4 35 -15 73 -25 37 -10 67 -21 67 -24 0 -4 25 -15 55 -26
30 -10 55 -22 55 -26 0 -5 16 -15 35 -23 19 -8 35 -19 35 -24 0 -5 18 -15 41
-22 22 -8 49 -22 61 -32 12 -10 38 -23 60 -28 21 -6 38 -14 38 -18 0 -5 28
-17 63 -27 34 -10 64 -21 67 -25 6 -8 128 -40 153 -40 9 0 17 -4 17 -8 0 -9
154 -32 214 -32 20 0 36 -4 36 -10 0 -6 52 -10 135 -10 83 0 135 4 135 10 0 6
17 10 38 10 54 0 206 21 212 29 3 4 41 15 84 24 44 9 82 20 85 25 3 4 34 16
69 27 34 10 62 22 62 26 0 5 24 16 54 24 30 9 56 22 59 28 3 7 23 19 46 27 23
7 41 17 41 21 0 4 16 16 35 25 19 9 35 19 35 23 0 3 17 15 37 26 48 26 53 31
210 188 157 157 162 162 188 210 11 20 23 37 26 37 4 0 14 16 23 35 9 19 21
35 25 35 4 0 14 18 21 41 8 23 20 43 27 46 7 3 20 29 29 59 8 30 19 54 23 54
4 0 16 28 26 62 11 35 23 66 27 69 5 3 16 41 25 85 9 43 20 81 25 84 4 3 13
59 20 123 7 64 16 117 20 117 4 0 8 65 8 145 0 90 -4 145 -10 145 -5 0 -10 17
-10 37 0 54 -23 203 -31 203 -4 0 -15 36 -25 80 -9 44 -20 80 -25 80 -4 0 -15
25 -24 55 -8 30 -19 55 -23 55 -5 0 -16 23 -26 50 -10 28 -21 50 -25 50 -3 0
-15 20 -26 45 -11 25 -22 45 -25 45 -4 0 -14 16 -23 35 -9 19 -21 35 -26 35
-5 0 -11 8 -15 18 -8 26 -29 55 -48 70 -10 7 -18 18 -18 24 0 6 -18 28 -40 49
-22 22 -40 42 -40 46 0 10 -125 133 -134 133 -4 0 -27 20 -52 45 -24 25 -48
45 -52 45 -4 0 -23 14 -42 30 -19 16 -38 30 -41 30 -3 0 -19 11 -35 25 -16 14
-34 25 -40 25 -6 0 -21 9 -34 20 -13 11 -34 23 -47 26 -13 4 -23 10 -23 14 0
4 -22 16 -50 26 -27 10 -50 21 -50 25 0 5 -25 16 -55 25 -30 10 -55 21 -55 24
0 4 -35 15 -77 26 -43 10 -80 21 -83 25 -3 3 -39 12 -80 19 -55 10 -258 14
-772 17 l-698 4 0 215 0 214 -108 0 -109 0 -6 148 c-7 157 -19 225 -42 249 -8
8 -15 21 -15 29 0 13 -97 115 -141 149 -21 17 -97 45 -119 45 -11 0 -20 4 -20
9 0 6 -138 11 -342 13 -373 3 -372 3 -431 63 -40 40 -57 84 -57 148 0 69 16
114 54 152 37 36 77 55 116 55 17 0 30 5 30 10 0 7 305 10 895 10 893 0 976 3
1008 35 7 7 22 15 34 19 21 7 123 103 123 116 0 4 9 17 19 29 11 12 25 45 32
72 7 27 16 49 21 49 4 0 8 43 8 95 0 57 -4 95 -10 95 -5 0 -10 8 -10 17 0 24
-31 103 -40 103 -4 0 -10 8 -14 18 -15 45 -74 105 -126 129 -8 4 -18 10 -21
15 -7 11 -105 38 -136 38 -13 0 -23 5 -23 10 0 6 -111 10 -314 10 -215 0 -324
4 -347 12 -40 14 -93 63 -103 96 -4 12 -12 22 -17 22 -5 0 -9 102 -9 250 l0
250 -111 0 -111 0 5 -252z m1835 -2963 c4 -6 51 -19 105 -30 53 -10 97 -22 97
-26 0 -4 27 -16 60 -25 33 -9 60 -20 60 -23 0 -4 23 -15 50 -25 28 -10 50 -21
50 -25 0 -4 20 -15 45 -25 25 -11 45 -23 45 -27 0 -4 17 -16 38 -26 20 -9 43
-25 50 -35 7 -10 19 -18 26 -18 8 0 21 -11 30 -25 9 -14 21 -25 27 -25 11 0
229 -214 229 -225 0 -4 10 -18 23 -31 40 -42 52 -59 70 -97 10 -20 22 -37 26
-37 4 0 16 -19 27 -42 10 -24 27 -52 36 -62 10 -11 18 -25 18 -32 0 -7 6 -19
13 -26 6 -7 21 -40 32 -73 10 -33 22 -62 26 -65 7 -6 39 -129 39 -152 0 -9 4
-18 9 -20 5 -2 15 -66 22 -143 9 -109 9 -172 0 -285 -6 -79 -15 -147 -20 -150
-4 -3 -16 -45 -25 -94 -10 -49 -24 -95 -31 -102 -7 -8 -16 -32 -20 -54 -4 -22
-12 -46 -19 -53 -7 -6 -20 -32 -30 -57 -10 -25 -21 -47 -25 -50 -3 -3 -15 -24
-25 -47 -11 -24 -23 -43 -27 -43 -4 0 -16 -17 -26 -37 -9 -21 -25 -44 -35 -51
-10 -7 -18 -19 -18 -26 0 -8 -11 -21 -25 -30 -14 -9 -25 -21 -25 -27 0 -13
-165 -179 -179 -179 -6 0 -15 -9 -21 -20 -6 -11 -17 -20 -25 -20 -8 0 -20 -8
-27 -18 -7 -10 -30 -26 -51 -35 -20 -10 -37 -22 -37 -26 0 -5 -20 -17 -45 -28
-25 -10 -45 -21 -45 -24 0 -4 -23 -15 -50 -25 -28 -10 -50 -21 -50 -25 0 -3
-28 -14 -62 -24 -35 -9 -65 -21 -68 -25 -3 -5 -46 -17 -95 -27 -50 -10 -92
-21 -95 -24 -3 -4 -68 -13 -144 -19 -108 -10 -170 -10 -280 0 -77 6 -143 15
-146 18 -3 4 -43 15 -90 24 -47 10 -86 22 -88 28 -2 5 -10 10 -17 10 -18 0
-119 33 -125 40 -3 4 -26 15 -52 25 -27 10 -48 21 -48 24 0 4 -20 15 -45 26
-25 11 -45 23 -45 26 0 3 -19 14 -42 25 -24 10 -45 22 -48 25 -3 4 -25 15 -50
25 -25 10 -48 22 -51 26 -3 5 -32 16 -65 24 -32 9 -61 20 -64 24 -11 17 -226
40 -380 40 -154 0 -369 -23 -380 -40 -3 -4 -33 -16 -67 -25 -35 -10 -63 -21
-63 -24 0 -4 -22 -15 -50 -25 -27 -10 -50 -21 -50 -25 0 -4 -18 -14 -40 -21
-23 -8 -44 -18 -48 -24 -4 -6 -26 -20 -49 -31 -24 -11 -43 -23 -43 -26 0 -4
-21 -14 -47 -24 -27 -10 -50 -21 -53 -25 -6 -7 -107 -40 -125 -40 -7 0 -15 -5
-17 -10 -2 -6 -41 -18 -88 -28 -47 -9 -87 -20 -90 -24 -3 -3 -68 -11 -145 -18
-137 -11 -412 1 -425 18 -3 4 -45 15 -95 25 -49 10 -92 22 -95 27 -3 4 -33 16
-67 25 -35 10 -63 21 -63 24 0 4 -22 15 -50 25 -27 10 -50 21 -50 25 0 4 -20
15 -45 25 -25 11 -45 23 -45 27 0 4 -17 16 -37 26 -38 18 -55 30 -97 70 -13
13 -27 23 -30 23 -10 0 -186 176 -186 186 0 3 -10 17 -23 30 -40 42 -52 59
-70 97 -10 20 -22 37 -26 37 -5 0 -17 20 -28 45 -10 25 -21 45 -24 45 -4 0
-15 23 -25 50 -10 28 -21 50 -25 50 -4 0 -15 26 -25 58 -10 31 -21 59 -25 62
-4 3 -15 46 -25 95 -9 50 -21 92 -25 95 -5 3 -14 70 -20 150 -10 113 -10 174
0 289 7 80 16 148 19 151 4 3 16 40 26 83 11 42 22 77 26 77 3 0 14 29 25 65
10 36 22 65 26 65 4 0 13 16 19 35 6 19 17 38 24 42 7 5 18 24 26 43 7 19 18
40 25 45 6 6 14 17 18 25 14 31 45 73 85 114 12 13 22 27 22 31 0 11 218 225
229 225 6 0 17 10 26 23 8 13 31 29 50 37 19 8 35 17 35 22 0 5 16 16 35 25
19 9 35 20 35 25 0 4 18 15 40 24 22 9 40 20 40 24 0 4 23 16 50 26 28 10 50
21 50 25 0 3 28 14 63 24 34 9 64 21 67 25 6 9 140 40 174 40 15 0 26 4 26 10
0 5 28 11 63 13 158 9 3378 1 3385 -8z"/>
<path d="M4605 2774 c-39 -6 -87 -25 -103 -41 -7 -7 -20 -13 -27 -13 -16 0
-135 -113 -135 -128 0 -6 -6 -17 -14 -25 -18 -17 -46 -99 -46 -132 0 -14 -4
-25 -10 -25 -5 0 -10 -25 -10 -55 0 -30 4 -55 8 -55 5 0 14 -29 21 -65 7 -35
22 -74 32 -86 10 -12 19 -25 19 -28 0 -3 14 -22 30 -41 16 -19 30 -38 30 -41
0 -4 8 -9 18 -13 21 -7 53 -27 67 -42 5 -6 31 -17 58 -25 26 -7 47 -17 47 -21
0 -4 45 -8 100 -8 60 0 100 4 100 10 0 6 9 10 20 10 25 0 99 29 124 49 96 77
164 172 166 233 0 9 6 18 12 20 16 6 17 206 2 216 -5 4 -16 26 -24 50 -7 24
-22 52 -32 64 -10 12 -18 24 -18 28 0 15 -81 88 -116 105 -22 10 -41 21 -44
25 -18 25 -193 46 -275 34z m149 -214 c21 -4 42 -13 45 -18 3 -4 20 -17 37
-27 55 -31 79 -144 53 -239 -11 -39 -44 -77 -90 -105 -31 -19 -126 -25 -175
-12 -47 13 -105 64 -124 110 -17 42 -9 180 12 195 8 6 17 19 21 29 4 9 17 21
31 27 13 5 26 14 28 20 8 24 99 35 162 20z"/>
<path d="M1450 2563 c-8 -4 -27 -20 -42 -36 l-28 -29 0 -234 0 -234 -234 0
c-233 0 -233 0 -259 -24 -14 -13 -29 -35 -32 -48 -3 -13 -5 -133 -3 -267 l3
-243 25 -19 c14 -10 30 -23 37 -29 7 -6 102 -10 238 -10 l225 0 0 -225 c0
-136 4 -231 10 -238 6 -7 19 -23 29 -37 l19 -25 243 -3 c134 -2 254 0 267 3
13 3 35 18 48 32 24 26 24 26 24 259 l0 234 230 0 c188 0 233 3 247 15 10 8
27 21 38 29 19 14 20 28 23 258 4 266 -2 305 -46 326 -18 8 -95 12 -259 12
l-233 0 0 233 c0 256 -4 277 -55 296 -33 11 -486 15 -515 4z"/>
<path d="M3890 2140 c0 -5 -9 -10 -21 -10 -32 0 -129 -30 -129 -40 0 -5 -16
-17 -36 -26 -45 -21 -86 -63 -108 -107 -9 -20 -21 -37 -26 -39 -19 -6 -40
-112 -40 -204 0 -88 21 -194 39 -194 5 0 12 -11 15 -24 6 -24 111 -136 127
-136 5 0 17 -8 28 -19 10 -10 36 -22 57 -26 21 -4 42 -12 46 -18 9 -15 206
-16 216 -2 4 6 31 18 60 28 29 10 61 25 71 34 68 58 112 107 117 128 3 14 10
25 14 25 10 0 40 87 40 117 0 13 5 23 10 23 6 0 10 28 10 65 0 36 -4 65 -8 65
-4 0 -14 27 -20 60 -7 32 -18 65 -25 72 -7 7 -20 28 -30 46 -24 42 -82 98
-118 114 -16 7 -29 16 -29 20 0 9 -96 38 -127 38 -13 0 -23 5 -23 10 0 6 -25
10 -55 10 -30 0 -55 -4 -55 -10z"/>
<path d="M5390 2140 c0 -5 -11 -10 -25 -10 -33 0 -115 -28 -132 -46 -8 -8 -20
-14 -26 -14 -14 0 -127 -115 -127 -129 0 -5 -7 -16 -15 -24 -23 -23 -45 -123
-45 -202 0 -71 21 -183 36 -194 5 -3 17 -21 27 -39 19 -34 105 -122 120 -122
5 0 14 -6 21 -13 8 -7 33 -19 57 -27 24 -8 47 -19 51 -24 11 -16 210 -14 216
2 2 6 9 12 15 12 31 0 87 23 113 45 16 14 37 28 47 31 9 3 17 9 17 13 0 5 10
19 23 33 12 14 29 34 38 45 20 24 49 98 49 123 0 11 5 20 10 20 6 0 10 40 10
100 0 55 -4 100 -9 100 -5 0 -12 18 -16 41 -4 23 -15 49 -24 58 -9 9 -23 30
-31 46 -22 43 -82 98 -122 111 -10 4 -18 10 -18 14 0 11 -88 40 -122 40 -15 0
-28 5 -28 10 0 6 -25 10 -55 10 -30 0 -55 -4 -55 -10z"/>
<path d="M4650 1500 c0 -5 -10 -10 -22 -10 -31 0 -130 -27 -137 -37 -6 -8 -37
-29 -59 -39 -24 -12 -81 -75 -94 -105 -7 -16 -16 -29 -20 -29 -9 0 -38 -96
-38 -127 0 -13 -4 -23 -10 -23 -5 0 -10 -25 -10 -55 0 -30 5 -55 10 -55 6 0
10 -10 10 -23 0 -31 29 -127 38 -127 4 0 13 -13 20 -29 16 -36 72 -94 114
-118 18 -10 39 -23 46 -30 7 -7 40 -18 72 -25 33 -6 60 -16 60 -20 0 -4 29 -8
65 -8 37 0 65 4 65 10 0 6 10 10 23 10 28 0 117 29 117 38 0 4 15 14 33 21 28
13 58 41 121 113 8 9 23 41 33 70 10 29 23 56 28 60 13 9 12 217 0 226 -6 4
-18 32 -29 62 -10 30 -27 61 -37 68 -11 7 -19 18 -19 24 0 14 -50 58 -91 82
-19 11 -37 23 -40 28 -7 11 -105 38 -136 38 -13 0 -23 5 -23 10 0 6 -20 10
-45 10 -25 0 -45 -4 -45 -10z m122 -230 c43 -12 95 -61 114 -107 8 -18 14 -57
14 -88 0 -31 -6 -70 -14 -88 -18 -45 -69 -93 -112 -107 -48 -16 -173 -8 -188
12 -6 8 -19 17 -29 21 -9 4 -20 15 -24 24 -4 10 -13 23 -21 28 -16 13 -27 118
-18 169 8 41 75 118 116 135 33 13 116 13 162 1z"/>
</g>
</svg>
