<?xml version="1.0" standalone="no"?>
<!DOCTYPE svg PUBLIC "-//W3C//DTD SVG 20010904//EN"
 "http://www.w3.org/TR/2001/REC-SVG-20010904/DTD/svg10.dtd">
<svg version="1.0" xmlns="http://www.w3.org/2000/svg"
 width="854.000000pt" height="854.000000pt" viewBox="0 0 854.000000 854.000000"
 preserveAspectRatio="xMidYMid meet">

<g transform="translate(0.000000,854.000000) scale(0.100000,-0.100000)"
fill="#000000" stroke="none">
<path d="M4208 8533 c-16 -2 -28 -9 -28 -14 0 -5 -7 -9 -15 -9 -8 0 -15 -4
-15 -9 0 -5 -20 -12 -45 -15 -25 -4 -45 -11 -45 -17 0 -5 -11 -9 -25 -9 -14 0
-25 -4 -25 -9 0 -5 -13 -12 -30 -16 -16 -4 -30 -11 -30 -16 0 -5 -11 -9 -25
-9 -14 0 -25 -4 -25 -9 0 -6 -20 -13 -45 -17 -25 -3 -45 -10 -45 -15 0 -5 -7
-9 -15 -9 -8 0 -15 -4 -15 -10 0 -5 -18 -13 -40 -16 -22 -4 -40 -10 -40 -15 0
-5 -9 -9 -20 -9 -11 0 -20 -4 -20 -10 0 -5 -18 -13 -40 -16 -22 -4 -40 -10
-40 -15 0 -5 -7 -9 -15 -9 -8 0 -15 -4 -15 -9 0 -5 -20 -12 -45 -15 -25 -4
-45 -11 -45 -17 0 -5 -7 -9 -15 -9 -8 0 -15 -4 -15 -9 0 -5 -18 -11 -40 -15
-22 -3 -40 -11 -40 -16 0 -6 -11 -10 -25 -10 -14 0 -25 -4 -25 -9 0 -5 -16
-12 -35 -15 -19 -4 -35 -11 -35 -16 0 -6 -11 -10 -25 -10 -14 0 -25 -4 -25
-10 0 -5 -16 -12 -35 -16 -19 -3 -35 -10 -35 -15 0 -5 -11 -9 -25 -9 -14 0
-25 -4 -25 -10 0 -5 -18 -13 -40 -16 -22 -4 -40 -10 -40 -15 0 -5 -7 -9 -15
-9 -8 0 -15 -4 -15 -9 0 -6 -20 -13 -45 -17 -25 -3 -45 -10 -45 -15 0 -5 -7
-9 -15 -9 -8 0 -15 -4 -15 -9 0 -5 -18 -11 -40 -15 -22 -3 -40 -11 -40 -16 0
-6 -9 -10 -20 -10 -11 0 -20 -4 -20 -9 0 -5 -18 -11 -40 -15 -22 -3 -40 -11
-40 -16 0 -6 -7 -10 -15 -10 -8 0 -15 -4 -15 -9 0 -5 -20 -12 -45 -15 -25 -4
-45 -11 -45 -17 0 -5 -11 -9 -25 -9 -14 0 -25 -4 -25 -9 0 -5 -14 -12 -30 -16
-17 -4 -30 -11 -30 -16 0 -5 -11 -9 -25 -9 -14 0 -25 -4 -25 -9 0 -6 -20 -13
-45 -17 -25 -3 -45 -10 -45 -15 0 -5 -7 -9 -15 -9 -8 0 -15 -4 -15 -10 0 -5
-18 -13 -40 -16 -22 -4 -40 -10 -40 -15 0 -5 -9 -9 -20 -9 -11 0 -20 -4 -20
-10 0 -5 -18 -13 -40 -16 -22 -4 -40 -10 -40 -15 0 -5 -7 -9 -15 -9 -8 0 -15
-4 -15 -9 0 -5 -20 -12 -45 -15 -25 -4 -45 -11 -45 -17 0 -5 -7 -9 -15 -9 -8
0 -15 -4 -15 -9 0 -5 -18 -11 -40 -15 -22 -3 -40 -11 -40 -16 0 -6 -11 -10
-25 -10 -14 0 -25 -4 -25 -9 0 -5 -16 -12 -35 -15 -19 -4 -35 -11 -35 -16 0
-6 -11 -10 -25 -10 -14 0 -25 -4 -25 -10 0 -5 -16 -12 -35 -16 -19 -3 -35 -10
-35 -15 0 -5 -11 -9 -25 -9 -14 0 -25 -4 -25 -10 0 -5 -18 -13 -40 -16 -22 -4
-40 -10 -40 -15 0 -5 -7 -9 -15 -9 -8 0 -15 -4 -15 -9 0 -6 -20 -13 -45 -17
-25 -3 -45 -10 -45 -15 0 -5 -7 -9 -15 -9 -8 0 -15 -4 -15 -9 0 -5 -18 -11
-40 -15 -22 -3 -40 -11 -40 -16 0 -6 -9 -10 -20 -10 -11 0 -20 -4 -20 -9 0 -5
-18 -11 -40 -15 -22 -3 -40 -11 -40 -16 0 -6 -7 -10 -15 -10 -8 0 -15 -4 -15
-9 0 -5 -20 -12 -45 -15 -25 -4 -45 -11 -45 -17 0 -5 -11 -9 -25 -9 -14 0 -25
-4 -25 -9 0 -5 -14 -12 -30 -16 -17 -4 -30 -11 -30 -16 0 -5 -11 -9 -25 -9
-14 0 -25 -4 -25 -9 0 -6 -20 -13 -45 -17 -25 -3 -45 -10 -45 -15 0 -5 -7 -9
-15 -9 -8 0 -15 -4 -15 -10 0 -5 -18 -13 -40 -16 -22 -4 -40 -10 -40 -15 0 -5
-9 -9 -20 -9 -11 0 -20 -4 -20 -10 0 -5 -18 -13 -40 -16 -22 -4 -40 -10 -40
-15 0 -5 -7 -9 -15 -9 -8 0 -15 -4 -15 -9 0 -5 -20 -12 -45 -15 -25 -4 -45
-11 -45 -17 0 -5 -7 -9 -15 -9 -8 0 -15 -4 -15 -9 0 -5 -18 -11 -40 -15 -22
-3 -40 -11 -40 -16 0 -6 -11 -10 -25 -10 -14 0 -25 -4 -25 -9 0 -5 -16 -12
-35 -15 -19 -4 -35 -11 -35 -16 0 -6 -11 -10 -25 -10 -14 0 -25 -4 -25 -10 0
-5 -6 -10 -13 -10 -8 0 -25 -9 -38 -21 l-24 -21 0 -3337 0 -3337 27 -27 c15
-15 32 -27 38 -27 5 0 10 -4 10 -10 0 -7 1402 -10 4185 -10 2783 0 4185 3
4185 10 0 6 5 10 10 10 14 0 60 46 60 60 0 5 5 10 10 10 7 0 10 1113 10 3320
0 2207 -3 3320 -10 3320 -5 0 -10 5 -10 11 0 15 -39 49 -57 49 -7 0 -13 5 -13
10 0 6 -11 10 -25 10 -14 0 -25 4 -25 10 0 5 -16 12 -35 16 -19 3 -35 10 -35
15 0 5 -11 9 -25 9 -14 0 -25 4 -25 10 0 5 -18 13 -40 16 -22 4 -40 10 -40 15
0 5 -7 9 -15 9 -8 0 -15 4 -15 9 0 6 -20 13 -45 17 -25 3 -45 10 -45 15 0 5
-7 9 -15 9 -8 0 -15 4 -15 9 0 5 -18 11 -40 15 -22 3 -40 11 -40 16 0 6 -9 10
-20 10 -11 0 -20 4 -20 9 0 5 -18 11 -40 15 -22 3 -40 11 -40 16 0 6 -7 10
-15 10 -8 0 -15 4 -15 9 0 5 -20 12 -45 15 -25 4 -45 11 -45 17 0 5 -11 9 -25
9 -14 0 -25 4 -25 9 0 5 -13 12 -30 16 -16 4 -30 11 -30 16 0 5 -11 9 -25 9
-14 0 -25 4 -25 9 0 6 -20 13 -45 17 -25 3 -45 10 -45 15 0 5 -7 9 -15 9 -8 0
-15 4 -15 10 0 5 -18 13 -40 16 -22 4 -40 10 -40 15 0 5 -9 9 -20 9 -11 0 -20
4 -20 10 0 5 -18 13 -40 16 -22 4 -40 10 -40 15 0 5 -7 9 -15 9 -8 0 -15 4
-15 9 0 5 -20 12 -45 15 -25 4 -45 11 -45 17 0 5 -7 9 -15 9 -8 0 -15 4 -15 9
0 5 -18 11 -40 15 -22 3 -40 11 -40 16 0 6 -11 10 -25 10 -14 0 -25 4 -25 9 0
5 -16 12 -35 15 -19 4 -35 11 -35 16 0 6 -11 10 -25 10 -14 0 -25 4 -25 10 0
5 -16 12 -35 16 -19 3 -35 10 -35 15 0 5 -11 9 -25 9 -14 0 -25 4 -25 10 0 5
-18 13 -40 16 -22 4 -40 10 -40 15 0 5 -7 9 -15 9 -8 0 -15 4 -15 9 0 6 -20
13 -45 17 -25 3 -45 10 -45 15 0 5 -7 9 -15 9 -8 0 -15 4 -15 9 0 5 -18 11
-40 15 -22 3 -40 11 -40 16 0 6 -9 10 -20 10 -11 0 -20 4 -20 9 0 5 -18 11
-40 15 -22 3 -40 11 -40 16 0 6 -7 10 -15 10 -8 0 -15 4 -15 9 0 5 -20 12 -45
15 -25 4 -45 11 -45 17 0 5 -11 9 -25 9 -14 0 -25 4 -25 9 0 5 -13 12 -30 16
-16 4 -30 11 -30 16 0 5 -11 9 -25 9 -14 0 -25 4 -25 9 0 6 -20 13 -45 17 -25
3 -45 10 -45 15 0 5 -7 9 -15 9 -8 0 -15 4 -15 10 0 5 -18 13 -40 16 -22 4
-40 10 -40 15 0 5 -9 9 -20 9 -11 0 -20 4 -20 10 0 5 -18 13 -40 16 -22 4 -40
10 -40 15 0 5 -7 9 -15 9 -8 0 -15 4 -15 9 0 5 -20 12 -45 15 -25 4 -45 11
-45 17 0 5 -7 9 -15 9 -8 0 -15 4 -15 9 0 5 -18 11 -40 15 -22 3 -40 11 -40
16 0 6 -11 10 -25 10 -14 0 -25 4 -25 9 0 5 -16 12 -35 15 -19 4 -35 11 -35
16 0 6 -11 10 -25 10 -14 0 -25 4 -25 10 0 5 -16 12 -35 16 -19 3 -35 10 -35
15 0 5 -11 9 -25 9 -14 0 -25 4 -25 10 0 5 -18 13 -40 16 -22 4 -40 10 -40 15
0 5 -7 9 -15 9 -8 0 -15 4 -15 9 0 6 -20 13 -45 17 -25 3 -45 10 -45 15 0 5
-7 9 -15 9 -8 0 -15 4 -15 9 0 5 -18 11 -40 15 -22 3 -40 11 -40 16 0 6 -9 10
-20 10 -11 0 -20 4 -20 9 0 5 -18 11 -40 15 -22 3 -40 11 -40 16 0 6 -7 10
-15 10 -8 0 -15 4 -15 9 0 5 -20 12 -45 15 -25 4 -45 11 -45 17 0 5 -11 9 -25
9 -14 0 -25 4 -25 9 0 5 -13 12 -30 16 -16 4 -30 11 -30 16 0 5 -11 9 -25 9
-14 0 -25 4 -25 9 0 6 -20 13 -45 17 -25 3 -45 10 -45 15 0 5 -6 9 -14 9 -8 0
-16 4 -18 10 -4 11 -100 20 -140 13z m72 -263 c0 -5 9 -10 20 -10 11 0 20 -4
20 -9 0 -5 18 -11 40 -15 22 -3 40 -11 40 -16 0 -6 7 -10 15 -10 8 0 15 -4 15
-9 0 -5 20 -12 45 -15 25 -4 45 -11 45 -17 0 -5 11 -9 25 -9 14 0 25 -4 25 -9
0 -5 14 -12 30 -16 17 -4 30 -11 30 -16 0 -5 11 -9 25 -9 14 0 25 -4 25 -9 0
-5 16 -12 35 -15 19 -4 35 -11 35 -16 0 -6 11 -10 25 -10 14 0 25 -4 25 -10 0
-5 18 -13 40 -16 22 -4 40 -10 40 -15 0 -5 9 -9 20 -9 11 0 20 -4 20 -9 0 -5
18 -11 40 -15 22 -3 40 -11 40 -16 0 -6 11 -10 25 -10 14 0 25 -4 25 -10 0 -5
16 -12 35 -16 19 -3 35 -10 35 -15 0 -5 11 -9 25 -9 14 0 25 -4 25 -10 0 -5
18 -13 40 -16 22 -4 40 -10 40 -15 0 -5 7 -9 15 -9 8 0 15 -4 15 -9 0 -6 20
-13 45 -17 25 -3 45 -10 45 -15 0 -5 7 -9 15 -9 8 0 15 -4 15 -10 0 -5 18 -13
40 -16 22 -4 40 -10 40 -15 0 -5 9 -9 20 -9 11 0 20 -4 20 -9 0 -5 18 -11 40
-15 22 -3 40 -11 40 -16 0 -6 7 -10 15 -10 8 0 15 -4 15 -9 0 -5 20 -12 45
-15 25 -4 45 -11 45 -17 0 -5 11 -9 25 -9 14 0 25 -4 25 -9 0 -5 14 -12 30
-16 17 -4 30 -11 30 -16 0 -5 11 -9 25 -9 14 0 25 -4 25 -9 0 -5 16 -12 35
-15 19 -4 35 -11 35 -16 0 -6 11 -10 25 -10 14 0 25 -4 25 -10 0 -5 18 -13 40
-16 22 -4 40 -10 40 -15 0 -5 9 -9 20 -9 11 0 20 -4 20 -10 0 -5 18 -13 40
-16 22 -4 40 -10 40 -15 0 -5 7 -9 15 -9 8 0 15 -4 15 -9 0 -5 20 -12 45 -15
25 -4 45 -11 45 -17 0 -5 7 -9 15 -9 8 0 15 -4 15 -9 0 -5 18 -11 40 -15 22
-3 40 -11 40 -16 0 -6 9 -10 20 -10 11 0 20 -4 20 -9 0 -5 18 -11 40 -15 22
-3 40 -11 40 -16 0 -6 11 -10 25 -10 14 0 25 -4 25 -10 0 -5 16 -12 35 -16 19
-3 35 -10 35 -15 0 -5 11 -9 25 -9 14 0 25 -4 25 -10 0 -5 18 -13 40 -16 22
-4 40 -10 40 -15 0 -5 7 -9 15 -9 8 0 15 -4 15 -9 0 -6 20 -13 45 -17 25 -3
45 -10 45 -15 0 -5 7 -9 15 -9 8 0 15 -4 15 -10 0 -5 18 -13 40 -16 22 -4 40
-10 40 -15 0 -5 9 -9 20 -9 11 0 20 -4 20 -9 0 -5 18 -11 40 -15 22 -3 40 -11
40 -16 0 -6 7 -10 15 -10 8 0 15 -4 15 -9 0 -5 20 -12 45 -15 25 -4 45 -11 45
-17 0 -5 11 -9 25 -9 14 0 25 -4 25 -9 0 -5 14 -12 30 -16 17 -4 30 -11 30
-16 0 -5 11 -9 25 -9 14 0 25 -4 25 -9 0 -5 16 -12 35 -15 19 -4 35 -11 35
-16 0 -6 11 -10 25 -10 14 0 25 -4 25 -10 0 -5 18 -13 40 -16 22 -4 40 -10 40
-15 0 -5 9 -9 20 -9 11 0 20 -4 20 -10 0 -5 18 -13 40 -16 22 -4 40 -10 40
-15 0 -5 7 -9 15 -9 8 0 15 -4 15 -9 0 -5 20 -12 45 -15 25 -4 45 -11 45 -17
0 -5 7 -9 15 -9 8 0 15 -4 15 -9 0 -5 18 -11 40 -15 22 -3 40 -11 40 -16 0 -6
9 -10 20 -10 11 0 20 -4 20 -9 0 -5 18 -11 40 -15 22 -3 40 -11 40 -16 0 -6
11 -10 25 -10 14 0 25 -4 25 -10 0 -5 16 -12 35 -16 19 -3 35 -10 35 -15 0 -5
11 -9 24 -9 13 0 27 -7 30 -16 3 -9 6 -1437 6 -3175 l0 -3159 -340 0 -340 0 0
1725 c0 1004 -4 1725 -9 1725 -5 0 -12 11 -15 24 -4 17 -15 25 -41 30 -19 4
-35 11 -35 16 0 6 -16 10 -35 10 -19 0 -35 -4 -35 -9 0 -5 -11 -12 -24 -15
-14 -3 -28 -15 -31 -26 -3 -11 -11 -20 -16 -20 -5 0 -9 -11 -9 -25 0 -14 -4
-25 -10 -25 -7 0 -10 -217 -10 -630 l0 -630 -400 0 -400 0 0 1031 0 1032 -32
31 -33 31 -2200 0 -2200 0 -32 -31 -33 -31 0 -1032 0 -1031 -400 0 -400 0 0
1400 0 1400 3065 0 3065 0 0 -475 c0 -310 3 -475 10 -475 6 0 10 -11 10 -25 0
-14 5 -25 10 -25 6 0 10 -9 10 -19 0 -13 9 -21 30 -26 17 -4 30 -11 30 -16 0
-5 16 -9 35 -9 19 0 35 4 35 10 0 5 16 12 35 16 26 5 37 13 41 30 3 13 10 24
15 24 5 0 9 249 9 585 0 383 -3 585 -10 585 -5 0 -10 8 -10 18 0 18 -33 52
-50 52 -6 0 -10 5 -10 10 0 7 -1092 10 -3255 10 -2163 0 -3255 -3 -3255 -10 0
-5 -5 -10 -11 -10 -6 0 -24 -13 -40 -29 l-29 -29 0 -2571 0 -2571 -340 0 -340
0 0 3165 c0 2807 2 3165 15 3165 8 0 15 5 15 10 0 6 7 10 15 10 8 0 15 4 15 9
0 6 20 13 45 17 25 3 45 10 45 15 0 5 7 9 15 9 8 0 15 4 15 9 0 5 18 11 40 15
22 3 40 11 40 16 0 6 9 10 20 10 11 0 20 4 20 9 0 5 18 11 40 15 22 3 40 11
40 16 0 6 11 10 25 10 14 0 25 4 25 10 0 5 16 12 35 16 19 3 35 10 35 15 0 5
11 9 25 9 14 0 25 4 25 9 0 5 14 12 30 16 17 4 30 11 30 16 0 5 11 9 25 9 14
0 25 4 25 9 0 6 20 13 45 17 25 3 45 10 45 15 0 5 7 9 15 9 8 0 15 4 15 10 0
5 18 13 40 16 22 4 40 10 40 15 0 5 9 9 20 9 11 0 20 4 20 9 0 5 18 11 40 15
22 3 40 11 40 16 0 6 7 10 15 10 8 0 15 4 15 9 0 5 20 12 45 15 25 4 45 11 45
17 0 5 7 9 15 9 8 0 15 4 15 9 0 5 18 11 40 15 22 3 40 11 40 16 0 6 11 10 25
10 14 0 25 4 25 9 0 5 16 12 35 15 19 4 35 11 35 16 0 6 11 10 25 10 14 0 25
4 25 10 0 5 18 13 40 16 22 4 40 10 40 15 0 5 9 9 20 9 11 0 20 4 20 10 0 5
18 13 40 16 22 4 40 10 40 15 0 5 7 9 15 9 8 0 15 4 15 9 0 6 20 13 45 17 25
3 45 10 45 15 0 5 7 9 15 9 8 0 15 4 15 9 0 5 18 11 40 15 22 3 40 11 40 16 0
6 9 10 20 10 11 0 20 4 20 9 0 5 18 11 40 15 22 3 40 11 40 16 0 6 11 10 25
10 14 0 25 4 25 10 0 5 16 12 35 16 19 3 35 10 35 15 0 5 11 9 25 9 14 0 25 4
25 9 0 5 13 12 30 16 17 4 30 11 30 16 0 5 11 9 25 9 14 0 25 4 25 9 0 6 20
13 45 17 25 3 45 10 45 15 0 5 7 9 15 9 8 0 15 4 15 10 0 5 18 13 40 16 22 4
40 10 40 15 0 5 9 9 20 9 11 0 20 4 20 9 0 5 18 11 40 15 22 3 40 11 40 16 0
6 7 10 15 10 8 0 15 4 15 9 0 5 20 12 45 15 25 4 45 11 45 17 0 5 7 9 15 9 8
0 15 4 15 9 0 5 18 11 40 15 22 3 40 11 40 16 0 6 11 10 25 10 14 0 25 4 25 9
0 5 16 12 35 15 19 4 35 11 35 16 0 6 11 10 25 10 14 0 25 4 25 10 0 5 18 13
40 16 22 4 40 10 40 15 0 5 9 9 20 9 11 0 20 4 20 10 0 5 18 13 40 16 22 4 40
10 40 15 0 5 7 9 15 9 8 0 15 4 15 9 0 6 20 13 45 17 25 3 45 10 45 15 0 5 7
9 15 9 8 0 15 4 15 9 0 5 18 11 40 15 22 3 40 11 40 16 0 6 9 10 20 10 11 0
20 4 20 9 0 5 18 11 40 15 22 3 40 11 40 16 0 6 11 10 25 10 14 0 25 4 25 10
0 5 16 12 35 16 19 3 35 10 35 15 0 5 11 9 25 9 14 0 25 4 25 9 0 5 14 12 30
16 17 4 30 11 30 16 0 5 11 9 25 9 14 0 25 4 25 9 0 6 20 13 45 17 25 3 45 10
45 15 0 5 7 9 15 9 8 0 15 4 15 10 0 5 18 13 40 16 22 4 40 10 40 15 0 5 9 9
20 9 11 0 20 5 20 10 0 6 7 10 15 10 8 0 15 -4 15 -10z m-1478 -4358 l3 -358
33 -32 c18 -18 42 -32 52 -32 11 0 20 -4 20 -10 0 -6 102 -10 285 -10 183 0
285 4 285 10 0 6 9 10 21 10 32 0 79 53 79 89 0 17 5 31 10 31 6 0 10 117 10
330 l0 330 265 0 265 0 0 -940 0 -940 -934 0 c-842 0 -934 2 -940 16 -3 9 -6
432 -6 940 l0 924 274 0 275 0 3 -358z m528 93 l0 -265 -135 0 -135 0 0 265 0
265 135 0 135 0 0 -265z m1600 -65 c0 -213 4 -330 10 -330 6 0 10 -14 10 -31
0 -36 47 -89 79 -89 12 0 21 -4 21 -10 0 -6 102 -10 285 -10 183 0 285 4 285
10 0 6 9 10 20 10 10 0 34 14 52 32 l33 32 3 358 3 358 275 0 274 0 0 -924 c0
-508 -3 -931 -6 -940 -6 -14 -98 -16 -940 -16 l-934 0 0 940 0 940 265 0 265
0 0 -330z m540 65 l0 -265 -135 0 -135 0 0 265 0 265 135 0 135 0 0 -265z
m-3740 -2215 c0 -216 4 -350 10 -350 5 0 12 -15 15 -34 6 -29 12 -35 41 -41
19 -3 34 -10 34 -15 0 -6 116 -10 300 -10 193 0 300 4 300 10 0 6 7 10 15 10
8 0 26 11 40 25 l25 26 0 364 0 365 275 0 275 0 0 -940 0 -940 -940 0 -940 0
0 940 0 940 275 0 275 0 0 -350z m530 75 l0 -275 -126 0 c-95 0 -129 3 -140
14 -11 12 -14 63 -14 275 l0 261 140 0 140 0 0 -275z m1600 -65 c0 -220 4
-340 10 -340 6 0 10 -11 10 -25 0 -14 4 -25 9 -25 5 0 13 -9 16 -20 3 -11 17
-23 31 -26 13 -3 24 -10 24 -15 0 -5 133 -9 305 -9 172 0 305 4 305 9 0 5 11
12 24 15 14 3 28 15 31 26 3 11 11 20 16 20 5 0 9 11 9 25 0 14 5 25 10 25 6
0 10 120 10 340 l0 340 275 0 275 0 0 -940 0 -940 -945 0 -945 0 0 940 0 940
265 0 265 0 0 -340z m540 65 l0 -275 -135 0 -135 0 0 275 0 275 135 0 135 0 0
-275z m1620 -90 l0 -364 25 -26 c14 -14 32 -25 40 -25 8 0 15 -4 15 -10 0 -6
107 -10 300 -10 184 0 300 4 300 10 0 5 15 12 34 15 29 6 35 12 41 41 3 19 10
34 15 34 6 0 10 134 10 350 l0 350 275 0 275 0 0 -940 0 -940 -940 0 -940 0 0
940 0 940 275 0 275 0 0 -365z m530 104 c0 -212 -3 -263 -14 -275 -11 -11 -45
-14 -140 -14 l-126 0 0 275 0 275 140 0 140 0 0 -261z"/>
<path d="M3280 7200 c0 -5 -6 -10 -13 -10 -8 0 -24 -9 -37 -20 -19 -17 -23
-30 -24 -83 -1 -58 1 -65 32 -95 l33 -32 994 0 994 0 33 32 c31 30 33 37 32
95 -1 53 -5 66 -24 83 -13 11 -29 20 -37 20 -7 0 -13 5 -13 10 0 7 -335 10
-985 10 -650 0 -985 -3 -985 -10z"/>
<path d="M3280 6670 c0 -5 -5 -10 -11 -10 -13 0 -39 -25 -39 -38 0 -6 -6 -12
-12 -14 -8 -3 -13 -24 -13 -59 0 -47 4 -58 31 -86 22 -24 40 -33 63 -33 17 0
31 -4 31 -10 0 -7 318 -10 935 -10 617 0 935 3 935 10 0 6 14 10 31 10 23 0
41 9 63 33 27 28 31 39 31 86 0 35 -5 56 -12 59 -7 2 -13 8 -13 14 0 13 -26
38 -39 38 -6 0 -11 5 -11 10 0 7 -335 10 -985 10 -650 0 -985 -3 -985 -10z"/>
<path d="M3266 6125 c-8 -8 -19 -15 -25 -15 -6 0 -11 -6 -11 -14 0 -8 -6 -16
-12 -18 -17 -6 -17 -130 0 -136 16 -5 39 -28 44 -44 7 -19 1999 -19 2006 0 5
16 28 39 44 44 17 6 17 130 0 136 -6 2 -12 10 -12 18 0 8 -5 14 -11 14 -6 0
-17 7 -25 15 -14 13 -138 15 -999 15 -861 0 -985 -2 -999 -15z"/>
<path d="M2435 3288 l-30 -33 0 -254 c0 -195 3 -255 13 -258 6 -3 12 -11 12
-19 0 -8 7 -14 15 -14 8 0 15 -4 15 -10 0 -5 9 -10 20 -10 11 0 20 -4 20 -10
0 -7 148 -10 425 -10 277 0 425 3 425 10 0 6 9 10 20 10 10 0 33 13 50 30 l30
29 0 256 c0 163 -4 255 -10 255 -5 0 -10 5 -10 11 0 6 -8 18 -17 27 -15 15
-62 17 -482 20 l-466 2 -30 -32z m765 -293 l0 -75 -269 0 c-305 0 -281 -8
-281 91 l0 59 275 0 275 0 0 -75z"/>
<path d="M4588 3305 c-7 -9 -19 -22 -25 -30 -7 -7 -13 -25 -13 -39 0 -14 -4
-26 -10 -26 -6 0 -10 -77 -10 -210 0 -133 4 -210 10 -210 6 0 10 -9 10 -21 0
-21 50 -79 69 -79 6 0 11 -4 11 -10 0 -7 148 -10 425 -10 277 0 425 3 425 10
0 6 9 10 21 10 11 0 27 6 34 13 8 6 21 18 30 25 8 7 15 24 15 37 0 14 5 25 10
25 6 0 10 78 10 215 0 137 -4 215 -10 215 -5 0 -10 11 -10 25 0 13 -11 36 -25
50 l-26 25 -464 0 c-405 0 -466 -2 -477 -15z m762 -296 c0 -39 -5 -65 -14 -75
-12 -11 -63 -14 -275 -14 l-261 0 0 75 0 75 275 0 275 0 0 -61z"/>
<path d="M1400 1181 c0 -5 -9 -13 -20 -16 -11 -3 -23 -17 -26 -31 -3 -13 -10
-24 -15 -24 -5 0 -9 -108 -9 -245 0 -137 4 -245 9 -245 5 0 12 -11 15 -25 4
-15 16 -27 31 -31 14 -3 25 -10 25 -15 0 -5 191 -9 445 -9 254 0 445 4 445 9
0 5 11 12 24 15 14 3 28 15 31 26 3 11 11 20 16 20 15 0 12 498 -3 516 -16 19
-33 36 -52 52 -19 15 -916 18 -916 3z m730 -316 l0 -75 -275 0 -275 0 0 75 0
75 275 0 275 0 0 -75z"/>
<path d="M3550 1180 c0 -5 -8 -10 -18 -10 -22 0 -52 -34 -52 -60 0 -11 -4 -20
-10 -20 -6 0 -10 -82 -10 -225 0 -143 4 -225 10 -225 6 0 10 -7 10 -15 0 -8 5
-15 10 -15 6 0 10 -9 10 -19 0 -12 9 -21 25 -25 14 -4 25 -11 25 -16 0 -6 162
-10 450 -10 288 0 450 4 450 10 0 5 11 12 25 16 15 4 25 13 25 24 0 10 6 20
13 23 9 3 12 62 12 252 0 190 -3 249 -12 253 -7 2 -13 12 -13 23 0 12 -9 21
-25 25 -14 3 -25 10 -25 15 0 5 -193 9 -450 9 -293 0 -450 -3 -450 -10z m720
-315 l0 -75 -266 0 c-217 0 -268 3 -280 14 -9 10 -14 36 -14 75 l0 61 280 0
280 0 0 -75z"/>
<path d="M5680 1181 c0 -5 -11 -12 -24 -15 -33 -8 -36 -32 -36 -311 l0 -243
35 -36 35 -36 445 0 c268 0 445 4 445 9 0 5 10 11 23 13 14 2 23 11 25 26 2
12 8 22 13 22 5 0 9 7 9 15 0 8 5 15 10 15 6 0 10 82 10 225 0 143 -4 225 -10
225 -5 0 -10 9 -10 20 0 26 -30 60 -52 60 -10 0 -18 5 -18 10 0 7 -157 10
-450 10 -257 0 -450 -4 -450 -9z m740 -316 l0 -75 -275 0 -275 0 0 75 0 75
275 0 275 0 0 -75z"/>
</g>
</svg>
