<?xml version="1.0" standalone="no"?>
<!DOCTYPE svg PUBLIC "-//W3C//DTD SVG 20010904//EN"
 "http://www.w3.org/TR/2001/REC-SVG-20010904/DTD/svg10.dtd">
<svg version="1.0" xmlns="http://www.w3.org/2000/svg"
 width="512.000000pt" height="512.000000pt" viewBox="0 0 512.000000 512.000000"
 preserveAspectRatio="xMidYMid meet">

<g transform="translate(0.000000,512.000000) scale(0.100000,-0.100000)"
fill="#000000" stroke="none">
<path d="M3180 4301 c-58 -12 -122 -53 -154 -99 -24 -34 -31 -56 -34 -106 -5
-81 10 -128 60 -182 52 -56 116 -78 209 -72 49 4 80 13 114 32 64 38 66 51 14
96 l-44 37 -35 -23 c-39 -27 -79 -30 -119 -10 -58 31 -71 128 -22 177 37 36
104 41 144 9 14 -11 29 -20 34 -20 5 0 26 18 48 40 38 38 38 40 20 59 -42 48
-157 78 -235 62z"/>
<path d="M2720 4075 l0 -225 75 0 75 0 -2 223 -3 222 -72 3 -73 3 0 -226z"/>
<path d="M3550 4075 l0 -225 185 0 185 0 0 55 0 55 -115 0 -115 0 0 30 0 30
95 0 95 0 0 55 0 55 -95 0 c-95 0 -95 0 -95 25 l0 25 110 0 110 0 0 60 0 60
-180 0 -180 0 0 -225z"/>
<path d="M1200 3015 l0 -295 -445 0 -445 0 0 -1354 0 -1355 483 -3 c265 -2
740 -2 1054 0 l573 3 2 302 3 302 150 0 150 0 3 -307 2 -308 368 0 c203 0 673
3 1045 7 l677 6 0 1354 0 1353 -450 0 -450 0 0 295 0 295 -1360 0 -1360 0 0
-295z m930 -145 l0 -150 -155 0 -155 0 0 150 0 150 155 0 155 0 0 -150z m600
0 l0 -150 -155 0 -155 0 0 150 0 150 155 0 155 0 0 -150z m598 3 l-3 -148
-150 0 -150 0 -3 148 -3 147 156 0 156 0 -3 -147z m-2128 -598 l0 -155 -145 0
-145 0 0 155 0 155 145 0 145 0 0 -155z m930 -5 l0 -150 -155 0 -155 0 0 150
0 150 155 0 155 0 0 -150z m600 0 l0 -150 -155 0 -155 0 0 150 0 150 155 0
155 0 0 -150z m598 3 l-3 -148 -150 0 -150 0 -3 148 -3 147 156 0 156 0 -3
-147z m882 -3 l0 -150 -145 0 -145 0 0 150 0 150 145 0 145 0 0 -150z m-2082
-582 l-3 -153 -150 0 -150 0 -3 153 -3 152 156 0 156 0 -3 -152z m600 0 l-3
-153 -150 0 -150 0 -3 153 -3 152 156 0 156 0 -3 -152z m600 0 l3 -148 -156 0
-155 0 0 143 c0 79 3 147 7 151 4 3 72 5 152 4 l146 -3 3 -147z m-2128 -13 l0
-155 -145 0 -145 0 0 155 0 155 145 0 145 0 0 -155z m3010 -5 l0 -150 -145 0
-145 0 0 150 0 150 145 0 145 0 0 -150z m-2082 -582 l-3 -153 -150 0 -150 0
-3 153 -3 152 156 0 156 0 -3 -152z m600 0 l-3 -153 -150 0 -150 0 -3 153 -3
152 156 0 156 0 -3 -152z m600 0 l3 -148 -156 0 -155 0 0 143 c0 79 3 147 7
151 4 3 72 5 152 4 l146 -3 3 -147z m-2128 -13 l0 -155 -145 0 -145 0 0 155 0
155 145 0 145 0 0 -155z m3010 -5 l0 -150 -145 0 -145 0 0 150 0 150 145 0
145 0 0 -150z"/>
</g>
</svg>
