<?xml version="1.0" standalone="no"?>
<!DOCTYPE svg PUBLIC "-//W3C//DTD SVG 20010904//EN"
 "http://www.w3.org/TR/2001/REC-SVG-20010904/DTD/svg10.dtd">
<svg version="1.0" xmlns="http://www.w3.org/2000/svg"
 width="641.000000pt" height="641.000000pt" viewBox="0 0 641.000000 641.000000"
 preserveAspectRatio="xMidYMid meet">

<g transform="translate(0.000000,641.000000) scale(0.100000,-0.100000)"
fill="#000000" stroke="none">
<path d="M2301 6296 c-25 -6 -46 -17 -49 -24 -2 -7 -9 -12 -15 -12 -15 0 -87
-73 -87 -88 0 -6 -6 -15 -13 -19 -29 -18 -37 -90 -37 -339 0 -228 8 -318 29
-334 3 -3 15 -18 24 -33 17 -27 17 -31 2 -63 -9 -19 -20 -34 -24 -34 -16 0
-34 -109 -28 -175 l6 -65 -74 0 c-85 0 -175 -18 -182 -37 -3 -7 -10 -13 -17
-13 -14 0 -86 -74 -86 -88 0 -6 -6 -15 -13 -19 -33 -20 -37 -86 -37 -567 l0
-476 -100 0 c-121 0 -294 -18 -298 -31 -2 -5 -13 -9 -25 -9 -29 0 -161 -32
-167 -40 -3 -4 -33 -15 -67 -25 -35 -10 -63 -22 -63 -26 0 -3 -21 -14 -47 -24
-26 -10 -56 -27 -67 -37 -11 -10 -25 -18 -32 -18 -7 0 -19 -6 -26 -13 -7 -7
-29 -22 -48 -33 -19 -10 -41 -27 -48 -36 -7 -10 -18 -18 -24 -18 -6 0 -20 -9
-32 -20 -12 -11 -60 -57 -108 -102 -49 -46 -88 -88 -88 -94 0 -7 -11 -19 -25
-28 -14 -9 -25 -23 -25 -32 0 -8 -7 -17 -15 -20 -8 -4 -23 -23 -32 -43 -9 -20
-23 -40 -30 -44 -7 -4 -13 -14 -13 -21 0 -7 -8 -21 -18 -32 -10 -11 -27 -41
-37 -67 -10 -26 -21 -47 -25 -47 -4 0 -16 -27 -26 -60 -10 -33 -21 -60 -25
-60 -5 0 -11 -15 -14 -33 -4 -19 -20 -49 -36 -68 -16 -19 -31 -50 -34 -74 -4
-22 -5 -193 -3 -380 3 -357 5 -368 50 -402 9 -7 19 -31 23 -53 4 -22 10 -40
15 -40 4 0 16 -25 25 -55 10 -30 21 -55 25 -55 4 0 15 -21 25 -48 10 -26 21
-49 25 -52 4 -3 15 -20 25 -39 9 -19 26 -43 36 -54 10 -12 19 -27 19 -34 0 -7
9 -17 20 -23 11 -6 20 -17 20 -25 0 -8 8 -20 18 -27 9 -7 25 -24 33 -38 21
-32 127 -138 159 -159 14 -8 31 -24 38 -33 7 -10 19 -18 27 -18 8 0 19 -9 25
-20 6 -11 16 -20 23 -20 7 0 23 -9 35 -21 13 -11 38 -27 57 -35 19 -8 35 -18
35 -23 0 -4 21 -16 47 -26 27 -10 53 -24 60 -31 7 -6 35 -17 63 -24 27 -7 50
-16 50 -20 0 -5 34 -16 75 -25 41 -9 75 -20 75 -24 0 -13 163 -32 318 -38
l152 -6 0 -275 c0 -275 7 -347 37 -365 7 -4 13 -13 13 -19 0 -14 72 -88 86
-88 7 0 14 -6 17 -13 14 -36 60 -37 2155 -37 2119 0 2127 0 2140 38 2 7 9 12
16 12 16 0 86 70 86 86 0 7 5 14 12 16 38 13 38 12 38 2348 0 2336 0 2335 -38
2348 -7 2 -12 9 -12 16 0 6 -20 32 -45 58 -54 56 -117 78 -229 78 l-76 0 0
518 c0 337 -4 530 -11 556 -14 49 -66 101 -115 115 -56 16 -900 15 -945 -1
-37 -13 -99 -65 -99 -84 0 -7 -6 -14 -12 -16 -10 -4 -14 -124 -16 -546 l-3
-542 -104 0 -104 0 6 70 c6 66 -10 160 -26 160 -4 0 -15 17 -24 39 -17 37 -16
40 0 72 10 19 21 37 26 40 20 15 27 95 27 323 0 249 -8 321 -37 339 -7 4 -13
13 -13 19 0 14 -72 88 -86 88 -7 0 -14 6 -17 13 -13 34 -92 37 -1055 36 -694
-1 -959 -4 -991 -13z m1957 -206 c38 -25 44 -70 40 -303 l-3 -218 -25 -19
c-14 -11 -33 -20 -42 -20 -10 0 -18 -4 -18 -10 0 -7 -310 -10 -910 -10 -600 0
-910 3 -910 10 0 6 -8 10 -17 10 -10 0 -29 9 -43 20 l-25 19 -3 218 c-4 272 0
290 78 317 8 2 429 4 935 3 799 -2 923 -4 943 -17z m1442 -480 l0 -500 -75 0
-74 0 -190 190 -189 189 -71 -71 c-60 -60 -69 -73 -58 -86 6 -8 56 -58 109
-111 54 -53 98 -99 98 -103 0 -5 -79 -8 -175 -8 l-175 0 0 500 0 500 400 0
400 0 0 -500z m-1454 -312 c63 -22 70 -147 9 -162 -14 -4 -25 -11 -25 -16 0
-7 -329 -10 -930 -10 -601 0 -930 3 -930 10 0 5 -11 12 -25 16 -57 14 -54 138
4 161 39 16 1854 17 1897 1z m1799 -399 c51 -19 55 -45 55 -332 l0 -257 -2100
0 -2100 0 0 257 c0 278 5 313 49 331 39 15 4054 16 4096 1z m53 -2669 c-3
-1789 -4 -1880 -21 -1897 -17 -17 -115 -18 -2063 -21 -2261 -2 -2097 -7 -2109
61 -3 17 -5 151 -3 297 l3 265 25 4 c14 1 27 6 30 10 3 4 40 15 83 25 42 10
77 21 77 25 0 4 27 15 60 25 33 10 60 22 60 26 0 4 21 15 47 25 26 10 56 27
67 37 11 10 25 18 32 18 7 0 17 6 21 13 4 6 23 20 42 31 35 19 54 34 95 74 13
12 27 22 31 22 4 0 45 39 91 88 115 121 124 131 124 142 0 6 5 10 10 10 6 0
10 -5 10 -11 0 -14 9 -24 127 -142 117 -117 135 -133 156 -140 9 -4 17 -11 17
-16 0 -6 17 -18 38 -27 20 -10 41 -24 45 -31 4 -7 15 -13 22 -13 10 0 15 -10
15 -30 0 -16 -4 -30 -8 -30 -9 0 -35 -420 -26 -429 3 -3 8 -1 12 5 4 6 28 19
55 29 26 10 47 21 47 24 0 4 23 15 50 25 28 10 50 21 50 25 0 9 94 41 121 41
11 0 19 5 19 10 0 6 40 10 100 10 55 0 100 -4 100 -9 0 -5 17 -11 38 -15 20
-3 53 -10 73 -16 34 -9 37 -14 44 -55 3 -25 9 -45 13 -45 4 0 16 -20 27 -45
11 -25 23 -45 27 -45 5 0 17 -9 27 -19 26 -26 102 -51 155 -51 49 0 146 26
146 40 0 5 17 17 38 26 20 10 40 23 44 30 4 6 21 17 38 24 16 7 30 16 30 21 0
22 27 6 44 -25 10 -19 26 -37 35 -40 18 -6 49 -26 68 -43 17 -16 103 -33 164
-33 57 0 189 28 189 40 0 4 16 11 36 14 19 4 44 16 55 27 10 10 23 19 27 19
11 0 72 60 72 70 0 5 7 16 16 25 20 19 44 113 44 171 0 50 -30 227 -39 234 -4
3 -16 53 -26 113 -11 59 -23 107 -27 107 -4 0 -8 14 -8 30 0 17 4 30 8 30 4 0
16 15 27 32 10 18 27 39 37 46 10 7 18 19 18 27 0 8 9 19 20 25 11 6 20 16 20
23 0 7 9 22 19 34 10 11 27 35 36 54 10 19 21 36 25 39 4 3 15 26 25 52 10 27
21 48 25 48 4 0 15 25 25 55 9 30 20 55 25 55 4 0 16 38 26 85 10 47 22 85 25
85 17 0 34 188 34 365 -1 175 -17 342 -34 355 -4 3 -15 40 -25 83 -10 42 -21
77 -25 77 -4 0 -15 27 -25 60 -10 33 -22 60 -26 60 -4 0 -15 21 -25 47 -10 26
-26 56 -36 66 -9 11 -20 31 -24 45 -3 14 -15 32 -26 40 -10 7 -19 18 -19 24 0
6 -6 18 -14 27 -8 9 -26 29 -40 44 -14 15 -26 31 -26 35 0 11 -176 182 -187
182 -6 0 -18 11 -27 25 -9 14 -23 25 -31 25 -8 0 -18 6 -22 13 -9 14 -41 35
-65 43 -10 4 -18 10 -18 14 0 4 -20 16 -45 27 -25 10 -45 21 -45 24 0 4 -22
15 -50 25 -27 10 -50 21 -50 25 0 4 -27 16 -60 26 -33 9 -60 20 -60 24 0 4
-39 15 -87 25 -49 10 -90 21 -93 25 -8 11 -201 29 -310 29 -109 0 -302 -18
-310 -29 -3 -4 -44 -15 -92 -25 -49 -10 -88 -22 -88 -26 0 -5 -23 -13 -50 -20
-28 -7 -56 -17 -63 -24 -7 -6 -31 -18 -55 -26 -24 -7 -46 -19 -50 -25 -4 -6
-23 -17 -42 -25 -19 -7 -40 -18 -45 -24 -6 -6 -26 -20 -45 -30 -19 -11 -40
-25 -46 -30 -7 -6 -27 -22 -45 -36 -42 -32 -219 -206 -219 -215 0 -3 -13 -20
-30 -37 -16 -16 -30 -24 -30 -18 0 7 -11 21 -25 32 -14 11 -25 23 -25 28 0 12
-157 170 -169 170 -6 0 -16 8 -23 18 -7 10 -28 27 -45 37 -18 11 -33 22 -33
26 0 4 -16 14 -35 23 -19 9 -35 20 -35 24 0 4 -20 16 -45 27 -25 11 -45 23
-45 26 0 4 -22 15 -50 25 -27 10 -50 21 -50 25 0 5 -27 16 -60 25 -33 9 -60
20 -60 24 0 4 -39 16 -87 26 -49 10 -91 22 -95 28 -4 6 -8 59 -8 119 l0 107
2100 0 2100 0 -2 -1880z m-4342 1469 c60 -6 111 -14 114 -18 3 -4 44 -15 93
-25 48 -10 87 -22 87 -27 0 -4 25 -15 55 -24 30 -8 55 -19 55 -23 0 -5 23 -16
50 -26 28 -10 50 -22 50 -27 0 -4 17 -16 37 -26 38 -18 55 -30 97 -70 13 -13
27 -23 31 -23 11 0 175 -168 175 -179 0 -5 8 -16 18 -23 10 -7 27 -29 38 -48
10 -19 25 -39 32 -43 6 -4 12 -15 12 -22 0 -8 8 -23 19 -34 10 -10 26 -39 36
-65 10 -25 21 -46 24 -46 4 0 16 -28 26 -62 10 -35 21 -65 25 -68 8 -6 40
-153 40 -184 0 -14 6 -26 12 -28 10 -4 13 -54 13 -198 0 -144 -3 -194 -13
-198 -6 -2 -12 -17 -12 -34 0 -34 -31 -170 -40 -178 -3 -3 -14 -33 -25 -67
-10 -35 -22 -63 -26 -63 -4 0 -15 -23 -25 -50 -10 -28 -22 -50 -26 -50 -4 0
-14 -16 -22 -35 -8 -19 -19 -35 -23 -35 -4 0 -14 -15 -22 -32 -16 -36 -13 -33
-138 -165 -49 -51 -91 -93 -95 -93 -4 0 -20 -12 -35 -26 -43 -39 -56 -48 -88
-64 -16 -8 -33 -20 -38 -27 -4 -6 -23 -17 -42 -23 -19 -6 -35 -15 -35 -19 0
-4 -26 -16 -57 -27 -32 -10 -63 -24 -70 -30 -7 -6 -41 -17 -77 -24 -37 -7 -66
-16 -66 -20 0 -15 -177 -34 -320 -34 -137 -1 -320 18 -320 33 0 3 -36 15 -80
25 -44 11 -80 23 -80 27 0 4 -25 15 -55 24 -30 8 -55 19 -55 23 0 4 -20 16
-45 27 -25 11 -45 22 -45 26 0 4 -14 12 -30 19 -17 7 -34 18 -38 24 -4 6 -20
20 -35 29 -75 48 -256 234 -257 264 0 7 -9 17 -20 23 -11 6 -20 16 -20 23 0 7
-8 22 -18 33 -10 10 -26 37 -36 59 -11 22 -22 42 -25 45 -10 8 -31 59 -31 75
0 10 20 15 77 18 43 2 88 7 99 11 19 7 24 3 34 -28 6 -20 15 -36 20 -36 5 0
17 -17 27 -37 18 -38 30 -55 71 -97 12 -13 22 -27 22 -30 0 -12 125 -136 137
-136 6 0 13 -7 17 -15 3 -8 17 -20 31 -25 14 -5 25 -14 25 -20 0 -6 18 -17 40
-26 22 -9 40 -20 40 -24 0 -4 21 -15 48 -25 26 -10 50 -22 53 -27 3 -5 32 -16
65 -24 32 -9 61 -19 64 -23 23 -34 372 -52 525 -27 54 9 102 20 105 24 3 5 35
16 73 26 37 10 67 22 67 26 0 4 23 16 50 26 28 10 50 22 50 26 0 4 16 14 35
22 19 8 35 19 35 24 0 5 10 14 23 20 48 22 184 152 214 204 10 15 21 28 25 28
4 0 15 15 24 32 9 18 20 35 23 38 3 3 15 23 26 45 11 22 25 45 30 51 6 6 17
31 25 55 8 24 17 46 20 49 9 8 40 127 40 154 0 13 6 26 13 29 9 3 12 53 12
207 0 154 -3 204 -12 208 -7 2 -13 12 -13 23 0 27 -32 153 -40 159 -4 3 -15
29 -25 58 -11 28 -22 52 -26 52 -4 0 -12 15 -19 34 -6 19 -22 47 -35 62 -14
16 -25 33 -25 38 0 5 -9 18 -20 30 -72 76 -140 151 -140 156 0 3 -15 14 -32
25 -18 10 -39 27 -46 37 -7 10 -20 18 -28 18 -8 0 -17 6 -20 14 -3 8 -26 23
-50 33 -24 10 -44 21 -44 24 0 4 -22 15 -50 25 -27 10 -50 21 -50 25 0 4 -33
15 -72 24 -40 10 -75 21 -78 25 -9 13 -160 30 -267 30 -113 0 -283 -18 -283
-30 0 -3 -34 -15 -75 -25 -41 -11 -75 -22 -75 -26 0 -4 -22 -15 -50 -25 -27
-10 -50 -21 -50 -24 0 -4 -19 -15 -42 -26 -24 -10 -49 -27 -56 -36 -7 -10 -19
-18 -27 -18 -8 0 -19 -9 -25 -20 -6 -11 -16 -20 -22 -20 -6 0 -39 -30 -74 -67
-84 -90 -90 -97 -111 -130 -10 -15 -26 -37 -35 -47 -10 -11 -18 -26 -18 -33 0
-8 -6 -16 -14 -19 -7 -3 -19 -23 -26 -45 -14 -42 -23 -47 -46 -24 -11 11 -37
15 -90 15 -58 0 -74 3 -74 15 0 19 21 66 37 83 7 7 13 19 13 26 0 7 8 21 18
32 10 10 26 36 35 57 10 20 22 37 28 37 5 0 14 11 19 25 5 14 17 28 25 31 8 4
15 12 15 18 0 13 147 166 159 166 6 0 34 22 94 75 10 9 34 23 55 33 20 9 44
25 54 35 10 9 24 17 32 17 8 0 21 6 28 13 7 8 40 22 73 32 33 10 62 22 65 25
7 9 122 40 147 40 12 0 23 4 25 9 8 24 262 36 424 20z m2403 0 c64 -6 118 -15
119 -20 2 -5 11 -9 20 -9 25 0 146 -32 152 -40 3 -4 29 -15 58 -24 28 -10 52
-21 52 -25 0 -4 23 -15 50 -25 28 -10 50 -21 50 -25 0 -3 17 -15 38 -26 20
-11 41 -25 45 -32 4 -7 14 -13 22 -13 8 0 20 -8 27 -18 7 -9 25 -25 39 -34 30
-19 169 -158 169 -170 0 -4 12 -20 26 -35 39 -43 48 -56 64 -88 8 -16 21 -36
29 -44 7 -8 18 -27 23 -43 6 -15 13 -28 17 -28 4 0 16 -26 27 -57 10 -32 24
-63 30 -70 6 -7 17 -41 24 -77 7 -37 16 -66 20 -66 15 0 34 -177 34 -320 0
-144 -18 -320 -34 -330 -4 -3 -16 -36 -25 -75 -10 -38 -21 -72 -24 -75 -4 -3
-15 -27 -26 -55 -10 -27 -21 -52 -25 -55 -4 -3 -15 -23 -26 -45 -10 -22 -26
-49 -36 -59 -10 -11 -18 -26 -18 -33 0 -14 -37 -37 -43 -26 -3 5 -8 32 -12 61
-4 28 -10 52 -14 52 -5 0 -13 30 -19 66 -10 62 -4 104 18 124 8 7 40 108 40
125 0 7 4 15 9 17 16 6 41 190 41 307 0 114 -23 300 -39 311 -4 3 -15 35 -25
73 -10 37 -22 67 -26 67 -4 0 -15 21 -25 48 -10 26 -21 49 -25 52 -4 3 -15 20
-24 38 -9 17 -21 32 -26 32 -6 0 -10 6 -10 13 -1 29 -183 216 -257 264 -15 10
-37 26 -47 35 -11 10 -25 18 -32 18 -7 0 -19 6 -26 13 -7 7 -34 22 -61 32 -26
10 -47 21 -47 25 0 3 -34 14 -75 24 -41 10 -75 21 -75 25 0 12 -171 31 -283
31 -107 0 -258 -17 -267 -30 -3 -4 -38 -15 -77 -25 -40 -9 -73 -20 -73 -24 0
-4 -22 -15 -50 -25 -27 -10 -50 -21 -50 -25 0 -3 -18 -14 -40 -24 -22 -9 -49
-25 -60 -34 -11 -10 -28 -25 -39 -34 -10 -9 -32 -24 -48 -34 -16 -9 -38 -29
-48 -45 -10 -15 -30 -35 -45 -45 -15 -10 -35 -33 -45 -52 -10 -18 -22 -33 -27
-33 -4 0 -16 -16 -25 -35 -9 -19 -20 -35 -24 -35 -5 0 -16 -17 -26 -37 -31
-66 -41 -70 -54 -18 -6 25 -15 45 -19 45 -5 0 -16 25 -25 55 -10 30 -22 55
-26 55 -17 0 -9 35 11 48 11 7 20 17 20 24 0 6 9 20 20 32 11 12 57 60 102
108 46 49 87 88 92 88 5 0 19 10 32 23 42 40 59 52 97 70 20 10 37 22 37 26 0
5 23 17 50 27 28 10 50 21 50 26 0 4 25 15 55 23 30 9 55 20 55 24 0 5 39 17
88 27 48 10 89 21 92 25 6 9 157 26 249 28 36 0 117 -4 180 -10z m-2422 -400
c43 -6 80 -14 83 -18 3 -4 31 -13 63 -20 31 -7 63 -18 70 -25 7 -7 24 -16 38
-19 14 -4 36 -16 49 -27 13 -11 28 -20 34 -20 6 0 27 -14 46 -30 19 -16 38
-30 41 -30 8 0 139 -131 139 -139 0 -3 14 -22 30 -41 16 -19 30 -40 30 -46 0
-6 9 -21 20 -34 11 -13 25 -40 30 -61 6 -21 15 -39 20 -41 5 -2 18 -39 27 -83
9 -44 22 -83 27 -87 17 -11 15 -340 -2 -346 -6 -2 -12 -11 -12 -21 0 -32 -30
-133 -44 -146 -7 -8 -17 -30 -20 -49 -4 -20 -13 -39 -20 -43 -7 -5 -21 -26
-32 -48 -10 -22 -26 -46 -36 -53 -10 -7 -18 -18 -18 -23 0 -5 -30 -39 -67 -74
-89 -85 -95 -89 -134 -111 -18 -11 -40 -25 -47 -31 -7 -7 -17 -13 -22 -13 -5
0 -15 -6 -22 -13 -7 -7 -40 -21 -73 -32 -33 -11 -62 -23 -65 -26 -13 -16 -158
-34 -275 -34 -117 0 -262 18 -275 34 -3 3 -30 15 -60 25 -30 11 -57 22 -60 25
-3 3 -18 13 -35 21 -16 8 -39 23 -49 33 -11 9 -26 17 -33 17 -7 0 -17 9 -23
20 -6 11 -16 20 -22 20 -14 0 -138 121 -138 135 0 6 -9 16 -20 23 -11 7 -20
19 -20 27 0 8 -6 18 -12 22 -7 4 -22 26 -33 48 -11 22 -22 42 -25 45 -3 3 -14
31 -25 63 -11 31 -22 57 -26 57 -14 0 -34 162 -34 280 0 114 18 258 34 270 4
3 15 33 26 68 10 34 21 62 25 62 4 0 16 19 26 42 10 24 26 50 34 60 8 9 24 29
35 44 33 44 142 154 154 154 5 0 16 8 23 18 7 9 31 26 53 37 22 11 44 26 48
33 4 6 14 12 22 12 7 0 20 6 27 13 15 14 111 47 138 47 10 0 20 4 22 10 8 24
240 36 365 19z m2403 0 c47 -5 87 -14 88 -20 2 -5 11 -9 21 -9 26 0 111 -31
111 -40 0 -4 16 -11 35 -14 19 -4 38 -13 42 -20 5 -7 26 -21 48 -32 22 -10 46
-26 53 -36 7 -10 18 -18 23 -18 5 0 39 -30 74 -67 85 -89 89 -95 111 -134 11
-18 25 -40 32 -47 6 -7 12 -17 12 -22 0 -5 6 -15 13 -22 7 -7 21 -40 32 -73
11 -33 23 -62 26 -65 29 -24 46 -382 21 -440 -6 -14 -11 -19 -11 -13 -1 12
-48 59 -108 111 -12 10 -41 25 -65 32 -24 8 -46 19 -50 25 -11 15 -280 13
-286 -3 -2 -6 -11 -12 -19 -12 -22 0 -127 -33 -133 -42 -3 -3 -28 -14 -55 -24
-28 -9 -52 -19 -55 -23 -3 -3 -26 -13 -51 -23 l-47 -16 -50 48 c-27 27 -69 57
-93 66 -24 10 -47 22 -51 28 -10 15 -206 15 -216 0 -4 -6 -27 -18 -50 -27 -39
-16 -142 -107 -142 -126 0 -4 -8 -16 -18 -27 -10 -10 -26 -39 -36 -64 -10 -25
-22 -48 -27 -51 -5 -3 -14 -43 -20 -90 -20 -151 -23 -157 -53 -85 -10 25 -24
47 -32 50 -7 3 -16 21 -20 40 -3 20 -10 36 -14 36 -8 0 -40 90 -40 114 0 8 -5
16 -10 18 -6 2 -16 54 -22 116 -9 88 -9 138 0 220 6 58 15 108 19 111 5 3 16
37 26 76 10 38 21 72 25 75 5 3 14 20 21 38 8 17 17 32 21 32 5 0 12 12 18 28
5 15 21 41 36 57 14 17 26 33 26 36 0 8 131 139 139 139 3 0 20 12 36 26 17
15 42 31 58 36 15 6 27 13 27 18 0 4 15 13 33 21 17 7 34 16 37 21 3 4 37 15
75 25 39 10 72 21 75 25 18 23 233 33 360 17z m-3640 -889 l0 -300 -100 0
-100 0 0 300 0 300 100 0 100 0 0 -300z m4100 -218 c3 -4 21 -15 41 -25 19
-10 44 -33 54 -50 10 -18 22 -35 27 -38 4 -3 15 -48 24 -100 9 -52 19 -96 23
-99 4 -3 13 -39 20 -80 8 -41 17 -77 20 -80 8 -6 41 -175 41 -208 0 -12 4 -22
8 -22 5 0 17 -46 27 -102 10 -57 21 -105 25 -108 4 -3 15 -50 25 -105 10 -55
21 -102 25 -105 4 -3 14 -47 22 -98 21 -126 11 -176 -40 -200 -21 -9 -39 -20
-42 -24 -8 -10 -136 -39 -152 -34 -7 2 -25 7 -40 10 -29 7 -78 52 -78 73 0 7
-4 13 -9 13 -15 0 -19 23 -32 172 -7 78 -15 145 -19 148 -4 3 -15 105 -25 228
-10 122 -22 222 -27 222 -4 0 -8 26 -8 58 0 84 -1 85 -114 76 l-98 -7 7 -106
c4 -58 11 -108 15 -111 4 -3 15 -104 25 -225 10 -121 22 -222 25 -225 10 -7
21 -173 13 -186 -5 -6 -24 -19 -43 -30 -19 -10 -39 -25 -43 -31 -4 -7 -13 -13
-20 -13 -7 0 -25 -11 -41 -25 -52 -45 -118 -46 -130 -3 -3 13 -6 278 -6 591
l0 567 -100 0 -100 0 0 -469 0 -468 -47 10 c-27 6 -51 15 -55 21 -9 14 -277
14 -286 0 -4 -6 -24 -14 -44 -18 -38 -7 -38 -7 -38 26 -1 82 34 614 40 618 4
3 11 73 14 155 8 150 21 245 35 245 4 0 14 18 21 41 8 22 22 45 32 50 10 5 18
16 18 25 0 8 11 19 25 24 14 5 25 14 25 20 0 6 26 10 60 10 33 0 60 -4 60 -8
0 -5 10 -14 23 -20 21 -10 21 -11 -10 -17 -18 -4 -33 -11 -33 -15 0 -4 -18
-13 -40 -20 -27 -9 -40 -19 -40 -32 0 -10 4 -18 9 -18 5 0 17 -25 26 -55 8
-30 20 -55 25 -55 6 0 10 -8 10 -18 0 -10 3 -21 6 -25 7 -7 64 12 64 22 0 4
29 16 65 26 36 11 65 23 65 27 0 4 25 15 55 24 30 10 55 21 55 25 0 4 25 15
55 24 30 8 55 19 55 23 0 4 29 17 65 27 36 11 65 23 65 26 0 8 92 39 114 39 9
0 16 4 16 9 0 19 176 21 190 3z m-1558 -326 c10 -11 18 -25 18 -32 0 -7 6 -19
13 -26 7 -7 22 -26 33 -43 25 -39 39 -55 98 -114 l49 -49 -2 -84 c-2 -46 -6
-101 -10 -123 l-7 -40 -27 28 c-15 15 -31 27 -35 27 -12 0 -146 134 -167 166
-10 16 -24 33 -32 37 -7 4 -13 14 -13 22 0 8 -9 20 -20 27 -20 13 -28 48 -10
48 5 0 17 25 25 55 9 30 20 55 24 55 5 0 14 21 22 47 7 26 15 41 17 33 3 -8
13 -23 24 -34z"/>
<path d="M2800 5810 l0 -100 650 0 650 0 0 100 0 100 -650 0 -650 0 0 -100z"/>
<path d="M5095 5914 c-33 -35 -61 -66 -63 -68 -2 -2 462 -470 492 -495 10 -8
29 5 79 55 37 36 67 70 67 75 0 16 -488 499 -502 498 -7 -1 -40 -30 -73 -65z"/>
<path d="M2300 4610 l0 -100 100 0 100 0 0 100 0 100 -100 0 -100 0 0 -100z"/>
<path d="M2700 4610 l0 -100 100 0 100 0 0 100 0 100 -100 0 -100 0 0 -100z"/>
<path d="M3100 4610 l0 -100 100 0 100 0 0 100 0 100 -100 0 -100 0 0 -100z"/>
<path d="M3900 4610 l0 -100 300 0 300 0 0 100 0 100 -300 0 -300 0 0 -100z"/>
<path d="M4700 4610 l0 -100 400 0 400 0 0 100 0 100 -400 0 -400 0 0 -100z"/>
</g>
</svg>
