<?xml version="1.0" standalone="no"?>
<!DOCTYPE svg PUBLIC "-//W3C//DTD SVG 20010904//EN"
 "http://www.w3.org/TR/2001/REC-SVG-20010904/DTD/svg10.dtd">
<svg version="1.0" xmlns="http://www.w3.org/2000/svg"
 width="641.000000pt" height="641.000000pt" viewBox="0 0 641.000000 641.000000"
 preserveAspectRatio="xMidYMid meet">

<g transform="translate(0.000000,641.000000) scale(0.100000,-0.100000)"
fill="#000000" stroke="none">
<path d="M6140 6393 c-25 -8 -51 -24 -58 -34 -7 -11 -18 -19 -24 -19 -6 0 -21
-10 -34 -22 -37 -36 -61 -55 -91 -75 -15 -10 -34 -26 -41 -35 -7 -10 -19 -18
-26 -18 -8 0 -21 -11 -30 -25 -9 -14 -21 -25 -28 -25 -6 0 -21 -10 -34 -22
-37 -36 -61 -55 -91 -75 -15 -10 -36 -28 -46 -40 -10 -13 -22 -23 -27 -23 -5
0 -20 -10 -33 -22 -13 -13 -39 -34 -57 -48 -18 -14 -51 -42 -73 -62 -22 -21
-42 -38 -46 -38 -3 0 -20 -13 -38 -28 -17 -15 -46 -38 -64 -52 -18 -14 -45
-37 -60 -52 -15 -16 -32 -28 -37 -28 -6 0 -17 -8 -24 -18 -7 -9 -26 -26 -43
-36 -16 -11 -36 -28 -43 -38 -7 -10 -19 -18 -26 -18 -8 0 -21 -11 -30 -25 -9
-14 -21 -25 -27 -25 -10 0 -20 -8 -108 -90 -24 -22 -47 -40 -51 -40 -3 0 -20
-13 -36 -30 -16 -16 -34 -30 -39 -30 -6 0 -23 -12 -37 -27 -36 -37 -61 -58
-95 -80 -15 -10 -36 -28 -46 -40 -10 -13 -22 -23 -27 -23 -8 0 -66 -49 -120
-102 -15 -16 -32 -28 -37 -28 -4 0 -23 -16 -42 -35 -19 -19 -37 -35 -41 -35
-4 0 -27 -18 -51 -40 -86 -80 -98 -90 -104 -90 -4 0 -20 -12 -35 -27 -54 -54
-112 -103 -120 -103 -5 0 -17 -10 -27 -23 -10 -13 -30 -31 -45 -41 -16 -10
-47 -36 -70 -58 -86 -78 -97 -88 -104 -88 -4 0 -21 -13 -38 -30 -76 -72 -118
-109 -144 -125 -15 -10 -31 -24 -35 -32 -8 -14 -102 75 -465 440 -726 730
-1487 1487 -1494 1487 -6 0 -23 12 -38 28 -53 51 -65 59 -105 73 -22 8 -42 17
-45 21 -3 4 -40 13 -81 19 -77 12 -215 1 -228 -18 -3 -5 -25 -15 -49 -22 -24
-6 -46 -19 -49 -27 -3 -8 -11 -14 -18 -14 -20 0 -972 -958 -977 -983 -7 -40 6
-82 30 -92 12 -5 22 -13 22 -17 0 -5 14 -8 30 -8 17 0 30 5 30 10 0 6 5 10 12
10 6 0 169 158 361 350 192 193 351 350 353 350 8 0 134 -133 134 -141 0 -6
-158 -168 -351 -361 -309 -309 -352 -356 -356 -387 -7 -52 30 -93 84 -95 39
-1 45 4 384 344 190 190 352 351 361 358 13 10 26 2 87 -57 39 -39 71 -73 71
-76 0 -3 -160 -166 -355 -361 -331 -331 -355 -358 -355 -390 0 -42 15 -74 35
-74 8 0 15 -4 15 -10 0 -5 16 -10 35 -10 19 0 35 5 35 10 0 6 5 10 11 10 7 0
169 158 361 350 l348 351 70 -72 c60 -61 68 -74 58 -87 -7 -9 -167 -170 -354
-358 -197 -198 -344 -353 -348 -367 -9 -38 11 -83 45 -97 63 -26 70 -20 439
350 192 192 354 350 360 350 11 0 140 -124 140 -134 0 -3 -156 -163 -347 -355
-192 -192 -354 -356 -361 -365 -13 -17 -17 -66 -4 -66 4 0 12 -10 17 -22 6
-13 20 -24 33 -26 12 -2 22 -8 22 -13 0 -15 28 -10 51 9 12 9 179 173 371 364
l349 348 69 -71 c39 -39 70 -76 70 -81 0 -5 -160 -169 -355 -363 -381 -380
-375 -371 -343 -439 12 -28 60 -43 103 -32 15 4 162 142 364 344 185 185 344
343 353 350 13 10 26 2 87 -57 l71 -70 -355 -355 c-195 -195 -355 -362 -355
-370 0 -9 -4 -16 -10 -16 -5 0 -10 -7 -10 -15 0 -8 5 -15 10 -15 6 0 10 -8 10
-19 0 -34 56 -59 105 -47 14 4 171 153 374 356 192 193 352 350 356 350 8 0
135 -130 135 -139 0 -4 -160 -168 -355 -363 -334 -335 -355 -358 -355 -391 0
-51 39 -92 88 -91 35 0 56 19 396 360 l359 360 109 -109 109 -109 -38 -39
c-21 -21 -41 -39 -46 -39 -4 0 -27 -20 -50 -45 -24 -25 -47 -45 -52 -45 -4 0
-27 -20 -51 -45 -23 -25 -46 -45 -51 -45 -5 0 -28 -20 -51 -45 -23 -25 -46
-45 -51 -45 -5 0 -26 -18 -47 -40 -22 -22 -42 -40 -46 -40 -4 0 -29 -21 -57
-47 -54 -53 -154 -143 -216 -197 -22 -19 -67 -60 -100 -90 -33 -31 -63 -56
-66 -56 -6 0 -85 -74 -205 -190 -28 -28 -56 -50 -63 -50 -6 0 -17 -11 -23 -25
-6 -14 -15 -25 -21 -25 -5 0 -31 -23 -58 -50 -27 -28 -53 -50 -58 -50 -5 0
-31 -22 -58 -50 -26 -27 -53 -50 -60 -50 -7 0 -17 -9 -23 -20 -6 -11 -15 -20
-21 -20 -5 0 -34 24 -63 52 -29 29 -65 62 -80 73 -15 11 -35 27 -45 36 -9 8
-37 23 -62 33 -24 10 -46 22 -49 26 -3 5 -46 17 -95 27 -50 10 -92 21 -93 26
-5 11 -212 9 -212 -3 0 -5 -12 -10 -27 -10 -33 0 -156 -30 -163 -40 -3 -4 -26
-15 -52 -25 -27 -10 -48 -22 -48 -27 0 -4 -11 -13 -25 -18 -14 -5 -28 -17 -31
-25 -4 -8 -12 -15 -18 -15 -17 0 -124 -107 -131 -131 -4 -10 -11 -19 -16 -19
-6 0 -17 -16 -25 -35 -8 -19 -18 -35 -23 -35 -4 0 -16 -25 -26 -55 -9 -30 -20
-55 -25 -55 -16 0 -35 -140 -35 -260 1 -117 18 -240 33 -240 4 0 15 -27 26
-60 10 -33 21 -60 25 -60 4 0 16 -19 26 -42 10 -24 29 -51 42 -61 13 -10 23
-22 23 -27 0 -16 124 -127 152 -136 10 -3 18 -9 18 -13 0 -5 21 -16 47 -26 27
-10 51 -22 54 -27 7 -11 104 -38 136 -38 12 0 23 -5 25 -12 5 -15 286 -17 296
-2 4 5 38 17 77 27 38 10 72 22 75 26 3 5 25 17 50 27 25 10 49 24 53 31 4 7
14 13 22 13 8 0 22 11 31 25 9 14 22 25 30 25 7 0 20 10 28 22 9 12 18 19 21
17 3 -3 -15 -27 -40 -53 -25 -27 -45 -52 -45 -56 0 -5 -6 -15 -13 -22 -6 -7
-21 -31 -32 -53 -11 -22 -22 -42 -25 -45 -9 -8 -40 -110 -40 -130 0 -10 -6
-20 -12 -23 -16 -5 -19 -324 -3 -335 6 -4 19 -38 29 -77 10 -38 21 -72 26 -75
4 -3 15 -22 23 -43 9 -20 20 -37 25 -37 5 0 12 -8 16 -18 9 -28 28 -52 89
-111 78 -76 89 -85 128 -107 18 -11 39 -24 46 -30 6 -6 32 -17 57 -24 25 -7
46 -16 46 -20 0 -14 172 -40 261 -40 85 0 249 25 259 39 3 4 28 15 55 26 28
10 52 21 55 25 3 4 20 15 38 24 17 9 32 21 32 26 0 6 6 10 13 10 7 0 44 31 82
69 73 72 92 95 101 124 4 9 10 17 14 17 4 0 15 21 25 48 10 26 21 49 24 52 11
9 31 75 37 123 4 26 11 47 15 47 5 0 9 54 9 120 0 73 -4 120 -10 120 -5 0 -10
9 -10 21 0 33 -32 159 -41 159 -4 0 -15 23 -25 50 -10 28 -21 50 -26 50 -4 0
-15 14 -24 32 -9 17 -45 60 -80 95 -35 34 -64 65 -64 69 0 3 18 24 40 45 22
22 40 42 40 46 0 5 18 25 40 47 22 21 40 43 40 47 0 5 20 29 45 52 25 24 45
47 45 51 0 5 18 26 40 47 22 22 40 42 40 47 0 4 25 31 55 60 30 29 55 57 55
61 0 7 63 78 155 173 25 25 45 50 45 54 0 4 23 29 50 55 28 26 50 51 50 55 0
5 20 29 45 54 74 74 145 153 145 159 0 4 21 30 48 58 51 55 127 141 179 201
18 20 55 62 82 92 28 30 51 58 51 62 0 9 41 48 52 48 4 0 56 -49 116 -109
l108 -108 -360 -359 c-341 -340 -360 -361 -360 -396 -1 -49 40 -88 91 -88 33
0 56 21 391 355 195 195 359 355 363 355 9 0 139 -127 139 -135 0 -4 -157
-164 -350 -356 -203 -203 -352 -360 -356 -374 -12 -49 13 -105 47 -105 11 0
19 -4 19 -10 0 -5 7 -10 15 -10 8 0 15 5 15 10 0 6 7 10 16 10 8 0 175 160
370 355 l355 355 70 -71 c59 -61 67 -74 57 -87 -7 -9 -165 -168 -350 -353
-202 -202 -340 -349 -344 -364 -11 -43 4 -91 32 -103 40 -19 92 -15 106 8 7
11 18 20 23 20 6 0 18 13 27 28 9 15 28 34 42 42 14 7 26 19 26 25 0 6 10 17
23 24 12 6 40 32 62 57 32 36 103 109 148 152 4 4 23 24 42 44 18 21 36 38 40
38 11 0 71 64 78 83 4 9 12 17 18 17 6 0 41 30 78 68 103 104 88 102 170 23
l71 -70 -348 -349 c-191 -192 -355 -359 -364 -371 -19 -23 -24 -51 -9 -51 5 0
11 -10 13 -22 2 -13 13 -27 26 -33 12 -5 22 -13 22 -17 0 -13 49 -9 66 5 9 6
173 168 365 359 192 192 352 348 355 348 10 0 134 -129 134 -140 0 -6 -158
-168 -350 -360 -370 -369 -376 -376 -350 -439 14 -34 59 -54 97 -45 14 4 169
151 367 348 188 187 349 347 358 354 13 10 26 2 87 -58 l72 -70 -351 -348
c-192 -192 -350 -354 -350 -361 0 -6 -4 -11 -10 -11 -5 0 -10 -16 -10 -35 0
-19 5 -35 10 -35 6 0 10 -7 10 -15 0 -20 32 -35 74 -35 32 0 59 24 390 355
195 195 358 355 361 355 9 0 135 -130 135 -139 0 -4 -160 -168 -355 -363 -337
-338 -355 -357 -355 -392 0 -28 8 -44 31 -67 27 -27 38 -30 69 -26 33 4 75 43
388 356 193 193 355 351 361 351 8 0 141 -126 141 -134 0 -2 -162 -165 -360
-363 -321 -321 -360 -363 -360 -391 0 -33 34 -82 57 -82 7 0 13 -4 13 -10 0
-16 38 -11 61 7 61 52 969 968 969 978 0 7 6 15 14 18 8 3 21 25 27 49 7 24
17 46 22 49 19 13 30 151 18 228 -6 41 -15 78 -19 81 -4 3 -13 23 -21 45 -14
40 -22 52 -73 105 -16 15 -28 32 -28 38 0 7 -757 768 -1487 1494 -213 212
-453 455 -453 460 0 4 58 69 120 134 17 17 30 35 30 39 0 4 18 25 40 46 22 22
40 43 40 48 0 5 10 18 23 28 13 10 32 32 43 48 10 17 29 38 41 48 13 10 23 23
23 28 0 5 18 26 40 48 22 21 40 42 40 47 0 5 11 20 25 34 61 61 105 112 105
120 0 5 10 17 23 27 13 10 32 32 43 48 10 17 29 38 41 48 13 10 23 22 23 27 0
8 49 66 103 120 15 15 27 33 27 38 0 6 8 17 18 24 10 7 27 27 38 43 10 17 29
38 41 48 13 10 23 22 23 27 0 5 17 27 38 49 50 56 79 91 99 121 9 14 25 31 35
38 10 7 18 18 18 24 0 5 12 22 28 37 15 15 38 42 52 61 14 18 42 50 62 72 20
21 38 43 40 47 5 13 61 83 86 107 12 12 22 26 22 32 0 7 11 19 25 28 14 9 25
22 25 30 0 7 8 19 18 26 10 7 27 27 38 43 10 17 27 36 36 43 10 7 18 18 18 24
0 5 12 22 28 37 15 15 38 42 52 60 14 18 37 47 52 64 15 18 28 36 28 41 0 4
11 17 25 28 14 11 25 23 25 28 0 5 10 20 23 33 12 13 33 38 47 56 14 18 37 47
52 64 15 18 28 35 28 38 0 4 17 24 38 46 20 22 48 55 62 73 14 18 34 43 45 55
32 34 45 72 45 136 0 62 -9 88 -41 123 -11 11 -19 23 -19 26 0 9 -97 40 -124
40 -11 -1 -41 -8 -66 -17z m-5187 -4079 c26 -4 53 -12 60 -18 7 -6 27 -19 45
-29 33 -19 112 -95 112 -108 0 -4 7 -15 16 -24 41 -41 58 -225 29 -323 -9 -29
-19 -52 -23 -52 -4 0 -13 -13 -20 -29 -16 -36 -70 -92 -108 -111 -16 -8 -35
-20 -41 -27 -51 -48 -309 -39 -360 13 -8 8 -18 14 -23 14 -8 0 -75 64 -104
100 -7 8 -19 31 -26 50 -8 19 -19 38 -24 42 -16 11 -15 250 2 256 6 2 12 10
12 18 0 27 30 74 79 124 27 28 53 50 58 50 5 0 19 9 32 21 14 13 49 26 94 34
70 13 86 13 190 -1z m1096 -1089 c30 -8 57 -18 60 -22 3 -4 20 -16 38 -26 46
-26 89 -71 109 -117 10 -22 21 -40 25 -40 12 0 29 -97 29 -168 0 -68 -15 -142
-28 -142 -5 0 -14 -17 -21 -37 -12 -33 -46 -71 -111 -127 -8 -7 -31 -19 -50
-26 -19 -8 -38 -19 -42 -24 -10 -15 -246 -15 -256 0 -4 6 -24 17 -45 25 -22 7
-43 22 -48 31 -5 10 -16 18 -24 18 -8 0 -23 12 -32 27 -10 15 -25 35 -33 45
-34 38 -39 48 -54 99 -19 64 -20 155 -2 230 12 54 19 66 59 110 9 10 17 22 17
27 1 14 36 48 70 67 19 11 38 24 41 28 24 33 208 46 298 22z"/>
</g>
</svg>
