<?xml version="1.0" encoding="UTF-8"?>
<svg version="1.1" xmlns="http://www.w3.org/2000/svg" width="512" height="512">
<path d="M0 0 C0.99 -0.01546875 0.99 -0.01546875 2 -0.03125 C4.9487376 0.75200842 6.10341544 2.13514715 8 4.5 C8.390625 7.515625 8.390625 7.515625 8.25 10.75 C8.21390625 11.82765625 8.1778125 12.9053125 8.140625 14.015625 C8.09421875 14.83546875 8.0478125 15.6553125 8 16.5 C8.94325134 16.49111755 9.88650269 16.48223511 10.8583374 16.4730835 C19.74557461 16.39201309 28.63273684 16.33204213 37.52025986 16.29275131 C42.08950964 16.27187235 46.65846102 16.24354929 51.22753906 16.19824219 C55.63660873 16.15479512 60.0453913 16.13086522 64.45465851 16.12049103 C66.13721487 16.11309757 67.81975543 16.09865983 69.50218964 16.07707977 C71.85825101 16.04805997 74.21312473 16.04404325 76.56933594 16.04589844 C77.61374847 16.02432678 77.61374847 16.02432678 78.67926025 16.00231934 C81.98899809 16.03053614 83.73674668 16.30475141 86.42510986 18.29864502 C88.31729674 20.94351206 88.68731056 23.04514707 88.52001953 26.28369141 C87.48186302 30.70828523 84.62386269 34.10668359 81.9375 37.6875 C80.78724708 39.23351142 79.64988714 40.78922182 78.52734375 42.35546875 C78.01937256 43.03246826 77.51140137 43.70946777 76.98803711 44.40698242 C75.66346585 47.21290024 76.0451244 48.58499608 77 51.5 C78.09356306 53.53466946 78.09356306 53.53466946 79.50390625 55.42578125 C79.99697266 56.14056641 80.49003906 56.85535156 80.99804688 57.59179688 C82.03680965 59.06629534 83.08365114 60.53513708 84.13867188 61.99804688 C87.61810543 67.08267127 88.98404922 70.31547876 88 76.5 C86.42755127 78.70330811 86.42755127 78.70330811 84 80.5 C81.37881671 80.87454981 79.18430138 81.00811196 76.56933594 80.95410156 C75.45655273 80.95497772 75.45655273 80.95497772 74.32128906 80.95587158 C71.87517098 80.95309025 69.43027953 80.92199786 66.984375 80.890625 C65.28615993 80.88316274 63.58793624 80.87746973 61.88970947 80.87347412 C57.4244399 80.85821651 52.95969247 80.81893389 48.49462891 80.7746582 C43.93659529 80.73370807 39.37847713 80.71546367 34.8203125 80.6953125 C25.87997919 80.65243953 16.94003305 80.58418685 8 80.5 C5.10467316 93.08300813 6.26016206 104.43894145 12.59648991 115.6438942 C20.68602672 128.5113312 32.66455959 140.94205552 47.912117 144.51980591 C69.35763392 148.74198911 92.18860127 146.99973878 113.87976348 146.07054758 C125.36232218 145.583625 136.85110542 145.35582438 148.34149456 145.139431 C150.04371866 145.10711093 151.74594244 145.07477389 153.44816589 145.04241943 C154.69445496 145.01934743 154.69445496 145.01934743 155.96592158 144.99580932 C160.87538236 144.89887151 165.77925352 144.74736368 170.68551791 144.54596281 C173.71936042 144.42532024 176.75369563 144.33146261 179.78860283 144.24211311 C181.19114912 144.19399151 182.59333222 144.13337781 183.99474335 144.05922508 C194.58331272 143.50459756 194.58331272 143.50459756 198.14362907 146.00617123 C199.68230648 147.76915615 200.8600101 149.46263709 202 151.5 C202.51498047 152.2226001 203.02996094 152.9452002 203.56054688 153.68969727 C203.94275391 154.30901123 204.32496094 154.9283252 204.71875 155.56640625 C205.39333252 156.6478894 205.39333252 156.6478894 206.08154297 157.7512207 C206.54963379 158.51394287 207.01772461 159.27666504 207.5 160.0625 C208.55417226 161.75552926 209.60888148 163.44822427 210.6640625 165.140625 C211.2096582 166.01912109 211.75525391 166.89761719 212.31738281 167.80273438 C215.13892222 172.32571281 218.00820713 176.81812151 220.875 181.3125 C222.05999292 183.17311526 223.2448881 185.03379276 224.4296875 186.89453125 C225.01975586 187.82088379 225.60982422 188.74723633 226.21777344 189.70166016 C227.98172012 192.47129808 229.74492948 195.2414037 231.5078125 198.01171875 C232.0853125 198.91865479 232.6628125 199.82559082 233.2578125 200.76000977 C234.41378001 202.57803434 235.56744991 204.39752197 236.71875 206.21850586 C239.7555583 211.01461896 242.83726037 215.77278319 245.9921875 220.4921875 C246.641875 221.47703125 247.2915625 222.461875 247.9609375 223.4765625 C249.20393964 225.35882288 250.46102916 227.23188298 251.734375 229.09375 C255.26606536 234.48079843 257.13325414 238.02226336 256 244.5 C254.68 245.82 253.36 247.14 252 248.5 C245.4 248.5 238.8 248.5 232 248.5 C232 317.14 232 385.78 232 456.5 C238.6 456.5 245.2 456.5 252 456.5 C256 460.5 256 460.5 256.53125 462.5 C256.5209375 463.16 256.510625 463.82 256.5 464.5 C256.5103125 465.16 256.520625 465.82 256.53125 466.5 C255.72732157 469.5265541 254.48733327 470.59466913 252 472.5 C249.08929519 472.89191054 246.55782986 473.03755941 243.64782715 473.00336456 C242.79346982 473.00917833 241.93911249 473.01499209 241.05886555 473.02098203 C238.17633135 473.03565972 235.29463833 473.02166066 232.41210938 473.00793457 C230.33260409 473.01254041 228.25310205 473.01889118 226.17360687 473.02684355 C220.44388556 473.04360347 214.71442937 473.03526025 208.98470688 473.02289867 C202.8114819 473.01387771 196.63830369 473.0278032 190.46508789 473.03881836 C179.06561315 473.05560886 167.66624697 473.05410901 156.26677489 473.04317249 C145.73667871 473.03311935 135.20661367 473.03047921 124.67651367 473.03526306 C123.97865035 473.0355686 123.28078703 473.03587414 122.56177634 473.03618894 C119.7290851 473.03743425 116.89639388 473.03870784 114.06370267 473.040028 C87.4784206 473.05227032 60.89319263 473.04116014 34.30791891 473.01964041 C10.67660445 473.00065727 -12.9546238 473.00235576 -36.5859375 473.02148438 C-63.12187778 473.04289226 -89.65777024 473.05140218 -116.19371796 473.03903532 C-119.02131652 473.03775241 -121.84891509 473.03650105 -124.67651367 473.03526306 C-125.37276582 473.03494675 -126.06901797 473.03463044 -126.78636867 473.03430455 C-137.31112411 473.02975025 -147.83584504 473.03508395 -158.3605957 473.04518127 C-170.3249731 473.05660237 -182.28924863 473.0534069 -194.25362206 473.0320583 C-200.36240802 473.02151871 -206.47101865 473.01747552 -212.57980347 473.03065491 C-218.16578634 473.04252444 -223.75143043 473.03610639 -229.33738232 473.0147447 C-231.36423499 473.01025548 -233.39111596 473.01259643 -235.41795063 473.02224785 C-238.16165651 473.03431639 -240.90418405 473.02203461 -243.64782715 473.00336456 C-244.84323514 473.01741156 -244.84323514 473.01741156 -246.06279278 473.03174233 C-249.63514941 472.98276435 -251.61159843 472.79752085 -254.48880768 470.59353971 C-256.12624205 468.32510979 -256.54320599 467.26518309 -256.5 464.5 C-256.5103125 463.84 -256.520625 463.18 -256.53125 462.5 C-256 460.5 -256 460.5 -252 456.5 C-245.73 456.5 -239.46 456.5 -233 456.5 C-233 387.86 -233 319.22 -233 248.5 C-239.27 248.5 -245.54 248.5 -252 248.5 C-256 244.5 -256 244.5 -256.65625 240.93359375 C-256.32533866 234.95375015 -252.72564789 230.40395449 -249.5 225.5625 C-248.48981812 223.99846436 -248.48981812 223.99846436 -247.45922852 222.40283203 C-246.03625289 220.20181828 -244.60582593 218.0056062 -243.16845703 215.81396484 C-240.38875719 211.56586242 -237.66078548 207.28585401 -234.93286133 203.00439453 C-232.93269697 199.86746724 -230.92443246 196.73586354 -228.9140625 193.60546875 C-225.78165816 188.72451212 -222.66568024 183.8334066 -219.55786133 178.93676758 C-216.71178298 174.45366668 -213.85736319 169.9759149 -211 165.5 C-210.39397949 164.54996094 -209.78795898 163.59992188 -209.16357422 162.62109375 C-207.36455888 159.80631429 -205.55844297 156.99622931 -203.75 154.1875 C-203.20061768 153.32664795 -202.65123535 152.4657959 -202.08520508 151.57885742 C-201.57755615 150.79357666 -201.06990723 150.0082959 -200.546875 149.19921875 C-200.10182617 148.50658936 -199.65677734 147.81395996 -199.19824219 147.1003418 C-198 145.5 -198 145.5 -196 144.5 C-194.07491485 144.468783 -192.14857132 144.50739552 -190.22450256 144.57730103 C-188.99338242 144.6180928 -187.76226227 144.65888458 -186.49383545 144.70091248 C-185.82648628 144.72518248 -185.15913712 144.74945248 -184.47156525 144.77445793 C-180.81356931 144.90644621 -177.1549816 145.01912047 -173.49635315 145.13198853 C-172.71394575 145.15635239 -171.93153836 145.18071625 -171.12542164 145.20581841 C-160.15082819 145.53747844 -149.17243232 145.68648363 -138.19414616 145.8401432 C-129.28142671 145.97016202 -120.37899814 146.16482614 -111.47192383 146.51269531 C-64.80786019 149.92105541 -64.80786019 149.92105541 -23.95477295 131.41814995 C-9.28011787 116.54313187 -5.59655322 99.44124552 -5.48519325 79.04531097 C-5.57333653 72.05676642 -5.94257675 65.09452204 -6.36633301 58.1194458 C-6.76172804 50.95005057 -6.90531489 43.77164167 -7.08714962 36.59426785 C-7.23254469 31.02849332 -7.41342133 25.47194938 -7.707901 19.91188049 C-7.75526901 18.90172882 -7.80263702 17.89157715 -7.85144043 16.85081482 C-7.94148589 14.96927774 -8.04744117 13.088407 -8.17234802 11.2088623 C-8.44209108 5.10311975 -8.44209108 5.10311975 -6.12559509 1.94285583 C-3.84506204 0.39482797 -2.7282276 -0.04262856 0 0 Z " fill="#E5BD93" transform="translate(256,19.5)"/>
<path d="M0 0 C0.99 -0.01546875 0.99 -0.01546875 2 -0.03125 C4.9487376 0.75200842 6.10341544 2.13514715 8 4.5 C8.390625 7.515625 8.390625 7.515625 8.25 10.75 C8.21390625 11.82765625 8.1778125 12.9053125 8.140625 14.015625 C8.09421875 14.83546875 8.0478125 15.6553125 8 16.5 C8.94325134 16.49111755 9.88650269 16.48223511 10.8583374 16.4730835 C19.74557461 16.39201309 28.63273684 16.33204213 37.52025986 16.29275131 C42.08950964 16.27187235 46.65846102 16.24354929 51.22753906 16.19824219 C55.63660873 16.15479512 60.0453913 16.13086522 64.45465851 16.12049103 C66.13721487 16.11309757 67.81975543 16.09865983 69.50218964 16.07707977 C71.85825101 16.04805997 74.21312473 16.04404325 76.56933594 16.04589844 C77.61374847 16.02432678 77.61374847 16.02432678 78.67926025 16.00231934 C81.98899809 16.03053614 83.73674668 16.30475141 86.42510986 18.29864502 C88.31729674 20.94351206 88.68731056 23.04514707 88.52001953 26.28369141 C87.48186302 30.70828523 84.62386269 34.10668359 81.9375 37.6875 C80.78724708 39.23351142 79.64988714 40.78922182 78.52734375 42.35546875 C78.01937256 43.03246826 77.51140137 43.70946777 76.98803711 44.40698242 C75.66346585 47.21290024 76.0451244 48.58499608 77 51.5 C78.09356306 53.53466946 78.09356306 53.53466946 79.50390625 55.42578125 C79.99697266 56.14056641 80.49003906 56.85535156 80.99804688 57.59179688 C82.03680965 59.06629534 83.08365114 60.53513708 84.13867188 61.99804688 C87.61810543 67.08267127 88.98404922 70.31547876 88 76.5 C86.42755127 78.70330811 86.42755127 78.70330811 84 80.5 C81.37881671 80.87454981 79.18430138 81.00811196 76.56933594 80.95410156 C75.45655273 80.95497772 75.45655273 80.95497772 74.32128906 80.95587158 C71.87517098 80.95309025 69.43027953 80.92199786 66.984375 80.890625 C65.28615993 80.88316274 63.58793624 80.87746973 61.88970947 80.87347412 C57.4244399 80.85821651 52.95969247 80.81893389 48.49462891 80.7746582 C43.93659529 80.73370807 39.37847713 80.71546367 34.8203125 80.6953125 C25.87997919 80.65243953 16.94003305 80.58418685 8 80.5 C5.10467316 93.08300813 6.26016206 104.43894145 12.59648991 115.6438942 C20.68602672 128.5113312 32.66455959 140.94205552 47.912117 144.51980591 C69.35763392 148.74198911 92.18860127 146.99973878 113.87976348 146.07054758 C125.36232218 145.583625 136.85110542 145.35582438 148.34149456 145.139431 C150.04371866 145.10711093 151.74594244 145.07477389 153.44816589 145.04241943 C154.69445496 145.01934743 154.69445496 145.01934743 155.96592158 144.99580932 C160.87538236 144.89887151 165.77925352 144.74736368 170.68551791 144.54596281 C173.71936042 144.42532024 176.75369563 144.33146261 179.78860283 144.24211311 C181.19114912 144.19399151 182.59333222 144.13337781 183.99474335 144.05922508 C194.58331272 143.50459756 194.58331272 143.50459756 198.14362907 146.00617123 C199.68230648 147.76915615 200.8600101 149.46263709 202 151.5 C202.51498047 152.2226001 203.02996094 152.9452002 203.56054688 153.68969727 C203.94275391 154.30901123 204.32496094 154.9283252 204.71875 155.56640625 C205.39333252 156.6478894 205.39333252 156.6478894 206.08154297 157.7512207 C206.54963379 158.51394287 207.01772461 159.27666504 207.5 160.0625 C208.55417226 161.75552926 209.60888148 163.44822427 210.6640625 165.140625 C211.2096582 166.01912109 211.75525391 166.89761719 212.31738281 167.80273438 C215.13892222 172.32571281 218.00820713 176.81812151 220.875 181.3125 C222.05999292 183.17311526 223.2448881 185.03379276 224.4296875 186.89453125 C225.01975586 187.82088379 225.60982422 188.74723633 226.21777344 189.70166016 C227.98172012 192.47129808 229.74492948 195.2414037 231.5078125 198.01171875 C232.0853125 198.91865479 232.6628125 199.82559082 233.2578125 200.76000977 C234.41378001 202.57803434 235.56744991 204.39752197 236.71875 206.21850586 C239.7555583 211.01461896 242.83726037 215.77278319 245.9921875 220.4921875 C246.641875 221.47703125 247.2915625 222.461875 247.9609375 223.4765625 C249.20393964 225.35882288 250.46102916 227.23188298 251.734375 229.09375 C255.26606536 234.48079843 257.13325414 238.02226336 256 244.5 C254.60845947 246.69769287 254.60845947 246.69769287 252 248.5 C248.54581122 249.08591288 245.12740094 249.00459895 241.63183594 248.95410156 C240.57786621 248.95468567 239.52389648 248.95526978 238.43798828 248.95587158 C234.95311589 248.95308414 231.46909804 248.92195968 227.984375 248.890625 C225.56870999 248.88316499 223.15303894 248.87747093 220.73736572 248.87347412 C214.3782888 248.85819905 208.01957711 248.81890049 201.66064453 248.7746582 C195.17225078 248.73374624 188.68379804 248.71547178 182.1953125 248.6953125 C169.46338581 248.65240856 156.73171233 248.58490262 144 248.5 C143.80470703 249.42039062 143.80470703 249.42039062 143.60546875 250.359375 C142.75146188 253.37870252 141.48900154 254.61643127 139 256.5 C135.48415451 256.9219924 133.6518783 256.92880121 130.6601963 254.96089268 C129.91298002 254.23585513 129.16576374 253.51081758 128.39590454 252.7638092 C127.5309499 251.93607058 126.66599525 251.10833195 125.77482986 250.25551033 C124.85913601 249.34619192 123.94344215 248.43687351 123 247.5 C122.06014629 246.58285154 121.12029259 245.66570309 120.15195847 244.72076225 C116.96500806 241.59816634 113.81516845 238.43920132 110.66552734 235.27905273 C109.4623123 234.07555495 108.25887568 232.87227863 107.05523682 231.66920471 C103.81815317 228.43240565 100.58414203 225.19255296 97.35071135 221.95210528 C93.95995038 218.55505398 90.56631972 215.16087185 87.17300415 211.76637268 C80.76103512 205.35130698 74.35161745 198.93369854 67.943133 192.51515204 C60.64152459 185.20233058 53.33704523 177.89237965 46.03233409 170.58265769 C31.01837973 155.55827667 16.00799937 140.53032937 1 125.5 C-2.88729453 127.0933917 -5.33738826 129.59364674 -8.28224182 132.54846191 C-8.80215397 133.06737078 -9.32206612 133.58627965 -9.85773319 134.12091303 C-11.5981754 135.86040284 -13.33136958 137.60693854 -15.06469727 139.35351562 C-16.31119815 140.60221777 -17.55814741 141.85047248 -18.80551147 143.09831238 C-21.49030685 145.78604143 -24.17191444 148.47689743 -26.85110664 151.17021179 C-31.08563148 155.4269881 -35.32721964 159.67667846 -39.56980896 163.92541504 C-46.27768612 170.64467528 -52.98087382 177.3685915 -59.68204015 184.09454393 C-71.68697481 196.14380365 -83.69749318 208.1874914 -95.71323055 220.22597837 C-99.93159518 224.45276156 -104.14713441 228.6823371 -108.36044133 232.91416168 C-110.97906807 235.5434166 -113.5997121 238.17065391 -116.22086716 240.79738808 C-117.43798268 242.01797982 -118.6542253 243.2394427 -119.86953926 244.46182823 C-121.52565147 246.12736576 -123.18480254 247.78981604 -124.84474182 249.45153809 C-125.77332284 250.38363853 -126.70190386 251.31573898 -127.6586237 252.2760849 C-130.37035762 254.85177767 -132.13441035 256.36827984 -135.875 256.9375 C-140.04666739 256.35346657 -141.4295508 254.75086222 -144 251.5 C-144 250.51 -144 249.52 -144 248.5 C-144.55291592 248.50368717 -145.10583183 248.50737434 -145.67550278 248.51117325 C-159.12931135 248.59951151 -172.58306912 248.66544792 -186.03710556 248.70724869 C-192.54340149 248.72814165 -199.04948843 248.75649108 -205.55566406 248.80175781 C-211.83207509 248.8451537 -218.10828484 248.86912422 -224.38483429 248.87950897 C-226.78189514 248.88691153 -229.17894473 248.90136659 -231.5759201 248.92292023 C-234.92813605 248.95187016 -238.27951552 248.95595941 -241.63183594 248.95410156 C-242.62733459 248.96848267 -243.62283325 248.98286377 -244.64849854 248.99768066 C-251.33949074 248.95743742 -251.33949074 248.95743742 -254.60699463 246.69451904 C-256.27438192 244.06774298 -256.71096518 241.92234256 -256.5390625 238.81591797 C-255.37988024 233.83584417 -252.30000355 229.7650944 -249.5 225.5625 C-248.48981812 223.99846436 -248.48981812 223.99846436 -247.45922852 222.40283203 C-246.03625289 220.20181828 -244.60582593 218.0056062 -243.16845703 215.81396484 C-240.38875719 211.56586242 -237.66078548 207.28585401 -234.93286133 203.00439453 C-232.93269697 199.86746724 -230.92443246 196.73586354 -228.9140625 193.60546875 C-225.78165816 188.72451212 -222.66568024 183.8334066 -219.55786133 178.93676758 C-216.71178298 174.45366668 -213.85736319 169.9759149 -211 165.5 C-210.39397949 164.54996094 -209.78795898 163.59992188 -209.16357422 162.62109375 C-207.36455888 159.80631429 -205.55844297 156.99622931 -203.75 154.1875 C-203.20061768 153.32664795 -202.65123535 152.4657959 -202.08520508 151.57885742 C-201.57755615 150.79357666 -201.06990723 150.0082959 -200.546875 149.19921875 C-200.10182617 148.50658936 -199.65677734 147.81395996 -199.19824219 147.1003418 C-198 145.5 -198 145.5 -196 144.5 C-194.07491485 144.468783 -192.14857132 144.50739552 -190.22450256 144.57730103 C-188.99338242 144.6180928 -187.76226227 144.65888458 -186.49383545 144.70091248 C-185.82648628 144.72518248 -185.15913712 144.74945248 -184.47156525 144.77445793 C-180.81356931 144.90644621 -177.1549816 145.01912047 -173.49635315 145.13198853 C-172.71394575 145.15635239 -171.93153836 145.18071625 -171.12542164 145.20581841 C-160.15082819 145.53747844 -149.17243232 145.68648363 -138.19414616 145.8401432 C-129.28142671 145.97016202 -120.37899814 146.16482614 -111.47192383 146.51269531 C-64.80786019 149.92105541 -64.80786019 149.92105541 -23.95477295 131.41814995 C-9.28011787 116.54313187 -5.59655322 99.44124552 -5.48519325 79.04531097 C-5.57333653 72.05676642 -5.94257675 65.09452204 -6.36633301 58.1194458 C-6.76172804 50.95005057 -6.90531489 43.77164167 -7.08714962 36.59426785 C-7.23254469 31.02849332 -7.41342133 25.47194938 -7.707901 19.91188049 C-7.75526901 18.90172882 -7.80263702 17.89157715 -7.85144043 16.85081482 C-7.94148589 14.96927774 -8.04744117 13.088407 -8.17234802 11.2088623 C-8.44209108 5.10311975 -8.44209108 5.10311975 -6.12559509 1.94285583 C-3.84506204 0.39482797 -2.7282276 -0.04262856 0 0 Z " fill="#FE4E19" transform="translate(256,19.5)"/>
<path d="M0 0 C0.71633102 -0.00846954 1.43266205 -0.01693909 2.17070007 -0.02566528 C4.52511651 -0.04895091 6.87887582 -0.05005922 9.23339844 -0.04882812 C10.88238786 -0.05593683 12.53137484 -0.06363686 14.18035889 -0.07189941 C17.63349278 -0.08532634 21.08639814 -0.086922 24.53955078 -0.08105469 C28.94213299 -0.07517227 33.3436072 -0.105697 37.74597549 -0.14617157 C41.15203653 -0.17216071 44.55783513 -0.17491568 47.96398163 -0.17127991 C49.58573939 -0.17296193 51.20751048 -0.18251518 52.82917023 -0.20042419 C62.83343106 -0.29872334 71.78663829 -0.04619331 79.48858643 7.20471191 C85.80662676 13.9777392 87.02981146 20.1926518 86.93334961 29.19873047 C86.93378769 30.27249939 86.93422577 31.34626831 86.93467712 32.45257568 C86.93259201 35.99135709 86.90927332 39.52966103 86.88574219 43.06835938 C86.88014527 45.52600852 86.87587562 47.98366101 86.87287903 50.4413147 C86.86143792 56.90221435 86.83197672 63.36291092 86.79876709 69.82373047 C86.76805058 76.41956841 86.75437029 83.01543924 86.73925781 89.61132812 C86.70710661 102.54761257 86.6564975 115.48375641 86.59277344 128.41992188 C87.5992178 128.4162347 88.60566216 128.41254753 89.64260483 128.40874863 C114.11210279 128.32001846 138.58157992 128.25425125 163.05120468 128.21267319 C174.88445497 128.19203281 186.71759909 128.16388395 198.55078125 128.11816406 C208.86250829 128.07834155 219.17415845 128.05249981 229.48596025 128.0435679 C234.94788771 128.03834539 240.40959524 128.02603987 245.87145233 127.99700165 C251.00960363 127.96990506 256.14744383 127.96146524 261.28565979 127.96749115 C263.17391397 127.96638833 265.06217827 127.9584003 266.95037079 127.94309998 C269.5242449 127.92326193 272.09693719 127.92795969 274.6708374 127.93890381 C275.4218119 127.92725244 276.1727864 127.91560108 276.94651771 127.90359664 C280.43078659 127.94377183 282.26088077 128.16309907 285.05469131 130.3249855 C286.7220609 132.59601716 287.13625216 133.63728386 287.09277344 136.41992188 C287.10308594 137.07992187 287.11339844 137.73992187 287.12402344 138.41992188 C286.320095 141.44647598 285.08010671 142.514591 282.59277344 144.41992188 C279.68206863 144.81183241 277.15060329 144.95748129 274.24060059 144.92328644 C273.38624326 144.9291002 272.53188593 144.93491396 271.65163898 144.9409039 C268.76910479 144.95558159 265.88741177 144.94158253 263.00488281 144.92785645 C260.92537753 144.93246228 258.84587549 144.93881306 256.76638031 144.94676542 C251.036659 144.96352535 245.30720281 144.95518213 239.57748032 144.94282055 C233.40425534 144.93379958 227.23107712 144.94772507 221.05786133 144.95874023 C209.65838659 144.97553074 198.25902041 144.97403089 186.85954833 144.96309436 C176.32945215 144.95304122 165.7993871 144.95040108 155.26928711 144.95518494 C154.57142379 144.95549048 153.87356047 144.95579602 153.15454978 144.95611082 C150.32185854 144.95735612 147.48916732 144.95862972 144.65647611 144.95994987 C118.07119404 144.9721922 91.48596607 144.96108202 64.90069234 144.93956228 C41.26937789 144.92057915 17.63814964 144.92227763 -5.99316406 144.94140625 C-32.52910434 144.96281413 -59.0649968 144.97132406 -85.60094452 144.9589572 C-88.42854308 144.95767428 -91.25614165 144.95642292 -94.08374023 144.95518494 C-94.77999238 144.95486863 -95.47624453 144.95455232 -96.19359523 144.95422642 C-106.71835067 144.94967212 -117.2430716 144.95500582 -127.76782227 144.96510315 C-139.73219966 144.97652425 -151.69647519 144.97332877 -163.66084862 144.95198017 C-169.76963458 144.94144059 -175.87824521 144.9373974 -181.98703003 144.95057678 C-187.57301291 144.96244631 -193.15865699 144.95602826 -198.74460888 144.93466657 C-200.77146156 144.93017735 -202.79834252 144.9325183 -204.82517719 144.94216973 C-207.56888307 144.95423827 -210.31141061 144.94195648 -213.05505371 144.92328644 C-214.2504617 144.93733343 -214.2504617 144.93733343 -215.47001934 144.95166421 C-219.04237597 144.90268622 -221.01882499 144.71744272 -223.89603424 142.51346159 C-225.53346861 140.24503167 -225.95043255 139.18510497 -225.90722656 136.41992188 C-225.92269531 135.42992187 -225.92269531 135.42992187 -225.93847656 134.41992188 C-225.13916081 131.41073316 -223.86705725 130.32337041 -221.40722656 128.41992188 C-218.63225553 128.03553085 -216.25742533 127.89589415 -213.48529053 127.93890381 C-212.68149657 127.93548611 -211.8777026 127.93206841 -211.04955125 127.92854714 C-208.35298522 127.92195227 -205.657412 127.94397035 -202.9609375 127.96582031 C-201.0293378 127.96694844 -199.09773639 127.9663156 -197.1661377 127.96405029 C-191.91845828 127.96290088 -186.67114329 127.98644704 -181.4235487 128.01434612 C-175.9409335 128.03932191 -170.45831029 128.04169876 -164.97564697 128.04644775 C-154.59173784 128.05888876 -144.20799682 128.09172567 -133.82416177 128.13184571 C-122.00327772 128.17652836 -110.18238572 128.19854165 -98.36143827 128.21862745 C-74.04327444 128.26045725 -49.72525991 128.33083124 -25.40722656 128.41992188 C-25.41414001 127.58200025 -25.41414001 127.58200025 -25.42119312 126.72715092 C-25.53184557 113.10471692 -25.61414715 99.48236218 -25.66628742 85.85957432 C-25.69235216 79.27152796 -25.7276945 72.6838066 -25.78442383 66.09594727 C-25.83885297 59.73521173 -25.86867059 53.37478831 -25.88161278 47.01383781 C-25.89083292 44.59018988 -25.9088378 42.16655854 -25.93587685 39.7430439 C-25.97231035 36.34142614 -25.97716569 32.94108893 -25.97485352 29.53930664 C-26.00181808 28.04497101 -26.00181808 28.04497101 -26.02932739 26.52044678 C-25.97360364 18.91642041 -23.95999753 13.11224521 -18.62233448 7.56491947 C-12.9963478 2.3903792 -7.71934861 0.05042409 0 0 Z " fill="#7E5C62" transform="translate(225.4072265625,347.580078125)"/>
<path d="M0 0 C19.71458134 -0.16354251 39.42902498 -0.2869711 59.14414406 -0.3626852 C68.29831242 -0.39877558 77.45205924 -0.44797651 86.60595703 -0.52807617 C94.58479416 -0.59786036 102.56332602 -0.64301073 110.54245985 -0.65861946 C114.76730413 -0.6677434 118.99127511 -0.68917443 123.21583939 -0.7401104 C127.19366246 -0.78768209 131.17025398 -0.80226997 135.1483345 -0.79175377 C136.60685931 -0.79367706 138.06542596 -0.80756969 139.52370453 -0.83443832 C150.54204808 -1.02746479 150.54204808 -1.02746479 154.17787552 1.5348177 C155.71014989 3.29027411 156.87445054 4.9664195 158 7 C158.7724707 8.08390015 158.7724707 8.08390015 159.56054688 9.18969727 C159.94275391 9.80901123 160.32496094 10.4283252 160.71875 11.06640625 C161.16847168 11.78739502 161.61819336 12.50838379 162.08154297 13.2512207 C162.54963379 14.01394287 163.01772461 14.77666504 163.5 15.5625 C164.55417226 17.25552926 165.60888148 18.94822427 166.6640625 20.640625 C167.48245605 21.95836914 167.48245605 21.95836914 168.31738281 23.30273438 C171.13892222 27.82571281 174.00820713 32.31812151 176.875 36.8125 C178.05999292 38.67311526 179.2448881 40.53379276 180.4296875 42.39453125 C181.01975586 43.32088379 181.60982422 44.24723633 182.21777344 45.20166016 C183.98172012 47.97129808 185.74492948 50.7414037 187.5078125 53.51171875 C188.0853125 54.41865479 188.6628125 55.32559082 189.2578125 56.26000977 C190.41378001 58.07803434 191.56744991 59.89752197 192.71875 61.71850586 C195.7555583 66.51461896 198.83726037 71.27278319 201.9921875 75.9921875 C202.641875 76.97703125 203.2915625 77.961875 203.9609375 78.9765625 C205.20393964 80.85882288 206.46102916 82.73188298 207.734375 84.59375 C211.26606536 89.98079843 213.13325414 93.52226336 212 100 C210.60845947 102.19769287 210.60845947 102.19769287 208 104 C204.54581122 104.58591288 201.12740094 104.50459895 197.63183594 104.45410156 C196.57786621 104.45468567 195.52389648 104.45526978 194.43798828 104.45587158 C190.95311589 104.45308414 187.46909804 104.42195968 183.984375 104.390625 C181.56870999 104.38316499 179.15303894 104.37747093 176.73736572 104.37347412 C170.3782888 104.35819905 164.01957711 104.31890049 157.66064453 104.2746582 C151.17225078 104.23374624 144.68379804 104.21547178 138.1953125 104.1953125 C125.46338581 104.15240856 112.73171233 104.08490262 100 104 C99.53112366 103.04282074 99.06224731 102.08564148 98.5791626 101.09945679 C95.50882741 95.75349964 91.09315816 91.70745982 86.73339844 87.40869141 C85.78635482 86.46413473 84.8399819 85.51890518 83.89422607 84.57305908 C81.33913565 82.02136226 78.77500474 79.4789295 76.20923138 76.93798113 C73.52363066 74.2749377 70.84699013 71.6029203 68.16949463 68.93173218 C63.10385001 63.88054195 58.0310277 58.83662953 52.95519471 53.79567945 C43.84919587 44.75177966 34.75553887 35.69547696 25.66448236 26.63655984 C22.47283175 23.45676662 19.27803509 20.28017704 16.08060408 17.10619664 C14.57518226 15.61124315 13.07084247 14.11521081 11.56695557 12.61871338 C9.72918711 10.79017974 7.88957146 8.96350018 6.04785156 7.13894653 C5.24587341 6.3399292 4.44389526 5.54091187 3.61761475 4.71768188 C2.91487301 4.0197584 2.21213127 3.32183491 1.48809433 2.60276222 C0 1 0 1 0 0 Z " fill="#FE4E19" transform="translate(300,164)"/>
<path d="M0 0 C0.66 -0.0103125 1.32 -0.020625 2 -0.03125 C4.9487376 0.75200842 6.10341544 2.13514715 8 4.5 C8.390625 7.515625 8.390625 7.515625 8.25 10.75 C8.21390625 11.82765625 8.1778125 12.9053125 8.140625 14.015625 C8.09421875 14.83546875 8.0478125 15.6553125 8 16.5 C8.94325134 16.49111755 9.88650269 16.48223511 10.8583374 16.4730835 C19.74557461 16.39201309 28.63273684 16.33204213 37.52025986 16.29275131 C42.08950964 16.27187235 46.65846102 16.24354929 51.22753906 16.19824219 C55.63660873 16.15479512 60.0453913 16.13086522 64.45465851 16.12049103 C66.13721487 16.11309757 67.81975543 16.09865983 69.50218964 16.07707977 C71.85825101 16.04805997 74.21312473 16.04404325 76.56933594 16.04589844 C77.61374847 16.02432678 77.61374847 16.02432678 78.67926025 16.00231934 C81.98899809 16.03053614 83.73674668 16.30475141 86.42510986 18.29864502 C88.31729674 20.94351206 88.68731056 23.04514707 88.52001953 26.28369141 C87.48186302 30.70828523 84.62386269 34.10668359 81.9375 37.6875 C80.78724708 39.23351142 79.64988714 40.78922182 78.52734375 42.35546875 C78.01937256 43.03246826 77.51140137 43.70946777 76.98803711 44.40698242 C75.66346585 47.21290024 76.0451244 48.58499608 77 51.5 C78.09356306 53.53466946 78.09356306 53.53466946 79.50390625 55.42578125 C79.99697266 56.14056641 80.49003906 56.85535156 80.99804688 57.59179688 C82.03680965 59.06629534 83.08365114 60.53513708 84.13867188 61.99804688 C87.61810543 67.08267127 88.98404922 70.31547876 88 76.5 C86.42755127 78.70330811 86.42755127 78.70330811 84 80.5 C81.37881671 80.87454981 79.18430138 81.00811196 76.56933594 80.95410156 C75.45655273 80.95497772 75.45655273 80.95497772 74.32128906 80.95587158 C71.87517098 80.95309025 69.43027953 80.92199786 66.984375 80.890625 C65.28615993 80.88316274 63.58793624 80.87746973 61.88970947 80.87347412 C57.4244399 80.85821651 52.95969247 80.81893389 48.49462891 80.7746582 C43.93659529 80.73370807 39.37847713 80.71546367 34.8203125 80.6953125 C25.87997919 80.65243953 16.94003305 80.58418685 8 80.5 C6.34307126 98.01572689 6.34307126 98.01572689 12.25097656 113.96289062 C16.4404647 118.87230008 21.23242356 123.06145375 26.125 127.25 C27.75362307 128.73408034 29.37607453 130.22496254 30.9921875 131.72265625 C34.55225789 135.01332304 38.1629714 138.23383799 41.83621216 141.39764404 C43.74216037 143.24948067 45.4479077 145.14210191 47.17970276 147.15391541 C51.28124629 151.89131431 55.6732904 156.29885157 60.11645508 160.71411133 C61.0018396 161.59803558 61.88722412 162.48195984 62.79943848 163.39266968 C64.70912197 165.29856685 66.61967392 167.20354106 68.53180885 169.10697365 C71.55595129 172.11749103 74.57618363 175.13191125 77.59587097 178.14689636 C83.99843888 184.53841602 90.40525828 190.92566618 96.8125 197.3125 C103.7486259 204.22657669 110.68399528 211.14140283 117.61451644 218.06109828 C120.61650963 221.05811251 123.62092281 224.05267293 126.62721884 227.0453707 C128.93028226 229.33923305 131.23013515 231.63631085 133.53051758 233.93286133 C134.36324692 234.76042435 135.19597626 235.58798737 136.05393982 236.44062805 C136.81226105 237.19887878 137.57058228 237.95712952 138.35188293 238.73835754 C139.3420779 239.72522159 139.3420779 239.72522159 140.3522768 240.73202229 C142.67232713 243.22139506 143.92074185 244.9791607 144.4375 248.375 C144 251.5 144 251.5 141.875 254.375 C138.44713767 256.90863737 137.16719974 256.99115618 133 256.5 C130.6601963 254.96089268 130.6601963 254.96089268 128.39590454 252.7638092 C127.5309499 251.93607058 126.66599525 251.10833195 125.77482986 250.25551033 C124.85913601 249.34619192 123.94344215 248.43687351 123 247.5 C122.06014629 246.58285154 121.12029259 245.66570309 120.15195847 244.72076225 C116.96500806 241.59816634 113.81516845 238.43920132 110.66552734 235.27905273 C109.4623123 234.07555495 108.25887568 232.87227863 107.05523682 231.66920471 C103.81815317 228.43240565 100.58414203 225.19255296 97.35071135 221.95210528 C93.95995038 218.55505398 90.56631972 215.16087185 87.17300415 211.76637268 C80.76103512 205.35130698 74.35161745 198.93369854 67.943133 192.51515204 C60.64152459 185.20233058 53.33704523 177.89237965 46.03233409 170.58265769 C31.01837973 155.55827667 16.00799937 140.53032937 1 125.5 C-2.88729453 127.0933917 -5.33738826 129.59364674 -8.28224182 132.54846191 C-8.80215397 133.06737078 -9.32206612 133.58627965 -9.85773319 134.12091303 C-11.5981754 135.86040284 -13.33136958 137.60693854 -15.06469727 139.35351562 C-16.31119815 140.60221777 -17.55814741 141.85047248 -18.80551147 143.09831238 C-21.49030685 145.78604143 -24.17191444 148.47689743 -26.85110664 151.17021179 C-31.08563148 155.4269881 -35.32721964 159.67667846 -39.56980896 163.92541504 C-46.27768612 170.64467528 -52.98087382 177.3685915 -59.68204015 184.09454393 C-71.68697481 196.14380365 -83.69749318 208.1874914 -95.71323055 220.22597837 C-99.93159518 224.45276156 -104.14713441 228.6823371 -108.36044133 232.91416168 C-110.97906807 235.5434166 -113.5997121 238.17065391 -116.22086716 240.79738808 C-117.43798268 242.01797982 -118.6542253 243.2394427 -119.86953926 244.46182823 C-121.52565147 246.12736576 -123.18480254 247.78981604 -124.84474182 249.45153809 C-126.23761335 250.84968876 -126.23761335 250.84968876 -127.6586237 252.2760849 C-130.37035762 254.85177767 -132.13441035 256.36827984 -135.875 256.9375 C-139 256.5 -139 256.5 -141.875 254.375 C-144.41180307 250.94285467 -144.50592264 249.67334959 -144 245.5 C-142.3537159 243.05246162 -142.3537159 243.05246162 -140.07327271 240.70437622 C-139.24701511 239.84090702 -138.42075752 238.97743782 -137.56946182 238.08780289 C-136.72153942 237.23382793 -135.87361702 236.37985298 -135 235.5 C-134.25815334 234.73639034 -133.51630669 233.97278069 -132.75197983 233.18603134 C-130.46292436 230.847561 -128.14902386 228.53634274 -125.82763672 226.22998047 C-124.95974518 225.36354919 -124.09185364 224.49711792 -123.19766235 223.60443115 C-121.33113671 221.74168273 -119.46374699 219.87985514 -117.59475327 218.01958847 C-114.6320537 215.07057983 -111.67332313 212.11760954 -108.71511841 209.16409302 C-102.43806437 202.89806631 -96.15676038 196.636308 -89.875 190.375 C-83.08304042 183.60513621 -76.29185563 176.83450518 -69.50555241 170.05897057 C-66.57186836 167.13023111 -63.63577378 164.20393763 -60.69772696 161.27957511 C-58.43433744 159.02546976 -56.17423491 156.76807208 -53.91357422 154.51123047 C-52.71018402 153.31558975 -52.71018402 153.31558975 -51.48248291 152.09579468 C-47.97222353 148.58586354 -44.58144863 145.05749845 -41.37757874 141.26441956 C-38.76747844 138.23127742 -36.08795016 135.85927702 -32.83852577 133.53913307 C-22.04727737 125.83046562 -10.41381406 116.18460017 -7.43768311 102.71746826 C-5.13444189 88.16192946 -6.06515868 73.18610227 -6.77832031 58.53143311 C-7.09798841 51.31401881 -7.21798066 44.09087293 -7.36106968 36.8681879 C-7.47463081 31.26371638 -7.61900481 25.66628271 -7.86180115 20.06578064 C-7.89944077 19.04590057 -7.93708038 18.02602051 -7.9758606 16.97523499 C-8.04699734 15.07463474 -8.13371764 13.17452762 -8.23899841 11.2755127 C-8.44493746 5.10649001 -8.44493746 5.10649001 -6.11964417 1.93690491 C-3.8428116 0.39344212 -2.72323377 -0.04255053 0 0 Z " fill="#E3021E" transform="translate(256,19.5)"/>
<path d="M0 0 C0.85435733 -0.00581376 1.70871466 -0.01162753 2.5889616 -0.01761746 C5.4714958 -0.03229516 8.35318882 -0.0182961 11.23571777 -0.00457001 C13.31522306 -0.00917585 15.3947251 -0.01552662 17.47422028 -0.02347898 C23.20394158 -0.04023891 28.93339777 -0.03189569 34.66312027 -0.01953411 C40.83634525 -0.01051315 47.00952346 -0.02443864 53.18273926 -0.0354538 C64.582214 -0.0522443 75.98158018 -0.05074445 87.38105226 -0.03980792 C97.91114844 -0.02975478 108.44121348 -0.02711464 118.97131348 -0.0318985 C119.6691768 -0.03220404 120.36704012 -0.03250958 121.08605081 -0.03282438 C123.91874205 -0.03406969 126.75143327 -0.03534328 129.58412448 -0.03666343 C156.16940655 -0.04890576 182.75463452 -0.03779558 209.33990824 -0.01627585 C232.9712227 0.00270729 256.60245094 0.00100881 280.23376465 -0.01811981 C306.76970493 -0.0395277 333.30559739 -0.04803762 359.8415451 -0.03567076 C362.66914367 -0.03438784 365.49674224 -0.03313649 368.32434082 -0.0318985 C369.02059297 -0.03158219 369.71684512 -0.03126588 370.43419582 -0.03093999 C380.95895126 -0.02638569 391.48367219 -0.03171938 402.00842285 -0.04181671 C413.97280025 -0.05323781 425.93707578 -0.05004233 437.9014492 -0.02869374 C444.01023517 -0.01815415 450.1188458 -0.01411096 456.22763062 -0.02729034 C461.81361349 -0.03915988 467.39925757 -0.03274183 472.98520947 -0.01138014 C475.01206214 -0.00689092 477.03894311 -0.00923186 479.06577778 -0.01888329 C481.80948366 -0.03095183 484.5520112 -0.01867005 487.2956543 0 C488.49106228 -0.014047 488.49106228 -0.014047 489.71061993 -0.02837777 C493.28297656 0.02060022 495.25942558 0.20584372 498.13663483 2.40982485 C499.77406919 4.67825477 500.19103313 5.73818147 500.14782715 8.50336456 C500.15813965 9.16336456 500.16845215 9.82336456 500.17907715 10.50336456 C499.37514871 13.52991867 498.13516042 14.59803369 495.64782715 16.50336456 C492.73712234 16.8952751 490.205657 17.04092398 487.2956543 17.00672913 C486.44129697 17.01254289 485.58693964 17.01835665 484.7066927 17.02434659 C481.8241585 17.03902428 478.94246548 17.02502522 476.05993652 17.01129913 C473.98043124 17.01590497 471.9009292 17.02225575 469.82143402 17.03020811 C464.09171271 17.04696803 458.36225652 17.03862481 452.63253403 17.02626324 C446.45930905 17.01724227 440.28613084 17.03116776 434.11291504 17.04218292 C422.7134403 17.05897343 411.31407412 17.05747358 399.91460204 17.04653705 C389.38450586 17.03648391 378.85444081 17.03384377 368.32434082 17.03862762 C367.6264775 17.03893316 366.92861418 17.03923871 366.20960349 17.0395535 C363.37691225 17.04079881 360.54422103 17.04207241 357.71152982 17.04339256 C331.12624775 17.05563488 304.54101978 17.04452471 277.95574605 17.02300497 C254.3244316 17.00402184 230.69320335 17.00572032 207.06188965 17.02484894 C180.52594937 17.04625682 153.99005691 17.05476675 127.45410919 17.04239988 C124.62651063 17.04111697 121.79891206 17.03986561 118.97131348 17.03862762 C118.27506133 17.03831132 117.57880918 17.03799501 116.86145848 17.03766911 C106.33670304 17.03311481 95.81198211 17.03844851 85.28723145 17.04854584 C73.32285405 17.05996694 61.35857852 17.05677146 49.39420509 17.03542286 C43.28541913 17.02488328 37.1768085 17.02084009 31.06802368 17.03401947 C25.48204081 17.045889 19.89639672 17.03947095 14.31044483 17.01810926 C12.28359216 17.01362004 10.25671119 17.01596099 8.22987652 17.02561241 C5.48617064 17.03768096 2.7436431 17.02539917 0 17.00672913 C-1.19540799 17.02077612 -1.19540799 17.02077612 -2.41496563 17.0351069 C-5.98732226 16.98612891 -7.96377128 16.80088541 -10.84098053 14.59690428 C-12.4784149 12.32847436 -12.89537884 11.26854766 -12.85217285 8.50336456 C-12.8676416 7.51336456 -12.8676416 7.51336456 -12.88342285 6.50336456 C-11.14378892 -0.04584554 -5.788517 -0.06801969 0 0 Z " fill="#5C546A" transform="translate(12.3521728515625,475.4966354370117)"/>
<path d="M0 0 C0.66 -0.0103125 1.32 -0.020625 2 -0.03125 C4.9487376 0.75200842 6.10341544 2.13514715 8 4.5 C8.390625 7.515625 8.390625 7.515625 8.25 10.75 C8.21390625 11.82765625 8.1778125 12.9053125 8.140625 14.015625 C8.07101562 15.24539062 8.07101562 15.24539062 8 16.5 C8.94325134 16.49111755 9.88650269 16.48223511 10.8583374 16.4730835 C19.74557461 16.39201309 28.63273684 16.33204213 37.52025986 16.29275131 C42.08950964 16.27187235 46.65846102 16.24354929 51.22753906 16.19824219 C55.63660873 16.15479512 60.0453913 16.13086522 64.45465851 16.12049103 C66.13721487 16.11309757 67.81975543 16.09865983 69.50218964 16.07707977 C71.85825101 16.04805997 74.21312473 16.04404325 76.56933594 16.04589844 C77.61374847 16.02432678 77.61374847 16.02432678 78.67926025 16.00231934 C81.98899809 16.03053614 83.73674668 16.30475141 86.42510986 18.29864502 C88.31729674 20.94351206 88.68731056 23.04514707 88.52001953 26.28369141 C87.48186302 30.70828523 84.62386269 34.10668359 81.9375 37.6875 C80.78724708 39.23351142 79.64988714 40.78922182 78.52734375 42.35546875 C78.01937256 43.03246826 77.51140137 43.70946777 76.98803711 44.40698242 C75.66346585 47.21290024 76.0451244 48.58499608 77 51.5 C78.09356306 53.53466946 78.09356306 53.53466946 79.50390625 55.42578125 C79.99697266 56.14056641 80.49003906 56.85535156 80.99804688 57.59179688 C82.03680965 59.06629534 83.08365114 60.53513708 84.13867188 61.99804688 C87.61810543 67.08267127 88.98404922 70.31547876 88 76.5 C86.42755127 78.70330811 86.42755127 78.70330811 84 80.5 C81.37881671 80.87454981 79.18430138 81.00811196 76.56933594 80.95410156 C75.45655273 80.95497772 75.45655273 80.95497772 74.32128906 80.95587158 C71.87517098 80.95309025 69.43027953 80.92199786 66.984375 80.890625 C65.28615993 80.88316274 63.58793624 80.87746973 61.88970947 80.87347412 C57.4244399 80.85821651 52.95969247 80.81893389 48.49462891 80.7746582 C43.93659529 80.73370807 39.37847713 80.71546367 34.8203125 80.6953125 C25.87994226 80.65243936 16.94009628 80.58208875 8 80.5 C8 89.74 8 98.98 8 108.5 C6.35 107.51 4.7 106.52 3 105.5 C-1.77064799 104.903669 -4.03227457 105.96655369 -8 108.5 C-8.09260248 95.00922588 -8.16371565 81.51852713 -8.20724869 68.02750015 C-8.22814037 61.76333659 -8.2564874 55.49939015 -8.30175781 49.23535156 C-8.34515836 43.1923585 -8.36912519 37.14957454 -8.37950897 31.10643768 C-8.38691069 28.79869036 -8.40136418 26.49095472 -8.42292023 24.1832962 C-8.45187649 20.95560299 -8.45595916 17.72877836 -8.45410156 14.50097656 C-8.47567322 13.06383301 -8.47567322 13.06383301 -8.49768066 11.59765625 C-8.45724791 5.12264014 -8.45724791 5.12264014 -6.09661865 1.90814209 C-3.83455628 0.38888381 -2.70024222 -0.04219128 0 0 Z " fill="#FF4F19" transform="translate(256,19.5)"/>
<path d="M0 0 C8.72299802 8.35888014 12.41894494 17.90079991 13.0859375 29.74609375 C13.21071415 41.13820207 8.87982352 51.15309428 1.1484375 59.4921875 C-8.21223045 67.9131745 -18.5730367 70.1765667 -30.875 70.3125 C-41.53783546 69.51389651 -50.70822464 64.12805713 -57.875 56.3125 C-65.1119885 46.20318125 -67.59474745 35.92246136 -66.6640625 23.49609375 C-65.09021102 14.00844191 -59.92741992 5.7670269 -52.875 -0.6875 C-36.50161227 -12.2436782 -16.03826268 -13.22688108 0 0 Z " fill="#FDE9B6" transform="translate(282.875,237.6875)"/>
<path d="M0 0 C1.03833984 0.75023437 1.03833984 0.75023437 2.09765625 1.515625 C3.02771484 2.17304688 3.02771484 2.17304688 3.9765625 2.84375 C14.6545447 11.15680997 21.5773298 24.38815819 24.09765625 37.515625 C25.57280388 53.16771771 22.42559421 67.60556654 13.09765625 80.515625 C12.44023437 81.44568359 12.44023437 81.44568359 11.76953125 82.39453125 C3.16002166 93.45329787 -10.35210527 99.9371946 -23.90234375 102.515625 C-39.78125073 104.25288979 -54.05353977 100.25366081 -67.08203125 90.9609375 C-78.55292859 81.63246457 -86.50923542 67.24888115 -88.12353516 52.49389648 C-89.03439677 36.44916598 -84.98980654 21.96288786 -74.71484375 9.328125 C-54.94894351 -11.87134603 -24.17386482 -15.98138643 0 0 Z M-61.046875 18.48828125 C-69.37474063 27.58757022 -71.77043888 37.47271022 -71.90234375 49.515625 C-71.08578294 60.29725203 -65.93192554 70.30601977 -57.90234375 77.515625 C-47.3857523 84.92167532 -36.58595021 88.06330691 -23.65234375 85.890625 C-12.63051824 83.16227147 -3.53285325 77.11416202 2.47265625 67.453125 C8.14048474 57.68482841 9.59599465 45.79491151 6.8828125 34.81640625 C3.24029169 24.14255174 -3.72360617 16.34218586 -13.375 10.7421875 C-30.07790327 2.63598715 -47.71105261 6.32366881 -61.046875 18.48828125 Z " fill="#805E63" transform="translate(287.90234375,221.484375)"/>
<path d="M0 0 C6.56899959 4.40532316 10.15745953 10.32221697 12.6328125 17.765625 C13.17133237 21.2925624 13.21838446 24.74904014 13.19921875 28.3125 C13.20851662 29.77384369 13.20851662 29.77384369 13.21800232 31.26470947 C13.22506126 33.30846158 13.22199573 35.35227167 13.20922852 37.39599609 C13.19528596 40.52157505 13.22958391 43.64420087 13.26757812 46.76953125 C13.26852874 48.76302156 13.2666736 50.75651562 13.26171875 52.75 C13.27497696 53.68028015 13.28823517 54.6105603 13.30189514 55.56903076 C13.24103763 59.80084058 12.98831383 62.18571488 10.74194336 65.85009766 C6.2548362 68.61459258 2.43735567 68.48402858 -2.7421875 68.4296875 C-4.24531494 68.43686295 -4.24531494 68.43686295 -5.77880859 68.44418335 C-7.89357069 68.44757978 -10.00838548 68.43839541 -12.12304688 68.41748047 C-15.35666171 68.39071213 -18.5868054 68.41723793 -21.8203125 68.44921875 C-23.87761181 68.44591461 -25.93490897 68.43950828 -27.9921875 68.4296875 C-29.43924072 68.44486923 -29.43924072 68.44486923 -30.91552734 68.46035767 C-35.24667781 68.38488276 -37.73346097 68.15796037 -41.47192383 65.84350586 C-44.15443927 61.48713948 -44.10455869 57.88595156 -44.06640625 52.85546875 C-44.07356155 51.89218155 -44.08071686 50.92889435 -44.08808899 49.93641663 C-44.0958634 47.89813155 -44.09085935 45.85976317 -44.07397461 43.8215332 C-44.05489575 40.73679529 -44.09398485 37.65665794 -44.13867188 34.57226562 C-44.18904743 22.7329906 -43.84470639 13.0773423 -35.625 3.79907227 C-25.38068366 -6.20474473 -12.15617471 -6.79222294 0 0 Z " fill="#7E5C62" transform="translate(371.3671875,296.234375)"/>
<path d="M0 0 C6.89549788 4.38920068 11.2727828 9.36435571 13.16796875 17.42602539 C14.19033779 22.18114629 14.42355872 26.73092325 14.41796875 31.58203125 C14.42439644 32.84361053 14.42439644 32.84361053 14.43095398 34.13067627 C14.43665197 35.89195867 14.43723136 37.65326458 14.43286133 39.41455078 C14.42967894 42.10489616 14.45329336 44.79416328 14.47851562 47.484375 C14.48078691 49.20442571 14.48149291 50.92447935 14.48046875 52.64453125 C14.4896785 53.44356873 14.49888824 54.2426062 14.50837708 55.06585693 C14.46061427 60.82751016 13.28884309 64.17600066 9.1171875 68.34765625 C7.16398621 68.62181091 7.16398621 68.62181091 4.74682617 68.65405273 C3.38982857 68.67803383 3.38982857 68.67803383 2.00541687 68.70249939 C0.53513786 68.71054344 0.53513786 68.71054344 -0.96484375 68.71875 C-2.47433846 68.73229271 -2.47433846 68.73229271 -4.014328 68.74610901 C-6.1469728 68.76063646 -8.27966243 68.76950441 -10.41235352 68.77319336 C-13.67215477 68.78507186 -16.93005273 68.83421891 -20.18945312 68.88476562 C-22.26040742 68.89423155 -24.33137335 68.90146577 -26.40234375 68.90625 C-27.37645706 68.92578232 -28.35057037 68.94531464 -29.35420227 68.96543884 C-33.70888292 68.93648584 -36.22244145 68.75010303 -39.99633789 66.45019531 C-42.69939229 62.00469056 -42.60143378 58.26417822 -42.546875 53.1484375 C-42.55165863 52.15821091 -42.55644226 51.16798431 -42.56137085 50.14775085 C-42.56476873 48.05396943 -42.55557421 45.96013488 -42.53466797 43.86645508 C-42.50804349 40.68773459 -42.53434644 37.51259115 -42.56640625 34.33398438 C-42.56309936 32.29296105 -42.55668736 30.25193992 -42.546875 28.2109375 C-42.55699615 27.27204178 -42.56711731 26.33314606 -42.57754517 25.36579895 C-42.4422066 17.60259699 -40.23491157 11.06255571 -34.97036743 5.22822571 C-24.92498239 -4.3689683 -12.34127409 -7.07750383 0 0 Z " fill="#7E5C62" transform="translate(441.8828125,295.65234375)"/>
<path d="M0 0 C6.89549788 4.38920068 11.2727828 9.36435571 13.16796875 17.42602539 C14.19033779 22.18114629 14.42355872 26.73092325 14.41796875 31.58203125 C14.42439644 32.84361053 14.42439644 32.84361053 14.43095398 34.13067627 C14.43665197 35.89195867 14.43723136 37.65326458 14.43286133 39.41455078 C14.42967894 42.10489616 14.45329336 44.79416328 14.47851562 47.484375 C14.48078691 49.20442571 14.48149291 50.92447935 14.48046875 52.64453125 C14.4896785 53.44356873 14.49888824 54.2426062 14.50837708 55.06585693 C14.46061427 60.82751016 13.28884309 64.17600066 9.1171875 68.34765625 C7.16398621 68.62181091 7.16398621 68.62181091 4.74682617 68.65405273 C3.38982857 68.67803383 3.38982857 68.67803383 2.00541687 68.70249939 C0.53513786 68.71054344 0.53513786 68.71054344 -0.96484375 68.71875 C-2.47433846 68.73229271 -2.47433846 68.73229271 -4.014328 68.74610901 C-6.1469728 68.76063646 -8.27966243 68.76950441 -10.41235352 68.77319336 C-13.67215477 68.78507186 -16.93005273 68.83421891 -20.18945312 68.88476562 C-22.26040742 68.89423155 -24.33137335 68.90146577 -26.40234375 68.90625 C-27.37645706 68.92578232 -28.35057037 68.94531464 -29.35420227 68.96543884 C-33.70888292 68.93648584 -36.22244145 68.75010303 -39.99633789 66.45019531 C-42.69939229 62.00469056 -42.60143378 58.26417822 -42.546875 53.1484375 C-42.55165863 52.15821091 -42.55644226 51.16798431 -42.56137085 50.14775085 C-42.56476873 48.05396943 -42.55557421 45.96013488 -42.53466797 43.86645508 C-42.50804349 40.68773459 -42.53434644 37.51259115 -42.56640625 34.33398438 C-42.56309936 32.29296105 -42.55668736 30.25193992 -42.546875 28.2109375 C-42.55699615 27.27204178 -42.56711731 26.33314606 -42.57754517 25.36579895 C-42.4422066 17.60259699 -40.23491157 11.06255571 -34.97036743 5.22822571 C-24.92498239 -4.3689683 -12.34127409 -7.07750383 0 0 Z " fill="#7E5C62" transform="translate(97.8828125,295.65234375)"/>
<path d="M0 0 C6.47740822 4.11422193 10.58668719 10.63026776 12.60646057 17.94662476 C13.38817655 21.76766083 13.33231764 25.59326587 13.328125 29.48046875 C13.33241013 30.36874359 13.33669525 31.25701843 13.34111023 32.17221069 C13.34682546 34.03960318 13.34737462 35.90701791 13.34301758 37.77441406 C13.33984549 40.6273375 13.36339331 43.47923481 13.38867188 46.33203125 C13.39094399 48.15234245 13.39164877 49.97265642 13.390625 51.79296875 C13.39983475 52.64202789 13.40904449 53.49108704 13.41853333 54.36587524 C13.38209132 59.03392804 13.16425547 62.28217664 10.02734375 66.00390625 C7.16740065 67.73266117 5.0282418 68.25787323 1.70532227 68.27856445 C0.86087051 68.28809647 0.01641876 68.29762848 -0.85362244 68.30744934 C-2.20998558 68.30608223 -2.20998558 68.30608223 -3.59375 68.3046875 C-4.99911766 68.31111519 -4.99911766 68.31111519 -6.43287659 68.31767273 C-8.41235548 68.32341005 -10.39185545 68.3239207 -12.37133789 68.31958008 C-15.39571189 68.31642134 -18.41910636 68.33988253 -21.44335938 68.36523438 C-23.36848835 68.36750759 -25.29361995 68.36821076 -27.21875 68.3671875 C-28.12096786 68.37639725 -29.02318573 68.38560699 -29.95274353 68.39509583 C-35.25446334 68.35613506 -39.03095398 67.94560852 -42.97265625 64.00390625 C-43.09156826 62.58433076 -43.1427032 61.15898345 -43.16552734 59.73461914 C-43.18159027 58.82599625 -43.1976532 57.91737335 -43.21420288 56.98121643 C-43.25872426 52.78655659 -43.29978888 48.59205838 -43.32275391 44.3972168 C-43.33923581 42.19268175 -43.36642164 39.98819839 -43.40478516 37.78393555 C-43.45995316 34.59786367 -43.48149712 31.41304978 -43.49609375 28.2265625 C-43.51876312 27.25324478 -43.5414325 26.27992706 -43.56478882 25.27711487 C-43.53796573 16.45862259 -40.59431461 9.69507471 -34.72265625 3.12890625 C-24.58636625 -6.13167835 -11.90044256 -6.00913436 0 0 Z " fill="#7E5D62" transform="translate(170.97265625,295.99609375)"/>
<path d="M0 0 C1.50312744 -0.00717545 1.50312744 -0.00717545 3.03662109 -0.01449585 C5.15138319 -0.01789228 7.26619798 -0.00870791 9.38085938 0.01220703 C12.61447421 0.03897537 15.8446179 0.01244957 19.078125 -0.01953125 C21.13542431 -0.01622711 23.19272147 -0.00982078 25.25 0 C26.21470215 -0.01012115 27.1794043 -0.02024231 28.17333984 -0.03067017 C32.41332851 0.04321615 35.00944758 0.31067369 38.73193359 2.44775391 C41.65923998 7.4212301 41.33943623 12.11673038 41.2890625 17.7890625 C41.29384613 18.96871582 41.29862976 20.14836914 41.30355835 21.36376953 C41.30695727 23.85515681 41.29775565 26.34658869 41.27685547 28.83789062 C41.25009343 32.65075149 41.27660743 36.46066818 41.30859375 40.2734375 C41.30528966 42.695319 41.29888344 45.11719866 41.2890625 47.5390625 C41.29918365 48.67875488 41.30930481 49.81844727 41.31973267 50.99267578 C41.2500568 55.69911373 41.14667997 58.77773132 38.73193359 62.88037109 C34.23186046 65.46386428 30.36035204 65.38174016 25.25 65.328125 C23.74687256 65.33530045 23.74687256 65.33530045 22.21337891 65.34262085 C20.09861681 65.34601728 17.98380202 65.33683291 15.86914062 65.31591797 C12.63552579 65.28914963 9.4053821 65.31567543 6.171875 65.34765625 C4.11457569 65.34435211 2.05727853 65.33794578 0 65.328125 C-1.44705322 65.34330673 -1.44705322 65.34330673 -2.92333984 65.35879517 C-7.16332851 65.28490885 -9.75944758 65.01745131 -13.48193359 62.88037109 C-16.40923998 57.9068949 -16.08943623 53.21139462 -16.0390625 47.5390625 C-16.04384613 46.35940918 -16.04862976 45.17975586 -16.05355835 43.96435547 C-16.05695727 41.47296819 -16.04775565 38.98153631 -16.02685547 36.49023438 C-16.00009343 32.67737351 -16.02660743 28.86745682 -16.05859375 25.0546875 C-16.05528966 22.632806 -16.04888344 20.21092634 -16.0390625 17.7890625 C-16.04918365 16.64937012 -16.05930481 15.50967773 -16.06973267 14.33544922 C-16.0000568 9.62901127 -15.89667997 6.55039368 -13.48193359 2.44775391 C-8.98186046 -0.13573928 -5.11035204 -0.05361516 0 0 Z " fill="#7E5C62" transform="translate(415.375,387.3359375)"/>
<path d="M0 0 C1.50312744 -0.00717545 1.50312744 -0.00717545 3.03662109 -0.01449585 C5.15138319 -0.01789228 7.26619798 -0.00870791 9.38085938 0.01220703 C12.61447421 0.03897537 15.8446179 0.01244957 19.078125 -0.01953125 C21.13542431 -0.01622711 23.19272147 -0.00982078 25.25 0 C26.21470215 -0.01012115 27.1794043 -0.02024231 28.17333984 -0.03067017 C32.43260778 0.04355211 35.00781367 0.30481202 38.73632812 2.47509766 C41.61343941 7.33301229 41.30174029 11.80405923 41.21875 17.3515625 C41.21879028 18.48682373 41.21883057 19.62208496 41.21887207 20.79174805 C41.21351697 23.18902124 41.19593496 25.58629399 41.16699219 27.98339844 C41.12514975 31.65093694 41.12592381 35.31663812 41.1328125 38.984375 C41.12231944 41.31511692 41.10938071 43.64584937 41.09375 45.9765625 C41.09354858 47.07250732 41.09334717 48.16845215 41.09313965 49.29760742 C41.07722778 50.32217041 41.06131592 51.3467334 41.04492188 52.40234375 C41.03650269 53.29993408 41.0280835 54.19752441 41.01940918 55.12231445 C40.39307129 59.15871416 38.47319571 61.81586679 35.625 64.6640625 C33.67179871 64.93821716 33.67179871 64.93821716 31.25463867 64.97045898 C29.89764107 64.99444008 29.89764107 64.99444008 28.51322937 65.01890564 C27.04295036 65.02694969 27.04295036 65.02694969 25.54296875 65.03515625 C24.03347404 65.04869896 24.03347404 65.04869896 22.4934845 65.06251526 C20.3608397 65.07704271 18.22815007 65.08591066 16.09545898 65.08959961 C12.83565773 65.10147811 9.57775977 65.15062516 6.31835938 65.20117188 C4.24740508 65.2106378 2.17643915 65.21787202 0.10546875 65.22265625 C-0.86864456 65.24218857 -1.84275787 65.26172089 -2.84638977 65.28184509 C-7.12157262 65.25342065 -9.72938347 65.03255954 -13.48852539 62.88696289 C-16.40339215 57.90713164 -16.08943825 53.21162286 -16.0390625 47.5390625 C-16.04384613 46.35940918 -16.04862976 45.17975586 -16.05355835 43.96435547 C-16.05695727 41.47296819 -16.04775565 38.98153631 -16.02685547 36.49023438 C-16.00009343 32.67737351 -16.02660743 28.86745682 -16.05859375 25.0546875 C-16.05528966 22.632806 -16.04888344 20.21092634 -16.0390625 17.7890625 C-16.04918365 16.64937012 -16.05930481 15.50967773 -16.06973267 14.33544922 C-16.0000568 9.62901127 -15.89667997 6.55039368 -13.48193359 2.44775391 C-8.98186046 -0.13573928 -5.11035204 -0.05361516 0 0 Z " fill="#7E5C62" transform="translate(343.375,387.3359375)"/>
<path d="M0 0 C1.50312744 -0.00717545 1.50312744 -0.00717545 3.03662109 -0.01449585 C5.15138319 -0.01789228 7.26619798 -0.00870791 9.38085938 0.01220703 C12.61447421 0.03897537 15.8446179 0.01244957 19.078125 -0.01953125 C21.13542431 -0.01622711 23.19272147 -0.00982078 25.25 0 C26.21470215 -0.01012115 27.1794043 -0.02024231 28.17333984 -0.03067017 C32.41332851 0.04321615 35.00944758 0.31067369 38.73193359 2.44775391 C41.65923998 7.4212301 41.33943623 12.11673038 41.2890625 17.7890625 C41.29384613 18.96871582 41.29862976 20.14836914 41.30355835 21.36376953 C41.30695727 23.85515681 41.29775565 26.34658869 41.27685547 28.83789062 C41.25009343 32.65075149 41.27660743 36.46066818 41.30859375 40.2734375 C41.30528966 42.695319 41.29888344 45.11719866 41.2890625 47.5390625 C41.29918365 48.67875488 41.30930481 49.81844727 41.31973267 50.99267578 C41.2500568 55.69911373 41.14667997 58.77773132 38.73193359 62.88037109 C34.23186046 65.46386428 30.36035204 65.38174016 25.25 65.328125 C23.74687256 65.33530045 23.74687256 65.33530045 22.21337891 65.34262085 C20.09861681 65.34601728 17.98380202 65.33683291 15.86914062 65.31591797 C12.63552579 65.28914963 9.4053821 65.31567543 6.171875 65.34765625 C4.11457569 65.34435211 2.05727853 65.33794578 0 65.328125 C-1.44705322 65.34330673 -1.44705322 65.34330673 -2.92333984 65.35879517 C-7.16332851 65.28490885 -9.75944758 65.01745131 -13.48193359 62.88037109 C-16.40923998 57.9068949 -16.08943623 53.21139462 -16.0390625 47.5390625 C-16.04384613 46.35940918 -16.04862976 45.17975586 -16.05355835 43.96435547 C-16.05695727 41.47296819 -16.04775565 38.98153631 -16.02685547 36.49023438 C-16.00009343 32.67737351 -16.02660743 28.86745682 -16.05859375 25.0546875 C-16.05528966 22.632806 -16.04888344 20.21092634 -16.0390625 17.7890625 C-16.04918365 16.64937012 -16.05930481 15.50967773 -16.06973267 14.33544922 C-16.0000568 9.62901127 -15.89667997 6.55039368 -13.48193359 2.44775391 C-8.98186046 -0.13573928 -5.11035204 -0.05361516 0 0 Z " fill="#7E5C62" transform="translate(143.375,387.3359375)"/>
<path d="M0 0 C1.50312744 -0.00717545 1.50312744 -0.00717545 3.03662109 -0.01449585 C5.15138319 -0.01789228 7.26619798 -0.00870791 9.38085938 0.01220703 C12.61447421 0.03897537 15.8446179 0.01244957 19.078125 -0.01953125 C21.13542431 -0.01622711 23.19272147 -0.00982078 25.25 0 C26.21470215 -0.01012115 27.1794043 -0.02024231 28.17333984 -0.03067017 C32.43260778 0.04355211 35.00781367 0.30481202 38.73632812 2.47509766 C41.61343941 7.33301229 41.30174029 11.80405923 41.21875 17.3515625 C41.21879028 18.48682373 41.21883057 19.62208496 41.21887207 20.79174805 C41.21351697 23.18902124 41.19593496 25.58629399 41.16699219 27.98339844 C41.12514975 31.65093694 41.12592381 35.31663812 41.1328125 38.984375 C41.12231944 41.31511692 41.10938071 43.64584937 41.09375 45.9765625 C41.09354858 47.07250732 41.09334717 48.16845215 41.09313965 49.29760742 C41.07722778 50.32217041 41.06131592 51.3467334 41.04492188 52.40234375 C41.03650269 53.29993408 41.0280835 54.19752441 41.01940918 55.12231445 C40.39307129 59.15871416 38.47319571 61.81586679 35.625 64.6640625 C33.67179871 64.93821716 33.67179871 64.93821716 31.25463867 64.97045898 C29.89764107 64.99444008 29.89764107 64.99444008 28.51322937 65.01890564 C27.04295036 65.02694969 27.04295036 65.02694969 25.54296875 65.03515625 C24.03347404 65.04869896 24.03347404 65.04869896 22.4934845 65.06251526 C20.3608397 65.07704271 18.22815007 65.08591066 16.09545898 65.08959961 C12.83565773 65.10147811 9.57775977 65.15062516 6.31835938 65.20117188 C4.24740508 65.2106378 2.17643915 65.21787202 0.10546875 65.22265625 C-0.86864456 65.24218857 -1.84275787 65.26172089 -2.84638977 65.28184509 C-7.12157262 65.25342065 -9.72938347 65.03255954 -13.48852539 62.88696289 C-16.40339215 57.90713164 -16.08943825 53.21162286 -16.0390625 47.5390625 C-16.04384613 46.35940918 -16.04862976 45.17975586 -16.05355835 43.96435547 C-16.05695727 41.47296819 -16.04775565 38.98153631 -16.02685547 36.49023438 C-16.00009343 32.67737351 -16.02660743 28.86745682 -16.05859375 25.0546875 C-16.05528966 22.632806 -16.04888344 20.21092634 -16.0390625 17.7890625 C-16.04918365 16.64937012 -16.05930481 15.50967773 -16.06973267 14.33544922 C-16.0000568 9.62901127 -15.89667997 6.55039368 -13.48193359 2.44775391 C-8.98186046 -0.13573928 -5.11035204 -0.05361516 0 0 Z " fill="#7E5C62" transform="translate(71.375,387.3359375)"/>
<path d="M0 0 C10.56 0 21.12 0 32 0 C32 26.4 32 52.8 32 80 C21.44 80 10.88 80 0 80 C0 53.6 0 27.2 0 0 Z " fill="#996459" transform="translate(264,396)"/>
<path d="M0 0 C10.56 0 21.12 0 32 0 C32 26.4 32 52.8 32 80 C21.44 80 10.88 80 0 80 C0 53.6 0 27.2 0 0 Z " fill="#986359" transform="translate(216,396)"/>
<path d="M0 0 C0.66 -0.0103125 1.32 -0.020625 2 -0.03125 C5.09986871 0.79215263 6.08718749 1.89529956 8 4.5 C8.59288429 7.82989376 8.50474368 11.12710479 8.45410156 14.50097656 C8.45468567 15.51593201 8.45526978 16.53088745 8.45587158 17.57659912 C8.4530847 20.93162222 8.42196313 24.28575709 8.390625 27.640625 C8.38316479 29.96660883 8.37747082 32.29259895 8.37347412 34.61859131 C8.35820065 40.74093983 8.31890353 46.86290885 8.2746582 52.98510742 C8.23374276 59.23220689 8.21547104 65.47936767 8.1953125 71.7265625 C8.15241138 83.98454175 8.08413891 96.24223932 8 108.5 C7.236875 108.01273437 6.47375 107.52546875 5.6875 107.0234375 C2.43826906 105.18157694 0.68572329 105.03928459 -3 105.5 C-4.6908786 106.45849223 -6.36181395 107.45399607 -8 108.5 C-8.09260248 95.00922588 -8.16371565 81.51852713 -8.20724869 68.02750015 C-8.22814037 61.76333659 -8.2564874 55.49939015 -8.30175781 49.23535156 C-8.34515836 43.1923585 -8.36912519 37.14957454 -8.37950897 31.10643768 C-8.38691069 28.79869036 -8.40136418 26.49095472 -8.42292023 24.1832962 C-8.45187649 20.95560299 -8.45595916 17.72877836 -8.45410156 14.50097656 C-8.47567322 13.06383301 -8.47567322 13.06383301 -8.49768066 11.59765625 C-8.45724791 5.12264014 -8.45724791 5.12264014 -6.09661865 1.90814209 C-3.83455628 0.38888381 -2.70024222 -0.04219128 0 0 Z " fill="#5C5369" transform="translate(256,19.5)"/>
<path d="M0 0 C0.67544861 -0.0087616 1.35089722 -0.01752319 2.04681396 -0.02655029 C4.26885132 -0.04847103 6.48888166 -0.03402082 8.7109375 -0.01708984 C10.26123434 -0.02046017 11.81152859 -0.02531459 13.36181641 -0.03158569 C16.6067019 -0.03894698 19.85089795 -0.0282766 23.09570312 -0.00488281 C27.2489408 0.02360583 31.40056301 0.00719768 35.55374146 -0.02274513 C38.75378527 -0.04083902 41.95344793 -0.03505079 45.15350342 -0.02210617 C46.68447055 -0.01877787 48.21547262 -0.02283903 49.74639893 -0.03450394 C51.8891524 -0.04724882 54.02931399 -0.02779228 56.171875 0 C57.3892334 0.00397797 58.6065918 0.00795593 59.86083984 0.01205444 C63.0859375 0.64697266 63.0859375 0.64697266 66.01806641 2.49990845 C68.0859375 5.64697266 68.0859375 5.64697266 68.0859375 16.64697266 C41.6859375 16.64697266 15.2859375 16.64697266 -11.9140625 16.64697266 C-11.9140625 5.64697266 -11.9140625 5.64697266 -9.84619141 2.49990845 C-6.28159685 0.24729097 -4.20314422 0.01373463 0 0 Z " fill="#4BB8EB" transform="translate(227.9140625,363.35302734375)"/>
<path d="M0 0 C4.05974539 0.84578029 5.40053445 2.43295767 8 5.625 C8.64697266 8.8671875 8.64697266 8.8671875 8.6640625 12.5 C8.67373047 14.47226563 8.67373047 14.47226563 8.68359375 16.484375 C8.67312012 17.16435547 8.66264648 17.84433594 8.65185547 18.54492188 C8.62506008 20.62034681 8.65162887 22.69036676 8.68359375 24.765625 C8.67714844 26.08046875 8.67070312 27.3953125 8.6640625 28.75 C8.65560303 30.54824219 8.65560303 30.54824219 8.64697266 32.3828125 C7.80015954 36.62646463 6.47322593 38.08540539 3 40.625 C-0.2421875 41.27197266 -0.2421875 41.27197266 -3.875 41.2890625 C-5.18984375 41.29550781 -6.5046875 41.30195313 -7.859375 41.30859375 C-8.53935547 41.29812012 -9.21933594 41.28764648 -9.91992188 41.27685547 C-11.99534681 41.25006008 -14.06536676 41.27662887 -16.140625 41.30859375 C-18.11289063 41.29892578 -18.11289063 41.29892578 -20.125 41.2890625 C-21.92324219 41.28060303 -21.92324219 41.28060303 -23.7578125 41.27197266 C-27.901459 40.44511549 -29.39838235 38.88846437 -32 35.625 C-32.625 32.625 -32.625 32.625 -32 29.625 C-29.94415858 26.77684647 -28.37027721 24.87566791 -24.80859375 24.22412109 C-22.25102801 24.13299763 -19.74353883 24.1886055 -17.1875 24.3125 C-16.30384766 24.33505859 -15.42019531 24.35761719 -14.50976562 24.38085938 C-12.3391109 24.43952572 -10.1693331 24.52920021 -8 24.625 C-8.05800781 23.31144531 -8.11601562 21.99789063 -8.17578125 20.64453125 C-8.22269048 18.90888977 -8.26818939 17.17320977 -8.3125 15.4375 C-8.35439453 14.57318359 -8.39628906 13.70886719 -8.43945312 12.81835938 C-8.52658088 8.27029077 -8.49819341 6.28174742 -5.66796875 2.55078125 C-3 0.625 -3 0.625 0 0 Z " fill="#5D556A" transform="translate(256,235.375)"/>
<path d="M0 0 C3.67117594 2.03326668 6.79787851 4.91278692 8 9 C8 11.31 8 13.62 8 16 C0.08 16 -7.84 16 -16 16 C-16 7.55172414 -16 7.55172414 -13 3 C-9.15503066 -0.29568801 -4.91730139 -1.03927309 0 0 Z " fill="#4CB6E8" transform="translate(432,308)"/>
<path d="M0 0 C3.67117594 2.03326668 6.79787851 4.91278692 8 9 C8 11.31 8 13.62 8 16 C0.08 16 -7.84 16 -16 16 C-16 7.55172414 -16 7.55172414 -13 3 C-9.15503066 -0.29568801 -4.91730139 -1.03927309 0 0 Z " fill="#4CB6E8" transform="translate(88,308)"/>
<path d="M0 0 C3.70390021 2.02666238 5.65363011 3.48044516 8 7 C8 9.97 8 12.94 8 16 C0.41 16 -7.18 16 -15 16 C-15 7 -15 7 -12.6875 4.0625 C-8.07972515 0.5263007 -5.86967935 -0.59691654 0 0 Z " fill="#4BB7E9" transform="translate(159,308)"/>
<path d="M0 0 C4.22871326 4.34953364 4.1875 7.10983143 4.1875 13.25 C-3.7325 13.25 -11.6525 13.25 -19.8125 13.25 C-18.64755155 2.76546392 -18.64755155 2.76546392 -14.8125 -0.75 C-9.73813048 -3.76719269 -4.91795929 -3.06006356 0 0 Z " fill="#4BB8EA" transform="translate(363.8125,310.75)"/>
<path d="M0 0 C7.92 0 15.84 0 24 0 C24 2.64 24 5.28 24 8 C16.08 8 8.16 8 0 8 C0 5.36 0 2.72 0 0 Z " fill="#4BB9EC" transform="translate(416,428)"/>
<path d="M0 0 C7.92 0 15.84 0 24 0 C24 2.64 24 5.28 24 8 C16.08 8 8.16 8 0 8 C0 5.36 0 2.72 0 0 Z " fill="#4BB8EA" transform="translate(344,428)"/>
<path d="M0 0 C7.92 0 15.84 0 24 0 C24 2.64 24 5.28 24 8 C16.08 8 8.16 8 0 8 C0 5.36 0 2.72 0 0 Z " fill="#4BB9EC" transform="translate(144,428)"/>
<path d="M0 0 C7.92 0 15.84 0 24 0 C24 2.64 24 5.28 24 8 C16.08 8 8.16 8 0 8 C0 5.36 0 2.72 0 0 Z " fill="#4BB8EA" transform="translate(72,428)"/>
<path d="M0 0 C7.92 0 15.84 0 24 0 C24 2.64 24 5.28 24 8 C16.08 8 8.16 8 0 8 C0 5.36 0 2.72 0 0 Z " fill="#4BB9EC" transform="translate(416,404)"/>
<path d="M0 0 C7.92 0 15.84 0 24 0 C24 2.64 24 5.28 24 8 C16.08 8 8.16 8 0 8 C0 5.36 0 2.72 0 0 Z " fill="#4BB8EA" transform="translate(344,404)"/>
<path d="M0 0 C7.92 0 15.84 0 24 0 C24 2.64 24 5.28 24 8 C16.08 8 8.16 8 0 8 C0 5.36 0 2.72 0 0 Z " fill="#4BB9EC" transform="translate(144,404)"/>
<path d="M0 0 C7.92 0 15.84 0 24 0 C24 2.64 24 5.28 24 8 C16.08 8 8.16 8 0 8 C0 5.36 0 2.72 0 0 Z " fill="#4BB8EA" transform="translate(72,404)"/>
<path d="M0 0 C7.92 0 15.84 0 24 0 C24 2.64 24 5.28 24 8 C16.08 8 8.16 8 0 8 C0 5.36 0 2.72 0 0 Z " fill="#4BB8EA" transform="translate(416,340)"/>
<path d="M0 0 C7.92 0 15.84 0 24 0 C24 2.64 24 5.28 24 8 C16.08 8 8.16 8 0 8 C0 5.36 0 2.72 0 0 Z " fill="#4BB9EC" transform="translate(344,340)"/>
<path d="M0 0 C7.92 0 15.84 0 24 0 C24 2.64 24 5.28 24 8 C16.08 8 8.16 8 0 8 C0 5.36 0 2.72 0 0 Z " fill="#4BB7E9" transform="translate(144,340)"/>
<path d="M0 0 C7.92 0 15.84 0 24 0 C24 2.64 24 5.28 24 8 C16.08 8 8.16 8 0 8 C0 5.36 0 2.72 0 0 Z " fill="#4BB8EA" transform="translate(72,340)"/>
</svg>
