<?xml version="1.0" standalone="no"?>
<!DOCTYPE svg PUBLIC "-//W3C//DTD SVG 20010904//EN"
 "http://www.w3.org/TR/2001/REC-SVG-20010904/DTD/svg10.dtd">
<svg version="1.0" xmlns="http://www.w3.org/2000/svg"
 width="949.000000pt" height="949.000000pt" viewBox="0 0 949.000000 949.000000"
 preserveAspectRatio="xMidYMid meet">

<g transform="translate(0.000000,949.000000) scale(0.100000,-0.100000)"
fill="#000000" stroke="none">
<path d="M738 9484 c-10 -3 -18 -10 -18 -15 0 -5 -7 -9 -16 -9 -9 0 -29 -15
-45 -32 -16 -18 -33 -37 -38 -42 -5 -4 -34 -33 -64 -63 -30 -30 -59 -60 -65
-65 -5 -6 -35 -35 -65 -65 -30 -30 -59 -60 -65 -65 -5 -6 -35 -36 -66 -67 -31
-31 -61 -60 -67 -66 -5 -5 -33 -33 -62 -62 -29 -28 -57 -58 -63 -65 -6 -7 -21
-20 -33 -28 -11 -8 -21 -21 -21 -30 0 -9 -9 -22 -20 -30 -17 -12 -20 -26 -20
-87 0 -63 2 -72 20 -78 11 -3 20 -15 20 -26 0 -10 5 -19 10 -19 6 0 10 -9 10
-20 0 -11 5 -20 10 -20 6 0 10 -9 10 -19 0 -10 7 -21 15 -25 8 -3 15 -15 15
-26 0 -11 5 -20 10 -20 6 0 10 -9 10 -20 0 -11 5 -20 10 -20 6 0 10 -9 10 -19
0 -11 9 -23 20 -26 11 -3 20 -15 20 -26 0 -10 5 -19 10 -19 6 0 10 -9 10 -20
0 -11 5 -20 10 -20 6 0 10 -9 10 -20 0 -11 7 -23 15 -26 8 -4 15 -15 15 -25 0
-10 5 -19 10 -19 6 0 10 -9 10 -20 0 -11 5 -20 10 -20 6 0 10 -9 10 -19 0 -11
9 -23 20 -26 11 -3 20 -15 20 -26 0 -10 4 -19 9 -19 5 0 12 -15 15 -33 3 -18
15 -39 26 -47 11 -8 20 -22 20 -32 0 -10 5 -18 10 -18 6 0 10 -9 10 -20 0 -11
5 -20 10 -20 6 0 10 -6 10 -13 0 -7 9 -19 19 -27 11 -7 23 -31 26 -52 4 -21
11 -38 16 -38 5 0 9 -6 9 -13 0 -7 9 -19 20 -27 11 -8 20 -22 20 -32 0 -10 5
-18 10 -18 6 0 10 -9 10 -20 0 -11 5 -20 10 -20 6 0 10 -5 10 -11 0 -6 7 -17
15 -25 8 -9 15 -24 15 -35 0 -10 5 -19 10 -19 6 0 10 -7 10 -16 0 -23 38 -54
67 -54 12 0 23 -4 23 -10 0 -5 14 -10 30 -10 17 0 30 -4 30 -10 0 -5 16 -10
35 -10 19 0 35 -4 35 -10 0 -5 18 -10 40 -10 22 0 40 -4 40 -10 0 -5 16 -10
35 -10 19 0 35 -4 35 -10 0 -5 18 -10 40 -10 22 0 40 -4 40 -9 0 -5 34 -12 75
-16 41 -4 75 -11 75 -16 0 -5 16 -9 35 -9 19 0 35 -4 35 -10 0 -5 8 -10 18
-10 10 0 24 -10 32 -21 8 -12 21 -27 28 -33 7 -6 33 -31 56 -55 24 -24 53 -52
64 -63 11 -11 40 -41 65 -65 24 -25 54 -54 65 -65 11 -11 40 -41 65 -65 24
-25 54 -54 65 -65 11 -11 39 -40 63 -64 24 -24 53 -53 64 -64 11 -11 40 -40
65 -65 25 -24 55 -55 68 -67 12 -13 43 -43 68 -68 55 -55 55 -55 110 -110 24
-25 53 -54 64 -65 11 -11 41 -40 65 -65 25 -25 53 -53 63 -62 9 -10 37 -38 62
-63 25 -24 54 -54 65 -65 11 -11 40 -40 65 -65 25 -24 54 -54 65 -65 11 -11
41 -41 66 -66 57 -56 56 -55 125 -124 65 -65 60 -60 118 -119 25 -25 55 -54
65 -65 10 -10 39 -39 64 -63 24 -25 54 -54 65 -65 11 -11 39 -40 63 -64 24
-24 54 -54 66 -66 13 -13 34 -33 48 -46 l25 -22 105 105 c58 58 105 110 105
116 0 9 -21 34 -56 70 -7 6 -37 36 -67 66 -30 30 -59 60 -65 65 -5 6 -35 35
-65 65 -30 30 -59 60 -65 65 -13 13 -356 357 -371 372 -7 6 -36 35 -65 65 -30
29 -58 58 -64 63 -5 6 -35 35 -65 65 -30 30 -59 60 -65 65 -13 13 -490 490
-501 502 -5 4 -34 33 -64 63 -30 30 -59 60 -65 65 -5 6 -35 35 -65 65 -30 30
-59 60 -65 65 -204 204 -364 358 -372 358 -5 0 -10 4 -10 9 0 5 -29 13 -65 16
-36 4 -65 11 -65 16 0 5 -13 9 -30 9 -16 0 -30 5 -30 10 0 6 -16 10 -35 10
-19 0 -35 5 -35 10 0 6 -18 10 -40 10 -22 0 -40 5 -40 10 0 6 -16 10 -35 10
-19 0 -35 5 -35 10 0 6 -18 10 -40 10 -22 0 -40 4 -40 9 0 5 -29 12 -64 16
l-64 6 -7 40 c-4 21 -11 39 -16 39 -5 0 -9 9 -9 19 0 11 -9 23 -20 26 -11 3
-20 15 -20 26 0 10 -4 19 -10 19 -5 0 -10 9 -10 20 0 11 -4 20 -10 20 -5 0
-10 9 -10 19 0 10 -7 21 -15 25 -8 3 -15 15 -15 26 0 11 -4 20 -10 20 -5 0
-10 9 -10 20 0 11 -4 20 -10 20 -5 0 -10 6 -10 13 0 7 -9 19 -20 27 -11 8 -20
22 -20 32 0 10 -4 18 -9 18 -5 0 -12 15 -15 33 -3 18 -15 39 -26 47 -11 8 -20
22 -20 32 0 10 -4 18 -10 18 -5 0 -10 9 -10 20 0 11 -4 20 -10 20 -5 0 -10 6
-10 13 0 7 -9 19 -19 27 -11 7 -23 31 -26 52 -4 21 -11 38 -16 38 -5 0 -9 6
-9 13 0 7 -9 19 -20 27 -11 8 -20 22 -20 32 0 10 -4 18 -10 18 -5 0 -10 9 -10
20 0 11 -4 20 -10 20 -5 0 -10 5 -10 11 0 6 -7 17 -15 25 -23 24 -19 70 10 96
22 19 46 43 123 120 13 13 117 117 130 130 65 66 101 101 119 120 40 42 55 51
62 41 3 -6 20 -13 37 -17 16 -4 36 -16 44 -26 8 -11 22 -20 32 -20 10 0 18 -4
18 -10 0 -5 9 -10 20 -10 11 0 20 -4 20 -10 0 -5 6 -10 13 -10 7 0 19 -9 27
-19 7 -11 31 -23 52 -26 21 -4 38 -11 38 -16 0 -5 6 -9 13 -9 7 0 19 -9 27
-20 8 -11 22 -20 32 -20 10 0 18 -4 18 -10 0 -5 9 -10 20 -10 11 0 20 -4 20
-10 0 -5 5 -10 11 -10 6 0 17 -7 25 -15 9 -8 24 -15 35 -15 10 0 19 -4 19 -10
0 -5 9 -10 20 -10 11 0 20 -4 20 -10 0 -5 6 -10 13 -10 7 0 19 -9 27 -20 8
-11 22 -20 32 -20 10 0 18 -4 18 -9 0 -5 15 -13 32 -17 18 -3 40 -15 49 -25 9
-11 24 -19 33 -19 9 0 16 -4 16 -10 0 -5 7 -10 15 -10 8 0 15 -4 15 -10 0 -5
7 -10 16 -10 9 0 24 -8 33 -19 9 -10 31 -22 49 -25 29 -7 32 -11 32 -47 0 -21
5 -39 10 -39 6 0 10 -16 10 -35 0 -19 5 -35 10 -35 6 0 10 -18 10 -40 0 -22 5
-40 10 -40 6 0 10 -16 10 -35 0 -19 5 -35 10 -35 6 0 10 -18 10 -40 0 -22 5
-40 10 -40 6 0 10 -16 10 -35 0 -19 4 -35 9 -35 5 0 12 -34 16 -75 4 -41 11
-75 16 -75 5 0 9 -5 9 -10 0 -8 48 -63 118 -132 5 -6 35 -35 65 -65 65 -65 60
-60 120 -120 26 -26 55 -56 65 -65 9 -10 38 -39 63 -64 26 -26 56 -55 67 -66
11 -11 40 -41 65 -65 24 -25 54 -54 65 -65 11 -11 41 -41 66 -67 60 -59 52
-52 116 -115 30 -30 61 -61 68 -68 145 -145 124 -124 186 -187 25 -25 55 -54
65 -65 10 -10 39 -39 64 -63 24 -25 54 -54 65 -65 11 -11 40 -41 65 -65 24
-25 54 -54 65 -65 11 -11 39 -40 63 -64 53 -52 53 -52 122 -121 65 -65 60 -60
118 -119 26 -25 56 -55 67 -66 11 -11 40 -41 65 -65 24 -25 54 -54 65 -65 11
-11 39 -40 63 -64 24 -24 54 -54 66 -66 13 -13 34 -33 48 -46 l25 -22 105 105
c58 58 105 110 105 116 0 9 -22 36 -58 71 -5 6 -35 35 -65 65 -30 30 -59 60
-65 65 -5 6 -35 36 -66 67 -31 31 -60 59 -64 63 -9 9 -361 361 -370 370 -4 4
-33 33 -65 65 -32 32 -61 61 -65 65 -4 4 -32 32 -62 62 -30 30 -61 61 -68 68
-7 7 -36 36 -65 65 -29 29 -57 57 -63 64 -15 15 -228 228 -243 243 -7 6 -37
36 -67 66 -30 30 -59 60 -65 65 -5 6 -35 35 -65 65 -30 30 -58 58 -62 62 -4 4
-32 32 -62 62 -30 30 -61 61 -68 68 -7 7 -36 36 -65 65 -29 29 -56 57 -62 62
-5 6 -49 49 -97 96 -65 62 -88 91 -88 110 0 14 -4 25 -10 25 -5 0 -10 16 -10
35 0 19 -4 35 -9 35 -5 0 -12 34 -16 75 -4 41 -11 75 -16 75 -5 0 -9 16 -9 35
0 19 -4 35 -10 35 -5 0 -10 18 -10 40 0 22 -4 40 -10 40 -5 0 -10 16 -10 35 0
19 -4 35 -10 35 -5 0 -10 18 -10 40 0 22 -4 40 -10 40 -5 0 -10 11 -10 25 0
14 -4 25 -9 25 -5 0 -11 14 -14 30 -4 18 -13 30 -22 30 -9 0 -23 7 -31 15 -9
8 -24 15 -35 15 -10 0 -19 5 -19 10 0 6 -7 10 -15 10 -8 0 -15 5 -15 10 0 6
-8 10 -18 10 -10 0 -24 9 -32 20 -8 11 -22 20 -32 20 -10 0 -18 5 -18 10 0 6
-7 10 -15 10 -8 0 -15 5 -15 10 0 6 -9 10 -19 10 -11 0 -26 7 -35 15 -8 8 -22
15 -30 15 -9 0 -16 5 -16 10 0 6 -6 10 -13 10 -7 0 -19 9 -27 20 -8 11 -22 20
-32 20 -10 0 -18 5 -18 10 0 6 -9 10 -20 10 -11 0 -20 4 -20 9 0 5 -11 12 -25
15 -14 4 -25 11 -25 16 0 6 -9 10 -20 10 -11 0 -20 5 -20 10 0 6 -9 10 -20 10
-11 0 -20 5 -20 10 0 6 -6 10 -13 10 -7 0 -19 9 -27 20 -8 11 -22 20 -32 20
-10 0 -18 4 -18 9 0 5 -15 12 -33 15 -18 3 -39 15 -47 26 -8 11 -22 20 -32 20
-10 0 -18 5 -18 10 0 6 -9 10 -20 10 -11 0 -20 5 -20 10 0 6 -6 10 -13 10 -7
0 -19 9 -27 19 -7 11 -31 23 -52 26 -21 4 -38 11 -38 16 0 5 -6 9 -13 9 -7 0
-19 9 -27 20 -8 11 -22 20 -32 20 -10 0 -18 5 -18 10 0 6 -9 10 -19 10 -11 0
-21 5 -23 12 -4 12 -109 21 -140 12z"/>
<path d="M7358 9483 c-43 -2 -78 -8 -78 -13 0 -6 -20 -10 -45 -10 -25 0 -45
-4 -45 -10 0 -5 -18 -10 -40 -10 -22 0 -40 -4 -40 -10 0 -5 -16 -10 -35 -10
-19 0 -35 -4 -35 -10 0 -5 -13 -10 -30 -10 -16 0 -30 -4 -30 -9 0 -5 -20 -12
-45 -15 -25 -4 -45 -11 -45 -17 0 -5 -13 -9 -30 -9 -16 0 -30 -4 -30 -10 0 -5
-7 -10 -15 -10 -8 0 -15 -4 -15 -10 0 -5 -9 -10 -20 -10 -11 0 -20 -4 -20 -10
0 -5 -9 -10 -20 -10 -11 0 -20 -4 -20 -10 0 -5 -7 -10 -15 -10 -8 0 -15 -4
-15 -10 0 -5 -9 -10 -19 -10 -11 0 -26 -7 -35 -15 -8 -8 -21 -15 -28 -15 -8 0
-20 -9 -28 -20 -8 -11 -20 -20 -27 -20 -7 0 -13 -4 -13 -10 0 -5 -7 -10 -15
-10 -9 0 -27 -11 -41 -25 -14 -14 -30 -25 -35 -25 -6 0 -28 -18 -49 -40 -21
-22 -45 -40 -54 -40 -8 0 -18 -9 -21 -20 -3 -11 -10 -20 -15 -20 -14 0 -140
-131 -140 -145 0 -4 -22 -28 -49 -54 -27 -26 -52 -57 -55 -69 -4 -12 -12 -22
-17 -22 -5 0 -9 -8 -9 -18 0 -10 -9 -24 -20 -32 -11 -8 -20 -19 -20 -25 0 -6
-9 -17 -20 -25 -11 -8 -20 -22 -20 -32 0 -10 -4 -18 -9 -18 -5 0 -12 -16 -15
-35 -4 -19 -11 -35 -16 -35 -6 0 -10 -9 -10 -20 0 -11 -4 -20 -10 -20 -5 0
-10 -9 -10 -20 0 -11 -4 -20 -10 -20 -5 0 -10 -9 -10 -20 0 -11 -4 -20 -10
-20 -5 0 -10 -11 -10 -25 0 -14 -4 -25 -9 -25 -6 0 -13 -20 -17 -45 -3 -25
-10 -45 -15 -45 -5 0 -9 -13 -9 -30 0 -16 -4 -30 -10 -30 -5 0 -10 -13 -10
-30 0 -16 -4 -30 -10 -30 -5 0 -10 -16 -10 -35 0 -19 -4 -35 -10 -35 -5 0 -10
-25 -10 -55 0 -30 -4 -55 -10 -55 -5 0 -10 -25 -10 -55 0 -30 -4 -55 -10 -55
-6 0 -10 -78 -10 -215 0 -137 4 -215 10 -215 6 0 10 -25 10 -55 0 -30 5 -55
10 -55 6 0 10 -9 10 -20 0 -21 -14 -40 -87 -113 -24 -23 -53 -52 -65 -65 -13
-12 -42 -41 -65 -65 -24 -23 -52 -51 -63 -62 -11 -11 -40 -40 -65 -65 -24 -25
-54 -54 -65 -65 -11 -11 -40 -40 -65 -65 -24 -25 -55 -55 -67 -68 -13 -12 -43
-42 -67 -66 -53 -54 -50 -51 -107 -107 -25 -26 -55 -56 -66 -67 -11 -11 -41
-40 -65 -65 -25 -24 -54 -54 -65 -65 -11 -11 -41 -40 -65 -65 -25 -24 -54 -54
-65 -65 -11 -11 -41 -40 -65 -65 -25 -24 -54 -54 -65 -65 -11 -11 -41 -40 -65
-65 -25 -24 -54 -54 -65 -65 -26 -25 -85 -84 -110 -110 -11 -11 -41 -40 -65
-65 -25 -24 -54 -54 -65 -65 -11 -11 -41 -40 -65 -65 -25 -24 -54 -54 -65 -65
-11 -11 -41 -40 -65 -65 -25 -24 -54 -54 -65 -65 -11 -11 -41 -40 -65 -65 -25
-24 -54 -54 -65 -65 -11 -11 -41 -40 -65 -65 -25 -24 -54 -54 -65 -65 -26 -25
-85 -84 -110 -110 -11 -11 -41 -40 -65 -65 -25 -24 -54 -54 -65 -65 -11 -11
-41 -40 -65 -65 -25 -24 -54 -54 -65 -65 -11 -11 -41 -40 -65 -65 -25 -24 -54
-54 -65 -65 -11 -11 -41 -40 -65 -65 -25 -24 -54 -54 -65 -65 -11 -11 -41 -40
-65 -65 -55 -55 -55 -55 -110 -110 -25 -24 -54 -54 -65 -65 -11 -11 -41 -40
-65 -65 -25 -24 -54 -54 -65 -65 -11 -11 -40 -39 -64 -63 -24 -24 -53 -53 -64
-64 -11 -11 -41 -41 -67 -68 -27 -26 -57 -56 -68 -67 -11 -11 -39 -39 -62 -63
-23 -23 -49 -48 -57 -54 -19 -16 -133 -17 -138 -2 -5 16 -521 16 -526 0 -2 -6
-28 -11 -63 -11 -33 0 -59 -4 -59 -10 0 -5 -16 -10 -35 -10 -19 0 -35 -4 -35
-10 0 -5 -16 -10 -35 -10 -19 0 -35 -4 -35 -10 0 -5 -13 -10 -30 -10 -16 0
-30 -4 -30 -10 0 -5 -11 -10 -25 -10 -14 0 -25 -4 -25 -9 0 -5 -22 -11 -50
-15 -27 -4 -50 -11 -50 -16 0 -6 -7 -10 -15 -10 -8 0 -15 -4 -15 -10 0 -5 -9
-10 -20 -10 -11 0 -20 -4 -20 -10 0 -5 -9 -10 -20 -10 -11 0 -20 -4 -20 -10 0
-5 -9 -10 -21 -10 -11 0 -27 -7 -35 -15 -9 -8 -24 -15 -35 -15 -10 0 -19 -4
-19 -10 0 -5 -8 -10 -18 -10 -10 0 -24 -9 -32 -20 -8 -11 -19 -20 -25 -20 -6
0 -17 -9 -25 -20 -8 -11 -20 -20 -28 -20 -7 0 -20 -6 -27 -12 -31 -28 -44 -38
-50 -38 -4 0 -35 -29 -70 -65 -35 -36 -68 -65 -74 -65 -15 0 -61 -46 -61 -61
0 -6 -29 -39 -65 -74 -36 -35 -65 -69 -65 -75 0 -6 -11 -21 -25 -34 -14 -13
-25 -30 -25 -37 0 -8 -9 -21 -20 -29 -11 -8 -20 -20 -20 -27 0 -7 -4 -13 -10
-13 -5 0 -10 -7 -10 -16 0 -9 -8 -24 -19 -33 -10 -9 -22 -31 -25 -49 -4 -17
-12 -32 -17 -32 -5 0 -9 -9 -9 -20 0 -11 -4 -20 -10 -20 -5 0 -10 -9 -10 -20
0 -11 -4 -20 -10 -20 -5 0 -10 -9 -10 -20 0 -11 -4 -20 -10 -20 -5 0 -10 -7
-10 -15 0 -8 -4 -15 -10 -15 -5 0 -10 -13 -10 -30 0 -16 -4 -30 -9 -30 -6 0
-13 -20 -17 -45 -3 -25 -10 -45 -15 -45 -5 0 -9 -18 -9 -40 0 -22 -4 -40 -10
-40 -5 0 -10 -11 -10 -25 0 -14 -4 -25 -10 -25 -5 0 -10 -20 -10 -45 0 -25 -4
-45 -10 -45 -5 0 -10 -25 -10 -55 0 -30 -4 -55 -10 -55 -6 0 -10 -92 -10 -255
0 -163 4 -255 10 -255 6 0 10 -28 10 -65 0 -37 4 -65 10 -65 6 0 10 -16 10
-35 0 -19 5 -35 10 -35 6 0 10 -16 10 -35 0 -19 5 -35 10 -35 6 0 10 -13 10
-30 0 -16 4 -30 9 -30 5 0 13 -25 16 -55 4 -30 11 -55 16 -55 5 0 9 -13 9 -30
0 -16 5 -30 10 -30 6 0 10 -7 10 -15 0 -8 5 -15 10 -15 6 0 10 -9 10 -20 0
-11 5 -20 10 -20 6 0 10 -9 10 -20 0 -11 5 -20 10 -20 6 0 10 -7 10 -15 0 -8
5 -15 10 -15 6 0 10 -9 10 -19 0 -11 7 -26 15 -35 8 -8 15 -22 15 -30 0 -9 5
-16 10 -16 6 0 10 -6 10 -13 0 -7 9 -19 20 -27 11 -8 20 -20 20 -28 0 -7 11
-24 25 -38 14 -14 25 -30 25 -35 0 -6 13 -24 30 -39 16 -15 30 -34 30 -42 0
-7 10 -20 21 -28 12 -8 27 -21 33 -28 9 -11 99 -102 127 -128 5 -5 22 -24 38
-41 16 -18 35 -33 43 -33 7 0 22 -11 32 -25 10 -14 25 -25 33 -25 8 0 28 -13
43 -30 15 -16 35 -30 44 -30 9 0 16 -4 16 -10 0 -5 6 -10 13 -10 7 0 19 -9 27
-19 7 -11 31 -23 52 -26 21 -4 38 -11 38 -16 0 -5 7 -9 15 -9 8 0 15 -4 15
-10 0 -5 9 -10 20 -10 11 0 20 -4 20 -10 0 -5 9 -10 20 -10 11 0 20 -4 20 -10
0 -5 7 -10 15 -10 8 0 15 -4 15 -10 0 -5 9 -10 20 -10 11 0 20 -4 20 -9 0 -5
25 -12 55 -16 30 -3 55 -11 55 -16 0 -5 9 -9 20 -9 11 0 20 -4 20 -10 0 -5 16
-10 35 -10 19 0 35 -4 35 -10 0 -5 18 -10 40 -10 22 0 40 -4 40 -10 0 -5 20
-10 45 -10 25 0 45 -4 45 -10 0 -5 25 -10 55 -10 30 0 55 -4 55 -10 0 -6 78
-10 215 -10 137 0 215 4 215 10 0 6 28 10 65 10 37 0 65 4 65 10 0 6 20 10 45
10 25 0 45 5 45 10 0 6 16 10 35 10 19 0 35 5 35 10 0 6 18 10 40 10 22 0 40
5 40 10 0 6 9 10 20 10 11 0 20 4 20 9 0 5 25 13 55 16 30 4 55 11 55 16 0 5
7 9 15 9 8 0 15 5 15 10 0 6 9 10 20 10 11 0 20 5 20 10 0 6 9 10 20 10 11 0
20 5 20 10 0 6 9 10 20 10 11 0 20 5 20 10 0 6 7 10 15 10 8 0 15 4 15 9 0 5
17 12 38 16 21 3 45 15 52 26 8 10 19 19 25 19 6 0 17 9 25 20 8 11 21 20 30
20 8 0 24 11 34 25 10 14 25 25 33 25 8 0 28 14 43 30 15 17 35 30 43 30 9 0
18 8 21 18 3 10 16 24 27 32 28 19 100 91 119 119 8 11 22 24 32 27 10 3 18
12 18 20 0 8 16 30 35 50 19 19 35 39 35 45 0 6 14 24 30 39 17 15 30 35 30
44 0 9 5 16 10 16 6 0 10 5 10 11 0 7 8 19 19 28 10 9 22 32 26 51 4 19 16 42
26 51 11 9 19 26 19 38 0 11 5 21 10 21 6 0 10 9 10 20 0 11 5 20 10 20 6 0
10 9 10 19 0 11 5 21 11 23 5 2 13 22 16 46 3 23 10 42 14 42 5 0 9 9 9 20 0
11 5 20 10 20 6 0 10 11 10 25 0 14 5 25 10 25 6 0 10 18 10 40 0 22 5 40 10
40 6 0 10 16 10 35 0 19 5 35 10 35 6 0 10 15 10 34 0 19 6 36 13 39 19 6 18
694 -2 706 -9 6 101 123 408 430 l421 421 90 -87 c49 -49 94 -93 101 -99 6 -7
36 -37 66 -67 30 -30 59 -59 64 -63 5 -5 22 -24 38 -41 16 -18 36 -33 45 -33
9 0 16 -4 16 -10 0 -5 24 -10 53 -10 41 0 56 4 67 20 8 11 18 20 23 20 4 0 23
15 42 32 69 65 84 78 95 78 5 0 10 5 10 10 0 6 31 10 73 10 61 0 75 -3 87 -20
8 -11 22 -20 32 -20 10 0 18 -6 18 -13 0 -7 9 -19 20 -27 17 -12 20 -26 20
-85 0 -59 -3 -73 -20 -85 -11 -8 -20 -21 -20 -30 0 -9 -10 -22 -21 -30 -21
-15 -51 -44 -76 -74 -7 -8 -13 -22 -13 -31 0 -8 -4 -15 -10 -15 -6 0 -10 -27
-10 -60 l0 -60 78 -75 c42 -42 81 -79 86 -84 4 -5 33 -34 63 -64 30 -30 60
-59 65 -65 6 -5 34 -34 64 -63 29 -30 59 -60 66 -67 17 -17 487 -487 500 -500
15 -14 118 -118 130 -130 13 -13 617 -617 630 -630 6 -5 35 -35 65 -65 30 -30
59 -59 64 -63 5 -5 60 -62 124 -127 63 -64 119 -117 124 -117 6 0 21 -11 35
-25 14 -14 32 -25 41 -25 8 0 15 -4 15 -10 0 -5 9 -10 19 -10 11 0 23 -9 26
-20 3 -11 15 -20 26 -20 10 0 19 -4 19 -9 0 -5 18 -12 40 -16 22 -4 40 -11 40
-16 0 -5 7 -9 15 -9 8 0 15 -4 15 -10 0 -5 14 -10 30 -10 17 0 30 -4 30 -10 0
-5 11 -10 25 -10 14 0 25 -4 25 -10 0 -5 18 -10 40 -10 22 0 40 -4 40 -10 0
-5 20 -10 45 -10 25 0 45 -4 45 -10 0 -6 75 -10 205 -10 130 0 205 4 205 10 0
6 20 10 45 10 25 0 45 5 45 10 0 6 18 10 40 10 22 0 40 5 40 10 0 6 11 10 25
10 14 0 25 5 25 10 0 6 14 10 30 10 17 0 30 5 30 10 0 6 7 10 15 10 8 0 15 4
15 9 0 5 18 12 40 16 22 4 40 11 40 16 0 5 6 9 13 9 7 0 19 9 27 20 8 11 22
20 32 20 10 0 18 5 18 10 0 6 8 10 18 10 9 0 26 11 36 25 10 14 25 25 33 25 8
0 37 24 64 53 27 28 54 57 60 62 5 6 34 34 64 63 30 29 55 58 55 65 0 7 9 19
20 27 11 8 20 21 20 30 0 9 9 22 20 30 11 8 20 22 20 32 0 10 5 18 10 18 6 0
10 7 10 15 0 8 4 15 9 15 5 0 12 18 16 40 4 22 11 40 16 40 5 0 9 7 9 15 0 8
5 15 10 15 6 0 10 9 10 20 0 11 5 20 10 20 6 0 10 14 10 30 0 17 5 30 10 30 6
0 10 16 10 35 0 19 5 35 10 35 6 0 10 16 10 35 0 19 5 35 10 35 6 0 10 90 10
250 0 160 -4 250 -10 250 -5 0 -10 18 -10 40 0 22 -4 40 -10 40 -5 0 -10 16
-10 35 0 19 -4 35 -10 35 -5 0 -10 14 -10 30 0 17 -4 30 -10 30 -5 0 -10 9
-10 20 0 11 -4 20 -10 20 -5 0 -10 7 -10 15 0 8 -4 15 -9 15 -5 0 -12 18 -16
40 -4 22 -11 40 -16 40 -5 0 -9 7 -9 15 0 8 -4 15 -10 15 -5 0 -10 8 -10 18 0
10 -9 24 -20 32 -11 8 -20 21 -20 30 0 9 -9 22 -20 30 -11 8 -20 20 -20 27 0
7 -25 37 -56 67 -31 30 -60 58 -65 62 -4 5 -29 29 -53 54 -25 25 -56 55 -68
68 -13 12 -42 41 -65 65 -24 23 -53 52 -65 65 -13 12 -43 42 -67 66 -53 54
-51 52 -118 119 -30 30 -60 59 -65 65 -6 5 -35 35 -65 65 -30 30 -60 59 -65
65 -144 143 -126 125 -185 185 -25 24 -54 53 -64 63 -10 11 -39 39 -64 64 -24
25 -54 54 -65 65 -11 11 -41 41 -66 66 -58 59 -53 54 -120 120 -31 31 -61 61
-66 67 -6 5 -35 35 -65 65 -67 67 -65 65 -120 120 -25 24 -55 54 -67 66 -11
12 -41 41 -65 65 -24 24 -52 52 -62 62 -10 11 -40 40 -65 65 -26 26 -55 56
-66 67 -11 11 -40 40 -64 66 -25 25 -49 46 -54 46 -5 0 -12 9 -15 20 -4 14
-15 20 -36 20 -16 0 -29 5 -29 10 0 6 -13 10 -30 10 -16 0 -30 -4 -30 -10 0
-5 -9 -10 -20 -10 -12 0 -32 -10 -45 -22 -61 -56 -71 -66 -85 -87 -8 -11 -22
-21 -32 -21 -10 0 -18 -4 -18 -10 0 -5 -13 -10 -30 -10 -16 0 -30 -4 -30 -10
0 -5 -11 -10 -25 -10 -14 0 -25 5 -25 10 0 6 -13 10 -28 10 -16 0 -34 8 -42
20 -8 11 -20 20 -27 20 -7 0 -13 9 -13 20 0 11 -4 20 -10 20 -5 0 -10 7 -10
15 0 8 -4 15 -10 15 -6 0 -10 27 -10 60 0 33 4 60 10 60 6 0 10 5 10 10 0 6
10 22 23 36 61 68 89 94 97 94 6 0 10 9 10 20 0 11 5 20 10 20 6 0 10 31 10
73 -1 68 -2 73 -31 97 -17 14 -40 35 -52 48 -12 12 -42 42 -66 66 -68 68 -83
83 -128 129 -23 23 -47 47 -54 53 -37 38 -59 64 -59 74 0 5 185 194 410 420
l410 410 44 0 c27 0 46 -5 49 -12 6 -19 578 -19 585 0 2 7 21 12 48 12 24 0
44 5 44 10 0 6 18 10 40 10 22 0 40 5 40 10 0 6 16 10 35 10 19 0 35 5 35 10
0 6 14 10 30 10 17 0 30 5 30 10 0 6 11 10 25 10 14 0 25 4 25 9 0 4 19 11 42
14 24 3 44 11 46 16 2 6 12 11 23 11 10 0 19 5 19 10 0 6 9 10 20 10 11 0 20
5 20 10 0 6 9 10 20 10 11 0 20 5 20 10 0 6 7 10 15 10 8 0 15 4 15 9 0 5 17
12 38 16 21 3 45 15 52 26 8 10 20 19 27 19 7 0 13 5 13 10 0 6 7 10 16 10 9
0 29 14 44 30 15 17 33 30 39 30 5 0 21 11 35 25 14 14 31 25 38 25 8 0 20 10
28 21 8 12 25 31 38 43 24 23 94 92 129 128 12 13 35 34 52 48 17 14 31 31 31
38 0 7 6 20 13 27 28 32 37 45 37 52 0 5 9 15 20 23 11 8 20 21 20 30 0 9 9
22 20 30 11 8 20 20 20 27 0 7 5 13 10 13 6 0 10 9 10 19 0 11 7 26 15 35 8 8
15 22 15 30 0 9 5 16 10 16 6 0 10 7 10 15 0 8 5 15 10 15 6 0 10 9 10 20 0
11 5 20 10 20 6 0 10 9 10 20 0 11 5 20 10 20 6 0 10 7 10 15 0 8 4 15 9 15 5
0 12 27 16 60 4 33 11 60 16 60 5 0 9 7 9 15 0 8 5 15 10 15 6 0 10 18 10 40
0 22 5 40 10 40 6 0 10 11 10 25 0 14 5 25 10 25 6 0 10 18 10 40 0 22 5 40
10 40 6 0 10 28 10 65 0 37 4 65 10 65 6 0 10 95 10 265 0 170 -4 265 -10 265
-5 0 -10 23 -10 50 0 28 -4 50 -10 50 -5 0 -10 20 -10 45 0 25 -4 45 -10 45
-5 0 -10 9 -10 20 0 11 -4 20 -10 20 -5 0 -10 5 -10 10 0 19 -48 60 -70 60
-11 0 -20 5 -20 10 0 6 -18 10 -40 10 -22 0 -40 -4 -40 -10 0 -5 -6 -10 -13
-10 -7 0 -19 -9 -27 -20 -8 -11 -20 -20 -28 -20 -13 0 -32 -13 -55 -38 -7 -7
-32 -33 -56 -56 -24 -24 -52 -53 -63 -64 -11 -11 -41 -40 -65 -65 -25 -24 -54
-54 -65 -65 -11 -11 -40 -39 -64 -63 -52 -53 -52 -53 -121 -122 -30 -30 -60
-59 -65 -65 -6 -5 -35 -35 -65 -65 -30 -30 -59 -59 -64 -63 -140 -140 -124
-125 -185 -185 -24 -24 -54 -54 -66 -66 -13 -11 -31 -32 -42 -45 -12 -15 -20
-19 -23 -10 -3 6 -18 12 -34 12 -16 0 -29 5 -29 10 0 6 -11 10 -25 10 -14 0
-25 5 -25 10 0 6 -13 10 -30 10 -16 0 -30 4 -30 9 0 5 -25 13 -55 16 -30 4
-55 11 -55 16 0 5 -11 9 -25 9 -14 0 -25 5 -25 10 0 6 -13 10 -30 10 -16 0
-30 5 -30 10 0 6 -13 10 -30 10 -16 0 -30 5 -30 10 0 6 -11 10 -25 10 -14 0
-25 4 -25 9 0 5 -25 12 -55 16 -30 3 -55 11 -55 16 0 5 -13 9 -30 9 -16 0 -30
5 -30 10 0 6 -11 10 -25 10 -14 0 -25 5 -25 10 0 6 -7 10 -16 10 -22 0 -44 25
-44 49 0 12 -4 21 -10 21 -5 0 -10 14 -10 30 0 17 -4 30 -10 30 -5 0 -10 14
-10 30 0 17 -4 30 -9 30 -5 0 -13 25 -16 55 -4 30 -11 55 -16 55 -5 0 -9 11
-9 25 0 14 -4 25 -10 25 -5 0 -10 14 -10 30 0 17 -4 30 -10 30 -5 0 -10 11
-10 25 0 14 -4 25 -10 25 -5 0 -10 14 -10 30 0 17 -4 30 -9 30 -5 0 -12 25
-16 55 -3 30 -11 55 -16 55 -5 0 -9 14 -9 30 0 17 -4 30 -10 30 -5 0 -10 11
-10 25 0 14 -4 25 -10 25 -19 0 -10 55 11 70 12 8 27 21 33 28 9 11 142 144
627 628 16 17 118 119 131 132 126 126 188 194 188 207 0 8 5 15 10 15 6 0 10
28 10 65 0 37 -4 65 -10 65 -5 0 -10 5 -10 10 0 14 -46 60 -60 60 -5 0 -10 5
-10 10 0 6 -18 10 -40 10 -22 0 -40 5 -40 10 0 6 -20 10 -44 10 -24 0 -46 5
-48 10 -3 11 -409 21 -550 13z m332 -310 c0 -5 -14 -19 -31 -33 -17 -14 -40
-35 -52 -48 -12 -12 -42 -42 -66 -66 -24 -24 -52 -52 -62 -62 -10 -11 -39 -39
-64 -64 -24 -25 -54 -54 -65 -65 -25 -26 -84 -84 -111 -111 -12 -12 -42 -42
-66 -67 -25 -24 -54 -54 -65 -65 -11 -11 -41 -40 -65 -65 -25 -24 -55 -54 -67
-66 -11 -12 -40 -40 -63 -64 -24 -23 -54 -53 -69 -66 -26 -24 -26 -26 -22
-130 3 -67 9 -106 16 -109 7 -2 12 -17 12 -33 0 -16 5 -29 10 -29 6 0 10 -11
10 -25 0 -14 5 -25 10 -25 6 0 10 -13 10 -30 0 -16 5 -30 10 -30 6 0 10 -13
10 -30 0 -16 5 -30 10 -30 6 0 10 -11 10 -25 0 -14 4 -25 9 -25 5 0 12 -25 16
-55 3 -30 11 -55 16 -55 5 0 9 -13 9 -30 0 -16 5 -30 10 -30 6 0 10 -11 10
-25 0 -14 5 -25 10 -25 6 0 10 -13 10 -30 0 -16 5 -30 10 -30 6 0 10 -13 10
-30 0 -16 5 -30 10 -30 6 0 10 -11 10 -25 0 -14 4 -25 9 -25 5 0 12 -25 16
-55 3 -30 11 -55 16 -55 5 0 9 -13 9 -30 0 -16 5 -30 10 -30 6 0 10 -7 10 -15
0 -8 5 -15 10 -15 6 0 10 -7 10 -16 0 -20 24 -44 44 -44 8 0 18 -9 21 -20 4
-14 15 -20 36 -20 16 0 29 -4 29 -9 0 -5 25 -13 55 -16 30 -4 55 -11 55 -16 0
-5 14 -9 30 -9 17 0 30 -4 30 -10 0 -5 11 -10 25 -10 14 0 25 -4 25 -10 0 -5
14 -10 30 -10 17 0 30 -4 30 -10 0 -5 11 -10 25 -10 14 0 25 -4 25 -10 0 -5
14 -10 30 -10 17 0 30 -4 30 -9 0 -5 25 -13 55 -16 30 -4 55 -11 55 -16 0 -5
14 -9 30 -9 17 0 30 -4 30 -10 0 -5 11 -10 25 -10 14 0 25 -4 25 -10 0 -5 14
-10 30 -10 17 0 30 -4 30 -10 0 -5 11 -10 25 -10 14 0 25 -4 25 -10 0 -5 14
-10 30 -10 17 0 30 -4 30 -9 0 -5 25 -13 55 -16 30 -4 55 -11 55 -16 0 -5 25
-9 55 -9 30 0 55 4 55 9 0 5 13 11 30 14 23 5 131 108 440 417 360 360 413
409 425 396 17 -16 20 -76 5 -76 -6 0 -10 -45 -10 -115 0 -70 -4 -115 -10
-115 -5 0 -10 -20 -10 -45 0 -25 -4 -45 -10 -45 -5 0 -10 -16 -10 -35 0 -19
-4 -35 -9 -35 -4 0 -11 -28 -15 -62 -3 -35 -11 -64 -16 -66 -6 -2 -10 -12 -10
-23 0 -10 -4 -19 -10 -19 -5 0 -10 -11 -10 -25 0 -14 -4 -25 -10 -25 -5 0 -10
-9 -10 -20 0 -11 -4 -20 -10 -20 -5 0 -10 -9 -10 -20 0 -11 -4 -20 -10 -20 -5
0 -10 -9 -10 -20 0 -11 -4 -20 -9 -20 -5 0 -12 -11 -15 -25 -4 -14 -11 -25
-16 -25 -6 0 -10 -9 -10 -20 0 -11 -4 -20 -10 -20 -5 0 -10 -9 -10 -20 0 -11
-4 -20 -8 -20 -14 0 -52 -36 -52 -49 0 -11 -7 -22 -37 -56 -7 -7 -13 -16 -13
-20 0 -4 -51 -61 -99 -109 -58 -57 -122 -116 -126 -116 -6 0 -20 -11 -50 -37
-7 -7 -20 -13 -27 -13 -8 0 -20 -9 -28 -20 -8 -11 -19 -20 -25 -20 -6 0 -17
-9 -25 -20 -8 -11 -22 -20 -32 -20 -10 0 -18 -4 -18 -9 0 -5 -16 -12 -35 -15
-19 -4 -35 -11 -35 -16 0 -6 -9 -10 -20 -10 -11 0 -20 -4 -20 -10 0 -5 -9 -10
-20 -10 -11 0 -20 -4 -20 -10 0 -5 -7 -10 -15 -10 -8 0 -15 -4 -15 -10 0 -5
-13 -10 -30 -10 -16 0 -30 -4 -30 -10 0 -5 -13 -10 -30 -10 -16 0 -30 -4 -30
-10 0 -5 -27 -12 -60 -16 -33 -4 -60 -11 -60 -15 0 -5 -22 -9 -50 -9 -27 0
-50 -4 -50 -10 0 -6 -32 -10 -75 -10 -43 0 -75 -4 -75 -10 0 -6 -40 -10 -100
-10 -60 0 -100 4 -100 10 0 6 -35 10 -85 10 -50 0 -85 4 -85 10 0 6 -25 10
-55 10 -30 0 -55 5 -55 10 0 6 -25 10 -55 10 -30 0 -55 -4 -55 -10 0 -5 -9
-10 -20 -10 -11 0 -20 -4 -20 -10 0 -5 -5 -10 -10 -10 -9 0 -55 -40 -114 -99
-4 -5 -28 -29 -53 -54 -25 -24 -54 -53 -64 -63 -10 -11 -39 -39 -64 -64 -24
-25 -55 -55 -67 -68 -13 -12 -43 -42 -67 -66 -24 -24 -52 -52 -62 -62 -10 -11
-39 -39 -63 -64 -55 -54 -54 -54 -123 -123 -30 -30 -60 -59 -65 -65 -6 -5 -35
-35 -65 -65 -69 -69 -69 -69 -120 -120 -24 -23 -53 -52 -65 -65 -13 -12 -42
-41 -65 -65 -24 -23 -53 -52 -65 -65 -13 -12 -43 -43 -68 -68 -56 -56 -52 -52
-116 -115 -29 -30 -58 -58 -63 -64 -6 -5 -35 -35 -65 -65 -30 -30 -60 -59 -65
-65 -6 -5 -35 -35 -65 -65 -69 -69 -68 -68 -125 -124 -25 -25 -55 -55 -66 -66
-11 -11 -39 -39 -62 -63 -24 -23 -53 -52 -65 -65 -13 -12 -43 -43 -68 -68 -57
-56 -52 -51 -117 -117 -30 -30 -60 -59 -65 -65 -6 -5 -35 -35 -65 -65 -30 -30
-60 -59 -65 -65 -6 -5 -35 -35 -65 -65 -65 -65 -60 -60 -119 -118 -25 -26 -55
-56 -66 -67 -11 -11 -41 -40 -65 -65 -25 -24 -54 -54 -65 -65 -11 -11 -40 -39
-64 -63 -53 -54 -51 -52 -120 -120 -31 -31 -61 -61 -66 -67 -6 -5 -35 -35 -65
-65 -67 -67 -65 -65 -120 -120 -25 -24 -54 -54 -65 -65 -11 -11 -41 -40 -65
-65 -25 -24 -54 -54 -65 -65 -11 -11 -41 -40 -65 -65 -25 -24 -54 -54 -65 -65
-11 -11 -41 -40 -65 -65 -25 -25 -50 -49 -55 -55 -59 -59 -98 -103 -98 -112 0
-5 -4 -10 -10 -10 -5 0 -10 -13 -10 -30 0 -16 -4 -30 -10 -30 -5 0 -10 -9 -10
-20 0 -11 5 -20 10 -20 6 0 10 -20 10 -45 0 -25 5 -45 10 -45 6 0 10 -25 10
-55 0 -30 5 -55 10 -55 6 0 10 -78 10 -215 0 -137 -4 -215 -10 -215 -5 0 -10
-20 -10 -45 0 -25 -4 -45 -10 -45 -5 0 -10 -20 -10 -45 0 -25 -4 -45 -9 -45
-5 0 -12 -25 -16 -55 -3 -30 -11 -55 -16 -55 -5 0 -9 -13 -9 -30 0 -16 -4 -30
-10 -30 -5 0 -10 -11 -10 -25 0 -14 -4 -25 -10 -25 -5 0 -10 -9 -10 -20 0 -11
-4 -20 -10 -20 -5 0 -10 -9 -10 -20 0 -11 -4 -20 -10 -20 -5 0 -10 -9 -10 -20
0 -11 -4 -20 -9 -20 -5 0 -13 -15 -17 -32 -3 -18 -15 -40 -25 -49 -11 -9 -19
-23 -19 -32 0 -9 -9 -19 -20 -22 -11 -3 -20 -14 -20 -23 0 -10 -9 -24 -20 -32
-11 -8 -20 -22 -20 -31 0 -18 -13 -34 -49 -59 -11 -8 -21 -20 -21 -28 0 -17
-115 -132 -132 -132 -8 0 -20 -10 -28 -21 -8 -12 -21 -27 -28 -33 -7 -6 -19
-17 -27 -23 -7 -7 -20 -13 -27 -13 -8 0 -20 -9 -28 -20 -8 -11 -19 -20 -25
-20 -6 0 -17 -9 -25 -20 -8 -11 -20 -20 -28 -20 -7 0 -20 -7 -28 -15 -9 -8
-24 -15 -35 -15 -10 0 -19 -4 -19 -10 0 -5 -7 -10 -15 -10 -8 0 -15 -4 -15
-10 0 -5 -9 -10 -20 -10 -11 0 -20 -4 -20 -10 0 -5 -9 -10 -20 -10 -11 0 -20
-4 -20 -10 0 -5 -11 -10 -25 -10 -14 0 -25 -4 -25 -10 0 -5 -9 -10 -20 -10
-11 0 -20 -4 -20 -9 0 -5 -25 -12 -55 -16 -30 -3 -55 -11 -55 -16 0 -5 -13 -9
-30 -9 -16 0 -30 -4 -30 -10 0 -5 -20 -10 -45 -10 -25 0 -45 -4 -45 -10 0 -5
-25 -10 -55 -10 -30 0 -55 -4 -55 -10 0 -6 -75 -10 -205 -10 -130 0 -205 4
-205 10 0 6 -25 10 -55 10 -30 0 -55 5 -55 10 0 6 -16 10 -35 10 -19 0 -35 5
-35 10 0 6 -13 10 -30 10 -16 0 -30 4 -30 9 0 4 -24 11 -52 14 -29 4 -54 11
-56 17 -2 5 -17 10 -33 10 -16 0 -29 5 -29 10 0 6 -7 10 -15 10 -8 0 -15 5
-15 10 0 6 -9 10 -20 10 -11 0 -20 5 -20 10 0 6 -9 10 -20 10 -11 0 -20 5 -20
10 0 6 -7 10 -15 10 -8 0 -15 4 -15 9 0 5 -17 12 -38 16 -21 3 -45 15 -52 26
-8 10 -19 19 -25 19 -6 0 -17 9 -25 20 -8 11 -20 20 -28 20 -7 0 -24 10 -37
23 -36 33 -53 47 -60 47 -3 0 -26 20 -51 44 -101 96 -134 134 -134 150 0 8 -9
17 -19 21 -11 3 -23 15 -26 26 -4 10 -11 19 -16 19 -5 0 -9 8 -9 18 0 10 -9
24 -20 32 -11 8 -20 19 -20 25 0 6 -9 17 -20 25 -11 8 -20 22 -20 32 0 10 -4
18 -10 18 -5 0 -10 9 -10 19 0 11 -7 26 -15 35 -8 8 -15 19 -15 25 0 6 -4 11
-10 11 -5 0 -10 9 -10 20 0 11 -4 20 -10 20 -5 0 -10 14 -10 30 0 17 -4 30
-10 30 -5 0 -10 7 -10 15 0 8 -4 15 -10 15 -5 0 -10 14 -10 30 0 17 -4 30 -9
30 -5 0 -13 25 -16 55 -4 30 -11 55 -16 55 -5 0 -9 16 -9 35 0 19 -4 35 -10
35 -5 0 -10 23 -10 50 0 28 -4 50 -10 50 -6 0 -10 90 -10 250 0 160 4 250 10
250 6 0 10 20 10 45 0 25 5 45 10 45 6 0 10 16 10 35 0 19 4 35 9 35 4 0 11
28 15 63 3 34 11 64 16 65 6 2 10 12 10 23 0 10 5 19 10 19 6 0 10 14 10 30 0
17 5 30 10 30 6 0 10 7 10 15 0 8 5 15 10 15 6 0 10 9 10 20 0 11 5 20 10 20
6 0 10 9 10 20 0 11 4 20 9 20 5 0 13 15 17 32 3 18 15 40 25 49 11 9 19 23
19 30 0 8 9 21 20 29 11 8 20 18 20 23 0 4 11 19 25 33 14 14 25 33 25 42 0
10 10 24 21 32 12 8 37 31 56 50 45 47 65 67 118 118 25 23 45 47 45 52 0 6 7
10 15 10 15 0 25 6 60 38 7 6 20 12 29 12 8 0 18 9 21 20 3 11 14 20 23 20 10
0 24 9 32 20 8 11 22 20 32 20 10 0 18 4 18 10 0 5 16 12 35 16 19 3 35 10 35
15 0 5 9 9 20 9 11 0 20 5 20 10 0 6 9 10 20 10 11 0 20 5 20 10 0 6 11 10 25
10 14 0 25 5 25 10 0 6 9 10 20 10 11 0 20 5 20 10 0 6 11 10 25 10 14 0 25 4
25 9 0 5 34 12 75 16 41 4 75 11 75 16 0 5 20 9 45 9 25 0 45 5 45 10 0 6 42
10 105 10 63 0 105 4 105 10 0 6 16 10 35 10 19 0 35 -4 35 -10 0 -6 42 -10
105 -10 63 0 105 -4 105 -10 0 -5 25 -10 55 -10 30 0 55 -4 55 -10 0 -6 32
-10 75 -10 43 0 75 4 75 10 0 6 5 10 10 10 8 0 112 98 242 228 6 5 35 35 65
65 30 30 60 59 65 65 6 5 35 35 65 65 30 30 60 59 65 65 6 5 118 118 250 250
132 132 245 244 250 250 15 14 119 118 129 128 11 12 615 615 630 630 15 15
115 116 130 130 15 15 615 615 630 630 13 14 117 118 130 130 11 12 492 493
501 502 4 4 32 32 62 62 30 30 60 60 65 65 6 6 36 35 67 66 31 31 60 61 65 65
4 5 64 65 131 134 l123 125 -2 100 c-1 61 -5 101 -12 103 -6 2 -11 28 -11 58
0 30 -4 54 -10 54 -6 0 -10 68 -10 185 0 117 4 185 10 185 6 0 10 25 10 55 0
30 4 55 9 55 4 0 11 33 15 73 4 39 11 74 16 75 6 2 10 19 10 38 0 19 5 34 10
34 6 0 10 9 10 20 0 11 5 20 10 20 6 0 10 14 10 30 0 17 5 30 10 30 6 0 10 7
10 15 0 8 5 15 10 15 6 0 10 9 10 20 0 11 4 20 9 20 5 0 12 16 15 35 4 19 11
35 16 35 6 0 10 8 10 18 0 10 9 24 20 32 11 8 20 21 20 30 0 9 9 22 20 30 11
8 20 20 20 27 0 7 4 13 10 13 5 0 13 12 16 28 7 26 57 82 75 82 5 0 9 7 9 15
0 9 10 27 23 40 50 56 113 115 122 115 3 0 21 16 41 35 19 19 43 35 52 35 10
0 24 9 32 20 8 11 19 20 25 20 6 0 17 9 25 20 8 11 21 20 30 20 9 0 22 9 30
20 8 11 29 23 47 26 18 3 33 10 33 15 0 5 9 9 20 9 11 0 20 5 20 10 0 6 9 10
20 10 11 0 20 5 20 10 0 6 11 10 25 10 14 0 25 5 25 10 0 6 9 10 20 10 11 0
20 5 20 10 0 6 11 10 25 10 14 0 25 4 25 9 0 5 29 13 65 16 36 4 65 11 65 16
0 5 18 9 40 9 22 0 40 5 40 10 0 6 28 10 65 10 37 0 65 4 65 10 0 6 50 10 130
10 72 0 130 -3 130 -7z m-1500 -4503 c0 -5 25 -34 56 -64 119 -115 186 -186
174 -186 -5 0 -10 -8 -10 -18 0 -10 -9 -24 -20 -32 -11 -8 -20 -22 -20 -32 0
-10 -4 -18 -10 -18 -5 0 -10 -6 -10 -14 0 -8 -6 -16 -12 -18 -18 -6 -18 -329
0 -335 6 -3 12 -16 12 -29 0 -13 5 -24 10 -24 6 0 10 -8 10 -18 0 -10 9 -24
20 -32 11 -8 20 -22 20 -32 0 -9 9 -20 20 -23 11 -3 20 -10 20 -15 0 -13 57
-70 70 -70 7 0 21 -9 31 -21 10 -12 35 -23 58 -26 23 -3 41 -10 41 -14 0 -5
11 -9 25 -9 14 0 25 -4 25 -10 0 -6 38 -10 95 -10 57 0 95 4 95 10 0 6 16 10
35 10 19 0 35 4 35 9 0 5 22 11 48 15 31 4 53 13 62 26 8 11 20 20 26 20 7 0
14 5 16 12 4 11 31 -11 90 -70 6 -5 30 -30 55 -55 25 -25 50 -49 55 -55 6 -5
35 -35 65 -65 30 -30 60 -59 65 -65 6 -5 35 -35 65 -65 30 -30 60 -59 65 -65
6 -5 35 -35 65 -65 30 -30 60 -59 65 -65 6 -5 34 -34 64 -63 69 -69 71 -72
123 -123 24 -24 52 -53 63 -64 11 -11 40 -39 64 -63 53 -54 51 -52 118 -119
30 -30 60 -59 65 -65 6 -5 36 -36 68 -68 32 -32 61 -61 65 -65 4 -4 33 -33 65
-65 32 -32 63 -62 68 -68 6 -5 35 -35 65 -65 64 -63 56 -56 116 -115 58 -58
76 -76 130 -130 24 -24 48 -48 53 -54 59 -59 121 -126 121 -130 0 -4 -125
-134 -228 -237 -5 -6 -35 -35 -65 -65 -30 -30 -60 -60 -66 -67 -15 -15 -616
-615 -627 -627 -5 -4 -34 -33 -64 -63 -30 -30 -60 -60 -66 -67 -159 -158 -238
-231 -242 -220 -2 7 -25 33 -51 57 -25 24 -55 53 -66 64 -11 11 -35 35 -53 53
-17 17 -47 47 -65 65 -29 29 -45 45 -121 121 -11 12 -40 40 -63 64 -24 23 -52
51 -63 62 -11 11 -41 41 -66 66 -26 26 -55 55 -65 65 -10 11 -39 39 -64 64
-24 25 -54 54 -65 65 -158 158 -150 151 -188 188 -17 17 -47 47 -65 65 -17 17
-47 47 -66 66 -18 18 -42 43 -53 54 -11 11 -41 40 -65 65 -25 24 -54 54 -65
65 -11 11 -41 40 -65 65 -25 24 -54 54 -65 65 -11 11 -40 39 -64 63 -24 24
-53 54 -65 65 -12 12 -42 42 -68 68 -25 25 -54 55 -65 65 -10 10 -34 34 -52
52 -19 19 -44 44 -56 56 -74 73 -84 97 -49 123 11 7 23 31 26 52 4 21 11 38
16 38 5 0 9 11 9 25 0 14 5 25 10 25 6 0 10 50 10 130 0 80 -4 130 -10 130 -5
0 -10 14 -10 30 0 17 -4 30 -9 30 -5 0 -12 15 -15 33 -3 18 -15 39 -26 47 -11
8 -20 21 -20 30 0 9 -10 22 -21 30 -12 8 -32 25 -45 38 -13 12 -27 22 -31 22
-5 0 -15 9 -23 20 -8 11 -22 20 -32 20 -10 0 -18 5 -18 10 0 6 -9 10 -19 10
-11 0 -21 5 -23 10 -2 6 -33 13 -71 17 -37 3 -67 10 -67 14 0 5 -18 9 -40 9
-22 0 -40 -4 -40 -9 0 -4 -37 -11 -82 -14 -46 -4 -84 -11 -86 -17 -2 -5 -9
-10 -16 -10 -6 0 -18 -9 -26 -20 -8 -11 -22 -20 -32 -20 -10 0 -18 -4 -18 -10
0 -30 -39 2 -195 161 -24 24 -53 52 -65 61 l-23 17 54 51 c30 27 58 54 63 59
6 7 83 84 128 129 13 13 97 97 110 110 6 5 35 35 65 65 30 30 60 59 65 65 6 5
34 34 64 63 29 30 58 59 63 64 6 6 35 35 65 65 30 30 61 61 68 68 7 7 37 37
66 67 29 30 57 55 62 55 5 0 12 9 15 20 3 11 14 20 23 21 9 0 116 101 237 224
121 123 223 224 228 224 4 1 7 -3 7 -9z m2940 -3100 c0 -16 5 -30 10 -30 6 0
10 -16 10 -35 0 -19 5 -35 10 -35 6 0 10 -28 10 -65 0 -37 4 -65 10 -65 6 0
10 -25 10 -55 0 -30 -4 -55 -10 -55 -6 0 -10 -28 -10 -65 0 -37 -4 -65 -10
-65 -5 0 -10 -18 -10 -40 0 -22 -4 -40 -10 -40 -5 0 -10 -11 -10 -25 0 -14 -4
-25 -9 -25 -5 0 -12 -24 -15 -53 -5 -36 -13 -58 -26 -67 -11 -8 -20 -22 -20
-32 0 -10 -4 -18 -10 -18 -5 0 -10 -9 -10 -20 0 -11 -4 -20 -10 -20 -5 0 -10
-5 -10 -10 0 -10 -8 -20 -67 -85 -13 -13 -23 -27 -23 -30 0 -7 -88 -95 -95
-95 -6 0 -20 -11 -50 -38 -7 -6 -20 -12 -29 -12 -8 0 -18 -9 -21 -20 -3 -11
-15 -20 -26 -20 -10 0 -19 -4 -19 -10 0 -5 -9 -10 -20 -10 -11 0 -20 -4 -20
-10 0 -5 -9 -10 -19 -10 -11 0 -21 -5 -23 -11 -2 -5 -22 -13 -46 -16 -23 -3
-42 -10 -42 -14 0 -5 -16 -9 -35 -9 -19 0 -35 -4 -35 -10 0 -5 -22 -10 -50
-10 -27 0 -50 -4 -50 -10 0 -6 -50 -10 -130 -10 -80 0 -130 4 -130 10 0 6 -20
10 -45 10 -25 0 -45 5 -45 10 0 6 -16 10 -35 10 -19 0 -35 5 -35 10 0 6 -9 10
-20 10 -21 0 -6 19 88 112 12 13 37 38 55 56 17 17 47 47 65 65 17 17 47 47
66 66 18 18 43 42 54 53 11 11 40 41 65 65 24 25 54 54 65 65 11 11 40 41 65
65 24 25 54 54 65 65 11 11 40 41 66 67 25 25 55 55 66 66 11 11 41 40 65 65
77 76 84 84 118 118 17 17 47 47 65 65 17 17 48 48 67 67 19 19 44 44 55 55
119 119 130 125 130 75z"/>
<path d="M6362 6587 c-7 -7 -18 -18 -25 -25 -6 -7 -32 -33 -56 -56 -24 -24
-52 -53 -63 -64 -11 -11 -40 -39 -64 -63 -24 -24 -53 -53 -64 -64 -11 -11 -40
-40 -65 -65 -24 -25 -54 -54 -65 -65 -11 -11 -41 -42 -67 -68 -59 -59 -57 -56
-120 -120 -68 -67 -70 -70 -122 -121 -24 -24 -52 -53 -63 -64 -11 -11 -41 -40
-65 -65 -25 -24 -54 -54 -65 -65 -11 -11 -41 -40 -65 -65 -25 -24 -54 -54 -65
-65 -11 -11 -41 -40 -65 -65 -25 -24 -54 -54 -65 -65 -11 -11 -41 -40 -65 -65
-55 -55 -53 -53 -120 -120 -67 -67 -65 -65 -120 -120 -25 -24 -54 -54 -65 -65
-11 -11 -41 -40 -65 -65 -25 -24 -54 -54 -65 -65 -11 -11 -41 -40 -65 -65 -25
-24 -54 -54 -65 -65 -11 -11 -41 -40 -65 -65 -25 -24 -54 -54 -65 -65 -11 -11
-41 -41 -67 -66 -59 -60 -52 -52 -115 -116 -67 -67 -64 -64 -122 -121 -25 -26
-55 -56 -66 -67 -11 -11 -41 -40 -65 -65 -25 -24 -54 -54 -65 -65 -11 -11 -41
-40 -65 -65 -25 -24 -54 -54 -65 -65 -11 -11 -41 -40 -65 -65 -25 -24 -54 -54
-65 -65 -11 -11 -40 -39 -64 -63 -51 -52 -53 -54 -124 -125 -67 -67 -65 -65
-119 -118 -24 -24 -52 -53 -63 -64 -11 -11 -41 -40 -65 -65 -25 -24 -54 -54
-65 -65 -11 -11 -41 -40 -65 -65 -25 -24 -54 -54 -65 -65 -11 -11 -40 -39 -64
-63 -23 -24 -50 -50 -58 -57 -25 -21 -19 -49 20 -85 38 -36 53 -51 110 -108
65 -67 57 -67 134 8 78 76 75 74 149 147 29 30 58 58 63 64 6 5 35 35 65 65
30 30 60 59 65 65 13 13 360 360 373 373 6 5 35 35 65 65 30 30 60 59 65 65 6
5 33 33 62 62 29 29 58 58 65 65 7 7 36 36 65 65 29 29 58 58 65 65 17 17 353
353 370 370 7 7 37 37 67 66 29 30 58 58 63 64 6 5 35 35 65 65 30 30 60 59
65 65 6 5 35 35 65 65 30 30 60 59 65 65 13 13 357 357 370 370 6 5 35 35 65
65 30 30 60 59 65 65 31 31 119 118 130 130 6 5 35 35 65 65 30 30 60 59 65
65 13 13 357 357 370 370 6 5 34 34 64 63 29 30 58 59 63 64 6 6 36 35 67 66
166 166 214 218 214 229 0 12 -13 30 -48 63 -12 12 -37 37 -55 54 -17 18 -42
43 -54 55 -25 26 -51 48 -55 48 -2 -1 -9 -6 -16 -13z"/>
<path d="M1370 2830 c0 -5 -9 -10 -20 -10 -11 0 -20 -4 -20 -9 0 -5 -9 -13
-20 -16 -11 -3 -20 -13 -20 -21 0 -9 -7 -22 -15 -30 -8 -9 -15 -24 -15 -35 0
-10 -4 -19 -10 -19 -5 0 -10 -6 -10 -13 0 -7 -9 -19 -20 -27 -11 -8 -20 -22
-20 -32 0 -10 -4 -18 -10 -18 -5 0 -10 -8 -10 -18 0 -10 -9 -24 -20 -32 -10
-8 -22 -28 -26 -44 -4 -17 -15 -38 -25 -47 -11 -9 -19 -24 -19 -33 0 -9 -4
-16 -10 -16 -5 0 -10 -6 -10 -13 0 -7 -9 -19 -20 -27 -11 -8 -20 -22 -20 -32
0 -10 -4 -18 -10 -18 -5 0 -10 -9 -10 -20 0 -11 -7 -23 -15 -26 -8 -4 -15 -15
-15 -25 0 -10 -4 -19 -10 -19 -5 0 -10 -8 -10 -18 0 -10 -9 -24 -20 -32 -11
-8 -20 -20 -20 -27 0 -7 -4 -13 -10 -13 -5 0 -10 -7 -10 -16 0 -8 -7 -22 -15
-30 -8 -9 -15 -24 -15 -35 0 -10 -4 -19 -10 -19 -5 0 -10 -6 -10 -13 0 -7 -9
-19 -20 -27 -12 -8 -20 -26 -20 -42 0 -15 -4 -28 -10 -28 -5 0 -10 -16 -10
-35 0 -19 5 -35 10 -35 6 0 10 -9 10 -20 0 -11 5 -20 10 -20 6 0 10 -9 10 -20
0 -11 5 -20 10 -20 6 0 10 -5 10 -11 0 -6 7 -17 15 -25 8 -9 15 -24 15 -35 0
-10 5 -19 10 -19 6 0 10 -9 10 -19 0 -11 9 -23 20 -26 11 -3 20 -15 20 -26 0
-10 5 -19 10 -19 6 0 10 -8 10 -18 0 -10 9 -24 20 -32 10 -8 22 -28 26 -44 4
-17 15 -38 25 -47 11 -9 19 -24 19 -33 0 -9 5 -16 10 -16 6 0 10 -6 10 -13 0
-7 9 -19 20 -27 11 -8 20 -22 20 -32 0 -10 5 -18 10 -18 6 0 10 -9 10 -20 0
-11 7 -23 15 -26 8 -4 15 -15 15 -25 0 -10 5 -19 10 -19 6 0 10 -8 10 -18 0
-10 9 -24 20 -32 11 -8 20 -20 20 -27 0 -7 5 -13 10 -13 6 0 10 -9 10 -20 0
-11 4 -20 10 -20 5 0 13 -12 16 -27 4 -16 15 -35 26 -44 10 -9 18 -21 18 -28
0 -6 9 -11 20 -11 11 0 20 -4 20 -10 0 -5 9 -10 20 -10 11 0 20 -4 20 -10 0
-7 178 -10 515 -10 337 0 515 3 515 10 0 6 7 10 15 10 9 0 27 10 40 22 13 13
31 29 40 36 8 7 15 22 15 32 0 11 5 20 10 20 6 0 10 8 10 18 0 10 9 24 20 32
11 8 20 20 20 27 0 7 5 13 10 13 6 0 10 7 10 16 0 9 8 24 19 33 10 9 21 30 25
47 4 16 16 36 26 44 11 8 20 22 20 32 0 10 5 18 10 18 6 0 10 9 10 19 0 11 9
23 20 26 11 3 20 15 20 26 0 10 5 19 10 19 6 0 10 9 10 19 0 11 7 26 15 35 8
8 15 19 15 25 0 6 5 11 10 11 6 0 10 8 10 18 0 10 9 24 20 32 11 8 20 22 20
32 0 10 5 18 10 18 6 0 10 5 10 11 0 6 7 17 15 25 8 9 15 24 15 35 0 10 5 19
10 19 6 0 10 9 10 19 0 11 9 23 20 26 11 3 20 15 20 26 0 10 5 19 10 19 6 0
10 14 10 30 0 17 5 30 10 30 6 0 10 11 10 25 0 14 -4 25 -10 25 -5 0 -10 13
-10 28 0 16 -8 34 -20 42 -11 8 -20 20 -20 27 0 7 -4 13 -10 13 -5 0 -10 7
-10 16 0 8 -7 22 -15 30 -8 9 -15 24 -15 35 0 10 -4 19 -10 19 -5 0 -10 6 -10
13 0 7 -9 19 -20 27 -11 8 -20 22 -20 32 0 10 -4 18 -10 18 -5 0 -10 9 -10 19
0 11 -9 22 -19 26 -13 4 -22 19 -26 44 -3 20 -15 44 -26 51 -10 8 -19 20 -19
27 0 7 -4 13 -10 13 -5 0 -10 8 -10 18 0 10 -9 24 -20 32 -11 8 -20 22 -20 32
0 10 -4 18 -9 18 -5 0 -12 11 -15 25 -4 14 -11 25 -16 25 -6 0 -10 9 -10 20 0
11 -4 20 -10 20 -5 0 -10 8 -10 18 0 10 -9 24 -20 32 -11 8 -20 20 -20 27 0 7
-4 13 -10 13 -5 0 -10 7 -10 16 0 8 -7 22 -15 30 -8 9 -15 24 -15 34 0 10 -9
22 -20 25 -11 3 -20 11 -20 16 0 5 -9 9 -20 9 -11 0 -20 5 -20 10 0 7 -185 10
-535 10 -350 0 -535 -3 -535 -10z m926 -314 c8 -8 14 -21 14 -28 0 -8 9 -20
20 -28 11 -8 20 -22 20 -32 0 -10 5 -18 10 -18 6 0 10 -5 10 -11 0 -6 7 -17
15 -25 8 -9 15 -24 15 -35 0 -10 5 -19 10 -19 6 0 10 -9 10 -19 0 -11 9 -23
20 -26 11 -3 20 -15 20 -26 0 -10 5 -19 10 -19 6 0 10 -8 10 -18 0 -10 9 -24
20 -32 10 -8 22 -28 26 -44 4 -17 15 -38 25 -47 11 -9 19 -24 19 -33 0 -9 5
-16 10 -16 6 0 10 -6 10 -13 0 -7 9 -19 20 -27 11 -8 20 -22 20 -31 0 -10 5
-19 12 -21 6 -2 11 -24 11 -51 0 -36 -5 -51 -21 -66 -12 -10 -22 -26 -22 -35
0 -9 -4 -16 -10 -16 -5 0 -10 -6 -10 -13 0 -7 -9 -19 -20 -27 -11 -8 -20 -22
-20 -32 0 -10 -4 -18 -10 -18 -5 0 -10 -9 -10 -20 0 -11 -7 -23 -15 -26 -8 -4
-15 -15 -15 -25 0 -10 -4 -19 -10 -19 -5 0 -10 -8 -10 -18 0 -10 -9 -24 -20
-32 -11 -8 -20 -20 -20 -27 0 -7 -4 -13 -10 -13 -5 0 -10 -7 -10 -16 0 -8 -7
-22 -15 -30 -8 -9 -15 -24 -15 -35 0 -10 -4 -19 -10 -19 -5 0 -10 -6 -10 -13
0 -7 -9 -19 -20 -27 -11 -8 -20 -22 -20 -32 0 -10 -4 -18 -10 -18 -5 0 -10 -9
-10 -20 0 -12 -9 -22 -22 -25 -13 -3 -194 -4 -403 -3 l-380 3 -3 23 c-2 12 -8
22 -13 22 -5 0 -9 8 -9 18 0 10 -9 24 -20 32 -11 8 -20 20 -20 27 0 7 -4 13
-10 13 -5 0 -10 7 -10 16 0 8 -7 22 -15 30 -8 9 -15 24 -15 35 0 10 -4 19 -10
19 -5 0 -10 6 -10 13 0 7 -9 19 -20 27 -11 8 -20 22 -20 32 0 10 -4 18 -10 18
-5 0 -10 9 -10 19 0 11 -9 22 -19 26 -13 4 -22 19 -26 44 -3 20 -15 44 -26 51
-10 8 -19 20 -19 27 0 7 -4 13 -10 13 -5 0 -10 8 -10 18 0 10 -9 24 -20 32
-11 8 -20 22 -20 32 0 10 -4 18 -10 18 -18 0 -10 45 10 60 11 8 20 22 20 32 0
10 5 18 10 18 6 0 10 9 10 19 0 11 9 23 20 26 11 3 20 15 20 26 0 10 5 19 10
19 6 0 10 9 10 19 0 11 7 26 15 35 8 8 15 19 15 25 0 6 5 11 10 11 6 0 10 8
10 18 0 10 9 24 20 32 11 8 20 22 20 32 0 10 5 18 10 18 6 0 10 5 10 11 0 6 7
17 15 25 8 9 15 24 15 35 0 10 5 19 10 19 6 0 10 9 10 19 0 11 9 23 20 26 11
3 20 15 20 26 0 10 5 19 10 19 6 0 10 9 10 20 0 11 4 20 9 20 5 0 13 9 16 20
6 20 15 20 391 20 321 0 388 -2 400 -14z"/>
<path d="M6580 3099 c-8 -12 -25 -31 -38 -43 -61 -56 -88 -85 -102 -105 -8
-11 -22 -24 -32 -27 -34 -10 -20 -36 61 -118 5 -4 28 -28 52 -52 24 -24 54
-54 67 -66 12 -13 42 -43 66 -67 68 -68 41 -41 129 -128 24 -25 54 -54 65 -65
11 -11 40 -41 65 -65 24 -25 54 -55 66 -67 12 -11 41 -41 65 -65 54 -53 52
-51 119 -118 67 -67 65 -65 120 -120 24 -25 54 -54 65 -65 11 -11 40 -41 65
-65 24 -25 53 -54 63 -64 11 -10 40 -40 67 -66 26 -27 55 -56 65 -65 9 -10 38
-39 65 -65 26 -27 56 -56 66 -67 10 -10 38 -38 62 -62 24 -24 50 -49 57 -56
49 -49 102 -98 107 -98 7 0 83 72 162 154 23 24 47 46 54 48 11 4 -63 84 -220
242 -5 4 -34 33 -64 63 -30 30 -59 60 -65 65 -5 6 -35 35 -65 65 -30 30 -59
60 -65 65 -5 6 -35 35 -65 65 -30 30 -59 60 -65 65 -13 13 -360 360 -373 373
-5 6 -33 33 -62 62 -29 29 -58 58 -65 65 -7 7 -37 37 -66 67 -30 29 -58 58
-64 63 -5 6 -35 35 -65 65 -30 30 -60 60 -66 67 -74 73 -211 206 -214 206 -1
0 -9 -10 -17 -21z"/>
</g>
</svg>
