<?xml version="1.0" encoding="UTF-8"?>
<svg version="1.1" xmlns="http://www.w3.org/2000/svg" width="512" height="512">
<path d="M0 0 C0.68330383 -0.01007584 1.36660767 -0.02015167 2.07061768 -0.03053284 C4.330692 -0.05904013 6.59009884 -0.06489105 8.8503418 -0.06811523 C10.42352065 -0.07775628 11.9966968 -0.08784875 13.56987 -0.09837341 C16.86939729 -0.11634293 20.16868894 -0.12189381 23.46826172 -0.12011719 C27.68878628 -0.11981269 31.90779234 -0.16072613 36.12795734 -0.21243382 C39.37860496 -0.24585893 42.62888832 -0.25187287 45.87969017 -0.25028801 C47.43500174 -0.25382029 48.99032351 -0.26704644 50.54546547 -0.29028511 C64.2205193 -0.47546104 64.2205193 -0.47546104 68.16235352 2.97045898 C70.76868786 6.48565857 71.25817146 10.29444096 71.4440918 14.57250977 C71.49981857 15.33376663 71.55554535 16.0950235 71.61296082 16.87934875 C71.78447109 19.2930807 71.91812663 21.70707745 72.04956055 24.12329102 C72.20711071 26.54908243 72.37231952 28.97423849 72.53971863 31.39936829 C72.64076188 32.90359145 72.73456439 34.40832279 72.82026672 35.91349792 C73.00223187 38.96472427 73.264917 41.51936037 74.23706055 44.43579102 C77.08456512 45.33027638 79.80462226 46.01505908 82.71655273 46.62475586 C83.60599579 46.82198746 84.49543884 47.01921906 85.41183472 47.22242737 C87.34929211 47.65045526 89.28808469 48.0724725 91.2279892 48.48926926 C94.2989139 49.14995097 97.36560331 49.82770077 100.43170166 50.51040649 C109.15185996 52.44842183 117.87938188 54.35243454 126.6081543 56.2512207 C131.94254451 57.41286633 137.27273381 58.59240805 142.60086823 59.78239822 C145.62076964 60.4507814 148.64477985 61.09771083 151.66937256 61.74447632 C153.52650306 62.15783942 155.38338938 62.5723016 157.23999023 62.98803711 C158.08071075 63.1617131 158.92143127 63.3353891 159.78762817 63.514328 C164.98077055 64.70837169 167.71692596 66.21709799 171.23706055 70.43579102 C171.89706055 71.09579102 172.55706055 71.75579102 173.23706055 72.43579102 C173.51794434 74.42022705 173.51794434 74.42022705 173.55932617 76.88208008 C173.57854126 77.80353821 173.59775635 78.72499634 173.61755371 79.67437744 C173.63030334 81.17276154 173.63030334 81.17276154 173.64331055 82.70141602 C173.65471069 83.72757019 173.66611084 84.75372437 173.67785645 85.81097412 C173.69677433 87.98648952 173.70983152 90.16206246 173.7175293 92.33764648 C173.73690513 95.65914785 173.79890834 98.97815441 173.86206055 102.29907227 C173.87512445 104.41233881 173.88562389 106.52562307 173.89331055 108.63891602 C173.91800415 109.62974182 173.94269775 110.62056763 173.96813965 111.64141846 C173.93816951 116.30539519 173.78571591 119.51501204 170.5612793 123.06079102 C167.5965674 125.51543905 165.28832185 126.20570648 161.39331055 126.23266602 C159.77102539 126.24426758 159.77102539 126.24426758 158.1159668 126.25610352 C157.00092773 126.23290039 155.88588867 126.20969727 154.73706055 126.18579102 C153.06450195 126.2205957 153.06450195 126.2205957 151.3581543 126.25610352 C142.27581915 126.19115237 142.27581915 126.19115237 138.45581055 123.38891602 C136.23706055 119.43579102 136.23706055 119.43579102 136.23706055 103.43579102 C116.76706055 103.43579102 97.29706055 103.43579102 77.23706055 103.43579102 C77.56706055 104.09579102 77.89706055 104.75579102 78.23706055 105.43579102 C78.52217757 108.23900634 78.75733884 111.02855011 78.95581055 113.83813477 C79.01861206 114.67163956 79.08141357 115.50514435 79.14611816 116.36390686 C79.34708553 119.03342229 79.54266046 121.7032898 79.73706055 124.37329102 C79.99308696 127.8827493 80.25423395 131.39177421 80.51831055 134.90063477 C80.57563354 135.71008041 80.63295654 136.51952606 80.6920166 137.35350037 C80.93347561 140.56155068 81.21525378 143.37037072 82.23706055 146.43579102 C84.19325942 147.24817507 84.19325942 147.24817507 86.64482117 147.6605835 C87.59673843 147.85653107 88.5486557 148.05247864 89.52941895 148.25436401 C90.58238159 148.4569986 91.63534424 148.65963318 92.72021484 148.8684082 C93.82263016 149.09168793 94.92504547 149.31496765 96.06086731 149.54501343 C98.46334959 150.03026335 100.86703815 150.50956902 103.27173424 150.9837265 C107.07808426 151.73598723 110.88017459 152.50698866 114.68159485 153.28375244 C125.49323517 155.49009422 136.31049485 157.66771063 147.13330078 159.81860352 C153.74668503 161.13316547 160.35361196 162.47689038 166.95798683 163.83609772 C169.47684881 164.34878051 171.99785343 164.85105093 174.52091026 165.34267426 C178.05520196 166.03189246 181.58102789 166.7548594 185.10693359 167.4855957 C186.14977509 167.68013336 187.19261658 167.87467102 188.26705933 168.07510376 C194.09493243 169.32528119 197.67068889 170.76651188 201.24094105 175.67038155 C202.55743133 178.00357993 202.99746203 179.76964049 203.01342773 182.44970703 C203.0323407 183.37078751 203.05125366 184.29186798 203.07073975 185.24085999 C203.05252167 186.70053444 203.05252167 186.70053444 203.03393555 188.18969727 C203.04254608 189.71831642 203.04254608 189.71831642 203.05133057 191.27781677 C203.05539842 193.42351516 203.04443222 195.56928885 203.01928711 197.71484375 C202.98711585 200.99265641 203.01903495 204.26555141 203.05737305 207.54321289 C203.05340858 209.63371852 203.04572202 211.7242211 203.03393555 213.81469727 C203.04608093 214.7898378 203.05822632 215.76497833 203.07073975 216.76966858 C202.97561994 221.38624627 202.73901145 224.54495433 199.55249023 228.04760742 C194.81063079 231.99659188 189.63482858 231.34715534 183.73706055 231.24829102 C182.06450195 231.29566406 182.06450195 231.29566406 180.3581543 231.34399414 C175.4264437 231.32342085 171.22479692 231.27630802 167.45581055 227.82250977 C165.23706055 223.43579102 165.23706055 223.43579102 165.23706055 208.43579102 C139.16706055 208.43579102 113.09706055 208.43579102 86.23706055 208.43579102 C87.70919989 237.69456052 91.1615086 259.86869243 102.50305176 286.48335266 C105.84367158 294.35651207 108.91219283 302.32293404 111.9128418 310.33032227 C112.15583511 310.9786521 112.39882843 311.62698193 112.64918518 312.29495811 C113.8910932 315.61137798 115.12999429 318.92891129 116.36749268 322.24697876 C118.57279895 328.15673992 120.80064815 334.05800443 123.02708435 339.95982933 C123.74427496 341.86134846 124.46092272 343.76307122 125.17736816 345.66487122 C131.17898509 361.59544099 137.20774365 377.51568461 143.23706055 393.43579102 C155.11706055 393.76579102 166.99706055 394.09579102 179.23706055 394.43579102 C179.23706055 409.28579102 179.23706055 424.13579102 179.23706055 439.43579102 C79.90706055 439.43579102 -19.42293945 439.43579102 -121.76293945 439.43579102 C-121.76293945 424.58579102 -121.76293945 409.73579102 -121.76293945 394.43579102 C-109.55293945 394.43579102 -97.34293945 394.43579102 -84.76293945 394.43579102 C-84.43293945 392.45579102 -84.10293945 390.47579102 -83.76293945 388.43579102 C-83.07052963 386.36368672 -82.31912084 384.31079487 -81.5246582 382.27563477 C-81.17632431 381.3746254 -81.17632431 381.3746254 -80.82095337 380.45541382 C-80.3088039 379.1320676 -79.79412411 377.80969857 -79.2772522 376.4881897 C-77.79912669 372.70730255 -76.34122417 368.91859601 -74.88012695 365.13110352 C-74.55762466 364.29656143 -74.23512238 363.46201935 -73.90284729 362.60218811 C-71.26423852 355.76446707 -68.66699239 348.91160175 -66.08325195 342.05297852 C-65.67755478 340.97625885 -65.2718576 339.89953918 -64.85386658 338.79019165 C-62.739545 333.17555448 -60.62931258 327.55939964 -58.52197266 321.94213867 C-54.2848477 310.66442741 -49.98831166 299.41647982 -45.5480957 288.21704102 C-44.30753564 285.06499184 -43.06843155 281.91237388 -41.8296814 278.75961304 C-41.04883306 276.7865468 -40.26022542 274.81652969 -39.46304321 272.8500061 C-34.80245141 261.35113556 -31.58813011 250.86985103 -30.87854004 238.4446106 C-30.70311526 235.3962114 -30.42475057 232.35693039 -30.1652832 229.31469727 C-29.92498447 226.11266776 -29.6941036 222.91006027 -29.46411133 219.70727539 C-29.34712891 218.15169922 -29.34712891 218.15169922 -29.2277832 216.56469727 C-29.16196045 215.64760986 -29.0961377 214.73052246 -29.02832031 213.78564453 C-28.76293945 211.43579102 -28.76293945 211.43579102 -27.76293945 208.43579102 C-54.16293945 208.43579102 -80.56293945 208.43579102 -107.76293945 208.43579102 C-107.76293945 213.71579102 -107.76293945 218.99579102 -107.76293945 224.43579102 C-110.42563081 229.11399181 -110.42563081 229.11399181 -113.76293945 230.43579102 C-117.8010111 231.24280976 -121.65617612 231.27506848 -125.76293945 231.18579102 C-126.8302832 231.20899414 -127.89762695 231.23219727 -128.99731445 231.25610352 C-130.55192383 231.24450195 -130.55192383 231.24450195 -132.13793945 231.23266602 C-133.07379883 231.22589844 -134.0096582 231.21913086 -134.97387695 231.2121582 C-139.11826566 230.05852059 -141.54490103 228.13813003 -143.76293945 224.43579102 C-144.5998057 220.78726348 -144.5579834 217.25573917 -144.48950195 213.52563477 C-144.49049896 212.48057266 -144.49149597 211.43551056 -144.49252319 210.35877991 C-144.48785426 208.15577565 -144.46847052 205.95275951 -144.43530273 203.75 C-144.38804227 200.38062102 -144.39419574 197.01440248 -144.4074707 193.64477539 C-144.39631828 191.50087635 -144.3820992 189.3569906 -144.36450195 187.21313477 C-144.36632477 186.20782211 -144.36814758 185.20250946 -144.37002563 184.16673279 C-144.35096161 183.2254805 -144.33189758 182.28422821 -144.31225586 181.31445312 C-144.29843369 180.07918129 -144.29843369 180.07918129 -144.28433228 178.81895447 C-143.54518559 175.44048952 -142.23763089 173.83841311 -139.76293945 171.43579102 C-136.69628906 170.2477417 -136.69628906 170.2477417 -132.9777832 169.43481445 C-132.28474594 169.27816189 -131.59170868 169.12150932 -130.87767029 168.96010971 C-128.51009848 168.4315469 -126.13722189 167.93328669 -123.76293945 167.43579102 C-121.99725838 167.05239802 -120.23180405 166.66795962 -118.46655273 166.28259277 C-112.42597079 164.97436254 -106.37603792 163.71235085 -100.32543945 162.45141602 C-98.10622599 161.98657771 -95.88707007 161.52146463 -93.66796875 161.05609131 C-87.88191621 159.84344126 -82.09509973 158.6344774 -76.30810547 157.42633057 C-70.38111762 156.18825909 -64.45487467 154.94663255 -58.52856445 153.70532227 C-46.94074117 151.27870331 -35.35210611 148.85598548 -23.76293945 146.43579102 C-23.67729736 145.34637207 -23.59165527 144.25695312 -23.50341797 143.13452148 C-23.18361261 139.07522898 -22.86037886 135.01621539 -22.53613281 130.95727539 C-22.39653166 129.2037684 -22.25784821 127.45018808 -22.12011719 125.6965332 C-21.92146803 123.16931429 -21.71947072 120.64238139 -21.5168457 118.11547852 C-21.45638565 117.33711639 -21.3959256 116.55875427 -21.33363342 115.75680542 C-21.24365334 114.64633347 -21.24365334 114.64633347 -21.15185547 113.51342773 C-21.1007814 112.86945038 -21.04970734 112.22547302 -20.99708557 111.5619812 C-20.69717992 108.83865413 -20.21335829 106.13830403 -19.76293945 103.43579102 C-39.23293945 103.43579102 -58.70293945 103.43579102 -78.76293945 103.43579102 C-78.76293945 108.71579102 -78.76293945 113.99579102 -78.76293945 119.43579102 C-81.42563081 124.11399181 -81.42563081 124.11399181 -84.76293945 125.43579102 C-88.8010111 126.24280976 -92.65617612 126.27506848 -96.76293945 126.18579102 C-97.8302832 126.20899414 -98.89762695 126.23219727 -99.99731445 126.25610352 C-101.0337207 126.24836914 -102.07012695 126.24063477 -103.13793945 126.23266602 C-104.07379883 126.22589844 -105.0096582 126.21913086 -105.97387695 126.2121582 C-110.11826566 125.05852059 -112.54490103 123.13813003 -114.76293945 119.43579102 C-115.5998057 115.78726348 -115.5579834 112.25573917 -115.48950195 108.52563477 C-115.49049896 107.48057266 -115.49149597 106.43551056 -115.49252319 105.35877991 C-115.48785426 103.15577565 -115.46847052 100.95275951 -115.43530273 98.75 C-115.38804227 95.38062102 -115.39419574 92.01440248 -115.4074707 88.64477539 C-115.39631828 86.50087635 -115.3820992 84.3569906 -115.36450195 82.21313477 C-115.36723618 80.70516579 -115.36723618 80.70516579 -115.37002563 79.16673279 C-115.28377225 74.90812556 -115.15423829 72.14279879 -113.06689453 68.37133789 C-110.42945951 66.15563536 -108.64938821 65.44672709 -105.2980957 64.68969727 C-104.13415283 64.41641602 -102.97020996 64.14313477 -101.77099609 63.86157227 C-100.45588065 63.57349164 -99.14069224 63.28574397 -97.82543945 62.99829102 C-96.43498871 62.67969932 -95.04494776 62.35931502 -93.65527344 62.03735352 C-90.37840729 61.28198692 -87.09886785 60.53959066 -83.81762695 59.8034668 C-77.25707005 58.32761925 -70.7066587 56.80832658 -64.15602303 55.28919792 C-52.48789709 52.5843363 -40.81728219 49.89017249 -29.1418457 47.21704102 C-27.92243286 46.93618149 -26.70302002 46.65532196 -25.44665527 46.36595154 C-24.33101196 46.1112056 -23.21536865 45.85645966 -22.06591797 45.59399414 C-21.0862355 45.36941528 -20.10655304 45.14483643 -19.09718323 44.91345215 C-16.76293945 44.43579102 -16.76293945 44.43579102 -14.76293945 44.43579102 C-14.77707886 43.46875244 -14.77707886 43.46875244 -14.79150391 42.48217773 C-14.85099703 35.14033389 -14.5063931 27.88011776 -13.95043945 20.56079102 C-13.84505859 18.90950195 -13.84505859 18.90950195 -13.73754883 17.22485352 C-13.65698242 16.16266602 -13.57641602 15.10047852 -13.4934082 14.00610352 C-13.42532959 13.05493652 -13.35725098 12.10376953 -13.28710938 11.1237793 C-11.7405621 3.19295234 -7.7322386 0.07150646 0 0 Z M12.23706055 14.43579102 C15.33205877 16.75703968 18.27684507 18.76126892 21.61206055 20.68579102 C22.52729492 21.22719727 23.4425293 21.76860352 24.38549805 22.32641602 C27.9404922 23.70945484 29.58966222 23.4957583 33.23706055 22.43579102 C35.56852922 21.32847617 37.86124244 20.13650526 40.11206055 18.87329102 C41.26448242 18.23262695 42.4169043 17.59196289 43.60424805 16.93188477 C44.47307617 16.43817383 45.3419043 15.94446289 46.23706055 15.43579102 C46.23706055 15.10579102 46.23706055 14.77579102 46.23706055 14.43579102 C35.01706055 14.43579102 23.79706055 14.43579102 12.23706055 14.43579102 Z M0.23706055 25.43579102 C-0.09293945 30.05579102 -0.42293945 34.67579102 -0.76293945 39.43579102 C3.49638517 38.01601614 6.06719701 37.13328782 9.61206055 34.81079102 C10.30041992 34.36477539 10.9887793 33.91875977 11.69799805 33.45922852 C12.20588867 33.12149414 12.7137793 32.78375977 13.23706055 32.43579102 C7.27583414 27.54588358 7.27583414 27.54588358 0.23706055 25.43579102 Z M50.67456055 28.43579102 C49.66264648 28.99266602 48.65073242 29.54954102 47.6081543 30.12329102 C46.82569336 30.55641602 46.04323242 30.98954102 45.23706055 31.43579102 C45.23706055 32.09579102 45.23706055 32.75579102 45.23706055 33.43579102 C51.67206055 36.40579102 51.67206055 36.40579102 58.23706055 39.43579102 C57.90706055 34.81579102 57.57706055 30.19579102 57.23706055 25.43579102 C55.01021718 25.43579102 52.54484317 27.40391095 50.67456055 28.43579102 Z M22.79174805 43.27954102 C21.17719727 44.15932617 21.17719727 44.15932617 19.5300293 45.05688477 C18.40209961 45.67692383 17.27416992 46.29696289 16.11206055 46.93579102 C14.97639648 47.55583008 13.84073242 48.17586914 12.6706543 48.81469727 C9.85739852 50.35134958 7.04632785 51.89186269 4.23706055 53.43579102 C7.82003572 57.38179891 12.41177062 59.31893094 17.11206055 61.68579102 C18.01053711 62.15758789 18.90901367 62.62938477 19.8347168 63.11547852 C20.70741211 63.55633789 21.58010742 63.99719727 22.47924805 64.45141602 C23.27186035 64.85650391 24.06447266 65.2615918 24.88110352 65.67895508 C31.0916786 67.6740621 37.51107816 63.13282235 42.98706055 60.49829102 C44.44305664 59.81476563 44.44305664 59.81476563 45.9284668 59.11743164 C46.85014648 58.6772168 47.77182617 58.23700195 48.72143555 57.78344727 C49.56416016 57.38134033 50.40688477 56.9792334 51.27514648 56.56494141 C53.39134062 55.58733615 53.39134062 55.58733615 54.23706055 53.43579102 C50.28239847 51.26237205 46.32274713 49.098209 42.36206055 46.93579102 C41.23413086 46.31575195 40.10620117 45.69571289 38.9440918 45.05688477 C37.86772461 44.47036133 36.79135742 43.88383789 35.68237305 43.27954102 C34.68737793 42.73491211 33.69238281 42.1902832 32.66723633 41.62915039 C28.45132248 39.5588885 26.74973418 41.1130644 22.79174805 43.27954102 Z M74.23706055 59.43579102 C74.3785367 62.56100373 74.52607302 65.68590421 74.67456055 68.81079102 C74.71387695 69.6809082 74.75319336 70.55102539 74.79370117 71.44750977 C74.8355957 72.31762695 74.87749023 73.18774414 74.9206543 74.08422852 C74.95731201 74.86975098 74.99396973 75.65527344 75.03173828 76.46459961 C75.33110015 80.7966257 75.80497984 85.11498393 76.23706055 89.43579102 C96.03706055 89.43579102 115.83706055 89.43579102 136.23706055 89.43579102 C136.23706055 84.15579102 136.23706055 78.87579102 136.23706055 73.43579102 C128.30118324 71.6092658 120.36509739 69.78365463 112.4286356 67.95967102 C108.74379458 67.11276992 105.05904814 66.26546174 101.37451172 65.41723633 C97.82157222 64.59932167 94.26839233 63.78245923 90.71504021 62.96633911 C89.35651901 62.65412191 87.99808624 62.3415197 86.6397419 62.02853394 C84.74345788 61.59166557 82.84683508 61.15626856 80.95019531 60.72094727 C79.86875748 60.47223877 78.78731964 60.22353027 77.67311096 59.96728516 C75.48978393 59.40026367 75.48978393 59.40026367 74.23706055 59.43579102 Z M-23.47607422 60.72094727 C-24.69726456 61.00123779 -25.9184549 61.28152832 -27.176651 61.5703125 C-28.51922123 61.87961556 -29.861786 62.1889423 -31.2043457 62.49829102 C-32.57052976 62.81226931 -33.93673589 63.12615161 -35.30296326 63.43994141 C-38.90515929 64.26755275 -42.50705293 65.09647293 -46.10888672 65.92565918 C-49.78180188 66.77096772 -53.45499937 67.61504755 -57.12817383 68.45922852 C-64.34004052 70.11687519 -71.55156199 71.77601702 -78.76293945 73.43579102 C-78.76293945 78.71579102 -78.76293945 83.99579102 -78.76293945 89.43579102 C-58.96293945 89.43579102 -39.16293945 89.43579102 -18.76293945 89.43579102 C-17.00749862 74.38415555 -17.00749862 74.38415555 -16.76293945 59.43579102 C-18.99920172 59.43579102 -21.31873271 60.22480302 -23.47607422 60.72094727 Z M-2.76293945 67.43579102 C-3.25793945 74.86079102 -3.25793945 74.86079102 -3.76293945 82.43579102 C1.18706055 80.12579102 6.13706055 77.81579102 11.23706055 75.43579102 C11.23706055 74.77579102 11.23706055 74.11579102 11.23706055 73.43579102 C6.61706055 71.45579102 1.99706055 69.47579102 -2.76293945 67.43579102 Z M59.23706055 67.43579102 C54.94706055 69.74579102 50.65706055 72.05579102 46.23706055 74.43579102 C49.57078665 76.93608559 52.23531548 78.47073664 55.98706055 80.12329102 C56.9719043 80.5602832 57.95674805 80.99727539 58.97143555 81.44750977 C59.7190918 81.77364258 60.46674805 82.09977539 61.23706055 82.43579102 C61.29112177 80.49859723 61.32988079 78.5609718 61.36206055 76.62329102 C61.38526367 75.5443457 61.4084668 74.46540039 61.43237305 73.35375977 C61.46729771 70.24176234 61.46729771 70.24176234 59.23706055 67.43579102 Z M20.9206543 85.93579102 C20.18959976 86.29092773 19.45854523 86.64606445 18.70533752 87.01196289 C16.36084946 88.15140752 14.01769659 89.29356909 11.67456055 90.43579102 C10.08936101 91.20680309 8.50407568 91.97763878 6.91870117 92.74829102 C3.02382082 94.64207586 -0.86986384 96.53829909 -4.76293945 98.43579102 C-4.76293945 99.09579102 -4.76293945 99.75579102 -4.76293945 100.43579102 C-4.08827637 100.77312256 -3.41361328 101.1104541 -2.71850586 101.45800781 C2.52449544 104.07950846 7.76749674 106.70100911 13.01049805 109.32250977 C14.06889893 109.83410645 15.1272998 110.34570312 16.21777344 110.87280273 C19.23706055 112.43579102 19.23706055 112.43579102 21.75439453 114.17456055 C24.34322896 115.87563507 26.18081279 116.87805921 29.23706055 117.43579102 C34.4491593 116.06033349 38.89967085 113.57309626 43.54956055 110.93579102 C44.80868523 110.26028172 46.06974697 109.58837001 47.33276367 108.92016602 C50.66392206 107.14290435 53.95995657 105.31133753 57.23706055 103.43579102 C58.1912085 102.90920898 59.14535645 102.38262695 60.12841797 101.84008789 C60.82427002 101.37666992 61.52012207 100.91325195 62.23706055 100.43579102 C62.23706055 99.77579102 62.23706055 99.11579102 62.23706055 98.43579102 C57.55687063 96.15465818 52.87545717 93.87606359 48.19287109 91.59985352 C46.59877842 90.82451598 45.00502749 90.04847544 43.41162109 89.27172852 C41.12645677 88.15791513 38.84009119 87.0466032 36.5534668 85.93579102 C35.83679337 85.58581055 35.12011993 85.23583008 34.38172913 84.87524414 C28.24378188 81.89892946 26.8859059 83.02271867 20.9206543 85.93579102 Z M-6.76293945 115.43579102 C-7.61667184 122.46383801 -7.88403256 129.35857171 -7.76293945 136.43579102 C-6.6543457 135.88149414 -5.54575195 135.32719727 -4.40356445 134.75610352 C1.14331055 131.98266602 6.69018555 129.20922852 12.23706055 126.43579102 C12.23706055 125.77579102 12.23706055 125.11579102 12.23706055 124.43579102 C9.44895834 122.92909382 6.65602097 121.43159298 3.86206055 119.93579102 C3.06799805 119.5065332 2.27393555 119.07727539 1.45581055 118.63500977 C0.69526367 118.22895508 -0.0652832 117.82290039 -0.84887695 117.40454102 C-1.55061035 117.02749023 -2.25234375 116.65043945 -2.9753418 116.26196289 C-4.73730657 115.29594774 -4.73730657 115.29594774 -6.76293945 115.43579102 Z M59.2019043 117.40454102 C58.39301758 117.8105957 57.58413086 118.21665039 56.75073242 118.63500977 C55.47552734 119.27889648 55.47552734 119.27889648 54.17456055 119.93579102 C53.32055664 120.36504883 52.46655273 120.79430664 51.58666992 121.23657227 C49.46923312 122.30120529 47.35274891 123.36768876 45.23706055 124.43579102 C47.38249702 126.76906324 49.44054135 128.24060436 52.2487793 129.69750977 C53.00610352 130.09389648 53.76342773 130.4902832 54.54370117 130.89868164 C55.32938477 131.30280273 56.11506836 131.70692383 56.92456055 132.12329102 C58.12048828 132.746875 58.12048828 132.746875 59.34057617 133.38305664 C61.30352512 134.40567076 63.26901616 135.42302782 65.23706055 136.43579102 C66.46678178 133.97634855 66.20465295 132.79690045 65.8972168 130.08422852 C65.80375977 129.23344727 65.71030273 128.38266602 65.61401367 127.50610352 C65.51024414 126.61665039 65.40647461 125.72719727 65.29956055 124.81079102 C65.14970703 123.46500977 65.14970703 123.46500977 64.99682617 122.09204102 C64.74891352 119.87263252 64.49544061 117.65400125 64.23706055 115.43579102 C62.40349967 115.43579102 60.80848083 116.59563535 59.2019043 117.40454102 Z M23.44799805 135.84204102 C22.03647461 136.58647461 22.03647461 136.58647461 20.59643555 137.34594727 C19.6115918 137.8705957 18.62674805 138.39524414 17.61206055 138.93579102 C16.12319336 139.72276367 16.12319336 139.72276367 14.60424805 140.52563477 C12.14655808 141.82537465 9.69095403 143.12890157 7.23706055 144.43579102 C7.23706055 144.76579102 7.23706055 145.09579102 7.23706055 145.43579102 C21.75706055 145.43579102 36.27706055 145.43579102 51.23706055 145.43579102 C47.16940328 142.38504806 43.09257173 140.10506997 38.61206055 137.74829102 C37.83604492 137.33256836 37.0600293 136.9168457 36.26049805 136.48852539 C35.51799805 136.09600586 34.77549805 135.70348633 34.01049805 135.29907227 C33.33422363 134.94111572 32.65794922 134.58315918 31.96118164 134.21435547 C28.50668559 132.65440249 26.61457604 134.16337316 23.44799805 135.84204102 Z M82.23706055 161.43579102 C82.38057333 164.49841479 82.52684115 167.56086942 82.67456055 170.62329102 C82.71387695 171.46827148 82.75319336 172.31325195 82.79370117 173.18383789 C83.13956885 180.28742787 83.69092068 187.33597278 84.23706055 194.43579102 C110.96706055 194.43579102 137.69706055 194.43579102 165.23706055 194.43579102 C165.23706055 189.48579102 165.23706055 184.53579102 165.23706055 179.43579102 C160.70819827 177.92617026 156.34814155 176.71780885 151.70288086 175.73999023 C150.97369949 175.58364105 150.24451813 175.42729187 149.49324036 175.26620483 C147.10126216 174.75425286 144.70826593 174.24725123 142.31518555 173.74047852 C140.64698206 173.38485517 138.97883095 173.02898601 137.31072998 172.67288208 C133.82455099 171.92942546 130.33788546 171.1883095 126.85083008 170.44897461 C122.37534354 169.49996611 117.90091309 168.54608434 113.4268074 167.59058952 C109.98715736 166.85639626 106.54707023 166.12426918 103.10683441 165.39282608 C101.45605047 165.04168263 99.80537966 164.69000693 98.1548233 164.33779526 C95.85486178 163.84743322 93.55435213 163.35973365 91.25366211 162.87280273 C90.56897354 162.72633301 89.88428497 162.57986328 89.17884827 162.42895508 C85.73758999 161.68598639 85.73758999 161.68598639 82.23706055 161.43579102 Z M-33.29614258 162.98046875 C-34.08472153 163.14467316 -34.87330048 163.30887756 -35.68577576 163.47805786 C-38.30549659 164.0239781 -40.92487391 164.57152344 -43.54418945 165.11938477 C-44.43566177 165.30569017 -45.32713409 165.49199558 -46.24562073 165.68394661 C-50.96078983 166.66945851 -55.67568805 167.65625511 -60.39038086 168.64404297 C-65.27601728 169.66737267 -70.16257425 170.6862343 -75.04935455 171.70408535 C-78.79352069 172.48479902 -82.53698277 173.26884746 -86.28025818 174.05381966 C-88.082206 174.43107109 -89.88442278 174.80704007 -91.68690491 175.18173027 C-94.20193729 175.7048615 -96.71593905 176.2326892 -99.22973633 176.76171875 C-100.35810158 176.99476967 -100.35810158 176.99476967 -101.50926208 177.23252869 C-104.92384736 177.7269204 -104.92384736 177.7269204 -107.76293945 179.43579102 C-107.76293945 184.38579102 -107.76293945 189.33579102 -107.76293945 194.43579102 C-81.03293945 194.43579102 -54.30293945 194.43579102 -26.76293945 194.43579102 C-25.01778215 177.88919493 -25.01778215 177.88919493 -24.76293945 161.43579102 C-27.57948276 161.43579102 -30.5342348 162.40259624 -33.29614258 162.98046875 Z M8.23706055 208.43579102 C11.73522255 211.05941252 15.19271844 213.18105811 19.04956055 215.18579102 C19.6405957 215.51450195 20.23163086 215.84321289 20.84057617 216.18188477 C25.42206817 218.55007147 28.29244572 218.75831354 33.23706055 217.43579102 C36.13912869 216.23901199 38.90185608 214.84208872 41.67456055 213.37329102 C42.40610352 212.99624023 43.13764648 212.61918945 43.89135742 212.23071289 C45.67800007 211.30819806 47.45821884 210.37325982 49.23706055 209.43579102 C49.23706055 209.10579102 49.23706055 208.77579102 49.23706055 208.43579102 C35.70706055 208.43579102 22.17706055 208.43579102 8.23706055 208.43579102 Z M-14.76293945 214.43579102 C-15.55939629 223.12570402 -15.89146451 231.71036801 -15.76293945 240.43579102 C-12.59499018 239.02198051 -9.42882557 237.60421471 -6.26293945 236.18579102 C-5.37606445 235.79004883 -4.48918945 235.39430664 -3.57543945 234.98657227 C1.7637214 232.59180159 7.02273202 230.09168732 12.23706055 227.43579102 C9.4012888 225.18279612 6.58983135 223.51221625 3.32299805 221.95532227 C2.39745117 221.51381836 1.4719043 221.07231445 0.51831055 220.61743164 C-0.44075195 220.16561523 -1.39981445 219.71379883 -2.38793945 219.24829102 C-3.35473633 218.78487305 -4.3215332 218.32145508 -5.31762695 217.84399414 C-9.85275225 215.40981159 -9.85275225 215.40981159 -14.76293945 214.43579102 Z M64.57299805 217.06079102 C63.45151367 217.60219727 62.3300293 218.14360352 61.17456055 218.70141602 C59.41112305 219.55993164 59.41112305 219.55993164 57.61206055 220.43579102 C55.83702148 221.29430664 55.83702148 221.29430664 54.02612305 222.17016602 C51.09473643 223.58857889 48.1651542 225.01059592 45.23706055 226.43579102 C48.19682286 228.80160513 51.1740555 230.50050226 54.58862305 232.13500977 C55.6044043 232.62163086 56.62018555 233.10825195 57.66674805 233.60961914 C58.72120117 234.10913086 59.7756543 234.60864258 60.86206055 235.12329102 C61.92424805 235.6344043 62.98643555 236.14551758 64.08081055 236.67211914 C68.9559844 239.33049582 68.9559844 239.33049582 74.23706055 240.43579102 C73.57706055 231.85579102 72.91706055 223.27579102 72.23706055 214.43579102 C69.27403899 214.43579102 67.23160318 215.77177034 64.57299805 217.06079102 Z M22.44018555 237.59594727 C21.48764893 238.05702881 20.5351123 238.51811035 19.55371094 238.99316406 C18.54171631 239.48985596 17.52972168 239.98654785 16.48706055 240.49829102 C14.40790658 241.50666684 12.32847877 242.51447824 10.2487793 243.52172852 C9.2283252 244.01769531 8.20787109 244.51366211 7.15649414 245.0246582 C3.22079208 246.92701294 -0.73527292 248.78330769 -4.70043945 250.62329102 C-5.88508789 251.1737207 -7.06973633 251.72415039 -8.2902832 252.29125977 C-9.10625977 252.66895508 -9.92223633 253.04665039 -10.76293945 253.43579102 C-7.2725064 256.29366263 -3.41787 258.26653192 0.6003418 260.26391602 C1.66565376 260.79381134 1.66565376 260.79381134 2.75248718 261.33441162 C4.25152794 262.07650388 5.75186902 262.81597455 7.25341797 263.55297852 C8.78272187 264.30746763 10.30816059 265.06984295 11.82958984 265.84008789 C14.03656987 266.95730439 16.2540863 268.05041251 18.4753418 269.13891602 C19.1484993 269.48464661 19.8216568 269.8303772 20.51521301 270.18658447 C25.22654265 272.44836284 28.20576009 272.77976378 33.23706055 271.43579102 C36.10073686 270.31880094 38.83171373 268.99938002 41.5769043 267.61938477 C42.34386124 267.24346695 43.11081818 266.86754913 43.90101624 266.48023987 C46.33014509 265.28703006 48.75233008 264.08043301 51.17456055 262.87329102 C52.82841594 262.05794177 54.48270879 261.24347923 56.13745117 260.42993164 C60.17578771 258.44210765 64.20795587 256.4422566 68.23706055 254.43579102 C66.06070101 252.25943148 64.24111528 251.35865911 61.4675293 250.04516602 C60.50169922 249.58537354 59.53586914 249.12558105 58.54077148 248.65185547 C56.99824707 247.92615356 56.99824707 247.92615356 55.42456055 247.18579102 C54.38460937 246.69361084 53.3446582 246.20143066 52.27319336 245.69433594 C50.2046563 244.71663148 48.13517493 243.7409221 46.06469727 242.76733398 C43.68198614 241.64530787 41.30402897 240.51424326 38.9284668 239.37719727 C37.2249707 238.57088867 37.2249707 238.57088867 35.48706055 237.74829102 C34.5228418 237.29067383 33.55862305 236.83305664 32.56518555 236.36157227 C28.46601707 234.7315338 26.21961886 235.7501692 22.44018555 237.59594727 Z M-21.76293945 265.43579102 C-26.38293945 277.64579102 -31.00293945 289.85579102 -35.76293945 302.43579102 C-35.10293945 302.76579102 -34.44293945 303.09579102 -33.76293945 303.43579102 C-31.99820671 302.86275625 -31.99820671 302.86275625 -30.06689453 301.8527832 C-28.9297979 301.29660309 -28.9297979 301.29660309 -27.76972961 300.72918701 C-26.94893417 300.31783508 -26.12813873 299.90648315 -25.2824707 299.48266602 C-24.43625656 299.06664124 -23.59004242 298.65061646 -22.71818542 298.22198486 C-20.00019198 296.88402568 -17.28770337 295.53532175 -14.57543945 294.18579102 C-11.88003153 292.85266138 -9.18353264 291.5217798 -6.48625183 290.19244385 C-4.80647147 289.36370065 -3.12794667 288.53240613 -1.45088196 287.69818115 C3.05940887 285.46353613 7.59018922 283.37124489 12.23706055 281.43579102 C8.98300717 278.77912652 5.59551498 277.06485716 1.79174805 275.29907227 C1.18066193 275.01476852 0.56957581 274.73046478 -0.06002808 274.43754578 C-1.34486999 273.8411726 -2.63079161 273.24712067 -3.91772461 272.65527344 C-5.89131036 271.74673923 -7.86048436 270.82912062 -9.8293457 269.91040039 C-11.08039588 269.33108005 -12.33168966 268.7522854 -13.58325195 268.17407227 C-14.72036621 267.6485376 -15.85748047 267.12300293 -17.02905273 266.58154297 C-19.57632167 265.30695066 -19.57632167 265.30695066 -21.76293945 265.43579102 Z M71.3112793 268.20922852 C70.72667435 268.49303375 70.1420694 268.77683899 69.53974915 269.06924438 C67.66620435 269.97941816 65.79525995 270.89478509 63.92456055 271.81079102 C62.06422307 272.71890756 60.2033431 273.62587421 58.34150696 274.53091431 C56.64365467 275.35666523 54.94751466 276.18593406 53.25146484 277.01538086 C50.60937587 278.26035321 47.96188849 279.38707519 45.23706055 280.43579102 C47.63330622 282.83203669 49.87530079 283.77996195 52.9597168 285.19360352 C54.71687012 286.00341675 54.71687012 286.00341675 56.50952148 286.82958984 C57.77284749 287.40670144 59.03619421 287.9837677 60.29956055 288.56079102 C61.57485287 289.14712974 62.84991765 289.73396363 64.12475586 290.32128906 C66.03239468 291.20006281 67.94017099 292.07852106 69.84872437 292.95530701 C75.07558772 295.35672223 80.28584011 297.79191923 85.48706055 300.24829102 C86.18839111 300.57909668 86.88972168 300.90990234 87.61230469 301.25073242 C89.15422329 301.9783794 90.6957058 302.70695041 92.23706055 303.43579102 C93.6317529 301.23481777 93.6317529 301.23481777 92.06542969 297.90405273 C91.47560669 296.38809144 90.87724969 294.87543382 90.2722168 293.36547852 C89.96005722 292.56925079 89.64789764 291.77302307 89.32627869 290.95266724 C88.32456183 288.4024759 87.31220407 285.85666071 86.29956055 283.31079102 C85.6198207 281.58580761 84.94077508 279.86055046 84.26245117 278.13500977 C82.59536925 273.89871482 80.91873018 269.66631515 79.23706055 265.43579102 C76.19210576 265.43579102 74.03583505 266.87829866 71.3112793 268.20922852 Z M17.81518555 293.31079102 C16.99693298 293.71354248 16.17868042 294.11629395 15.33563232 294.53125 C12.71476442 295.82354872 10.10080749 297.12915888 7.48706055 298.43579102 C4.92412082 299.70634546 2.3598032 300.97408398 -0.20471191 302.24145508 C-1.89481621 303.07689191 -3.58435486 303.91347406 -5.27331543 304.7512207 C-13.38109068 308.76510351 -21.56007756 312.62075424 -29.76293945 316.43579102 C-29.76293945 317.09579102 -29.76293945 317.75579102 -29.76293945 318.43579102 C-16.28748658 324.97458794 -2.79394032 331.47654249 10.77282715 337.8241272 C12.58646472 338.67379961 14.39762292 339.52875777 16.20874023 340.38378906 C17.31894531 340.90110596 18.42915039 341.41842285 19.57299805 341.95141602 C21.03552002 342.6363916 21.03552002 342.6363916 22.52758789 343.33520508 C27.18485526 345.37997776 27.18485526 345.37997776 32.09786987 344.83285522 C34.4004107 343.84943156 36.63571993 342.77311744 38.87768555 341.65844727 C39.71813416 341.25428085 40.55858276 340.85011444 41.42449951 340.43370056 C44.11844924 339.13471742 46.80274508 337.81705024 49.48706055 336.49829102 C51.2468565 335.64479646 53.00726814 334.79257012 54.76831055 333.94165039 C58.23657541 332.26449971 61.7016237 330.58095083 65.16479492 328.89331055 C72.48744601 325.33383508 79.86030341 321.88137041 87.23706055 318.43579102 C87.23706055 317.77579102 87.23706055 317.11579102 87.23706055 316.43579102 C77.22794025 311.55400583 67.21538019 306.67941418 57.19638062 301.81793213 C52.70036116 299.6355289 48.20991847 297.44242756 43.7253418 295.23657227 C42.0628089 294.42751083 40.40007694 293.61885817 38.73706055 292.81079102 C38.01736084 292.45186768 37.29766113 292.09294434 36.55615234 291.72314453 C28.94942505 288.05939268 24.94474173 289.71344982 17.81518555 293.31079102 Z M-44.76293945 327.43579102 C-50.5111387 341.59740436 -55.96486685 355.8502603 -61.26293945 370.18579102 C-61.99708013 372.16634664 -62.73145416 374.14681578 -63.46606445 376.12719727 C-65.2343653 380.89574172 -66.99955952 385.66542477 -68.76293945 390.43579102 C-68.10293945 390.76579102 -67.44293945 391.09579102 -66.76293945 391.43579102 C-64.46613272 390.53197193 -62.29599039 389.56469625 -60.0793457 388.49047852 C-59.40056366 388.16910919 -58.72178162 387.84773987 -58.02243042 387.51663208 C-55.78640877 386.45559006 -53.55597919 385.38330317 -51.32543945 384.31079102 C-49.77960476 383.57446721 -48.23345948 382.83879512 -46.68701172 382.10375977 C-42.0404237 379.89195447 -37.40107866 377.66524651 -32.76293945 375.43579102 C-31.4371217 374.7993382 -30.11127686 374.16294181 -28.78540039 373.52661133 C-23.08935695 370.79166163 -17.39745774 368.04821576 -11.70825195 365.29907227 C-4.08671378 361.62059603 3.5688379 358.01573699 11.23706055 354.43579102 C8.68493942 351.47557283 5.84366307 350.10013117 2.33862305 348.43188477 C1.75542297 348.15209274 1.1722229 347.87230072 0.5713501 347.58403015 C-1.32885154 346.67423788 -3.23320575 345.77355133 -5.13793945 344.87329102 C-6.44790782 344.24927299 -7.75763952 343.62475792 -9.06713867 342.99975586 C-11.70455644 341.74186729 -14.34359156 340.48745875 -16.98364258 339.23510742 C-20.41387473 337.60554061 -23.83215308 335.9522116 -27.24731445 334.29125977 C-29.1275215 333.38110086 -31.00772975 332.47094443 -32.88793945 331.56079102 C-33.75080566 331.13854248 -34.61367187 330.71629395 -35.50268555 330.28125 C-36.29239746 329.90170166 -37.08210938 329.52215332 -37.89575195 329.13110352 C-38.91499756 328.63634521 -38.91499756 328.63634521 -39.95483398 328.1315918 C-41.90668556 327.25621703 -41.90668556 327.25621703 -44.76293945 327.43579102 Z M93.17456055 330.52172852 C92.47459457 330.85430664 91.7746286 331.18688477 91.05345154 331.52954102 C88.77671893 332.61394651 86.50690239 333.71204483 84.23706055 334.81079102 C82.68677041 335.55334627 81.13606989 336.29504534 79.58496094 337.03588867 C76.52827955 338.49694317 73.47396833 339.96279302 70.42114258 341.43188477 C66.89170441 343.12705213 63.34887916 344.79094039 59.7956543 346.43579102 C58.90813477 346.84780762 58.02061523 347.25982422 57.10620117 347.68432617 C55.52463399 348.41699193 53.94138122 349.14603371 52.35620117 349.87084961 C48.63418366 351.40605954 48.63418366 351.40605954 46.23706055 354.43579102 C63.69661609 362.94723559 81.20010242 371.33577518 98.83862305 379.47094727 C105.50159486 382.54685619 112.12954089 385.69481269 118.73217773 388.89819336 C122.32165728 390.77482047 122.32165728 390.77482047 126.23706055 391.43579102 C124.06563995 383.78617079 121.45622975 376.34771755 118.67456055 368.90063477 C118.24199951 367.74076553 117.80943848 366.5808963 117.36376953 365.38587952 C116.45464334 362.95396081 115.54356216 360.52277213 114.63061523 358.09228516 C113.69621619 355.59864455 112.76603666 353.10395879 111.84350586 350.60595703 C110.50665296 346.99158173 109.15498202 343.38308119 107.79956055 339.77563477 C107.1806897 338.09146706 107.1806897 338.09146706 106.54931641 336.37327576 C106.15881104 335.34452835 105.76830566 334.31578094 105.3659668 333.25585938 C105.02637939 332.34670273 104.68679199 331.43754608 104.33691406 330.50083923 C101.57071085 325.30710849 97.18289897 328.56192854 93.17456055 330.52172852 Z M22.5847168 363.94360352 C21.42883057 364.51216064 20.27294434 365.08071777 19.08203125 365.66650391 C18.46590973 365.97508331 17.84978821 366.28366272 17.21499634 366.60159302 C13.95586095 368.23367912 10.68125524 369.83425813 7.40893555 371.43969727 C6.39867058 371.93707649 6.39867058 371.93707649 5.36799622 372.44450378 C-2.82096623 376.46699915 -11.10814571 380.27246154 -19.39746094 384.08276367 C-25.91383963 387.08585053 -32.36958591 390.1784605 -38.76293945 393.43579102 C-38.76293945 393.76579102 -38.76293945 394.09579102 -38.76293945 394.43579102 C5.78706055 394.43579102 50.33706055 394.43579102 96.23706055 394.43579102 C92.69980526 391.78284955 89.56648494 390.01083557 85.61206055 388.09985352 C84.96044952 387.78382675 84.3088385 387.46779999 83.63748169 387.14219666 C81.50620781 386.11043439 79.37181073 385.08533905 77.23706055 384.06079102 C75.76028251 383.34857948 74.28355778 382.63625738 72.80688477 381.92382812 C63.02415128 377.21326175 53.20846252 372.57419999 43.36206055 367.99829102 C42.1812793 367.44931152 41.00049805 366.90033203 39.78393555 366.3347168 C31.30234609 361.84263505 31.30234609 361.84263505 22.5847168 363.94360352 Z " fill="#6B6B6A" transform="translate(226.762939453125,36.564208984375)"/>
<path d="M0 0 C0.68330383 -0.01007584 1.36660767 -0.02015167 2.07061768 -0.03053284 C4.330692 -0.05904013 6.59009884 -0.06489105 8.8503418 -0.06811523 C10.42352065 -0.07775628 11.9966968 -0.08784875 13.56987 -0.09837341 C16.86939729 -0.11634293 20.16868894 -0.12189381 23.46826172 -0.12011719 C27.68878628 -0.11981269 31.90779234 -0.16072613 36.12795734 -0.21243382 C39.37860496 -0.24585893 42.62888832 -0.25187287 45.87969017 -0.25028801 C47.43500174 -0.25382029 48.99032351 -0.26704644 50.54546547 -0.29028511 C64.2205193 -0.47546104 64.2205193 -0.47546104 68.16235352 2.97045898 C70.76868786 6.48565857 71.25817146 10.29444096 71.4440918 14.57250977 C71.49981857 15.33376663 71.55554535 16.0950235 71.61296082 16.87934875 C71.78447109 19.2930807 71.91812663 21.70707745 72.04956055 24.12329102 C72.20711071 26.54908243 72.37231952 28.97423849 72.53971863 31.39936829 C72.64076188 32.90359145 72.73456439 34.40832279 72.82026672 35.91349792 C73.00223187 38.96472427 73.264917 41.51936037 74.23706055 44.43579102 C77.08456512 45.33027638 79.80462226 46.01505908 82.71655273 46.62475586 C83.60599579 46.82198746 84.49543884 47.01921906 85.41183472 47.22242737 C87.34929211 47.65045526 89.28808469 48.0724725 91.2279892 48.48926926 C94.2989139 49.14995097 97.36560331 49.82770077 100.43170166 50.51040649 C109.15185996 52.44842183 117.87938188 54.35243454 126.6081543 56.2512207 C131.94254451 57.41286633 137.27273381 58.59240805 142.60086823 59.78239822 C145.62076964 60.4507814 148.64477985 61.09771083 151.66937256 61.74447632 C153.52650306 62.15783942 155.38338938 62.5723016 157.23999023 62.98803711 C158.08071075 63.1617131 158.92143127 63.3353891 159.78762817 63.514328 C164.98077055 64.70837169 167.71692596 66.21709799 171.23706055 70.43579102 C171.89706055 71.09579102 172.55706055 71.75579102 173.23706055 72.43579102 C173.51794434 74.42022705 173.51794434 74.42022705 173.55932617 76.88208008 C173.57854126 77.80353821 173.59775635 78.72499634 173.61755371 79.67437744 C173.63030334 81.17276154 173.63030334 81.17276154 173.64331055 82.70141602 C173.65471069 83.72757019 173.66611084 84.75372437 173.67785645 85.81097412 C173.69677433 87.98648952 173.70983152 90.16206246 173.7175293 92.33764648 C173.73690513 95.65914785 173.79890834 98.97815441 173.86206055 102.29907227 C173.87512445 104.41233881 173.88562389 106.52562307 173.89331055 108.63891602 C173.91800415 109.62974182 173.94269775 110.62056763 173.96813965 111.64141846 C173.93816951 116.30539519 173.78571591 119.51501204 170.5612793 123.06079102 C167.5965674 125.51543905 165.28832185 126.20570648 161.39331055 126.23266602 C159.77102539 126.24426758 159.77102539 126.24426758 158.1159668 126.25610352 C157.00092773 126.23290039 155.88588867 126.20969727 154.73706055 126.18579102 C153.06450195 126.2205957 153.06450195 126.2205957 151.3581543 126.25610352 C142.27581915 126.19115237 142.27581915 126.19115237 138.45581055 123.38891602 C136.23706055 119.43579102 136.23706055 119.43579102 136.23706055 103.43579102 C116.76706055 103.43579102 97.29706055 103.43579102 77.23706055 103.43579102 C77.56706055 104.09579102 77.89706055 104.75579102 78.23706055 105.43579102 C78.52217757 108.23900634 78.75733884 111.02855011 78.95581055 113.83813477 C79.01861206 114.67163956 79.08141357 115.50514435 79.14611816 116.36390686 C79.34708553 119.03342229 79.54266046 121.7032898 79.73706055 124.37329102 C79.99308696 127.8827493 80.25423395 131.39177421 80.51831055 134.90063477 C80.57563354 135.71008041 80.63295654 136.51952606 80.6920166 137.35350037 C80.93347561 140.56155068 81.21525378 143.37037072 82.23706055 146.43579102 C84.19325942 147.24817507 84.19325942 147.24817507 86.64482117 147.6605835 C87.59673843 147.85653107 88.5486557 148.05247864 89.52941895 148.25436401 C90.58238159 148.4569986 91.63534424 148.65963318 92.72021484 148.8684082 C93.82263016 149.09168793 94.92504547 149.31496765 96.06086731 149.54501343 C98.46334959 150.03026335 100.86703815 150.50956902 103.27173424 150.9837265 C107.07808426 151.73598723 110.88017459 152.50698866 114.68159485 153.28375244 C125.49323517 155.49009422 136.31049485 157.66771063 147.13330078 159.81860352 C153.74668503 161.13316547 160.35361196 162.47689038 166.95798683 163.83609772 C169.47684881 164.34878051 171.99785343 164.85105093 174.52091026 165.34267426 C178.05520196 166.03189246 181.58102789 166.7548594 185.10693359 167.4855957 C186.14977509 167.68013336 187.19261658 167.87467102 188.26705933 168.07510376 C194.09493243 169.32528119 197.67068889 170.76651188 201.24094105 175.67038155 C202.55743133 178.00357993 202.99746203 179.76964049 203.01342773 182.44970703 C203.0323407 183.37078751 203.05125366 184.29186798 203.07073975 185.24085999 C203.05252167 186.70053444 203.05252167 186.70053444 203.03393555 188.18969727 C203.04254608 189.71831642 203.04254608 189.71831642 203.05133057 191.27781677 C203.05539842 193.42351516 203.04443222 195.56928885 203.01928711 197.71484375 C202.98711585 200.99265641 203.01903495 204.26555141 203.05737305 207.54321289 C203.05340858 209.63371852 203.04572202 211.7242211 203.03393555 213.81469727 C203.04608093 214.7898378 203.05822632 215.76497833 203.07073975 216.76966858 C202.97561994 221.38624627 202.73901145 224.54495433 199.55249023 228.04760742 C194.81063079 231.99659188 189.63482858 231.34715534 183.73706055 231.24829102 C182.06450195 231.29566406 182.06450195 231.29566406 180.3581543 231.34399414 C175.4264437 231.32342085 171.22479692 231.27630802 167.45581055 227.82250977 C165.23706055 223.43579102 165.23706055 223.43579102 165.23706055 208.43579102 C139.16706055 208.43579102 113.09706055 208.43579102 86.23706055 208.43579102 C87.70919989 237.69456052 91.1615086 259.86869243 102.50305176 286.48335266 C105.84367238 294.35651397 108.91215422 302.32294731 111.9128418 310.33032227 C112.15573126 310.97834053 112.39862072 311.6263588 112.64887047 312.29401398 C113.89045511 315.60936428 115.12901806 318.92583339 116.36611938 322.24285889 C118.57836125 328.17154926 120.81199715 334.09217942 123.0448513 340.01313019 C123.76365863 341.91954697 124.48191331 343.82617114 125.20002747 345.73284912 C128.00242019 353.17098705 130.81626545 360.6046464 133.64331055 368.03344727 C133.96971527 368.89204849 134.29612 369.75064972 134.63241577 370.63526917 C136.08121679 374.44620933 137.53239826 378.2561915 138.98950195 382.06396484 C141.47631286 388.58390017 143.88864963 395.12904621 146.16674805 401.72485352 C146.58939941 402.94124512 147.01205078 404.15763672 147.44750977 405.41088867 C148.23706055 408.43579102 148.23706055 408.43579102 147.23706055 411.43579102 C145.5300293 412.42016602 145.5300293 412.42016602 143.42456055 413.18579102 C142.73749023 413.44875977 142.05041992 413.71172852 141.3425293 413.98266602 C138.72494762 414.54600456 137.63008579 414.70496635 135.23706055 413.43579102 C134.01228485 411.03415261 133.06718882 408.83228544 132.17456055 406.31079102 C131.68452693 404.99536921 131.19364427 403.68026339 130.7019043 402.36547852 C130.38660767 401.48738525 130.38660767 401.48738525 130.06494141 400.59155273 C129.39200733 398.83926495 128.66070256 397.10947708 127.91259766 395.38793945 C125.76587636 390.41285158 123.87953011 385.33907258 121.96362305 380.27172852 C121.5580014 379.20266266 121.15237976 378.1335968 120.73446655 377.03213501 C119.44225479 373.62555289 118.1520818 370.21820317 116.86206055 366.81079102 C115.58134596 363.43177141 114.30020605 360.05291345 113.01885986 356.6741333 C112.19665725 354.50578137 111.37483326 352.33728582 110.55340576 350.16864014 C108.11171987 343.72582656 105.64946369 337.29207616 103.13891602 330.87573242 C102.23082342 328.41891666 101.46136841 325.95236434 100.73706055 323.43579102 C98.40698916 315.3459926 95.14392453 307.58800034 91.8894043 299.83422852 C89.20608 293.40999929 86.67136937 286.93444027 84.17456055 280.43579102 C83.75368164 279.35040039 83.33280273 278.26500977 82.89916992 277.14672852 C74.8208266 256.15556045 74.8208266 256.15556045 74.61206055 248.81079102 C74.36425341 243.42983603 73.88849852 238.15281441 73.23706055 232.81079102 C72.51349169 226.663376 72.04671838 220.55737266 71.79956055 214.37329102 C71.42941164 205.34401073 70.64580856 196.36752995 69.79956055 187.37329102 C68.72022368 175.89550467 67.75348713 164.41978581 66.9387207 152.91943359 C66.44019595 145.95628651 65.84234629 139.00958923 65.17456055 132.06079102 C64.51655939 125.18511101 64.06226401 118.3374243 63.79956055 111.43579102 C63.41718346 101.64040912 62.42658079 91.9391649 61.39794922 82.19311523 C60.29760956 71.56659338 59.52789501 60.94496383 58.88378906 50.28173828 C58.47186847 43.22766165 58.47186847 43.22766165 57.6862793 36.20922852 C57.1368487 31.5940115 57.12821599 27.07737646 57.17456055 22.43579102 C57.17907227 21.56567383 57.18358398 20.69555664 57.18823242 19.79907227 C57.19988695 17.67794809 57.21781698 15.55685992 57.23706055 13.43579102 C55.94034424 13.59805176 54.64362793 13.7603125 53.30761719 13.92749023 C48.55880683 14.45301775 43.88219051 14.5809687 39.1081543 14.56860352 C37.85724754 14.5700386 37.85724754 14.5700386 36.58106995 14.57150269 C34.83236617 14.57217803 33.08365979 14.57036921 31.33496094 14.56616211 C28.67792065 14.5607978 26.02104884 14.56613268 23.36401367 14.57250977 C21.65372685 14.571849 19.94344012 14.57056788 18.2331543 14.56860352 C17.05782387 14.57163986 17.05782387 14.57163986 15.85874939 14.57473755 C10.90251562 14.55393914 6.1445268 14.13770402 1.23706055 13.43579102 C1.19947632 14.49491699 1.19947632 14.49491699 1.16113281 15.57543945 C1.04498686 18.7790661 0.92234452 21.9824122 0.79956055 25.18579102 C0.76024414 26.29696289 0.72092773 27.40813477 0.68041992 28.55297852 C0.63852539 29.62290039 0.59663086 30.69282227 0.5534668 31.79516602 C0.49848022 33.27194824 0.49848022 33.27194824 0.44238281 34.77856445 C0.23706055 37.43579102 0.23706055 37.43579102 -0.25585938 39.37597656 C-0.96506837 42.25686067 -1.04346165 45.07136399 -1.19262695 48.03344727 C-1.26461357 49.38762445 -1.3368076 50.74179062 -1.40917969 52.09594727 C-1.4461496 52.81153809 -1.48311951 53.52712891 -1.52120972 54.2644043 C-2.19582568 67.17470188 -3.06934215 80.05755189 -4.20043945 92.93579102 C-4.2635733 93.65558136 -4.32670715 94.3753717 -4.39175415 95.11697388 C-4.77716949 99.49313157 -5.16968735 103.86862865 -5.56506348 108.24389648 C-6.15758708 114.80734731 -6.7418945 121.37153678 -7.32543945 127.93579102 C-7.38883514 128.64721252 -7.45223083 129.35863403 -7.51754761 130.09161377 C-8.43472812 140.40442031 -9.25775632 150.7211204 -9.99365234 161.04858398 C-10.44719894 167.35357943 -10.94119268 173.65338197 -11.48168945 179.95141602 C-11.57686607 181.06188797 -11.57686607 181.06188797 -11.67396545 182.1947937 C-11.80443834 183.71594456 -11.93493685 185.23709322 -12.06546021 186.75823975 C-12.13062836 187.51808167 -12.19579651 188.27792358 -12.26293945 189.06079102 C-12.32786591 189.81724915 -12.39279236 190.57370728 -12.45968628 191.35308838 C-13.53313826 203.93336268 -14.37848938 216.51646378 -15.02856445 229.12573242 C-15.38808273 235.71492231 -15.87977497 242.27134727 -16.6340332 248.82641602 C-16.77639404 250.06939453 -16.91875488 251.31237305 -17.06542969 252.59301758 C-17.87885652 257.07441007 -19.20849315 261.16501337 -20.76293945 265.43579102 C-21.14891045 266.49966034 -21.14891045 266.49966034 -21.54267883 267.58502197 C-22.34265383 269.75861783 -23.15753702 271.92601744 -23.9777832 274.09204102 C-24.2747963 274.87921509 -24.57180939 275.66638916 -24.87782288 276.47741699 C-25.50131155 278.12810559 -26.12570619 279.77845227 -26.75097656 281.4284668 C-27.69764126 283.92840161 -28.63962036 286.43006815 -29.58129883 288.93188477 C-30.19234331 290.54787746 -30.80366235 292.16376637 -31.4152832 293.77954102 C-31.69145981 294.51418579 -31.96763641 295.24883057 -32.25218201 296.0057373 C-33.9826315 300.55768887 -35.86695428 305.01558178 -37.87440491 309.45245361 C-39.08968793 312.1651408 -40.18918359 314.91434007 -41.26293945 317.68579102 C-41.64450195 318.66032227 -42.02606445 319.63485352 -42.41918945 320.63891602 C-43.56404293 323.7360873 -44.49021791 326.87823095 -45.4230957 330.04516602 C-48.35823077 339.68583938 -52.07948776 349.03661987 -55.70043945 358.43579102 C-56.41111389 360.28980901 -57.12140263 362.1439749 -57.83129883 363.99829102 C-59.50703639 368.37293212 -61.18831326 372.7454162 -62.871521 377.1171875 C-63.68714453 379.23864637 -64.49960809 381.36127281 -65.31030273 383.48461914 C-65.74971191 384.63381836 -66.18912109 385.78301758 -66.6418457 386.96704102 C-67.00995361 387.9319043 -67.37806152 388.89676758 -67.75732422 389.89086914 C-68.97936617 392.98350455 -70.3365994 396.00098803 -71.71606445 399.02563477 C-73.91473234 404.0874933 -75.81594438 409.27306227 -77.76293945 414.43579102 C-82.73600462 413.9384845 -86.40093759 412.88276767 -90.76293945 410.43579102 C-90.3273603 408.95605757 -89.88933849 407.47704316 -89.45043945 405.99829102 C-89.20680664 405.17458008 -88.96317383 404.35086914 -88.7121582 403.50219727 C-86.49560035 396.34171201 -84.01341387 389.30022003 -81.34887695 382.29516602 C-81.02231613 381.43220917 -80.69575531 380.56925232 -80.35929871 379.68014526 C-79.28716809 376.84806351 -78.21256889 374.01692543 -77.13793945 371.18579102 C-76.37596321 369.17462726 -75.61416639 367.16339552 -74.85253906 365.15209961 C-73.67032343 362.03029482 -72.48793705 358.90855555 -71.30485535 355.78707886 C-68.69434038 348.89906108 -66.09115979 342.00831905 -63.4934082 335.11547852 C-62.97572624 333.74296684 -62.97572624 333.74296684 -62.44758606 332.34272766 C-60.71011279 327.7361733 -58.97520731 323.12868047 -57.24462891 318.51953125 C-53.9079779 309.64932465 -50.52909921 300.79995277 -47.03260803 291.99133301 C-45.35697911 287.76807714 -43.69645981 283.5389365 -42.03585815 279.30975342 C-41.24308742 277.3046309 -40.44252518 275.30256735 -39.6333313 273.30401611 C-34.91862865 261.65633609 -31.57614166 251.0243929 -30.8755188 238.43655396 C-30.70412826 235.39059698 -30.42502075 232.35421142 -30.1652832 229.31469727 C-29.92498447 226.11266776 -29.6941036 222.91006027 -29.46411133 219.70727539 C-29.34712891 218.15169922 -29.34712891 218.15169922 -29.2277832 216.56469727 C-29.16196045 215.64760986 -29.0961377 214.73052246 -29.02832031 213.78564453 C-28.76293945 211.43579102 -28.76293945 211.43579102 -27.76293945 208.43579102 C-54.16293945 208.43579102 -80.56293945 208.43579102 -107.76293945 208.43579102 C-107.76293945 213.71579102 -107.76293945 218.99579102 -107.76293945 224.43579102 C-110.42563081 229.11399181 -110.42563081 229.11399181 -113.76293945 230.43579102 C-117.8010111 231.24280976 -121.65617612 231.27506848 -125.76293945 231.18579102 C-126.8302832 231.20899414 -127.89762695 231.23219727 -128.99731445 231.25610352 C-130.55192383 231.24450195 -130.55192383 231.24450195 -132.13793945 231.23266602 C-133.07379883 231.22589844 -134.0096582 231.21913086 -134.97387695 231.2121582 C-139.11826566 230.05852059 -141.54490103 228.13813003 -143.76293945 224.43579102 C-144.5998057 220.78726348 -144.5579834 217.25573917 -144.48950195 213.52563477 C-144.49049896 212.48057266 -144.49149597 211.43551056 -144.49252319 210.35877991 C-144.48785426 208.15577565 -144.46847052 205.95275951 -144.43530273 203.75 C-144.38804227 200.38062102 -144.39419574 197.01440248 -144.4074707 193.64477539 C-144.39631828 191.50087635 -144.3820992 189.3569906 -144.36450195 187.21313477 C-144.36632477 186.20782211 -144.36814758 185.20250946 -144.37002563 184.16673279 C-144.35096161 183.2254805 -144.33189758 182.28422821 -144.31225586 181.31445312 C-144.29843369 180.07918129 -144.29843369 180.07918129 -144.28433228 178.81895447 C-143.54518559 175.44048952 -142.23763089 173.83841311 -139.76293945 171.43579102 C-136.69628906 170.2477417 -136.69628906 170.2477417 -132.9777832 169.43481445 C-132.28474594 169.27816189 -131.59170868 169.12150932 -130.87767029 168.96010971 C-128.51009848 168.4315469 -126.13722189 167.93328669 -123.76293945 167.43579102 C-121.99725838 167.05239802 -120.23180405 166.66795962 -118.46655273 166.28259277 C-112.42597079 164.97436254 -106.37603792 163.71235085 -100.32543945 162.45141602 C-98.10622599 161.98657771 -95.88707007 161.52146463 -93.66796875 161.05609131 C-87.88191621 159.84344126 -82.09509973 158.6344774 -76.30810547 157.42633057 C-70.38111762 156.18825909 -64.45487467 154.94663255 -58.52856445 153.70532227 C-46.94074117 151.27870331 -35.35210611 148.85598548 -23.76293945 146.43579102 C-23.67729736 145.34637207 -23.59165527 144.25695312 -23.50341797 143.13452148 C-23.18361261 139.07522898 -22.86037886 135.01621539 -22.53613281 130.95727539 C-22.39653166 129.2037684 -22.25784821 127.45018808 -22.12011719 125.6965332 C-21.92146803 123.16931429 -21.71947072 120.64238139 -21.5168457 118.11547852 C-21.45638565 117.33711639 -21.3959256 116.55875427 -21.33363342 115.75680542 C-21.24365334 114.64633347 -21.24365334 114.64633347 -21.15185547 113.51342773 C-21.1007814 112.86945038 -21.04970734 112.22547302 -20.99708557 111.5619812 C-20.69717992 108.83865413 -20.21335829 106.13830403 -19.76293945 103.43579102 C-39.23293945 103.43579102 -58.70293945 103.43579102 -78.76293945 103.43579102 C-78.76293945 108.71579102 -78.76293945 113.99579102 -78.76293945 119.43579102 C-81.42563081 124.11399181 -81.42563081 124.11399181 -84.76293945 125.43579102 C-88.8010111 126.24280976 -92.65617612 126.27506848 -96.76293945 126.18579102 C-97.8302832 126.20899414 -98.89762695 126.23219727 -99.99731445 126.25610352 C-101.0337207 126.24836914 -102.07012695 126.24063477 -103.13793945 126.23266602 C-104.07379883 126.22589844 -105.0096582 126.21913086 -105.97387695 126.2121582 C-110.11826566 125.05852059 -112.54490103 123.13813003 -114.76293945 119.43579102 C-115.5998057 115.78726348 -115.5579834 112.25573917 -115.48950195 108.52563477 C-115.49049896 107.48057266 -115.49149597 106.43551056 -115.49252319 105.35877991 C-115.48785426 103.15577565 -115.46847052 100.95275951 -115.43530273 98.75 C-115.38804227 95.38062102 -115.39419574 92.01440248 -115.4074707 88.64477539 C-115.39631828 86.50087635 -115.3820992 84.3569906 -115.36450195 82.21313477 C-115.36723618 80.70516579 -115.36723618 80.70516579 -115.37002563 79.16673279 C-115.28377225 74.90812556 -115.15423829 72.14279879 -113.06689453 68.37133789 C-110.42945951 66.15563536 -108.64938821 65.44672709 -105.2980957 64.68969727 C-104.13415283 64.41641602 -102.97020996 64.14313477 -101.77099609 63.86157227 C-100.45588065 63.57349164 -99.14069224 63.28574397 -97.82543945 62.99829102 C-96.43498871 62.67969932 -95.04494776 62.35931502 -93.65527344 62.03735352 C-90.37840729 61.28198692 -87.09886785 60.53959066 -83.81762695 59.8034668 C-77.25707005 58.32761925 -70.7066587 56.80832658 -64.15602303 55.28919792 C-52.48789709 52.5843363 -40.81728219 49.89017249 -29.1418457 47.21704102 C-27.92243286 46.93618149 -26.70302002 46.65532196 -25.44665527 46.36595154 C-24.33101196 46.1112056 -23.21536865 45.85645966 -22.06591797 45.59399414 C-21.0862355 45.36941528 -20.10655304 45.14483643 -19.09718323 44.91345215 C-16.76293945 44.43579102 -16.76293945 44.43579102 -14.76293945 44.43579102 C-14.77707886 43.46875244 -14.77707886 43.46875244 -14.79150391 42.48217773 C-14.85099703 35.14033389 -14.5063931 27.88011776 -13.95043945 20.56079102 C-13.84505859 18.90950195 -13.84505859 18.90950195 -13.73754883 17.22485352 C-13.65698242 16.16266602 -13.57641602 15.10047852 -13.4934082 14.00610352 C-13.42532959 13.05493652 -13.35725098 12.10376953 -13.28710938 11.1237793 C-11.7405621 3.19295234 -7.7322386 0.07150646 0 0 Z M74.23706055 59.43579102 C74.3785367 62.56100373 74.52607302 65.68590421 74.67456055 68.81079102 C74.71387695 69.6809082 74.75319336 70.55102539 74.79370117 71.44750977 C74.8355957 72.31762695 74.87749023 73.18774414 74.9206543 74.08422852 C74.95731201 74.86975098 74.99396973 75.65527344 75.03173828 76.46459961 C75.33110015 80.7966257 75.80497984 85.11498393 76.23706055 89.43579102 C96.03706055 89.43579102 115.83706055 89.43579102 136.23706055 89.43579102 C136.23706055 84.15579102 136.23706055 78.87579102 136.23706055 73.43579102 C128.30118324 71.6092658 120.36509739 69.78365463 112.4286356 67.95967102 C108.74379458 67.11276992 105.05904814 66.26546174 101.37451172 65.41723633 C97.82157222 64.59932167 94.26839233 63.78245923 90.71504021 62.96633911 C89.35651901 62.65412191 87.99808624 62.3415197 86.6397419 62.02853394 C84.74345788 61.59166557 82.84683508 61.15626856 80.95019531 60.72094727 C79.86875748 60.47223877 78.78731964 60.22353027 77.67311096 59.96728516 C75.48978393 59.40026367 75.48978393 59.40026367 74.23706055 59.43579102 Z M-23.47607422 60.72094727 C-24.69726456 61.00123779 -25.9184549 61.28152832 -27.176651 61.5703125 C-28.51922123 61.87961556 -29.861786 62.1889423 -31.2043457 62.49829102 C-32.57052976 62.81226931 -33.93673589 63.12615161 -35.30296326 63.43994141 C-38.90515929 64.26755275 -42.50705293 65.09647293 -46.10888672 65.92565918 C-49.78180188 66.77096772 -53.45499937 67.61504755 -57.12817383 68.45922852 C-64.34004052 70.11687519 -71.55156199 71.77601702 -78.76293945 73.43579102 C-78.76293945 78.71579102 -78.76293945 83.99579102 -78.76293945 89.43579102 C-58.96293945 89.43579102 -39.16293945 89.43579102 -18.76293945 89.43579102 C-17.00749862 74.38415555 -17.00749862 74.38415555 -16.76293945 59.43579102 C-18.99920172 59.43579102 -21.31873271 60.22480302 -23.47607422 60.72094727 Z M82.23706055 161.43579102 C82.38057333 164.49841479 82.52684115 167.56086942 82.67456055 170.62329102 C82.71387695 171.46827148 82.75319336 172.31325195 82.79370117 173.18383789 C83.13956885 180.28742787 83.69092068 187.33597278 84.23706055 194.43579102 C110.96706055 194.43579102 137.69706055 194.43579102 165.23706055 194.43579102 C165.23706055 189.48579102 165.23706055 184.53579102 165.23706055 179.43579102 C160.70819827 177.92617026 156.34814155 176.71780885 151.70288086 175.73999023 C150.97369949 175.58364105 150.24451813 175.42729187 149.49324036 175.26620483 C147.10126216 174.75425286 144.70826593 174.24725123 142.31518555 173.74047852 C140.64698206 173.38485517 138.97883095 173.02898601 137.31072998 172.67288208 C133.82455099 171.92942546 130.33788546 171.1883095 126.85083008 170.44897461 C122.37534354 169.49996611 117.90091309 168.54608434 113.4268074 167.59058952 C109.98715736 166.85639626 106.54707023 166.12426918 103.10683441 165.39282608 C101.45605047 165.04168263 99.80537966 164.69000693 98.1548233 164.33779526 C95.85486178 163.84743322 93.55435213 163.35973365 91.25366211 162.87280273 C90.56897354 162.72633301 89.88428497 162.57986328 89.17884827 162.42895508 C85.73758999 161.68598639 85.73758999 161.68598639 82.23706055 161.43579102 Z M-33.29614258 162.98046875 C-34.08472153 163.14467316 -34.87330048 163.30887756 -35.68577576 163.47805786 C-38.30549659 164.0239781 -40.92487391 164.57152344 -43.54418945 165.11938477 C-44.43566177 165.30569017 -45.32713409 165.49199558 -46.24562073 165.68394661 C-50.96078983 166.66945851 -55.67568805 167.65625511 -60.39038086 168.64404297 C-65.27601728 169.66737267 -70.16257425 170.6862343 -75.04935455 171.70408535 C-78.79352069 172.48479902 -82.53698277 173.26884746 -86.28025818 174.05381966 C-88.082206 174.43107109 -89.88442278 174.80704007 -91.68690491 175.18173027 C-94.20193729 175.7048615 -96.71593905 176.2326892 -99.22973633 176.76171875 C-100.35810158 176.99476967 -100.35810158 176.99476967 -101.50926208 177.23252869 C-104.92384736 177.7269204 -104.92384736 177.7269204 -107.76293945 179.43579102 C-107.76293945 184.38579102 -107.76293945 189.33579102 -107.76293945 194.43579102 C-81.03293945 194.43579102 -54.30293945 194.43579102 -26.76293945 194.43579102 C-25.01778215 177.88919493 -25.01778215 177.88919493 -24.76293945 161.43579102 C-27.57948276 161.43579102 -30.5342348 162.40259624 -33.29614258 162.98046875 Z " fill="#414141" transform="translate(226.762939453125,36.564208984375)"/>
<path d="M0 0 C12.21 0 24.42 0 37 0 C36.01 2.97 35.02 5.94 34 9 C33.31914716 11.32923341 32.64692526 13.66111638 32 16 C35.96 17.32 39.92 18.64 44 20 C44 19.01 44 18.02 44 17 C47.37141422 15.28452626 50.74779995 13.57905127 54.125 11.875 C55.05699219 11.400625 55.98898438 10.92625 56.94921875 10.4375 C59.95142207 8.92618676 62.97320392 7.46144076 66 6 C67.045447 5.48092701 68.09089399 4.96185402 69.1680212 4.42705154 C77.5865815 0.49274805 84.83394721 -0.90011676 94.16430664 -0.90332031 C95.51835369 -0.92462579 96.87236515 -0.94830031 98.22633362 -0.97412109 C101.86380922 -1.03498865 105.50049822 -1.05789071 109.13843083 -1.06940556 C111.42867718 -1.07819609 113.71872955 -1.09500546 116.00890923 -1.11440277 C124.05006923 -1.18169919 132.09064883 -1.21613649 140.13208008 -1.22167969 C147.54272382 -1.22771561 154.94999094 -1.3082157 162.3596583 -1.42397618 C168.7859415 -1.52071345 175.21113506 -1.56114504 181.63813871 -1.56126094 C185.44808986 -1.56231928 189.25473776 -1.58371244 193.06392097 -1.66361237 C214.36018036 -2.0823396 229.65345134 1.69514366 248.18680477 12.39931107 C250.18274412 13.53498697 252.22659238 14.58823893 254.29721165 15.58124924 C257 17 257 17 258 19 C261.9492568 18.44894091 265.34920174 17.61064629 269 16 C268.79503906 15.34773438 268.59007812 14.69546875 268.37890625 14.0234375 C268.10949219 13.14945312 267.84007812 12.27546875 267.5625 11.375 C267.29566406 10.51648438 267.02882813 9.65796875 266.75390625 8.7734375 C265.97160071 5.89552593 265.49029437 2.9417662 265 0 C276.88 0 288.76 0 301 0 C301 14.85 301 29.7 301 45 C201.67 45 102.34 45 0 45 C0 30.15 0 15.3 0 0 Z " fill="#FEA229" transform="translate(105,431)"/>
<path d="M0 0 C6.58205466 -0.46383607 10.43227529 0.72917249 16.125 3.9375 C22.68229631 7.73402572 22.68229631 7.73402572 30 9 C33.71174935 7.49227946 37.05116988 5.33490689 40.45898438 3.24804688 C45.93890384 0.08330644 49.67529402 -0.45577842 56 0 C56.60429052 4.14946157 56.88072343 7.87947253 56 12 C52.8260728 15.13942799 48.60570304 18 44 18 C44 18.66 44 19.32 44 20 C44.825 20.226875 45.65 20.45375 46.5 20.6875 C47.655 21.120625 48.81 21.55375 50 22 C50.70769531 22.24878906 51.41539062 22.49757813 52.14453125 22.75390625 C54.67499734 23.91655283 56.18573925 24.86965087 58 27 C59.14205104 31.66591978 59.07366908 36.21642077 59 41 C59.01160156 42.25554687 59.02320313 43.51109375 59.03515625 44.8046875 C59.05863027 47.86972418 59.03405486 50.93506262 59 54 C54.71 56.31 50.42 58.62 46 61 C47.07121094 61.36867187 48.14242187 61.73734375 49.24609375 62.1171875 C53.57298312 63.84566348 57.78117563 65.5308686 61 69 C63.15273489 74.71202723 62.50410924 81.02726273 62 87 C61.67 86.34 61.34 85.68 61 85 C59.00336425 84.32332422 57.00272472 83.65843613 55 83 C53.04567532 81.92513822 51.116565 80.803538 49.2109375 79.64453125 C37.76663656 72.59316031 37.76663656 72.59316031 24.97802734 70.1796875 C19.47441169 71.68058567 14.79542244 74.45865701 10.08740234 77.62304688 C7.13575481 79.57009858 4.06419557 81.03772484 0.875 82.5625 C-0.03507813 83.03816406 -0.94515625 83.51382813 -1.8828125 84.00390625 C-4 85 -4 85 -6 85 C-7.2177513 71.55399606 -7.2177513 71.55399606 -4.4296875 67.99609375 C-2.32838924 66.72173226 -0.30866215 65.83460628 2 65 C3.11375 64.401875 4.2275 63.80375 5.375 63.1875 C8 62 8 62 10 62 C10 61.34 10 60.68 10 60 C9.40832031 59.81824219 8.81664062 59.63648438 8.20703125 59.44921875 C5.78655026 58.67924519 3.39514036 57.84510805 1 57 C-0.010625 56.67 -1.02125 56.34 -2.0625 56 C-4.47027572 53.51455409 -4.31977066 52.64409369 -4.375 49.25 C-4.27188816 47.1654687 -4.14418254 45.0820937 -4 43 C-3.95488281 41.69546875 -3.90976563 40.3909375 -3.86328125 39.046875 C-3.42494745 28.62204478 -3.42494745 28.62204478 -1.8125 26.26171875 C0.59962495 24.58258867 3.08994135 23.18767811 5.6875 21.8125 C6.68136719 21.28269531 7.67523438 20.75289062 8.69921875 20.20703125 C9.45847656 19.80871094 10.21773437 19.41039063 11 19 C10.13375 18.57589844 9.2675 18.15179688 8.375 17.71484375 C5.06735133 15.97296858 1.99355441 14.2418882 -1 12 C-1.8125 8.375 -1.8125 8.375 -1 5 C-0.835 4.030625 -0.67 3.06125 -0.5 2.0625 C-0.335 1.381875 -0.17 0.70125 0 0 Z M21.5546875 29.84375 C19.94013672 30.72353516 19.94013672 30.72353516 18.29296875 31.62109375 C17.16503906 32.24113281 16.03710938 32.86117187 14.875 33.5 C13.73933594 34.12003906 12.60367188 34.74007812 11.43359375 35.37890625 C8.62033797 36.91555857 5.8092673 38.45607167 3 40 C6.58297517 43.9460079 11.17471007 45.88313992 15.875 48.25 C16.77347656 48.72179687 17.67195313 49.19359375 18.59765625 49.6796875 C19.47035156 50.12054688 20.34304687 50.56140625 21.2421875 51.015625 C22.0347998 51.42071289 22.82741211 51.82580078 23.64404297 52.24316406 C29.85461805 54.23827108 36.27401761 49.69703134 41.75 47.0625 C43.20599609 46.37897461 43.20599609 46.37897461 44.69140625 45.68164062 C45.61308594 45.24142578 46.53476562 44.80121094 47.484375 44.34765625 C48.32709961 43.94554932 49.16982422 43.54344238 50.03808594 43.12915039 C52.15428008 42.15154514 52.15428008 42.15154514 53 40 C49.04533792 37.82658104 45.08568659 35.66241799 41.125 33.5 C39.99707031 32.87996094 38.86914062 32.25992188 37.70703125 31.62109375 C36.63066406 31.03457031 35.55429687 30.44804688 34.4453125 29.84375 C33.45031738 29.29912109 32.45532227 28.75449219 31.43017578 28.19335938 C27.21426193 26.12309748 25.51267363 27.67727338 21.5546875 29.84375 Z " fill="#6A6A6A" transform="translate(228,50)"/>
<path d="M0 0 C0.98355469 -0.00128906 1.96710938 -0.00257813 2.98046875 -0.00390625 C3.98722656 0.03605469 4.99398438 0.07601562 6.03125 0.1171875 C7.03800781 0.10300781 8.04476563 0.08882812 9.08203125 0.07421875 C15.03630515 0.17566772 18.65617523 0.92650419 23.10519409 5.02926636 C25.88387381 8.85403167 25.50659311 13.08046333 25.42578125 17.6484375 C25.43010666 18.66893188 25.43443207 19.68942627 25.43888855 20.74084473 C25.43926904 22.89256119 25.42224575 25.04434244 25.38891602 27.19580078 C25.34388049 30.48266356 25.36816598 33.7638679 25.40039062 37.05078125 C25.39217014 39.14585372 25.37993483 41.24091509 25.36328125 43.3359375 C25.37228958 44.31421509 25.38129791 45.29249268 25.39057922 46.30041504 C25.27948602 50.92241771 25.03464296 54.09954127 21.84448242 57.60620117 C17.10398619 61.553587 11.92683476 60.90351522 6.03125 60.8046875 C4.91621094 60.83626953 3.80117188 60.86785156 2.65234375 60.90039062 C1.57082031 60.89587891 0.48929687 60.89136719 -0.625 60.88671875 C-1.60275391 60.88518799 -2.58050781 60.88365723 -3.58789062 60.88208008 C-7.98599506 59.52351307 -10.26210401 56.98651943 -12.46875 52.9921875 C-13.29820377 49.63143699 -13.3352698 46.41518349 -13.30078125 42.96484375 C-13.30889328 42.01709579 -13.31700531 41.06934784 -13.32536316 40.09288025 C-13.33379402 38.09683955 -13.32703019 36.10068308 -13.3059082 34.10473633 C-13.28133822 31.06559923 -13.32603342 28.03284145 -13.37695312 24.99414062 C-13.37658258 23.0468697 -13.37215931 21.09959447 -13.36328125 19.15234375 C-13.38058792 18.25314713 -13.39789459 17.3539505 -13.41572571 16.42750549 C-13.2807212 10.28041575 -11.6793841 6.86598976 -7.335495 2.48258972 C-4.85447167 0.50174998 -3.17136821 -0.01332021 0 0 Z " fill="#195C84" transform="translate(404.46875,207.0078125)"/>
<path d="M0 0 C1.62228516 -0.00483398 1.62228516 -0.00483398 3.27734375 -0.00976562 C4.94990234 0.03180664 4.94990234 0.03180664 6.65625 0.07421875 C7.77128906 0.05939453 8.88632812 0.04457031 10.03515625 0.02929688 C19.72627123 0.12747861 19.72627123 0.12747861 23.97265625 4.02217102 C26.4668161 7.68787989 26.00600978 12.03811416 25.953125 16.3203125 C25.95886536 17.34222183 25.96460571 18.36413116 25.97052002 19.41700745 C25.97459652 21.57465841 25.96356949 23.73238368 25.93847656 25.88989258 C25.90638412 29.18544635 25.93816088 32.47608399 25.9765625 35.77148438 C25.97259689 37.87110454 25.96490797 39.97072165 25.953125 42.0703125 C25.97134308 43.54243446 25.97134308 43.54243446 25.9899292 45.04429626 C25.89514777 49.67680163 25.66928481 52.86337244 22.47167969 56.38012695 C19.51044486 58.84281567 17.21060649 59.53161279 13.3125 59.55859375 C11.69021484 59.57019531 11.69021484 59.57019531 10.03515625 59.58203125 C8.92011719 59.55882812 7.80507813 59.535625 6.65625 59.51171875 C5.54121094 59.53492188 4.42617188 59.558125 3.27734375 59.58203125 C2.19582031 59.57429688 1.11429687 59.5665625 0 59.55859375 C-0.97775391 59.55182617 -1.95550781 59.54505859 -2.96289062 59.53808594 C-7.16032378 58.40691327 -9.58417422 56.48817776 -11.84375 52.76171875 C-12.69369261 49.27169803 -12.68607854 45.90351508 -12.640625 42.32421875 C-12.64636536 41.32592041 -12.65210571 40.32762207 -12.65802002 39.29907227 C-12.66209168 37.19447553 -12.65109856 35.08980229 -12.62597656 32.98535156 C-12.59384337 29.77105873 -12.62569355 26.56179342 -12.6640625 23.34765625 C-12.66009745 21.29816603 -12.65240969 19.24867893 -12.640625 17.19921875 C-12.65277039 16.24281494 -12.66491577 15.28641113 -12.6774292 14.30102539 C-12.58134032 9.72273296 -12.31478772 6.62912007 -9.15917969 3.15698242 C-6.1929444 0.67756445 -3.91430947 0.00161269 0 0 Z " fill="#195B84" transform="translate(374.84375,103.23828125)"/>
<path d="M0 0 C1.11568359 -0.03609375 2.23136719 -0.0721875 3.38085938 -0.109375 C4.46818359 -0.109375 5.55550781 -0.109375 6.67578125 -0.109375 C7.66102783 -0.11420898 8.64627441 -0.11904297 9.66137695 -0.12402344 C14.29659136 1.21474764 17.07904104 3.71013762 19.6875 7.75 C20.64819512 11.28388718 20.64837049 14.63889124 20.58203125 18.28515625 C20.58635666 19.28203964 20.59068207 20.27892303 20.59513855 21.30601501 C20.59551858 23.4046783 20.57853533 25.50340863 20.54516602 27.60180664 C20.50007156 30.80741296 20.52444393 34.00723043 20.55664062 37.21289062 C20.54842133 39.25783339 20.53618732 41.3027648 20.51953125 43.34765625 C20.52853958 44.300923 20.53754791 45.25418976 20.54682922 46.23634338 C20.43398234 50.81281439 20.14821552 53.88778911 16.98706055 57.3503418 C14.0948505 59.77129314 11.88757356 60.51921434 8.0625 60.546875 C7.02609375 60.55460937 5.9896875 60.56234375 4.921875 60.5703125 C3.85453125 60.54710937 2.7871875 60.52390625 1.6875 60.5 C0.62015625 60.52320313 -0.4471875 60.54640625 -1.546875 60.5703125 C-2.58328125 60.56257813 -3.6196875 60.55484375 -4.6875 60.546875 C-5.62335938 60.54010742 -6.55921875 60.53333984 -7.5234375 60.52636719 C-11.66782621 59.37272957 -14.09446158 57.45233901 -16.3125 53.75 C-17.14936624 50.10147246 -17.10754394 46.56994815 -17.0390625 42.83984375 C-17.04005951 41.79478165 -17.04105652 40.74971954 -17.04208374 39.67298889 C-17.03741481 37.46998463 -17.01803107 35.26696849 -16.98486328 33.06420898 C-16.93760281 29.69483 -16.94375629 26.32861146 -16.95703125 22.95898438 C-16.94587882 20.81508533 -16.93165975 18.67119958 -16.9140625 16.52734375 C-16.91588531 15.5220311 -16.91770813 14.51671844 -16.91958618 13.48094177 C-16.83304497 9.2081236 -16.67822926 6.42815277 -14.62573242 2.62231445 C-10.307391 -0.87292147 -5.33456177 -0.04880102 0 0 Z " fill="#195B84" transform="translate(128.3125,102.25)"/>
<path d="M0 0 C1.03640625 -0.00773438 2.0728125 -0.01546875 3.140625 -0.0234375 C4.20796875 -0.00023437 5.2753125 0.02296875 6.375 0.046875 C7.97601563 0.01207031 7.97601563 0.01207031 9.609375 -0.0234375 C10.64578125 -0.01570312 11.6821875 -0.00796875 12.75 0 C14.15378906 0.01015137 14.15378906 0.01015137 15.5859375 0.02050781 C19.71880057 1.17093713 22.13604636 3.12826263 24.375 6.796875 C25.22616295 10.28653089 25.21732706 13.65519476 25.171875 17.234375 C25.17761536 18.23267334 25.18335571 19.23097168 25.18927002 20.25952148 C25.19334168 22.36411822 25.18234856 24.46879146 25.15722656 26.57324219 C25.12509337 29.78753502 25.15694355 32.99680033 25.1953125 36.2109375 C25.19134745 38.26042772 25.18365969 40.30991482 25.171875 42.359375 C25.19009308 43.79398071 25.19009308 43.79398071 25.2086792 45.25756836 C25.11241179 49.84436697 24.84628653 52.92782374 21.67675781 56.39941406 C18.783724 58.81794955 16.5739418 59.56609753 12.75 59.59375 C11.71359375 59.60148437 10.6771875 59.60921875 9.609375 59.6171875 C8.54203125 59.59398437 7.4746875 59.57078125 6.375 59.546875 C5.30765625 59.57007813 4.2403125 59.59328125 3.140625 59.6171875 C2.10421875 59.60945313 1.0678125 59.60171875 0 59.59375 C-0.93585938 59.58698242 -1.87171875 59.58021484 -2.8359375 59.57324219 C-6.96880057 58.42281287 -9.38604636 56.46548737 -11.625 52.796875 C-12.47616295 49.30721911 -12.46732706 45.93855524 -12.421875 42.359375 C-12.42761536 41.36107666 -12.43335571 40.36277832 -12.43927002 39.33422852 C-12.44334168 37.22963178 -12.43234856 35.12495854 -12.40722656 33.02050781 C-12.37509337 29.80621498 -12.40694355 26.59694967 -12.4453125 23.3828125 C-12.44134745 21.33332228 -12.43365969 19.28383518 -12.421875 17.234375 C-12.43402039 16.27797119 -12.44616577 15.32156738 -12.4586792 14.33618164 C-12.36241179 9.74938303 -12.09628653 6.66592626 -8.92675781 3.19433594 C-6.033724 0.77580045 -3.8239418 0.02765247 0 0 Z " fill="#195B84" transform="translate(94.625,208.203125)"/>
<path d="M0 0 C1.18396883 8.02350304 2.28545428 15.86455314 2 24 C-3.52106868 22.33735411 -8.61565588 19.96269827 -13.8125 17.5 C-14.68326172 17.09652344 -15.55402344 16.69304687 -16.45117188 16.27734375 C-17.27810547 15.88675781 -18.10503906 15.49617187 -18.95703125 15.09375 C-19.70960205 14.73990234 -20.46217285 14.38605469 -21.23754883 14.02148438 C-23 13 -23 13 -24 11 C-20.18899679 9.16354313 -16.37595547 7.33135856 -12.5625 5.5 C-11.47388672 4.97535156 -10.38527344 4.45070312 -9.26367188 3.91015625 C-8.22919922 3.41386719 -7.19472656 2.91757813 -6.12890625 2.40625 C-5.17056885 1.94541016 -4.21223145 1.48457031 -3.22485352 1.00976562 C-1 0 -1 0 0 0 Z " fill="#FAFAFA" transform="translate(295,201)"/>
<path d="M0 0 C3.25370726 1.42921108 6.50225282 2.86980239 9.75 4.3125 C11.13058594 4.91868164 11.13058594 4.91868164 12.5390625 5.53710938 C13.42851562 5.93349609 14.31796875 6.32988281 15.234375 6.73828125 C16.45979004 7.28029175 16.45979004 7.28029175 17.70996094 7.83325195 C20.02849196 9.01451632 21.96979169 10.37950241 24 12 C12.28125 17.859375 12.28125 17.859375 10.15234375 18.91992188 C8.68202164 19.65775139 7.21602922 20.40425624 5.75390625 21.15820312 C0.21064815 24 0.21064815 24 -2 24 C-1.85790331 21.3122562 -1.7114277 18.62486698 -1.5625 15.9375 C-1.52318359 15.18533203 -1.48386719 14.43316406 -1.44335938 13.65820312 C-1.18419281 9.05301259 -0.7200579 4.55633276 0 0 Z " fill="#FAFAFA" transform="translate(216,201)"/>
<path d="M0 0 C5.00518073 0.88595226 9.58666527 3.36858136 14.1875 5.4375 C15.11498047 5.84548828 16.04246094 6.25347656 16.99804688 6.67382812 C17.87912109 7.06892578 18.76019531 7.46402344 19.66796875 7.87109375 C20.47516357 8.23130615 21.2823584 8.59151855 22.11401367 8.96264648 C24 10 24 10 25 12 C9.49 12 -6.02 12 -22 12 C-19.1251091 9.84383183 -17.07323231 8.4309588 -13.92578125 6.9921875 C-13.17619141 6.64542969 -12.42660156 6.29867187 -11.65429688 5.94140625 C-10.88150391 5.58949219 -10.10871094 5.23757812 -9.3125 4.875 C-7.76606011 4.16595032 -6.2204408 3.45510729 -4.67578125 2.7421875 C-3.99427002 2.4313623 -3.31275879 2.12053711 -2.6105957 1.80029297 C-1.00087127 1.10706731 -1.00087127 1.10706731 0 0 Z " fill="#EFEFEF" transform="translate(254,220)"/>
<path d="M0 0 C12.21 0 24.42 0 37 0 C33.54579623 2.59065283 30.4887473 4.39468078 26.625 6.25 C25.52414062 6.79140625 24.42328125 7.3328125 23.2890625 7.890625 C18.13795316 9.6280538 15.22826647 8.54838021 10.3515625 6.37109375 C9.10515161 5.73476819 7.86297492 5.09008594 6.625 4.4375 C5.98433594 4.10814453 5.34367188 3.77878906 4.68359375 3.43945312 C3.11861368 2.63360518 1.55875979 1.81781507 0 1 C0 0.67 0 0.34 0 0 Z " fill="#F9F9F9" transform="translate(237,196)"/>
<path d="M0 0 C2.52197266 -0.34057617 2.52197266 -0.34057617 5.6640625 -0.29296875 C6.78554687 -0.28330078 7.90703125 -0.27363281 9.0625 -0.26367188 C10.238125 -0.23853516 11.41375 -0.21339844 12.625 -0.1875 C13.80835937 -0.17396484 14.99171875 -0.16042969 16.2109375 -0.14648438 C19.14107539 -0.11103916 22.07031459 -0.06162769 25 0 C25 0.33 25 0.66 25 1 C24.33468262 1.00410889 23.66936523 1.00821777 22.98388672 1.01245117 C19.94671023 1.0455042 16.91150863 1.11616034 13.875 1.1875 C12.30492187 1.19620117 12.30492187 1.19620117 10.703125 1.20507812 C3.97056944 1.34002666 3.97056944 1.34002666 -1.7421875 4.55078125 C-2.48726563 5.35902344 -3.23234375 6.16726562 -4 7 C-2.79618552 4.50638429 -1.54571278 2.31856917 0 0 Z " fill="#304F63" transform="translate(87,208)"/>
</svg>
