<?xml version="1.0" encoding="UTF-8"?>
<svg version="1.1" xmlns="http://www.w3.org/2000/svg" width="512" height="512">
<path d="M0 0 C2 2 2 2 2.22705078 4.52197266 C2.21657715 5.5588623 2.20610352 6.59575195 2.1953125 7.6640625 C2.18886719 8.78554688 2.18242188 9.90703125 2.17578125 11.0625 C2.15064453 12.8259375 2.15064453 12.8259375 2.125 14.625 C2.11597656 15.80835938 2.10695313 16.99171875 2.09765625 18.2109375 C2.07402812 21.14082523 2.04108514 24.0703134 2 27 C2.76441406 27.13148437 3.52882813 27.26296875 4.31640625 27.3984375 C10.64845106 28.81784784 15.518213 33.69342102 19 39 C20.73338507 43.38532961 21.23844804 47.00916387 21.1953125 51.7109375 C21.18886719 52.95488281 21.18242188 54.19882813 21.17578125 55.48046875 C21.15064453 57.40826172 21.15064453 57.40826172 21.125 59.375 C21.11597656 60.68339844 21.10695313 61.99179688 21.09765625 63.33984375 C21.07415085 66.5600837 21.04129087 69.77994707 21 73 C21.93328125 73.12890625 22.8665625 73.2578125 23.828125 73.390625 C27.63342203 74.12169192 29.27568636 75.27568636 32 78 C34.25059535 81.96533466 34.47404865 85.49653782 34 90 C31.94616591 93.81426331 29.84793152 96.90112826 26 99 C24.35 99 22.7 99 21 99 C21 154.44 21 209.88 21 267 C32.88 267 44.76 267 57 267 C55.02 263.04 55.02 263.04 53 259 C52.20208226 252.51691835 53.32945879 249.15859846 57 244 C61.43475709 238.87231211 67.61578606 238.77384411 74 238 C74.08636719 236.82566406 74.17273438 235.65132812 74.26171875 234.44140625 C76.69676289 205.13807285 88.48185448 179.6733991 111.25 160.375 C128.00944306 147.17693859 148.34584737 138 170 138 C169.67 128.1 169.34 118.2 169 108 C165.04 106.02 161.08 104.04 157 102 C146.22096208 94.37217392 138.74589118 83.52284472 135.41796875 70.76953125 C133.06555418 55.18203659 135.14718462 40.57757424 144.16015625 27.4296875 C149.84683593 19.9198897 157.52401372 12.95959239 166.7109375 10.1796875 C167.46632812 10.12039062 168.22171875 10.06109375 169 10 C169.99 10.99 169.99 10.99 171 12 C170.90571416 15.96000509 169.81644235 18.44707756 167.625 21.625 C162.22878291 29.80535229 160.71329901 40.14756913 162.50390625 49.68359375 C165.22492351 60.89418487 170.52155511 70.15333792 180.125 76.6875 C189.82637722 82.56554625 200.14974807 84.72798445 211.30078125 82.2734375 C217.27973633 80.57698658 222.24300166 78.50643741 227.34375 74.97265625 C229.60673016 73.64368913 231.43913837 73.59986537 234 74 C234.73856942 76.67848278 235.18539951 78.42568771 234.3203125 81.10546875 C225.956353 95.67406487 214.8839686 104.3141606 199.125 109.6328125 C195.84409419 110.19973372 192.56709648 110.10294367 189.25 110.0625 C186.8575 110.041875 184.465 110.02125 182 110 C182 119.24 182 128.48 182 138 C185.96 138.33 189.92 138.66 194 139 C210.72266053 141.74088485 227.04278498 149.05613685 240 160 C240.98226563 160.82113281 241.96453125 161.64226562 242.9765625 162.48828125 C262.39229028 179.2204594 275.06501958 203.15272104 277.3359375 228.79296875 C277.58839691 232.1943476 277.81108547 235.59456695 278 239 C279.175625 238.938125 280.35125 238.87625 281.5625 238.8125 C286.55132697 238.83894255 290.77785154 239.89843324 294.51171875 243.4296875 C297.72400149 247.12979541 298.89943794 249.81336766 299.3125 254.6875 C299 259 299 259 295 267 C306.88 267 318.76 267 331 267 C331 211.56 331 156.12 331 99 C328.69 98.67 326.38 98.34 324 98 C320.27427359 94.7602379 318.77342224 92.37091456 318 87.5 C317.76306768 83.2280384 318.4490259 80.53844794 321 77 C324.7090958 74.00115659 326.1704783 73 331 73 C330.97905273 72.19892822 330.95810547 71.39785645 330.93652344 70.57250977 C330.852786 66.90263691 330.80115632 63.23296584 330.75 59.5625 C330.71648437 58.30244141 330.68296875 57.04238281 330.6484375 55.74414062 C330.55780438 47.06601967 331.23868048 40.40044998 337 33.66015625 C337.66 33.13292969 338.32 32.60570312 339 32.0625 C339.66 31.51722656 340.32 30.97195312 341 30.41015625 C344.13010769 28.20318579 346.11898654 27 350 27 C349.98952637 26.25314941 349.97905273 25.50629883 349.96826172 24.73681641 C349.9267923 21.36624492 349.90070271 17.995727 349.875 14.625 C349.85824219 13.449375 349.84148437 12.27375 349.82421875 11.0625 C349.81777344 9.94101562 349.81132812 8.81953125 349.8046875 7.6640625 C349.79421387 6.62717285 349.78374023 5.5902832 349.77294922 4.52197266 C350 2 350 2 352 0 C358.18331774 -0.56211979 358.18331774 -0.56211979 360.7043457 1.1730957 C362.50108779 3.70654605 362.34195171 5.45704249 362.29296875 8.54296875 C362.28330078 9.61611328 362.27363281 10.68925781 362.26367188 11.79492188 C362.23853516 12.91447266 362.21339844 14.03402344 362.1875 15.1875 C362.17396484 16.31865234 362.16042969 17.44980469 362.14648438 18.61523438 C362.11109958 21.41063317 362.06172948 24.20507892 362 27 C363.08925781 27.28359375 364.17851562 27.5671875 365.30078125 27.859375 C371.86324907 29.88286033 375.69981682 34.10681575 379 40 C381.58630485 46.70421578 381.22581544 53.33001116 381.125 60.4375 C381.11597656 61.64599609 381.10695313 62.85449219 381.09765625 64.09960938 C381.07420168 67.06661278 381.04137794 70.03320143 381 73 C381.95084473 73.13865479 382.90168945 73.27730957 383.88134766 73.42016602 C388.01721733 74.18912566 389.34121517 75.61534362 391.859375 78.8359375 C393.96012556 82.82160809 393.84566656 86.64983387 393 91 C391.33423586 94.33152829 390.05685687 96.2734109 387 98.375 C385 99 385 99 381 99 C381 154.44 381 209.88 381 267 C388.59 267 396.18 267 404 267 C411.19480519 270.5974026 411.19480519 270.5974026 414 276 C415.53801839 281.63940076 414.78926714 284.90237384 412 290 C409.37265845 293.24038792 407.01295931 294.8534402 403 296 C401.02 296 399.04 296 397 296 C397 347.15 397 398.3 397 451 C399.97 451 402.94 451 406 451 C411.35755096 452.92063148 414.45837216 455.91674432 417 461 C417.17724777 463.80690726 417.27750799 466.56630797 417.3125 469.375 C417.34150391 470.14328125 417.37050781 470.9115625 417.40039062 471.703125 C417.40876953 472.44820313 417.41714844 473.19328125 417.42578125 473.9609375 C417.44765503 474.97873291 417.44765503 474.97873291 417.4699707 476.01708984 C416.75245912 479.04442963 415.4513414 480.10177453 413 482 C410.23860792 482.39205874 407.87637217 482.53788167 405.11634827 482.50336456 C404.31264215 482.50917833 403.50893603 482.51499209 402.68087518 482.52098203 C399.97062487 482.53565377 397.26127005 482.52166366 394.55102539 482.50793457 C392.59526383 482.51254065 390.63950573 482.51889159 388.68375492 482.52684355 C383.29607521 482.54360018 377.90867753 482.53526177 372.52099657 482.52289867 C366.71587202 482.51387636 360.91079716 482.52780387 355.10568237 482.53881836 C343.72818174 482.55663836 332.35078644 482.5527481 320.97328162 482.5411678 C311.72950355 482.53214742 302.48575508 482.53090342 293.24197388 482.53526306 C291.9281495 482.53587599 290.61432512 482.53648893 289.26068789 482.53712043 C287.26099847 482.53807869 285.26130906 482.539037 283.26161966 482.540028 C258.26145647 482.55226988 233.26135082 482.54116085 208.26119651 482.51964041 C186.03966007 482.50065732 163.81821532 482.5023558 141.59667969 482.52148438 C116.64286994 482.54289301 91.68911105 482.55140176 66.73529339 482.53903532 C64.07620431 482.53776108 61.41711522 482.53650359 58.75802612 482.53526306 C56.79535792 482.53433741 56.79535792 482.53433741 54.79303986 482.53339306 C45.55652295 482.52993415 36.32003849 482.53578012 27.08352661 482.54518127 C15.83280012 482.55638043 4.58218531 482.55340514 -6.66852832 482.5320583 C-12.41277004 482.52151982 -18.15682533 482.51747362 -23.90106583 482.53065491 C-29.15398037 482.54252677 -34.40653471 482.53610258 -39.65941632 482.5147447 C-41.56513903 482.51025647 -43.47089183 482.51259427 -45.37659538 482.52224785 C-47.95695246 482.53432175 -50.53605779 482.52202959 -53.11634827 482.50336456 C-53.86515656 482.51272923 -54.61396486 482.52209389 -55.38546431 482.53174233 C-58.7760598 482.48234828 -60.68496857 482.22899367 -63.45952511 480.21219206 C-65.78706992 476.86973178 -65.58085954 473.54668779 -65.5 469.625 C-65.51546875 468.8825 -65.5309375 468.14 -65.546875 467.375 C-65.5099282 462.14702808 -64.43514541 459.13455339 -61 455 C-55.03560604 450.55594176 -53.12573755 451 -45 451 C-45 399.85 -45 348.7 -45 296 C-47.97 295.67 -50.94 295.34 -54 295 C-58.1883579 293.17897483 -60.11322288 291.15090967 -62 287 C-63.50866541 281.28862381 -62.88532776 277.06584263 -60 272 C-51.0030671 263.22799042 -43.28734945 267 -29 267 C-29 211.56 -29 156.12 -29 99 C-31.97 98.505 -31.97 98.505 -35 98 C-40.70284202 93.05753692 -40.70284202 93.05753692 -41.30859375 88.86328125 C-41.60791096 82.94042853 -40.8552986 79.72619551 -36.8984375 75.27734375 C-34.36904451 73.57546822 -31.98574228 73.43538913 -29 73 C-29.02356567 71.88927124 -29.02356567 71.88927124 -29.04760742 70.75610352 C-29.11047539 67.35831527 -29.14915441 63.96064996 -29.1875 60.5625 C-29.21263672 59.39783203 -29.23777344 58.23316406 -29.26367188 57.03320312 C-29.3329771 48.83208538 -28.85018962 41.37445156 -23.6875 34.6875 C-19.44726792 30.44726792 -15.90703667 28.00778835 -10 27 C-10.01571045 26.2886792 -10.0314209 25.5773584 -10.04760742 24.84448242 C-10.10991915 21.62556896 -10.14897867 18.40678232 -10.1875 15.1875 C-10.21263672 14.06794922 -10.23777344 12.94839844 -10.26367188 11.79492188 C-10.27333984 10.72177734 -10.28300781 9.64863281 -10.29296875 8.54296875 C-10.3086792 7.55321045 -10.32438965 6.56345215 -10.34057617 5.54370117 C-10 3 -10 3 -8.7043457 1.1730957 C-5.89117131 -0.76320324 -3.29439942 -0.29949086 0 0 Z " fill="#FE9933" transform="translate(80,15)"/>
<path d="M0 0 C3.5625 0.3125 3.5625 0.3125 5.2668457 1.4855957 C7.06358779 4.01904605 6.90445171 5.76954249 6.85546875 8.85546875 C6.84580078 9.92861328 6.83613281 11.00175781 6.82617188 12.10742188 C6.80103516 13.22697266 6.77589844 14.34652344 6.75 15.5 C6.73646484 16.63115234 6.72292969 17.76230469 6.70898438 18.92773438 C6.67359958 21.72313317 6.62422948 24.51757892 6.5625 27.3125 C7.65175781 27.59609375 8.74101562 27.8796875 9.86328125 28.171875 C16.42574907 30.19536033 20.26231682 34.41931575 23.5625 40.3125 C26.14880485 47.01671578 25.78831544 53.64251116 25.6875 60.75 C25.67847656 61.95849609 25.66945313 63.16699219 25.66015625 64.41210938 C25.63670168 67.37911278 25.60387794 70.34570143 25.5625 73.3125 C26.51334473 73.45115479 27.46418945 73.58980957 28.44384766 73.73266602 C32.57971733 74.50162566 33.90371517 75.92784362 36.421875 79.1484375 C38.52262556 83.13410809 38.40816656 86.96233387 37.5625 91.3125 C35.89673586 94.64402829 34.61935687 96.5859109 31.5625 98.6875 C29.5625 99.3125 29.5625 99.3125 25.5625 99.3125 C25.5625 154.7525 25.5625 210.1925 25.5625 267.3125 C33.1525 267.3125 40.7425 267.3125 48.5625 267.3125 C55.75730519 270.9099026 55.75730519 270.9099026 58.5625 276.3125 C60.10051839 281.95190076 59.35176714 285.21487384 56.5625 290.3125 C53.93515845 293.55288792 51.57545931 295.1659402 47.5625 296.3125 C45.5825 296.3125 43.6025 296.3125 41.5625 296.3125 C41.5625 347.4625 41.5625 398.6125 41.5625 451.3125 C31.3325 451.3125 21.1025 451.3125 10.5625 451.3125 C10.54832031 446.59195312 10.53414063 441.87140625 10.51953125 437.0078125 C10.49945119 433.99992684 10.47791243 430.99219088 10.45117188 427.984375 C10.40895498 423.22031884 10.37186067 418.45664256 10.36694336 413.69238281 C10.36263427 409.84703719 10.33395888 406.00254522 10.28906822 402.15746689 C10.27617582 400.69767116 10.27175598 399.23777284 10.27634621 397.7779274 C10.29998992 387.96644774 9.52527439 379.66526659 2.58601379 372.18069458 C-3.58311812 366.31317437 -10.17039222 363.72560649 -18.625 363.0625 C-27.77891051 363.66275643 -35.03015278 366.6698028 -41.4375 373.3125 C-47.48329489 382.11110173 -48.3148612 390.5852283 -48.2421875 400.921875 C-48.25346613 402.38448249 -48.26735907 403.8470719 -48.28372192 405.30963135 C-48.31943645 409.11716988 -48.32017527 412.92390029 -48.31304932 416.73156738 C-48.31212973 420.63368771 -48.345089 424.53551578 -48.375 428.4375 C-48.42855715 436.06260728 -48.44508137 443.68718196 -48.4375 451.3125 C-68.56069241 452.12820137 -88.63705752 452.44897224 -108.77471924 452.38116455 C-112.25605615 452.37063306 -115.7374015 452.36630556 -119.21875 452.36132812 C-125.95835234 452.3508418 -132.6979238 452.3339537 -139.4375 452.3125 C-139.44558685 451.24920471 -139.45367371 450.18590942 -139.46200562 449.09039307 C-139.5397764 439.02818573 -139.62759153 428.96610848 -139.72502708 418.90407181 C-139.77479239 413.7321359 -139.82112288 408.56021848 -139.859375 403.38818359 C-139.89647909 398.38897519 -139.94290434 393.3899294 -139.99556351 388.39086151 C-140.01397488 386.4917056 -140.02913072 384.59251501 -140.04084396 382.69330597 C-139.86816265 358.6496243 -139.86816265 358.6496243 -151.4375 338.3125 C-160.32434952 330.76901145 -170.90439574 326.39006265 -182.69140625 326.9375 C-193.6705688 328.4367882 -203.44866186 333.29306093 -210.57421875 341.890625 C-219.16122731 354.49210507 -218.90299749 367.61033603 -218.94921875 382.29296875 C-218.96608791 384.31750055 -218.98424112 386.34202201 -219.00361633 388.36653137 C-219.05087951 393.66163911 -219.08084156 398.95670494 -219.10705566 404.25195312 C-219.14225481 410.62323798 -219.19919949 416.99436201 -219.25244904 423.36551666 C-219.33068485 433.01448995 -219.38150079 442.66325674 -219.4375 452.3125 C-239.5675 452.3125 -259.6975 452.3125 -280.4375 452.3125 C-280.4375 392.5825 -280.4375 332.8525 -280.4375 271.3125 C-265.20335937 271.27511719 -249.96921875 271.23773438 -234.2734375 271.19921875 C-224.63931371 271.16895345 -215.0052021 271.13793759 -205.37109375 271.10351562 C-190.06950976 271.04898454 -174.76795962 270.99757372 -159.46630859 270.96606445 C-148.32315869 270.94310431 -137.18009724 270.90972843 -126.03701746 270.86379844 C-120.13580357 270.83983956 -114.23467742 270.82112821 -108.33341599 270.81488609 C-102.77992547 270.80884736 -97.22665955 270.78889115 -91.67325211 270.75822449 C-89.63429065 270.74942486 -87.59529987 270.74572565 -85.55632019 270.74749184 C-82.77307537 270.74914163 -79.99051759 270.73247027 -77.20736694 270.71122742 C-76.39996295 270.71607499 -75.59255896 270.72092257 -74.76068819 270.72591704 C-74.01026203 270.7164605 -73.25983588 270.70700396 -72.48666954 270.69726086 C-71.84494218 270.69536225 -71.20321482 270.69346365 -70.54204118 270.69150752 C-67.65594028 270.27372733 -67.65594028 270.27372733 -62.4375 267.3125 C-49.8975 267.3125 -37.3575 267.3125 -24.4375 267.3125 C-24.4375 211.8725 -24.4375 156.4325 -24.4375 99.3125 C-26.7475 98.9825 -29.0575 98.6525 -31.4375 98.3125 C-35.16322641 95.0727379 -36.66407776 92.68341456 -37.4375 87.8125 C-37.67443232 83.5405384 -36.9884741 80.85094794 -34.4375 77.3125 C-30.7284042 74.31365659 -29.2670217 73.3125 -24.4375 73.3125 C-24.45844727 72.51142822 -24.47939453 71.71035645 -24.50097656 70.88500977 C-24.584714 67.21513691 -24.63634368 63.54546584 -24.6875 59.875 C-24.72101563 58.61494141 -24.75453125 57.35488281 -24.7890625 56.05664062 C-24.87969562 47.37851967 -24.19881952 40.71294998 -18.4375 33.97265625 C-17.7775 33.44542969 -17.1175 32.91820312 -16.4375 32.375 C-15.7775 31.82972656 -15.1175 31.28445312 -14.4375 30.72265625 C-11.30739231 28.51568579 -9.31851346 27.3125 -5.4375 27.3125 C-5.44797363 26.56564941 -5.45844727 25.81879883 -5.46923828 25.04931641 C-5.5107077 21.67874492 -5.53679729 18.308227 -5.5625 14.9375 C-5.57925781 13.761875 -5.59601563 12.58625 -5.61328125 11.375 C-5.61972656 10.25351562 -5.62617188 9.13203125 -5.6328125 7.9765625 C-5.64328613 6.93967285 -5.65375977 5.9027832 -5.66455078 4.83447266 C-5.29309481 0.70851545 -4.00012911 0.3636481 0 0 Z " fill="#F8DA92" transform="translate(435.4375,14.6875)"/>
<path d="M0 0 C9.13084089 6.1789526 15.66520383 14.38796271 17.9765625 25.3046875 C18.80559849 30.98388426 19.11635743 36.46528398 19.09008789 42.19921875 C19.09023392 43.0489476 19.09037994 43.89867645 19.0905304 44.77415466 C19.08983922 47.55519248 19.08208442 50.33616153 19.07421875 53.1171875 C19.07235174 55.05631473 19.07092917 56.99544244 19.06993103 58.93457031 C19.06612814 64.01769329 19.05631704 69.10078732 19.04522705 74.18389893 C19.03496486 79.37910572 19.03042314 84.57431723 19.02539062 89.76953125 C19.01469263 99.94792933 18.99764318 110.126306 18.9765625 120.3046875 C19.6741568 120.29215942 20.3717511 120.27963135 21.09048462 120.26672363 C27.82108944 120.14633317 34.55173677 120.02860808 41.28243446 119.91353607 C44.73877101 119.85435958 48.19508693 119.79431754 51.65136719 119.73193359 C71.09551277 119.38182535 90.52903699 119.2358045 109.9765625 119.3046875 C109.96323883 118.50448181 109.94991516 117.70427612 109.93618774 116.87982178 C109.81530929 109.29010783 109.72428656 101.70086913 109.66568947 94.1104393 C109.63454951 90.20927174 109.59240249 86.30890813 109.52392578 82.40820312 C109.45810249 78.63446559 109.42272659 74.86149474 109.40729904 71.08722687 C109.39632397 69.65682169 109.37489565 68.22645225 109.34218216 66.79637909 C109.11358098 56.37615286 110.57489653 47.37379777 117.75210571 39.30975342 C123.78740046 33.63062754 131.00285141 30.69478249 139.1640625 30.0546875 C148.74752808 30.68311147 156.35108274 34.0624771 162.734375 41.296875 C167.24223209 47.06780315 169.23163901 51.58187541 169.20361328 59.02270508 C169.20390533 59.67692444 169.20419739 60.3311438 169.20449829 61.00518799 C169.20311232 63.15333629 169.18758621 65.30113154 169.171875 67.44921875 C169.16814225 68.9442272 169.16529652 70.4392381 169.16329956 71.93424988 C169.15568368 75.85845764 169.13605291 79.78251605 169.1138916 83.70666504 C169.09338899 87.7152301 169.08428842 91.72381943 169.07421875 95.73242188 C169.05280495 103.58991209 169.01869388 111.44728119 168.9765625 119.3046875 C170.15686035 119.28897705 171.3371582 119.2732666 172.55322266 119.25708008 C176.94768402 119.20262856 181.34211576 119.16828212 185.73681641 119.13989258 C187.63595603 119.12484059 189.53506109 119.10439434 191.43408203 119.07836914 C194.16968331 119.04182758 196.9048235 119.02492512 199.640625 119.01171875 C200.48460846 118.99623489 201.32859192 118.98075104 202.19815063 118.96479797 C207.21637503 118.96337727 210.62959526 119.5179044 214.9765625 122.3046875 C219.62539415 127.45609555 220.20450483 130.89252554 220.2890625 137.6796875 C220.31806641 138.44796875 220.34707031 139.21625 220.37695312 140.0078125 C220.38533203 140.75289062 220.39371094 141.49796875 220.40234375 142.265625 C220.42421753 143.28342041 220.42421753 143.28342041 220.4465332 144.32177734 C219.72902162 147.34911713 218.4279039 148.40646203 215.9765625 150.3046875 C213.21517042 150.69674624 210.85293467 150.84256917 208.09291077 150.80805206 C207.28920465 150.81386583 206.48549853 150.81967959 205.65743768 150.82566953 C202.94718737 150.84034127 200.23783255 150.82635116 197.52758789 150.81262207 C195.57182633 150.81722815 193.61606823 150.82357909 191.66031742 150.83153105 C186.27263771 150.84828768 180.88524003 150.83994927 175.49755907 150.82758617 C169.69243452 150.81856386 163.88735966 150.83249137 158.08224487 150.84350586 C146.70474424 150.86132586 135.32734894 150.8574356 123.94984412 150.8458553 C114.70606605 150.83683492 105.46231758 150.83559092 96.21853638 150.83995056 C94.904712 150.84056349 93.59088762 150.84117643 92.23725039 150.84180793 C90.23756097 150.84276619 88.23787156 150.8437245 86.23818216 150.8447155 C61.23801897 150.85695738 36.23791332 150.84584835 11.23775901 150.82432791 C-10.98377743 150.80534482 -33.20522218 150.8070433 -55.42675781 150.82617188 C-80.38056756 150.84758051 -105.33432645 150.85608926 -130.28814411 150.84372282 C-132.94723319 150.84244858 -135.60632228 150.84119109 -138.26541138 150.83995056 C-140.22807958 150.83902491 -140.22807958 150.83902491 -142.23039764 150.83808056 C-151.46691455 150.83462165 -160.70339901 150.84046762 -169.93991089 150.84986877 C-181.19063738 150.86106793 -192.44125219 150.85809264 -203.69196582 150.8367458 C-209.43620754 150.82620732 -215.18026283 150.82216112 -220.92450333 150.83534241 C-226.17741787 150.84721427 -231.42997221 150.84079008 -236.68285382 150.8194322 C-238.58857653 150.81494397 -240.49432933 150.81728177 -242.40003288 150.82693535 C-244.98038996 150.83900925 -247.55949529 150.82671709 -250.13978577 150.80805206 C-250.88859406 150.81741673 -251.63740236 150.82678139 -252.40890181 150.83642983 C-255.7994973 150.78703578 -257.70840607 150.53368117 -260.48296261 148.51687956 C-262.81050742 145.17441928 -262.60429704 141.85137529 -262.5234375 137.9296875 C-262.53890625 137.1871875 -262.554375 136.4446875 -262.5703125 135.6796875 C-262.53345106 130.4637933 -261.594811 127.32828037 -258.0234375 123.3046875 C-252.46332277 119.42545555 -248.49904861 118.7449877 -241.80859375 118.9140625 C-240.95285263 118.91972229 -240.09711151 118.92538208 -239.21543884 118.93121338 C-236.50501539 118.95345243 -233.79595559 119.00362325 -231.0859375 119.0546875 C-229.2389515 119.07476872 -227.3919446 119.09301664 -225.54492188 119.109375 C-221.0372418 119.15327603 -216.53057017 119.22221481 -212.0234375 119.3046875 C-212.03231995 118.53984543 -212.04120239 117.77500336 -212.050354 116.98698425 C-212.13091423 109.73538728 -212.19161025 102.48401107 -212.23068619 95.23208141 C-212.25145181 91.50486658 -212.27956361 87.77802531 -212.32519531 84.05102539 C-212.3690522 80.44591478 -212.39265722 76.84116065 -212.40294647 73.2358036 C-212.41026722 71.8688325 -212.4245604 70.50187817 -212.44635773 69.13506126 C-212.63166319 57.01987001 -210.8801945 47.20275942 -202.3125 38.25 C-196.01075691 32.89459376 -188.57070018 29.92872296 -180.29296875 30.09765625 C-171.73498995 30.87833246 -165.09994478 34.27621585 -159.0234375 40.3046875 C-154.06537039 46.56878204 -151.76515588 52.92631058 -151.79638672 60.95263672 C-151.79653778 62.25353241 -151.79668884 63.5544281 -151.79684448 64.89474487 C-151.80705548 66.29962317 -151.81748743 67.70449987 -151.828125 69.109375 C-151.83185904 70.55811365 -151.83470417 72.00685484 -151.83670044 73.45559692 C-151.84430614 77.2532051 -151.86392798 81.05065828 -151.8861084 84.84820557 C-151.90663312 88.72951155 -151.91571628 92.61084279 -151.92578125 96.4921875 C-151.94717705 104.09642454 -151.98127559 111.70053423 -152.0234375 119.3046875 C-151.28419037 119.30206909 -150.54494324 119.29945068 -149.78329468 119.29675293 C-130.41170285 119.23808433 -111.05432996 119.41866582 -91.68621826 119.76824951 C-88.20490788 119.83049956 -84.72354545 119.88969938 -81.2421875 119.94921875 C-74.50255291 120.0648618 -67.76297738 120.1836523 -61.0234375 120.3046875 C-61.03231995 119.19350052 -61.04120239 118.08231354 -61.050354 116.93745422 C-61.13175757 106.41951805 -61.19155463 95.90164654 -61.23068619 85.38346577 C-61.25148106 79.97710765 -61.27964946 74.57100567 -61.32519531 69.16479492 C-61.36894351 63.93872275 -61.39263538 58.71289557 -61.40294647 53.48665428 C-61.41028615 51.50173275 -61.42461755 49.51682326 -61.44635773 47.53200722 C-61.61631574 31.35890827 -60.56778788 17.78776533 -49.0234375 5.3046875 C-34.9470831 -7.42090562 -16.46944466 -9.23480488 0 0 Z " fill="#77E144" transform="translate(277.0234375,346.6953125)"/>
<path d="M0 0 C0.598125 0.350625 1.19625 0.70125 1.8125 1.0625 C1.5182132 4.98632401 0.64699715 7.5159095 -1.5625 10.6875 C-6.95871709 18.86785229 -8.47420099 29.21006913 -6.68359375 38.74609375 C-3.96257649 49.95668487 1.33405511 59.21583792 10.9375 65.75 C20.63887722 71.62804625 30.96224807 73.79048445 42.11328125 71.3359375 C48.09223633 69.63948658 53.05550166 67.56893741 58.15625 64.03515625 C60.41923016 62.70618913 62.25163837 62.66236537 64.8125 63.0625 C65.55106942 65.74098278 65.99789951 67.48818771 65.1328125 70.16796875 C56.768853 84.73656487 45.6964686 93.3766606 29.9375 98.6953125 C26.65659419 99.26223372 23.37959648 99.16544367 20.0625 99.125 C17.67 99.104375 15.2775 99.08375 12.8125 99.0625 C12.8125 108.3025 12.8125 117.5425 12.8125 127.0625 C16.7725 127.3925 20.7325 127.7225 24.8125 128.0625 C41.53516053 130.80338485 57.85528498 138.11863685 70.8125 149.0625 C71.79476562 149.88363281 72.77703125 150.70476562 73.7890625 151.55078125 C94.59667295 169.48246266 106.26893649 194.41894597 108.5 221.6875 C108.65419856 223.80945629 108.77355136 225.93530497 108.8125 228.0625 C107.05442517 229.82057483 104.73854072 229.18497279 102.39644951 229.19158131 C101.61339079 229.18866847 100.83033208 229.18575563 100.02354431 229.18275452 C98.78494631 229.18403615 98.78494631 229.18403615 97.52132612 229.18534368 C94.7328645 229.18700102 91.94446201 229.18147299 89.15600586 229.17602539 C87.1657359 229.17574355 85.17546583 229.1759012 83.18519592 229.1764679 C77.7639314 229.17675598 72.3426888 229.17085746 66.9214294 229.16389394 C61.2626079 229.15766224 55.60378595 229.15705675 49.94496155 229.15586853 C39.22103508 229.15275467 28.49711875 229.14454054 17.77319676 229.13451904 C5.56784487 229.1233596 -6.63750749 229.11784788 -18.8428632 229.11282361 C-43.95774777 229.10235797 -69.07262332 229.08475748 -94.1875 229.0625 C-98.3563027 220.7248946 -92.55393942 203.72156583 -89.73046875 195.19921875 C-80.24861597 168.76628835 -60.9230549 147.69695794 -35.73046875 135.37109375 C-24.34904548 130.45106354 -11.63013195 127.0625 0.8125 127.0625 C0.4825 117.1625 0.1525 107.2625 -0.1875 97.0625 C-4.1475 95.0825 -8.1075 93.1025 -12.1875 91.0625 C-22.96653792 83.43467392 -30.44160882 72.58534472 -33.76953125 59.83203125 C-36.12194582 44.24453659 -34.04031538 29.64007424 -25.02734375 16.4921875 C-20.53023566 10.55333139 -8.0653874 -3.4565946 0 0 Z " fill="#FEE9A9" transform="translate(249.1875,25.9375)"/>
<path d="M0 0 C55.44 0 110.88 0 168 0 C168 38.42657343 168 38.42657343 162 58 C161.65195312 59.15113281 161.30390625 60.30226563 160.9453125 61.48828125 C156.96342769 73.61243397 150.982404 85.78727795 142 95 C141.34 94.67 140.68 94.34 140 94 C139.54296875 91.62890625 139.54296875 91.62890625 139.1875 88.5625 C137.60988034 78.12785031 132.95108428 69.85070798 124.5625 63.4375 C115.80691898 57.54035866 105.5362962 54.56118857 95 56 C83.86400886 58.34750801 74.46500335 63.8250737 68 73.3125 C60.77971682 84.81080097 61.52935261 97.93375144 61.48828125 110.98046875 C61.47141209 113.00500055 61.45325888 115.02952201 61.43388367 117.05403137 C61.38662049 122.34913911 61.35665844 127.64420494 61.33044434 132.93945312 C61.29524519 139.31073798 61.23830051 145.68186201 61.18505096 152.05301666 C61.10681515 161.70198995 61.05599921 171.35075674 61 181 C40.87 181 20.74 181 0 181 C0 121.27 0 61.54 0 0 Z " fill="#FEE9A8" transform="translate(155,286)"/>
<path d="M0 0 C1.48209961 -0.0309375 1.48209961 -0.0309375 2.99414062 -0.0625 C8.437042 -0.09174326 12.40071296 0.10255143 17.0625 3.25 C20.55621529 7.40468846 21.96709855 10.81211708 22.0625 16.25 C20.23617373 21.92122367 18.01043025 25.69845776 12.6875 28.5 C10.0625 29.25 10.0625 29.25 4.0625 29.25 C4.0625 80.4 4.0625 131.55 4.0625 184.25 C-6.1675 184.25 -16.3975 184.25 -26.9375 184.25 C-26.95167969 179.52945313 -26.96585937 174.80890625 -26.98046875 169.9453125 C-27.00054881 166.93742684 -27.02208757 163.92969088 -27.04882812 160.921875 C-27.09104502 156.15781884 -27.12813933 151.39414256 -27.13305664 146.62988281 C-27.13736573 142.78453719 -27.16604112 138.94004522 -27.21093178 135.09496689 C-27.22382418 133.63517116 -27.22824402 132.17527284 -27.22365379 130.7154274 C-27.20001008 120.90394774 -27.97472561 112.60276659 -34.91398621 105.11819458 C-41.08311812 99.25067437 -47.67039222 96.66310649 -56.125 96 C-65.27891051 96.60025643 -72.53015278 99.6073028 -78.9375 106.25 C-84.98329489 115.04860173 -85.8148612 123.5227283 -85.7421875 133.859375 C-85.75346613 135.32198249 -85.76735907 136.7845719 -85.78372192 138.24713135 C-85.81943645 142.05466988 -85.82017527 145.86140029 -85.81304932 149.66906738 C-85.81196741 154.25995594 -85.85535229 158.85062392 -85.89108276 163.44134521 C-85.94019402 170.37797792 -85.93363296 177.3125317 -85.9375 184.25 C-95.8375 184.25 -105.7375 184.25 -115.9375 184.25 C-115.9375 132.77 -115.9375 81.29 -115.9375 28.25 C-85.9075 28.25 -55.8775 28.25 -24.9375 28.25 C-24.9375 19.34 -24.9375 10.43 -24.9375 1.25 C-16.56756429 0.60615879 -8.37014742 0.04491025 0 0 Z " fill="#FE9933" transform="translate(472.9375,281.75)"/>
<path d="M0 0 C2 2 2 2 2.22705078 4.52197266 C2.21657715 5.5588623 2.20610352 6.59575195 2.1953125 7.6640625 C2.18886719 8.78554688 2.18242188 9.90703125 2.17578125 11.0625 C2.15902344 12.238125 2.14226562 13.41375 2.125 14.625 C2.11597656 15.80835938 2.10695312 16.99171875 2.09765625 18.2109375 C2.07402812 21.14082523 2.04108514 24.0703134 2 27 C2.76441406 27.13148437 3.52882812 27.26296875 4.31640625 27.3984375 C10.64845106 28.81784784 15.518213 33.69342102 19 39 C20.73338507 43.38532961 21.23844804 47.00916387 21.1953125 51.7109375 C21.18886719 52.95488281 21.18242188 54.19882813 21.17578125 55.48046875 C21.15902344 56.76566406 21.14226562 58.05085938 21.125 59.375 C21.11597656 60.68339844 21.10695312 61.99179688 21.09765625 63.33984375 C21.07415085 66.5600837 21.04129087 69.77994707 21 73 C22.39992188 73.19335938 22.39992188 73.19335938 23.828125 73.390625 C27.63342203 74.12169192 29.27568636 75.27568636 32 78 C34.25059535 81.96533466 34.47404865 85.49653782 34 90 C31.94616591 93.81426331 29.84793152 96.90112826 26 99 C24.35 99 22.7 99 21 99 C21 154.44 21 209.88 21 267 C14.73 267 8.46 267 2 267 C1.95101562 265.14632813 1.90203125 263.29265625 1.8515625 261.3828125 C1.77654586 258.96352598 1.70099757 256.5442559 1.625 254.125 C1.5940625 252.90167969 1.563125 251.67835938 1.53125 250.41796875 C1.47324219 248.66806641 1.47324219 248.66806641 1.4140625 246.8828125 C1.3826416 245.80402832 1.3512207 244.72524414 1.31884766 243.61376953 C1.25323678 240.84238346 1.25323678 240.84238346 -1 239 C-4 238.58333333 -4 238.58333333 -7 239 C-9.25870108 242.38805161 -9.29259413 243.77350741 -9.4140625 247.76171875 C-9.45273438 248.87998047 -9.49140625 249.99824219 -9.53125 251.15039062 C-9.5621875 252.31763672 -9.593125 253.48488281 -9.625 254.6875 C-9.66367188 255.86634766 -9.70234375 257.04519531 -9.7421875 258.25976562 C-9.83654057 261.17291668 -9.91936242 264.08643703 -10 267 C-16.27 267 -22.54 267 -29 267 C-29 211.56 -29 156.12 -29 99 C-30.98 98.67 -32.96 98.34 -35 98 C-40.70284202 93.05753692 -40.70284202 93.05753692 -41.30859375 88.86328125 C-41.60791096 82.94042853 -40.8552986 79.72619551 -36.8984375 75.27734375 C-34.36904451 73.57546822 -31.98574228 73.43538913 -29 73 C-29.01571045 72.25951416 -29.0314209 71.51902832 -29.04760742 70.75610352 C-29.11047539 67.35831527 -29.14915441 63.96064996 -29.1875 60.5625 C-29.21263672 59.39783203 -29.23777344 58.23316406 -29.26367188 57.03320312 C-29.3329771 48.83208538 -28.85018962 41.37445156 -23.6875 34.6875 C-19.44726792 30.44726792 -15.90703667 28.00778835 -10 27 C-10.01571045 26.2886792 -10.0314209 25.5773584 -10.04760742 24.84448242 C-10.10991915 21.62556896 -10.14897867 18.40678232 -10.1875 15.1875 C-10.21263672 14.06794922 -10.23777344 12.94839844 -10.26367188 11.79492188 C-10.27333984 10.72177734 -10.28300781 9.64863281 -10.29296875 8.54296875 C-10.3086792 7.55321045 -10.32438965 6.56345215 -10.34057617 5.54370117 C-10 3 -10 3 -8.7043457 1.1730957 C-5.89117131 -0.76320324 -3.29439942 -0.29949086 0 0 Z " fill="#FFEAA8" transform="translate(80,15)"/>
<path d="M0 0 C3.5625 0.3125 3.5625 0.3125 5.2668457 1.4855957 C7.06358779 4.01904605 6.90445171 5.76954249 6.85546875 8.85546875 C6.8409668 10.46518555 6.8409668 10.46518555 6.82617188 12.10742188 C6.80103516 13.22697266 6.77589844 14.34652344 6.75 15.5 C6.72969727 17.19672852 6.72969727 17.19672852 6.70898438 18.92773438 C6.67359958 21.72313317 6.62422948 24.51757892 6.5625 27.3125 C7.65175781 27.59609375 8.74101562 27.8796875 9.86328125 28.171875 C16.42574907 30.19536033 20.26231682 34.41931575 23.5625 40.3125 C26.14880485 47.01671578 25.78831544 53.64251116 25.6875 60.75 C25.67847656 61.95849609 25.66945313 63.16699219 25.66015625 64.41210938 C25.63670168 67.37911278 25.60387794 70.34570143 25.5625 73.3125 C26.51334473 73.45115479 27.46418945 73.58980957 28.44384766 73.73266602 C32.57971733 74.50162566 33.90371517 75.92784362 36.421875 79.1484375 C38.52262556 83.13410809 38.40816656 86.96233387 37.5625 91.3125 C35.89673586 94.64402829 34.61935687 96.5859109 31.5625 98.6875 C29.5625 99.3125 29.5625 99.3125 25.5625 99.3125 C25.5625 154.7525 25.5625 210.1925 25.5625 267.3125 C15.3325 267.3125 5.1025 267.3125 -5.4375 267.3125 C-5.5921875 261.00125 -5.5921875 261.00125 -5.75 254.5625 C-5.79552002 253.2415332 -5.84104004 251.92056641 -5.88793945 250.55957031 C-5.90042725 249.51381836 -5.91291504 248.46806641 -5.92578125 247.390625 C-5.96505737 245.78815918 -5.96505737 245.78815918 -6.00512695 244.15332031 C-5.24716678 240.35993338 -3.43852071 239.60232311 -0.4375 237.3125 C0.32847796 235.0230087 0.32847796 235.0230087 0.26953125 232.546875 C0.29764893 231.74475586 0.3257666 230.94263672 0.35473633 230.11621094 C0.36142334 229.10848633 0.36811035 228.10076172 0.375 227.0625 C0.436875 223.845 0.49875 220.6275 0.5625 217.3125 C-7.6875 217.3125 -15.9375 217.3125 -24.4375 217.3125 C-24.4375 178.3725 -24.4375 139.4325 -24.4375 99.3125 C-26.7475 98.9825 -29.0575 98.6525 -31.4375 98.3125 C-35.16322641 95.0727379 -36.66407776 92.68341456 -37.4375 87.8125 C-37.67443232 83.5405384 -36.9884741 80.85094794 -34.4375 77.3125 C-30.7284042 74.31365659 -29.2670217 73.3125 -24.4375 73.3125 C-24.45844727 72.51142822 -24.47939453 71.71035645 -24.50097656 70.88500977 C-24.584714 67.21513691 -24.63634368 63.54546584 -24.6875 59.875 C-24.72101563 58.61494141 -24.75453125 57.35488281 -24.7890625 56.05664062 C-24.87969562 47.37851967 -24.19881952 40.71294998 -18.4375 33.97265625 C-17.7775 33.44542969 -17.1175 32.91820312 -16.4375 32.375 C-15.7775 31.82972656 -15.1175 31.28445312 -14.4375 30.72265625 C-11.30739231 28.51568579 -9.31851346 27.3125 -5.4375 27.3125 C-5.44797363 26.56564941 -5.45844727 25.81879883 -5.46923828 25.04931641 C-5.5107077 21.67874492 -5.53679729 18.308227 -5.5625 14.9375 C-5.57925781 13.761875 -5.59601563 12.58625 -5.61328125 11.375 C-5.61972656 10.25351562 -5.62617188 9.13203125 -5.6328125 7.9765625 C-5.64328613 6.93967285 -5.65375977 5.9027832 -5.66455078 4.83447266 C-5.29309481 0.70851545 -4.00012911 0.3636481 0 0 Z " fill="#FFEAA9" transform="translate(435.4375,14.6875)"/>
<path d="M0 0 C9.13084089 6.1789526 15.66520383 14.38796271 17.9765625 25.3046875 C18.80559849 30.98388426 19.11635743 36.46528398 19.09008789 42.19921875 C19.09023392 43.0489476 19.09037994 43.89867645 19.0905304 44.77415466 C19.08983922 47.55519248 19.08208442 50.33616153 19.07421875 53.1171875 C19.07235174 55.05631473 19.07092917 56.99544244 19.06993103 58.93457031 C19.06612814 64.01769329 19.05631704 69.10078732 19.04522705 74.18389893 C19.03315793 80.29386293 19.02860008 86.40383667 19.02277374 92.5138092 C19.01310397 101.77745539 18.99393184 111.04103815 18.9765625 120.3046875 C-7.4234375 120.3046875 -33.8234375 120.3046875 -61.0234375 120.3046875 C-61.18387274 98.11560287 -61.18387274 98.11560287 -61.21875 88.59179688 C-61.24257828 82.11599469 -61.27063993 75.64042066 -61.32519531 69.16479492 C-61.36894351 63.93872275 -61.39263538 58.71289557 -61.40294647 53.48665428 C-61.41028615 51.50173275 -61.42461755 49.51682326 -61.44635773 47.53200722 C-61.61631574 31.35890827 -60.56778788 17.78776533 -49.0234375 5.3046875 C-34.9470831 -7.42090562 -16.46944466 -9.23480488 0 0 Z " fill="#686866" transform="translate(277.0234375,346.6953125)"/>
<path d="M0 0 C6.38683733 0.44542623 10.86902124 2.02950083 16.4375 5.125 C17.18394775 5.53169922 17.93039551 5.93839844 18.69946289 6.35742188 C24.2394667 9.4371491 29.23632223 12.80539356 34 17 C34.78246094 17.64066406 35.56492187 18.28132813 36.37109375 18.94140625 C55.78403082 35.38637478 67.87817286 59.5137083 70.37109375 84.7578125 C70.93971774 91.70766129 70.93971774 91.70766129 71 95 C69.24192517 96.75807483 66.92604072 96.12247279 64.58394951 96.12908131 C63.80089079 96.12616847 63.01783208 96.12325563 62.21104431 96.12025452 C60.97244631 96.12153615 60.97244631 96.12153615 59.70882612 96.12284368 C56.9203645 96.12450102 54.13196201 96.11897299 51.34350586 96.11352539 C49.3532359 96.11324355 47.36296583 96.1134012 45.37269592 96.1139679 C39.9514314 96.11425598 34.5301888 96.10835746 29.1089294 96.10139394 C23.4501079 96.09516224 17.79128595 96.09455675 12.13246155 96.09336853 C1.40853508 96.09025467 -9.31538125 96.08204054 -20.03930324 96.07201904 C-32.24465513 96.0608596 -44.45000749 96.05534788 -56.6553632 96.05032361 C-81.77024777 96.03985797 -106.88512332 96.02225748 -132 96 C-133.75763142 92.48473716 -132.60487743 88.50636148 -132.1875 84.6875 C-132.10435547 83.83220703 -132.02121094 82.97691406 -131.93554688 82.09570312 C-131.84724609 81.26361328 -131.75894531 80.43152344 -131.66796875 79.57421875 C-131.58828857 78.81713623 -131.5086084 78.06005371 -131.42651367 77.2800293 C-130.93989028 74.67866934 -130.00785914 72.44109871 -129 70 C-127.71119934 69.99857498 -126.42239868 69.99714996 -125.09454346 69.99568176 C-112.91314156 69.97896881 -100.73207189 69.93606375 -88.5508461 69.86790943 C-82.28922034 69.83370654 -76.02783685 69.8085398 -69.76611328 69.80444336 C-63.71638254 69.80014616 -57.66719771 69.77156473 -51.61763763 69.72656822 C-49.31656837 69.71363875 -47.01543362 69.70926928 -44.71433258 69.71384621 C-27.63141875 69.7398962 -14.88438082 68.54913295 -2.09765625 56.15625 C2.21701642 51.55879751 4.86215999 46.90860304 7 41 C7.4125 39.865625 7.825 38.73125 8.25 37.5625 C10.82102531 25.35012979 7.86634053 14.71735289 2 4 C1.32788936 2.66940258 0.65933071 1.33697616 0 0 Z " fill="#F7D992" transform="translate(287,159)"/>
<path d="M0 0 C1.34529039 -0.00445668 1.34529039 -0.00445668 2.71775836 -0.0090034 C5.72930335 -0.01768956 8.74080858 -0.01919858 11.75236511 -0.02069092 C13.90905848 -0.02531912 16.06575103 -0.03034378 18.22244263 -0.03573608 C24.08612482 -0.04886116 29.94979556 -0.05530516 35.81349015 -0.05974674 C39.47600029 -0.06267705 43.13850729 -0.06678176 46.80101585 -0.07125092 C58.25768069 -0.0849256 69.71433836 -0.09459262 81.17101079 -0.09845281 C94.40087434 -0.10293483 107.63063463 -0.12048959 120.86046678 -0.1494534 C131.08392894 -0.17105944 141.30736202 -0.1811565 151.53084677 -0.18249393 C157.63829909 -0.18354264 163.74565435 -0.18946487 169.85308266 -0.20731354 C175.5978192 -0.22377569 181.34238552 -0.22595867 187.08713722 -0.21717453 C189.19504247 -0.21640319 191.30295681 -0.22075963 193.41083908 -0.23063278 C196.28980226 -0.24332632 199.16816018 -0.23748942 202.04711914 -0.22705078 C203.29645452 -0.23913539 203.29645452 -0.23913539 204.57102901 -0.25146413 C210.41578104 -0.20194608 215.37174032 0.69326438 219.95622253 4.64044189 C223.78169185 9.70589093 224.99134512 13.82057296 224.21403503 20.14044189 C223.14620037 23.90166844 221.99830186 26.97003645 218.63051701 29.17916441 C213.25714758 32.08089473 208.92867565 32.71303372 202.87785339 32.64837646 C201.9701139 32.65461643 201.0623744 32.66085639 200.12712765 32.66728544 C197.10244273 32.68316892 194.07856888 32.67062929 191.05387878 32.65802002 C188.87850985 32.66344319 186.70314458 32.67056694 184.52778625 32.67926025 C178.63112482 32.69747315 172.73474379 32.6904343 166.83807755 32.67774391 C160.66252648 32.66760581 154.48699917 32.67701185 148.31144714 32.68328857 C137.94136756 32.69056259 127.57140199 32.68098363 117.20133972 32.66192627 C105.2178886 32.64015804 93.23482972 32.64720956 81.25137615 32.66923189 C70.95645921 32.68739279 60.66162415 32.6899408 50.36669636 32.67947721 C44.22070161 32.67324613 38.07483476 32.67239621 31.92884827 32.68562317 C26.15032605 32.69719096 20.37215431 32.68913851 14.59366989 32.66604614 C12.47490394 32.66076408 10.35610841 32.66226418 8.23735428 32.6710968 C5.34124564 32.68205551 2.44625445 32.66828434 -0.44978333 32.64837646 C-1.28481416 32.65729935 -2.11984499 32.66622224 -2.98017979 32.67541552 C-8.69125289 32.59946054 -12.98680165 31.28849509 -17.78596497 28.14044189 C-20.79149908 24.76630454 -22.00818524 20.54845928 -22.28596497 16.07794189 C-21.54760012 10.26331875 -19.60236667 6.86602352 -15.28596497 2.76544189 C-10.47316227 -0.36287986 -5.59257695 -0.00577176 0 0 Z " fill="#666665" transform="translate(154.7859649658203,253.85955810546875)"/>
<path d="M0 0 C3.4375 -0.4375 3.4375 -0.4375 7 0 C9.18913987 1.81428715 9.92117904 3.28830518 10.23364258 6.10961914 C10.29584658 8.66510274 10.26054622 11.19445978 10.1875 13.75 C10.125625 16.8025 10.06375 19.855 10 23 C16.27 23 22.54 23 29 23 C29 61.94 29 100.88 29 141 C18.77 141 8.54 141 -2 141 C-2.1546875 134.68875 -2.1546875 134.68875 -2.3125 128.25 C-2.38078003 126.2685498 -2.38078003 126.2685498 -2.45043945 124.24707031 C-2.46292725 123.20131836 -2.47541504 122.15556641 -2.48828125 121.078125 C-2.51446533 120.00981445 -2.54064941 118.94150391 -2.56762695 117.84082031 C-1.80966678 114.04743338 -0.00102071 113.28982311 3 111 C3.76597796 108.7105087 3.76597796 108.7105087 3.70703125 106.234375 C3.74920776 105.03119629 3.74920776 105.03119629 3.79223633 103.80371094 C3.79892334 102.79598633 3.80561035 101.78826172 3.8125 100.75 C3.874375 97.5325 3.93625 94.315 4 91 C-4.25 91 -12.5 91 -21 91 C-21 68.56 -21 46.12 -21 23 C-14.73 23 -8.46 23 -2 23 C-2.02320313 21.59105469 -2.04640625 20.18210938 -2.0703125 18.73046875 C-2.08907038 16.88281779 -2.10727056 15.03516111 -2.125 13.1875 C-2.14175781 12.25873047 -2.15851563 11.32996094 -2.17578125 10.37304688 C-2.18222656 9.48037109 -2.18867188 8.58769531 -2.1953125 7.66796875 C-2.20578613 6.84578857 -2.21625977 6.0236084 -2.22705078 5.17651367 C-2 3 -2 3 0 0 Z " fill="#F5D792" transform="translate(432,141)"/>
<path d="M0 0 C7.14323627 5.19723835 11.09085255 11.07354365 13.5390625 19.5234375 C13.77957153 22.75057983 13.77957153 22.75057983 13.76611328 26.26318359 C13.76640533 26.90779541 13.76669739 27.55240723 13.76699829 28.21655273 C13.76561565 30.32680173 13.75010561 32.43668842 13.734375 34.546875 C13.73064106 36.01803393 13.72779589 37.48919535 13.72579956 38.96035767 C13.71819306 42.81714848 13.6985705 46.67378671 13.6763916 50.53051758 C13.65225514 55.1661514 13.64313797 59.80183647 13.63148499 64.43751526 C13.61214409 71.46626186 13.57380103 78.49467421 13.5390625 85.5234375 C-6.2609375 85.5234375 -26.0609375 85.5234375 -46.4609375 85.5234375 C-46.62137274 69.99241522 -46.62137274 69.99241522 -46.65625 63.31054688 C-46.68005042 58.77251189 -46.70803362 54.23480339 -46.76269531 49.69702148 C-46.80654282 46.03355677 -46.83015533 42.37044273 -46.84044647 38.70673561 C-46.84776885 37.31743674 -46.86206537 35.92815443 -46.88385773 34.53900719 C-47.06728147 22.34848379 -45.37595519 12.48238857 -36.75 3.46875 C-26.08588139 -5.593931 -12.10431645 -7.26258987 0 0 Z " fill="#676665" transform="translate(111.4609375,381.4765625)"/>
<path d="M0 0 C5.18830414 4.96563014 9.50612514 10.58433772 10.06082153 17.92500305 C10.0541597 19.72036751 10.0541597 19.72036751 10.04736328 21.55200195 C10.04765533 22.21597488 10.04794739 22.87994781 10.04824829 23.56404114 C10.0468621 25.74465293 10.03133489 27.92491712 10.015625 30.10546875 C10.01189233 31.62289747 10.00904656 33.14032862 10.00704956 34.65776062 C9.99943305 38.64115109 9.97980173 42.62439448 9.9576416 46.60772705 C9.93353243 51.39268199 9.92439274 56.17768626 9.91273499 60.96268463 C9.89337604 68.22262105 9.85503988 75.48223507 9.8203125 82.7421875 C-9.6496875 82.7421875 -29.1196875 82.7421875 -49.1796875 82.7421875 C-49.42034036 66.50257625 -49.42034036 66.50257625 -49.47265625 59.51171875 C-49.50834785 54.7650463 -49.55029269 50.01907659 -49.63232422 45.27294922 C-49.69813345 41.44085819 -49.73352063 37.60952193 -49.74895096 33.77690887 C-49.75992846 32.3241769 -49.78136172 30.87148026 -49.81406784 29.41907501 C-50.04061284 18.92924769 -48.63611773 9.8702029 -41.40414429 1.74810791 C-29.57262811 -9.39150014 -12.67365021 -10.31337527 0 0 Z " fill="#666665" transform="translate(436.1796875,384.2578125)"/>
<path d="M0 0 C9.57 0 19.14 0 29 0 C29 51.15 29 102.3 29 155 C18.77 155 8.54 155 -2 155 C-2.01417969 150.27945313 -2.02835937 145.55890625 -2.04296875 140.6953125 C-2.06304881 137.68742684 -2.08458757 134.67969088 -2.11132812 131.671875 C-2.15354502 126.90781884 -2.19063933 122.14414256 -2.19555664 117.37988281 C-2.19986573 113.53453719 -2.22854112 109.69004522 -2.27343178 105.84496689 C-2.28632418 104.38517116 -2.29074402 102.92527284 -2.28615379 101.4654274 C-2.26066663 90.88896875 -4.12973389 83.80539916 -10 75 C-9.21469007 72.6076852 -8.3619686 70.46173819 -7.3125 68.1875 C-0.58368828 53.20425099 -0.48550879 38.26335974 -0.3125 22.125 C-0.27925949 19.97263635 -0.24476384 17.82029169 -0.20898438 15.66796875 C-0.12254298 10.44530047 -0.06182619 5.22324674 0 0 Z " fill="#FE8A22" transform="translate(448,311)"/>
<path d="M0 0 C9.24 0 18.48 0 28 0 C28 51.15 28 102.3 28 155 C18.1 155 8.2 155 -2 155 C-2.02578125 150.42382812 -2.0515625 145.84765625 -2.078125 141.1328125 C-2.1033218 138.21609154 -2.1296762 135.29947139 -2.16015625 132.3828125 C-2.20831896 127.76366938 -2.25242762 123.1447599 -2.27099609 118.52539062 C-2.28625387 114.79683096 -2.3208576 111.06888682 -2.36830902 107.34060287 C-2.38302969 105.92546851 -2.39103561 104.51024622 -2.39188385 103.09503555 C-2.40299421 93.84445571 -2.8349282 85.42708624 -8.64825439 77.85232544 C-10 76 -10 76 -9.77734375 74.0625 C-9.50019531 73.381875 -9.22304687 72.70125 -8.9375 72 C-8.48890625 70.81664062 -8.48890625 70.81664062 -8.03125 69.609375 C-7.6909375 68.74828125 -7.350625 67.8871875 -7 67 C-1.25679923 51.42374338 -0.64150986 36.60422979 -0.375 20.1875 C-0.33673094 18.22329167 -0.29767436 16.25909852 -0.2578125 14.29492188 C-0.16134918 9.53003595 -0.08102029 4.76527234 0 0 Z " fill="#FE8B22" transform="translate(127,311)"/>
<path d="M0 0 C0.598125 0.350625 1.19625 0.70125 1.8125 1.0625 C1.5182132 4.98632401 0.64699715 7.5159095 -1.5625 10.6875 C-6.95871709 18.86785229 -8.47420099 29.21006913 -6.68359375 38.74609375 C-3.96257649 49.95668487 1.33405511 59.21583792 10.9375 65.75 C20.63887722 71.62804625 30.96224807 73.79048445 42.11328125 71.3359375 C48.09223633 69.63948658 53.05550166 67.56893741 58.15625 64.03515625 C60.41923016 62.70618913 62.25163837 62.66236537 64.8125 63.0625 C65.55106942 65.74098278 65.99789951 67.48818771 65.1328125 70.16796875 C56.768853 84.73656487 45.6964686 93.3766606 29.9375 98.6953125 C26.65659419 99.26223372 23.37959648 99.16544367 20.0625 99.125 C17.67 99.104375 15.2775 99.08375 12.8125 99.0625 C12.8125 108.3025 12.8125 117.5425 12.8125 127.0625 C8.8525 127.0625 4.8925 127.0625 0.8125 127.0625 C0.4825 117.1625 0.1525 107.2625 -0.1875 97.0625 C-4.1475 95.0825 -8.1075 93.1025 -12.1875 91.0625 C-22.96653792 83.43467392 -30.44160882 72.58534472 -33.76953125 59.83203125 C-36.12194582 44.24453659 -34.04031538 29.64007424 -25.02734375 16.4921875 C-20.53023566 10.55333139 -8.0653874 -3.4565946 0 0 Z " fill="#FE9932" transform="translate(249.1875,25.9375)"/>
<path d="M0 0 C3 0.4375 3 0.4375 4.66918945 1.59106445 C6.57415319 4.23410991 6.34027104 6.18564548 6.29296875 9.41796875 C6.28330078 10.58134766 6.27363281 11.74472656 6.26367188 12.94335938 C6.23853516 14.15830078 6.21339844 15.37324219 6.1875 16.625 C6.16719727 18.46481445 6.16719727 18.46481445 6.14648438 20.34179688 C6.11108741 23.37413664 6.0617076 26.40559996 6 29.4375 C6.70077667 29.43083817 7.40155334 29.42417633 8.12356567 29.41731262 C14.74391804 29.35707641 21.36419336 29.31146229 27.98475838 29.28206348 C31.38807031 29.26644083 34.79115485 29.24526565 38.19433594 29.21118164 C42.11129997 29.17219966 46.02817351 29.1577626 49.9453125 29.14453125 C51.76906906 29.12130547 51.76906906 29.12130547 53.62966919 29.09761047 C59.75170365 29.0963944 63.57378156 29.45463614 69 32.4375 C72.3 32.7675 75.6 33.0975 79 33.4375 C79 41.3575 79 49.2775 79 57.4375 C62.70996605 57.6586128 46.42001887 57.86271012 30.12941742 58.03590012 C22.5649371 58.1168633 15.00068955 58.20541505 7.43652344 58.31201172 C0.84142275 58.40493255 -5.75366739 58.48343169 -12.34913969 58.54482102 C-15.83949155 58.57780674 -19.3294297 58.61787126 -22.81947327 58.6752243 C-26.72133527 58.73907411 -30.62310729 58.77071655 -34.52539062 58.79980469 C-35.67482147 58.82353653 -36.82425232 58.84726837 -38.0085144 58.87171936 C-44.8258459 58.8902745 -49.20722461 58.11604887 -55 54.4375 C-58.08725778 50.75270846 -58.83837392 47.20546941 -59 42.4375 C-58.08010165 38.05155607 -56.72430207 35.14369452 -53.5 32 C-50.16637124 29.91648202 -47.65677644 29.31240458 -43.80395508 29.32397461 C-42.96331009 29.32405014 -42.1226651 29.32412567 -41.25654602 29.32420349 C-40.35333115 29.32936478 -39.45011627 29.33452606 -38.51953125 29.33984375 C-37.59154221 29.3412587 -36.66355316 29.34267365 -35.70744324 29.34413147 C-32.74242942 29.34973063 -29.77749101 29.36228296 -26.8125 29.375 C-24.80273547 29.38001511 -22.79296975 29.384578 -20.78320312 29.38867188 C-15.85543968 29.39969979 -10.92773263 29.41696383 -6 29.4375 C-6.01571045 28.70112305 -6.0314209 27.96474609 -6.04760742 27.20605469 C-6.11000472 23.86661471 -6.14900618 20.52729745 -6.1875 17.1875 C-6.21263672 16.02863281 -6.23777344 14.86976563 -6.26367188 13.67578125 C-6.27333984 12.56074219 -6.28300781 11.44570313 -6.29296875 10.296875 C-6.3086792 9.27045898 -6.32438965 8.24404297 -6.34057617 7.18652344 C-5.79257813 2.76325613 -4.47492526 0.65259327 0 0 Z " fill="#FECB34" transform="translate(76,252.5625)"/>
<path d="M0 0 C8.25 0 16.5 0 25 0 C25.103125 3.2175 25.20625 6.435 25.3125 9.75 C25.35802002 10.75772461 25.40354004 11.76544922 25.45043945 12.80371094 C25.46292725 13.60583008 25.47541504 14.40794922 25.48828125 15.234375 C25.51446533 16.05131836 25.54064941 16.86826172 25.56762695 17.70996094 C25 20 25 20 22.51367188 21.91796875 C19.74867507 23.78014621 19.74867507 23.78014621 19.34057617 26.84082031 C19.32486572 27.90913086 19.30915527 28.97744141 19.29296875 30.078125 C19.26485107 31.12387695 19.2367334 32.16962891 19.20776367 33.24707031 C19.19773315 35.22852051 19.19773315 35.22852051 19.1875 37.25 C19.125625 41.4575 19.06375 45.665 19 50 C29.23 50 39.46 50 50 50 C50 50.33 50 50.66 50 51 C45.71 51 41.42 51 37 51 C37 59.91 37 68.82 37 78 C6.97 78 -23.06 78 -54 78 C-54 70.08 -54 62.16 -54 54 C-49.06835938 53.31640625 -49.06835938 53.31640625 -44.13671875 52.6328125 C-40.85469105 52.17699379 -40.85469105 52.17699379 -38 50 C-35.09905088 49.82797407 -32.29378094 49.76784308 -29.39453125 49.8046875 C-28.65054077 49.80670166 -27.90655029 49.80871582 -27.14001465 49.81079102 C-24.36411361 49.82124532 -21.58830053 49.84916797 -18.8125 49.875 C-9.5003125 49.936875 -9.5003125 49.936875 0 50 C0 33.5 0 17 0 0 Z " fill="#FECB33" transform="translate(411,232)"/>
<path d="M0 0 C5.5837641 3.84878177 10.73872194 8.1398154 13.94140625 14.234375 C13.94140625 15.224375 13.94140625 16.214375 13.94140625 17.234375 C12.68328125 16.904375 11.42515625 16.574375 10.12890625 16.234375 C-1.13902867 13.75790579 -12.00254231 14.87574414 -21.9296875 20.83203125 C-30.43589456 26.4352025 -36.68654668 34.09926479 -39.05859375 44.234375 C-40.19437693 52.32371644 -40.27800733 60.39745077 -40.375 68.55078125 C-40.3956116 70.0176598 -40.41660904 71.48453297 -40.43797302 72.95140076 C-40.49276002 76.78337202 -40.54235764 80.61539296 -40.59082031 84.44744873 C-40.64135526 88.36930683 -40.69687308 92.29109419 -40.75195312 96.21289062 C-40.85900291 103.88666011 -40.96010098 111.56049004 -41.05859375 119.234375 C-47.32859375 119.234375 -53.59859375 119.234375 -60.05859375 119.234375 C-60.14914331 107.02063222 -60.22245314 94.80711421 -60.26584244 82.59311104 C-60.28667238 76.92099612 -60.31490616 71.24912378 -60.36035156 65.57714844 C-60.40397299 60.0982209 -60.42776538 54.61952595 -60.43810272 49.14043808 C-60.44546487 47.05535092 -60.4598412 44.97027576 -60.48151398 42.88528824 C-60.51076449 39.95336139 -60.51454072 37.02238247 -60.51269531 34.09033203 C-60.52707642 33.23796463 -60.54145752 32.38559723 -60.55627441 31.50740051 C-60.48669726 21.21896506 -56.14922778 12.55637329 -49.05859375 5.234375 C-34.81295829 -7.25833132 -16.53491729 -9.54506081 0 0 Z " fill="#595857" transform="translate(277.05859375,346.765625)"/>
<path d="M0 0 C8.25 0 16.5 0 25 0 C25.12375 4.8571875 25.12375 4.8571875 25.25 9.8125 C25.28641602 10.82932861 25.32283203 11.84615723 25.36035156 12.89379883 C25.37533691 14.10072388 25.37533691 14.10072388 25.390625 15.33203125 C25.41157227 16.15421143 25.43251953 16.9763916 25.45410156 17.82348633 C25 20 25 20 23.01367188 21.47265625 C20.7732513 22.8335906 20.7732513 22.8335906 20.45410156 25.36010742 C20.42268066 26.71906128 20.42268066 26.71906128 20.390625 28.10546875 C20.35839844 29.08837891 20.32617188 30.07128906 20.29296875 31.08398438 C20.27169922 32.62022461 20.27169922 32.62022461 20.25 34.1875 C20.20552734 35.74114258 20.20552734 35.74114258 20.16015625 37.32617188 C20.08944135 39.88369417 20.04245888 42.4418526 20 45 C13.73 45 7.46 45 1 45 C1 48.63 1 52.26 1 56 C17.17 56 33.34 56 50 56 C50 72.5 50 89 50 106 C43.73 106 37.46 106 31 106 C30.95101562 104.14632812 30.90203125 102.29265625 30.8515625 100.3828125 C30.77654586 97.96352598 30.70099757 95.5442559 30.625 93.125 C30.5940625 91.90167969 30.563125 90.67835938 30.53125 89.41796875 C30.49257812 88.25136719 30.45390625 87.08476562 30.4140625 85.8828125 C30.3826416 84.80402832 30.3512207 83.72524414 30.31884766 82.61376953 C30.25323678 79.84238346 30.25323678 79.84238346 28 78 C25 77.58333333 25 77.58333333 22 78 C19.74129892 81.38805161 19.70740587 82.77350741 19.5859375 86.76171875 C19.54726562 87.87998047 19.50859375 88.99824219 19.46875 90.15039062 C19.42234375 91.90125977 19.42234375 91.90125977 19.375 93.6875 C19.33632812 94.86634766 19.29765625 96.04519531 19.2578125 97.25976562 C19.16345943 100.17291668 19.08063758 103.08643703 19 106 C12.73 106 6.46 106 0 106 C0 71.02 0 36.04 0 0 Z " fill="#FDE8A8" transform="translate(51,176)"/>
<path d="M0 0 C1.7015625 0.2165625 1.7015625 0.2165625 3.4375 0.4375 C5.57354308 3.64156462 5.67958908 4.43350747 5.6328125 8.10546875 C5.62636719 8.99814453 5.61992188 9.89082031 5.61328125 10.81054688 C5.59652344 11.73931641 5.57976562 12.66808594 5.5625 13.625 C5.55347656 14.56537109 5.54445313 15.50574219 5.53515625 16.47460938 C5.51159207 18.79568157 5.47572121 21.11662289 5.4375 23.4375 C11.7075 23.4375 17.9775 23.4375 24.4375 23.4375 C24.4375 45.8775 24.4375 68.3175 24.4375 91.4375 C8.2675 91.4375 -7.9025 91.4375 -24.5625 91.4375 C-24.5625 87.8075 -24.5625 84.1775 -24.5625 80.4375 C-18.2925 80.4375 -12.0225 80.4375 -5.5625 80.4375 C-5.60890625 78.88417969 -5.6553125 77.33085937 -5.703125 75.73046875 C-5.74063905 73.69533169 -5.7770396 71.66017388 -5.8125 69.625 C-5.84601563 68.60083984 -5.87953125 67.57667969 -5.9140625 66.52148438 C-5.92695312 65.53857422 -5.93984375 64.55566406 -5.953125 63.54296875 C-5.97407227 62.63699951 -5.99501953 61.73103027 -6.01660156 60.79760742 C-5.41611696 57.67670168 -4.05750289 57.26216749 -1.5625 55.4375 C-0.9250747 53.23195523 -0.9250747 53.23195523 -0.953125 50.76953125 C-0.92250977 49.96491455 -0.89189453 49.16029785 -0.86035156 48.33129883 C-0.84456055 47.31447021 -0.82876953 46.2976416 -0.8125 45.25 C-0.73 42.011875 -0.6475 38.77375 -0.5625 35.4375 C-8.8125 35.4375 -17.0625 35.4375 -25.5625 35.4375 C-25.5625 31.4775 -25.5625 27.5175 -25.5625 23.4375 C-19.2925 23.4375 -13.0225 23.4375 -6.5625 23.4375 C-6.68081486 17.36433531 -6.68081486 17.36433531 -6.83276367 11.29199219 C-6.89367936 5.10086229 -6.89367936 5.10086229 -5.2734375 1.85546875 C-3.5625 0.4375 -3.5625 0.4375 0 0 Z " fill="#F7D992" transform="translate(76.5625,140.5625)"/>
<path d="M0 0 C1.75899502 -0.0118358 3.51796306 -0.02888511 5.27685547 -0.05126953 C7.75253266 -0.08114799 10.22753228 -0.09116907 12.70336914 -0.09594727 C13.43316986 -0.10825378 14.16297058 -0.1205603 14.91488647 -0.13323975 C19.61284945 -0.11294617 22.78560881 0.7553979 26.77368164 3.23217773 C31.42251329 8.38358578 32.00162398 11.82001578 32.08618164 18.60717773 C32.1296875 19.75959961 32.1296875 19.75959961 32.17407227 20.93530273 C32.18245117 21.68038086 32.19083008 22.42545898 32.19946289 23.19311523 C32.21404541 23.87164551 32.22862793 24.55017578 32.24365234 25.24926758 C31.5302134 28.25942398 30.1981504 29.33599866 27.77368164 31.23217773 C25.15249835 31.60672754 22.95798302 31.74028969 20.34301758 31.6862793 C19.23023438 31.68715546 19.23023438 31.68715546 18.0949707 31.68804932 C15.64885262 31.68526798 13.20396117 31.65417559 10.75805664 31.62280273 C9.05984157 31.61534047 7.36161788 31.60964747 5.66339111 31.60565186 C1.19812154 31.59039425 -3.26662589 31.55111163 -7.73168945 31.50683594 C-12.28972307 31.4658858 -16.84784123 31.44764141 -21.40600586 31.42749023 C-30.34633917 31.38461727 -39.28628531 31.31636459 -48.22631836 31.23217773 C-48.24033691 30.27964111 -48.24033691 30.27964111 -48.25463867 29.30786133 C-48.30860569 26.40686974 -48.39219963 23.5074453 -48.47631836 20.60717773 C-48.49049805 19.6081543 -48.50467773 18.60913086 -48.51928711 17.57983398 C-48.76498988 10.15961031 -49.93016821 6.52832788 -55.22631836 1.23217773 C-36.82258548 0.5994232 -18.41505539 0.10563129 0 0 Z " fill="#62D333" transform="translate(465.226318359375,465.767822265625)"/>
<path d="M0 0 C0 13.53 0 27.06 0 41 C-20.13 41 -40.26 41 -61 41 C-61 29.45 -61 17.9 -61 6 C-57.761875 5.938125 -54.52375 5.87625 -51.1875 5.8125 C-35.65674332 5.32824478 -20.38810579 2.83241095 -5.05908203 0.44311523 C-2 0 -2 0 0 0 Z " fill="#F8DA92" transform="translate(216,426)"/>
<path d="M0 0 C16.5 0 33 0 50 0 C50 16.5 50 33 50 50 C43.73 50 37.46 50 31 50 C30.625 40.6875 30.625 40.6875 30.52197266 37.7644043 C30.4863623 37.00039307 30.45075195 36.23638184 30.4140625 35.44921875 C30.36693115 34.27879028 30.36693115 34.27879028 30.31884766 33.0847168 C30.10412111 30.69844232 30.10412111 30.69844232 28 28 C24.41642759 27.74984127 24.41642759 27.74984127 21 28 C19.82530556 30.34938888 19.79965111 31.95073205 19.68359375 34.5703125 C19.64169922 35.46621094 19.59980469 36.36210937 19.55664062 37.28515625 C19.51732422 38.22230469 19.47800781 39.15945312 19.4375 40.125 C19.39431641 41.06988281 19.35113281 42.01476562 19.30664062 42.98828125 C19.2004106 45.32534172 19.09968729 47.6626513 19 50 C12.73 50 6.46 50 0 50 C0 33.5 0 17 0 0 Z " fill="#F8D993" transform="translate(411,114)"/>
<path d="M0 0 C16.5 0 33 0 50 0 C50 16.5 50 33 50 50 C43.73 50 37.46 50 31 50 C30.93941406 48.57945312 30.87882812 47.15890625 30.81640625 45.6953125 C30.73200709 43.83853091 30.64735877 41.98176064 30.5625 40.125 C30.52318359 39.18785156 30.48386719 38.25070313 30.44335938 37.28515625 C30.40146484 36.38925781 30.35957031 35.49335938 30.31640625 34.5703125 C30.27974854 33.74289551 30.24309082 32.91547852 30.20532227 32.06298828 C30.11761673 29.93820571 30.11761673 29.93820571 29 28 C25.58357241 27.74984127 25.58357241 27.74984127 22 28 C19.94872156 31.07691766 19.72739128 31.93644999 19.5859375 35.44921875 C19.55032715 36.21322998 19.5147168 36.97724121 19.47802734 37.7644043 C19.44402832 38.72902588 19.4100293 39.69364746 19.375 40.6875 C19.25125 43.760625 19.1275 46.83375 19 50 C12.73 50 6.46 50 0 50 C0 33.5 0 17 0 0 Z " fill="#F8D993" transform="translate(51,114)"/>
<path d="M0 0 C2 2 2 2 2.22705078 4.24658203 C2.21657715 5.15778809 2.20610352 6.06899414 2.1953125 7.0078125 C2.18886719 7.99394531 2.18242187 8.98007813 2.17578125 9.99609375 C2.15902344 11.02863281 2.14226562 12.06117188 2.125 13.125 C2.11597656 14.16527344 2.10695313 15.20554688 2.09765625 16.27734375 C2.07403867 18.85165997 2.03816684 21.42585838 2 24 C8.27 24 14.54 24 21 24 C21.80162012 31.70831249 22.13621372 39.26542878 22.09765625 47.01171875 C22.0962413 48.10595657 22.09482635 49.2001944 22.09336853 50.32759094 C22.08782531 53.78092322 22.07528379 57.23418772 22.0625 60.6875 C22.05747765 63.04622301 22.05291604 65.40494706 22.04882812 67.76367188 C22.0387306 73.50916093 22.01914456 79.25450569 22 85 C11.77 85 1.54 85 -9 85 C-9.1546875 78.68875 -9.1546875 78.68875 -9.3125 72.25 C-9.38078003 70.2685498 -9.38078003 70.2685498 -9.45043945 68.24707031 C-9.46292725 67.20131836 -9.47541504 66.15556641 -9.48828125 65.078125 C-9.51446533 64.00981445 -9.54064941 62.94150391 -9.56762695 61.84082031 C-8.80966678 58.04743338 -7.00102071 57.28982311 -4 55 C-3.23402204 52.7105087 -3.23402204 52.7105087 -3.29296875 50.234375 C-3.26485107 49.43225586 -3.2367334 48.63013672 -3.20776367 47.80371094 C-3.20107666 46.79598633 -3.19438965 45.78826172 -3.1875 44.75 C-3.125625 41.5325 -3.06375 38.315 -3 35 C-11.25 35 -19.5 35 -28 35 C-28 31.37 -28 27.74 -28 24 C-21.73 24 -15.46 24 -9 24 C-9.03480469 22.51886719 -9.06960938 21.03773438 -9.10546875 19.51171875 C-9.13360491 17.57032382 -9.16090525 15.62891665 -9.1875 13.6875 C-9.21263672 12.71103516 -9.23777344 11.73457031 -9.26367188 10.72851562 C-9.27333984 9.79072266 -9.28300781 8.85292969 -9.29296875 7.88671875 C-9.3086792 7.02264404 -9.32438965 6.15856934 -9.34057617 5.26831055 C-9 3 -9 3 -7.6730957 1.21411133 C-5.11959658 -0.63888023 -3.05769568 -0.32528677 0 0 Z " fill="#F7D992" transform="translate(439,197)"/>
<path d="M0 0 C3.39161801 2.77120008 6.19938522 5.57572048 8.6875 9.1875 C8.3575 10.1775 8.0275 11.1675 7.6875 12.1875 C6.6975 11.8575 5.7075 11.5275 4.6875 11.1875 C-5.6167741 10.17877924 -13.67553301 10.9230332 -22.3125 17.1875 C-29.34459599 23.9684497 -31.61670577 32.20773583 -31.80485535 41.71716309 C-31.81444023 43.29576111 -31.81444023 43.29576111 -31.82421875 44.90625 C-31.84216995 46.00473267 -31.86012115 47.10321533 -31.87861633 48.23498535 C-31.93249197 51.71911868 -31.9665426 55.20311679 -32 58.6875 C-32.03319308 61.05991455 -32.06768456 63.43231132 -32.10351562 65.8046875 C-32.18820565 71.59886043 -32.25512552 77.39299482 -32.3125 83.1875 C-37.2625 83.1875 -42.2125 83.1875 -47.3125 83.1875 C-47.4487648 74.78939571 -47.55853453 66.39216959 -47.62337303 57.9932518 C-47.65451299 54.09208424 -47.69666001 50.19172063 -47.76513672 46.29101562 C-47.83096001 42.51727809 -47.86633591 38.74430724 -47.88176346 34.97003937 C-47.89273853 33.53963419 -47.91416685 32.10926475 -47.94688034 30.67919159 C-48.17548152 20.25896536 -46.71416597 11.25661027 -39.53695679 3.19256592 C-28.4600405 -7.23065358 -12.53501658 -9.01102135 0 0 Z " fill="#5A5856" transform="translate(434.3125,382.8125)"/>
<path d="M0 0 C5.58209543 3.45932674 9.78570439 7.2701687 13 13 C12.67 13.66 12.34 14.32 12 15 C11.01 14.67 10.02 14.34 9 14 C-0.50712249 13.24461002 -9.0701874 12.95754133 -17 19 C-22.74182617 24.11961307 -26.43064839 29.92382708 -27.30122375 37.68562317 C-27.44060417 40.77211683 -27.49334149 43.84791908 -27.51171875 46.9375 C-27.52966995 48.05817871 -27.54762115 49.17885742 -27.56611633 50.33349609 C-27.62000344 53.88895991 -27.6540464 57.44429111 -27.6875 61 C-27.72069205 63.42059128 -27.75518345 65.84116511 -27.79101562 68.26171875 C-27.87571784 74.17438318 -27.94263233 80.08700974 -28 86 C-32.95 86 -37.9 86 -43 86 C-43.11339671 77.43697818 -43.20494142 68.8745495 -43.25906086 60.31097603 C-43.28504818 56.33365899 -43.32024366 52.35688652 -43.37719727 48.37988281 C-43.4319102 44.53485716 -43.46150205 40.69035207 -43.47438622 36.84496689 C-43.48355636 35.38503714 -43.50146227 33.92513277 -43.52865028 32.4654274 C-43.71210041 22.19878724 -42.47830651 14.59365832 -35.9296875 6.4140625 C-25.19027401 -2.93698575 -13.28225797 -5.83023379 0 0 Z " fill="#5A5857" transform="translate(109,380)"/>
<path d="M0 0 C1.68238518 -0.01925285 1.68238518 -0.01925285 3.39875793 -0.03889465 C5.21750679 -0.04997505 5.21750679 -0.04997505 7.07299805 -0.0612793 C8.94304756 -0.07338692 8.94304756 -0.07338692 10.85087585 -0.08573914 C13.49127925 -0.09957912 16.13155784 -0.11059582 18.77197266 -0.11816406 C21.47532682 -0.12702565 24.17816723 -0.14790364 26.88134766 -0.1796875 C30.77872262 -0.22228566 34.6754194 -0.23852321 38.57299805 -0.2487793 C39.77942459 -0.26628738 40.98585114 -0.28379547 42.22883606 -0.30183411 C48.59437854 -0.28536898 52.7604273 -0.25736099 57.5222168 4.17700195 C60.4325888 8.54255995 61.1728417 11.97200274 60.5222168 17.17700195 C58.41570204 21.08910079 56.31558916 23.864768 52.5222168 26.17700195 C49.84170532 26.56468201 49.84170532 26.56468201 46.74731445 26.58105469 C45.58575836 26.59373886 44.42420227 26.60642303 43.22744751 26.61949158 C41.976362 26.61655594 40.72527649 26.6136203 39.4362793 26.6105957 C38.14660248 26.61583755 36.85692566 26.62107941 35.52816772 26.6264801 C32.79952203 26.63540672 30.07116905 26.63299457 27.3425293 26.62304688 C23.85653352 26.61157277 20.37155309 26.63174504 16.88569069 26.66096401 C13.54833424 26.68379593 10.21121188 26.67685598 6.8737793 26.6730957 C5.62674225 26.68432968 4.3797052 26.69556366 3.09487915 26.70713806 C-7.69708074 26.62045061 -7.69708074 26.62045061 -12.4777832 22.17700195 C-15.37416703 17.97556146 -15.3572139 13.07776107 -14.4777832 8.17700195 C-10.9032008 1.90738739 -7.10985591 0.07085248 0 0 Z " fill="#FF9933" transform="translate(53.477783203125,87.822998046875)"/>
<path d="M0 0 C1.12474228 -0.00953201 2.24948456 -0.01906403 3.40830994 -0.02888489 C4.61878494 -0.02797348 5.82925995 -0.02706207 7.07641602 -0.02612305 C8.32407242 -0.03040817 9.57172882 -0.0346933 10.85719299 -0.03910828 C13.49592166 -0.04485175 16.13425918 -0.04628698 18.77294922 -0.04101562 C22.1467737 -0.03522252 25.52004892 -0.05215232 28.89378262 -0.0753603 C32.12132284 -0.09367388 35.3488332 -0.08991165 38.57641602 -0.08862305 C39.78486679 -0.09783279 40.99331757 -0.10704254 42.23838806 -0.11653137 C43.93022972 -0.10718819 43.93022972 -0.10718819 45.65625 -0.09765625 C46.645681 -0.09828568 47.635112 -0.0989151 48.65452576 -0.0995636 C52.91532685 0.48272713 55.5516312 2.52440671 58.70532227 5.3371582 C61.17116544 9.62955187 61.16687817 13.43680879 60.39282227 18.2746582 C58.33638031 22.38754212 56.65759664 24.61719648 52.39282227 26.2746582 C49.71231079 26.54881287 49.71231079 26.54881287 46.61791992 26.58105469 C45.45636383 26.59704208 44.29480774 26.61302948 43.09805298 26.62950134 C41.22142471 26.63754539 41.22142471 26.63754539 39.30688477 26.64575195 C38.01720795 26.65478043 36.72753113 26.6638089 35.39877319 26.67311096 C32.67020163 26.68958053 29.94175247 26.69729731 27.21313477 26.70019531 C23.72702617 26.70557715 20.24207745 26.74325459 16.75629616 26.78893948 C13.41899827 26.82594389 10.08188076 26.82722759 6.74438477 26.83325195 C5.49734772 26.85278427 4.25031067 26.87231659 2.96548462 26.8924408 C-6.68759953 26.84220464 -6.68759953 26.84220464 -10.35180664 23.88037109 C-13.89347339 19.78855369 -14.82779921 17.12736008 -14.48217773 11.7746582 C-13.89355776 7.61276875 -12.72592083 5.21518741 -9.60717773 2.2746582 C-6.35113248 0.24815839 -3.80467926 0.01773115 0 0 Z " fill="#FF9934" transform="translate(412.607177734375,87.725341796875)"/>
<path d="M0 0 C1.18745316 -0.0153479 1.18745316 -0.0153479 2.39889526 -0.03100586 C3.10184219 -0.04208374 3.80478912 -0.05316162 4.52903748 -0.0645752 C8.65161218 0.17910697 12.03438538 1.64643258 15.02560425 4.48266602 C18.74065987 8.74967276 19.90182154 12.20950802 19.787323 17.86157227 C19.31063652 21.73724056 18.12502546 25.12598973 15.51779175 28.05297852 C8.77583414 32.25346519 3.41458565 32.59416132 -4.41970825 32.44360352 C-5.54038696 32.43794373 -6.66106567 32.43228394 -7.81570435 32.42645264 C-11.37165242 32.40418143 -14.92656815 32.35400029 -18.48220825 32.30297852 C-20.90276655 32.28290164 -23.32334074 32.26465296 -25.743927 32.24829102 C-31.65703568 32.20434699 -37.56954818 32.13752725 -43.48220825 32.05297852 C-38.73220825 28.05297852 -38.73220825 28.05297852 -36.48220825 28.05297852 C-33.5201256 22.32628539 -32.77375034 17.45903458 -33.48220825 11.05297852 C-35.84223186 6.06062088 -38.41590201 4.12555834 -43.48220825 2.05297852 C-43.48220825 1.72297852 -43.48220825 1.39297852 -43.48220825 1.05297852 C-37.80800847 0.90912449 -32.13377387 0.76676172 -26.45950317 0.62573242 C-24.53240977 0.57763176 -22.60532618 0.52913592 -20.67825317 0.48022461 C-17.89548236 0.40966535 -15.11267839 0.34056529 -12.3298645 0.27172852 C-11.05430443 0.23891785 -11.05430443 0.23891785 -9.75297546 0.20544434 C-6.5021682 0.12609064 -3.25101981 0.06938749 0 0 Z " fill="#595857" transform="translate(359.4822082519531,253.947021484375)"/>
<path d="M0 0 C1.48209961 -0.0309375 1.48209961 -0.0309375 2.99414062 -0.0625 C8.437042 -0.09174326 12.40071296 0.10255143 17.0625 3.25 C20.55621529 7.40468846 21.96709855 10.81211708 22.0625 16.25 C20.29344108 21.74339349 18.13870696 25.64665222 12.9387207 28.35693359 C9.21451871 29.51329815 5.76406172 29.39395125 1.91796875 29.2265625 C1.14818192 29.20153656 0.37839508 29.17651062 -0.41471863 29.15072632 C-2.86028625 29.06890984 -5.30499928 28.97217465 -7.75 28.875 C-9.41337716 28.81672109 -11.07678884 28.75941868 -12.74023438 28.703125 C-16.8066603 28.5652113 -20.87158973 28.40711611 -24.9375 28.25 C-24.9375 19.34 -24.9375 10.43 -24.9375 1.25 C-16.56756429 0.60615879 -8.37014742 0.04491025 0 0 Z " fill="#FCB910" transform="translate(472.9375,281.75)"/>
<path d="M0 0 C8.25 0 16.5 0 25 0 C25.13491171 4.23023155 25.23410046 8.45616484 25.3125 12.6875 C25.35439453 13.88568359 25.39628906 15.08386719 25.43945312 16.31835938 C25.56561947 25.37710261 25.56561947 25.37710261 22.53125 28.71875 C21.6959375 29.4715625 20.860625 30.224375 20 31 C19.23033048 34.26356244 19.21111495 37.47027358 19.1875 40.8125 C19.0946875 45.3603125 19.0946875 45.3603125 19 50 C12.73 50 6.46 50 0 50 C0 33.5 0 17 0 0 Z " fill="#FEE9A8" transform="translate(51,114)"/>
<path d="M0 0 C8.25 0 16.5 0 25 0 C25 8.58 25 17.16 25 26 C23.02 26.99 23.02 26.99 21 28 C19.82530556 30.34938888 19.79965111 31.95073205 19.68359375 34.5703125 C19.64169922 35.46621094 19.59980469 36.36210937 19.55664062 37.28515625 C19.51732422 38.22230469 19.47800781 39.15945312 19.4375 40.125 C19.39431641 41.06988281 19.35113281 42.01476562 19.30664062 42.98828125 C19.2004106 45.32534172 19.09968729 47.6626513 19 50 C12.73 50 6.46 50 0 50 C0 33.5 0 17 0 0 Z " fill="#FEE9A8" transform="translate(411,114)"/>
<path d="M0 0 C8.25 0 16.5 0 25 0 C25 16.5 25 33 25 50 C18.73 50 12.46 50 6 50 C5.95101562 48.14632812 5.90203125 46.29265625 5.8515625 44.3828125 C5.77654586 41.96352598 5.70099757 39.5442559 5.625 37.125 C5.5940625 35.90167969 5.563125 34.67835938 5.53125 33.41796875 C5.49257812 32.25136719 5.45390625 31.08476562 5.4140625 29.8828125 C5.3826416 28.80402832 5.3512207 27.72524414 5.31884766 26.61376953 C5.25323678 23.84238346 5.25323678 23.84238346 3 22 C1.68 21.34 0.36 20.68 -1 20 C-0.67 13.4 -0.34 6.8 0 0 Z " fill="#F8DA93" transform="translate(76,232)"/>
<path d="M0 0 C8.25 0 16.5 0 25 0 C25.103125 3.2175 25.20625 6.435 25.3125 9.75 C25.38078003 11.26158691 25.38078003 11.26158691 25.45043945 12.80371094 C25.46292725 13.60583008 25.47541504 14.40794922 25.48828125 15.234375 C25.51446533 16.05131836 25.54064941 16.86826172 25.56762695 17.70996094 C25 20 25 20 22.51367188 21.91796875 C19.74867507 23.78014621 19.74867507 23.78014621 19.34057617 26.84082031 C19.32486572 27.90913086 19.30915527 28.97744141 19.29296875 30.078125 C19.24946289 31.81835938 19.24946289 31.81835938 19.20507812 33.59375 C19.19927734 34.8003125 19.19347656 36.006875 19.1875 37.25 C19.16236328 38.47203125 19.13722656 39.6940625 19.11132812 40.953125 C19.05243597 43.96840326 19.02336154 46.98423716 19 50 C12.73 50 6.46 50 0 50 C0 33.5 0 17 0 0 Z " fill="#FEE9A8" transform="translate(411,232)"/>
<path d="M0 0 C8.25 0 16.5 0 25 0 C25.103125 3.2175 25.20625 6.435 25.3125 9.75 C25.38078003 11.26158691 25.38078003 11.26158691 25.45043945 12.80371094 C25.48905802 15.28426886 25.46196921 17.55930402 25 20 C24.1853125 20.6496875 23.370625 21.299375 22.53125 21.96875 C19.81717979 23.71356054 19.81717979 23.71356054 19.49487305 26.25878906 C19.28462775 29.09697344 19.20455237 31.90414952 19.1875 34.75 C19.16236328 35.73355469 19.13722656 36.71710938 19.11132812 37.73046875 C19.05252357 40.15321643 19.02338319 42.57665159 19 45 C12.73 45 6.46 45 0 45 C0 30.15 0 15.3 0 0 Z " fill="#FDE8A8" transform="translate(411,176)"/>
<path d="M0 0 C0 11.55 0 23.1 0 35 C-9.9 35 -19.8 35 -30 35 C-30 25.1 -30 15.2 -30 5 C-19.9375 3.625 -19.9375 3.625 -16.80834961 3.20556641 C-11.37912991 2.44619836 -5.36473893 0 0 0 Z " fill="#FE8B22" transform="translate(387,431)"/>
<path d="M0 0 C0 11.55 0 23.1 0 35 C-9.9 35 -19.8 35 -30 35 C-30 25.1 -30 15.2 -30 5 C-19.4375 3.625 -19.4375 3.625 -16.15014648 3.20556641 C-11.04924387 2.52519581 -4.99400951 0 0 0 Z " fill="#FF8B22" transform="translate(65,431)"/>
<path d="M0 0 C3.4375 -0.4375 3.4375 -0.4375 7 0 C9.18913987 1.81428715 9.92117904 3.28830518 10.23364258 6.10961914 C10.29584658 8.66510274 10.26054622 11.19445978 10.1875 13.75 C10.125625 16.8025 10.06375 19.855 10 23 C16.27 23 22.54 23 29 23 C29 26.96 29 30.92 29 35 C12.5 35 -4 35 -21 35 C-21 31.04 -21 27.08 -21 23 C-14.73 23 -8.46 23 -2 23 C-2.02320313 21.59105469 -2.04640625 20.18210938 -2.0703125 18.73046875 C-2.08907038 16.88281779 -2.10727056 15.03516111 -2.125 13.1875 C-2.14175781 12.25873047 -2.15851563 11.32996094 -2.17578125 10.37304688 C-2.18222656 9.48037109 -2.18867188 8.58769531 -2.1953125 7.66796875 C-2.20578613 6.84578857 -2.21625977 6.0236084 -2.22705078 5.17651367 C-2 3 -2 3 0 0 Z " fill="#6E6D69" transform="translate(432,141)"/>
<path d="M0 0 C1.7015625 0.2165625 1.7015625 0.2165625 3.4375 0.4375 C5.57354308 3.64156462 5.67958908 4.43350747 5.6328125 8.10546875 C5.62636719 8.99814453 5.61992188 9.89082031 5.61328125 10.81054688 C5.59652344 11.73931641 5.57976562 12.66808594 5.5625 13.625 C5.55347656 14.56537109 5.54445313 15.50574219 5.53515625 16.47460938 C5.51159207 18.79568157 5.47572121 21.11662289 5.4375 23.4375 C11.7075 23.4375 17.9775 23.4375 24.4375 23.4375 C24.4375 27.3975 24.4375 31.3575 24.4375 35.4375 C7.9375 35.4375 -8.5625 35.4375 -25.5625 35.4375 C-25.5625 31.4775 -25.5625 27.5175 -25.5625 23.4375 C-19.2925 23.4375 -13.0225 23.4375 -6.5625 23.4375 C-6.68081486 17.36433531 -6.68081486 17.36433531 -6.83276367 11.29199219 C-6.89367936 5.10086229 -6.89367936 5.10086229 -5.2734375 1.85546875 C-3.5625 0.4375 -3.5625 0.4375 0 0 Z " fill="#6E6D69" transform="translate(76.5625,140.5625)"/>
<path d="M0 0 C2 2 2 2 2.22705078 4.24658203 C2.21657715 5.15778809 2.20610352 6.06899414 2.1953125 7.0078125 C2.18886719 7.99394531 2.18242187 8.98007813 2.17578125 9.99609375 C2.15902344 11.02863281 2.14226562 12.06117188 2.125 13.125 C2.11597656 14.16527344 2.10695313 15.20554688 2.09765625 16.27734375 C2.07403867 18.85165997 2.03816684 21.42585838 2 24 C8.27 24 14.54 24 21 24 C21 27.63 21 31.26 21 35 C4.83 35 -11.34 35 -28 35 C-28 31.37 -28 27.74 -28 24 C-21.73 24 -15.46 24 -9 24 C-9.03480469 22.51886719 -9.06960938 21.03773438 -9.10546875 19.51171875 C-9.13360491 17.57032382 -9.16090525 15.62891665 -9.1875 13.6875 C-9.21263672 12.71103516 -9.23777344 11.73457031 -9.26367188 10.72851562 C-9.27333984 9.79072266 -9.28300781 8.85292969 -9.29296875 7.88671875 C-9.3086792 7.02264404 -9.32438965 6.15856934 -9.34057617 5.26831055 C-9 3 -9 3 -7.6730957 1.21411133 C-5.11959658 -0.63888023 -3.05769568 -0.32528677 0 0 Z " fill="#676766" transform="translate(439,197)"/>
<path d="M0 0 C3.0625 0.3125 3.0625 0.3125 4.7355957 1.52661133 C6.48301096 3.8784683 6.40837067 5.28961295 6.35546875 8.19921875 C6.34580078 9.13701172 6.33613281 10.07480469 6.32617188 11.04101562 C6.30103516 12.01748047 6.27589844 12.99394531 6.25 14 C6.22969727 15.48209961 6.22969727 15.48209961 6.20898438 16.99414062 C6.17362661 19.43382617 6.11981962 21.87323163 6.0625 24.3125 C12.3325 24.3125 18.6025 24.3125 25.0625 24.3125 C25.0625 27.9425 25.0625 31.5725 25.0625 35.3125 C8.8925 35.3125 -7.2775 35.3125 -23.9375 35.3125 C-23.9375 31.6825 -23.9375 28.0525 -23.9375 24.3125 C-17.6675 24.3125 -11.3975 24.3125 -4.9375 24.3125 C-4.96070312 22.74757812 -4.98390625 21.18265625 -5.0078125 19.5703125 C-5.02656723 17.52604642 -5.04476775 15.4817752 -5.0625 13.4375 C-5.07925781 12.40496094 -5.09601563 11.37242187 -5.11328125 10.30859375 C-5.11972656 9.32246094 -5.12617187 8.33632812 -5.1328125 7.3203125 C-5.14328613 6.40910645 -5.15375977 5.49790039 -5.16455078 4.55908203 C-4.79581519 0.91058208 -3.51984063 0.37445113 0 0 Z " fill="#676766" transform="translate(75.9375,196.6875)"/>
<path d="M0 0 C12.48 0 12.48 0 18 3 C21.3 3.33 24.6 3.66 28 4 C28 11.92 28 19.84 28 28 C18.76 28 9.52 28 0 28 C0 18.76 0 9.52 0 0 Z " fill="#FBB910" transform="translate(127,282)"/>
<path d="M0 0 C0.87537415 0.00359528 1.75074829 0.00719055 2.65264893 0.01089478 C4.02812141 0.01067574 4.02812141 0.01067574 5.43138123 0.01045227 C8.47773564 0.01115177 11.52402973 0.01894589 14.57037354 0.02676392 C16.67644721 0.02862796 18.78252132 0.03005193 20.88859558 0.03105164 C26.44364612 0.03487786 31.99867069 0.04470903 37.55371094 0.05575562 C43.21746469 0.0659675 48.88122262 0.07054878 54.54498291 0.07559204 C65.66673914 0.0863312 76.78847606 0.10340887 87.91021729 0.12442017 C88.29240496 1.78056674 88.6241683 3.44899041 88.91021729 5.12442017 C87.03233056 7.00230689 84.31855819 6.24450604 81.82043457 6.24884033 C80.94506042 6.24524506 80.06968628 6.24164978 79.16778564 6.23794556 C77.79231316 6.2381646 77.79231316 6.2381646 76.38905334 6.23838806 C73.34269893 6.23768856 70.29640484 6.22989444 67.25006104 6.22207642 C65.14398736 6.22021237 63.03791325 6.2187884 60.93183899 6.2177887 C55.37678845 6.21396247 49.82176388 6.2041313 44.26672363 6.19308472 C38.60296988 6.18287283 32.93921195 6.17829156 27.27545166 6.17324829 C16.15369543 6.16250913 5.03195851 6.14543146 -6.08978271 6.12442017 C-6.47197039 4.46827359 -6.80373373 2.79984992 -7.08978271 1.12442017 C-5.21189599 -0.75346656 -2.49812362 0.00433429 0 0 Z " fill="#F5FCF2" transform="translate(80.08978271484375,474.8755798339844)"/>
<path d="M0 0 C1.94222694 -0.00956978 1.94222694 -0.00956978 3.9236908 -0.01933289 C5.34829674 -0.02086144 6.77290319 -0.02197547 8.19750977 -0.02270508 C9.64860569 -0.02591595 11.09970128 -0.02927989 12.55079651 -0.03279114 C15.59653474 -0.03878879 18.64224456 -0.04063039 21.68798828 -0.04003906 C25.59677458 -0.03993741 29.50537933 -0.05358942 33.41412258 -0.07081127 C36.41234682 -0.08191304 39.41052692 -0.08395883 42.40876961 -0.08342934 C43.85011483 -0.08461222 45.29146109 -0.08905118 46.73278618 -0.0967617 C48.74631297 -0.10652419 50.75989269 -0.10242903 52.7734375 -0.09765625 C54.49432838 -0.09979378 54.49432838 -0.09979378 56.24998474 -0.10197449 C58.95141602 0.14526367 58.95141602 0.14526367 60.95141602 2.14526367 C60.62141602 3.46526367 60.29141602 4.78526367 59.95141602 6.14526367 C38.17141602 6.14526367 16.39141602 6.14526367 -6.04858398 6.14526367 C-6.37858398 4.49526367 -6.70858398 2.84526367 -7.04858398 1.14526367 C-5.23654558 -0.66677473 -2.43875799 0.00810845 0 0 Z " fill="#FFFDF9" transform="translate(213.048583984375,306.854736328125)"/>
<path d="M0 0 C9 1 9 1 12 2 C12 11.24 12 20.48 12 30 C8.04 30 4.08 30 0 30 C0 20.1 0 10.2 0 0 Z " fill="#666665" transform="translate(250,123)"/>
<path d="M0 0 C1.65 0.33 3.3 0.66 5 1 C5 19.15 5 37.3 5 56 C3.68 56.66 2.36 57.32 1 58 C-1 56 -1 56 -1.24723816 53.6782074 C-1.24581314 52.70859573 -1.24438812 51.73898407 -1.24291992 50.73999023 C-1.24599655 49.64222763 -1.24907318 48.54446503 -1.25224304 47.41343689 C-1.24505753 46.22383865 -1.23787201 45.03424042 -1.23046875 43.80859375 C-1.23001053 42.59301285 -1.22955231 41.37743195 -1.2290802 40.12501526 C-1.22605496 37.55183945 -1.21816063 34.97866552 -1.20581055 32.40551758 C-1.18756053 28.45061816 -1.18530075 24.49595273 -1.18554688 20.54101562 C-1.18063169 18.04687296 -1.17480336 15.55273189 -1.16796875 13.05859375 C-1.16685593 11.86697128 -1.1657431 10.67534882 -1.16459656 9.44761658 C-1.15821671 8.35300613 -1.15183685 7.25839569 -1.14526367 6.13061523 C-1.14145187 5.16179916 -1.13764008 4.19298309 -1.13371277 3.19480896 C-1 1 -1 1 0 0 Z " fill="#FFF8F2" transform="translate(57,331)"/>
<path d="M0 0 C3.5625 0.3125 3.5625 0.3125 5.2668457 1.4855957 C7.06358779 4.01904605 6.90445171 5.76954249 6.85546875 8.85546875 C6.84580078 9.92861328 6.83613281 11.00175781 6.82617188 12.10742188 C6.80103516 13.22697266 6.77589844 14.34652344 6.75 15.5 C6.73646484 16.63115234 6.72292969 17.76230469 6.70898438 18.92773438 C6.67360305 21.72285882 6.61979579 24.51773889 6.5625 27.3125 C2.6025 27.3125 -1.3575 27.3125 -5.4375 27.3125 C-5.49122872 23.18732814 -5.53104309 19.06284921 -5.5625 14.9375 C-5.57925781 13.761875 -5.59601563 12.58625 -5.61328125 11.375 C-5.61972656 10.25351562 -5.62617188 9.13203125 -5.6328125 7.9765625 C-5.64328613 6.93967285 -5.65375977 5.9027832 -5.66455078 4.83447266 C-5.29309481 0.70851545 -4.00012911 0.3636481 0 0 Z " fill="#FF9933" transform="translate(435.4375,14.6875)"/>
<path d="M0 0 C2 2 2 2 2.22705078 4.52197266 C2.21134033 6.07730713 2.21134033 6.07730713 2.1953125 7.6640625 C2.18564453 9.34628906 2.18564453 9.34628906 2.17578125 11.0625 C2.15902344 12.238125 2.14226562 13.41375 2.125 14.625 C2.11597656 15.80835938 2.10695313 16.99171875 2.09765625 18.2109375 C2.07402905 21.14071057 2.03815713 24.07038014 2 27 C-1.96 27 -5.92 27 -10 27 C-10.0807316 23.06209217 -10.14037469 19.12582931 -10.1875 15.1875 C-10.21263672 14.06794922 -10.23777344 12.94839844 -10.26367188 11.79492188 C-10.27333984 10.72177734 -10.28300781 9.64863281 -10.29296875 8.54296875 C-10.3086792 7.55321045 -10.32438965 6.56345215 -10.34057617 5.54370117 C-10 3 -10 3 -8.7043457 1.1730957 C-5.89117131 -0.76320324 -3.29439942 -0.29949086 0 0 Z " fill="#FF9933" transform="translate(80,15)"/>
<path d="M0 0 C-0.33 1.65 -0.66 3.3 -1 5 C-2.13695312 5.32871094 -3.27390625 5.65742188 -4.4453125 5.99609375 C-19.76806709 10.62909723 -31.01674394 17.03093773 -41.6953125 29.0078125 C-42.45585937 29.66523438 -43.21640625 30.32265625 -44 31 C-46.3046875 30.8046875 -46.3046875 30.8046875 -48 30 C-47.35556129 22.85961909 -41.1685249 18.4029392 -36 14 C-29.21426028 8.90594329 -21.82543408 5.22075744 -14 2 C-12.4221875 1.3503125 -12.4221875 1.3503125 -10.8125 0.6875 C-7.10413069 -0.21899027 -3.81285827 -0.13147787 0 0 Z " fill="#FFFEFB" transform="translate(246,183)"/>
<path d="M0 0 C2 2 2 2 2.22705078 4.70556641 C2.21134033 6.38658447 2.21134033 6.38658447 2.1953125 8.1015625 C2.18564453 9.91914063 2.18564453 9.91914063 2.17578125 11.7734375 C2.15902344 13.04445313 2.14226562 14.31546875 2.125 15.625 C2.11597656 16.90375 2.10695313 18.1825 2.09765625 19.5 C2.07402303 22.66685167 2.04107629 25.83333424 2 29 C-1.63 29 -5.26 29 -9 29 C-9.08692074 24.72929442 -9.14036515 20.45881542 -9.1875 16.1875 C-9.21263672 14.97255859 -9.23777344 13.75761719 -9.26367188 12.50585938 C-9.27333984 11.34248047 -9.28300781 10.17910156 -9.29296875 8.98046875 C-9.3086792 7.90692139 -9.32438965 6.83337402 -9.34057617 5.72729492 C-9 3 -9 3 -7.6730957 1.14575195 C-5.10527951 -0.61271316 -3.02110576 -0.32139423 0 0 Z " fill="#686867" transform="translate(439,253)"/>
<path d="M0 0 C3.0625 0.3125 3.0625 0.3125 4.7355957 1.45825195 C6.63164337 4.10783466 6.40278429 6.05974022 6.35546875 9.29296875 C6.34580078 10.45634766 6.33613281 11.61972656 6.32617188 12.81835938 C6.30103516 14.03330078 6.27589844 15.24824219 6.25 16.5 C6.23646484 17.72654297 6.22292969 18.95308594 6.20898438 20.21679688 C6.17358741 23.24913664 6.1242076 26.28059996 6.0625 29.3125 C2.4325 29.3125 -1.1975 29.3125 -4.9375 29.3125 C-4.9953304 24.85422074 -5.03103855 20.3960372 -5.0625 15.9375 C-5.07925781 14.66648437 -5.09601563 13.39546875 -5.11328125 12.0859375 C-5.11972656 10.87421875 -5.12617187 9.6625 -5.1328125 8.4140625 C-5.14852295 6.73304443 -5.14852295 6.73304443 -5.16455078 5.01806641 C-4.83564326 1.09876196 -3.86723696 0.41140819 0 0 Z " fill="#686766" transform="translate(75.9375,252.6875)"/>
<path d="M0 0 C1.3303125 0.00773437 1.3303125 0.00773437 2.6875 0.015625 C3.574375 0.01046875 4.46125 0.0053125 5.375 0 C7.6875 0.265625 7.6875 0.265625 9.6875 2.265625 C9.3575 3.585625 9.0275 4.905625 8.6875 6.265625 C4.7275 6.265625 0.7675 6.265625 -3.3125 6.265625 C-3.6425 4.945625 -3.9725 3.625625 -4.3125 2.265625 C-2.3125 0.265625 -2.3125 0.265625 0 0 Z " fill="#FFFCF6" transform="translate(182.3125,306.734375)"/>
</svg>
