<?xml version="1.0" encoding="UTF-8"?>
<svg version="1.1" xmlns="http://www.w3.org/2000/svg" width="512" height="512">
<path d="M0 0 C0.72681039 -0.00235223 1.45362078 -0.00470446 2.20245573 -0.00712797 C4.66289448 -0.01383921 7.12328068 -0.01335911 9.58372784 -0.01294994 C11.35555546 -0.01624724 13.12738234 -0.01997252 14.89920825 -0.02409142 C19.78771435 -0.03413468 24.67620817 -0.03783194 29.56472313 -0.04048073 C34.82932347 -0.04437687 40.09391401 -0.05395561 45.35850811 -0.0626936 C58.08157375 -0.08247679 70.8046402 -0.09252621 83.52771738 -0.10142139 C89.51372091 -0.10580094 95.49972354 -0.11116857 101.48572636 -0.11641026 C121.37472157 -0.1334238 141.26371622 -0.14791936 161.15271759 -0.155159 C166.31662592 -0.15706901 171.48053425 -0.15898932 176.64444256 -0.16094494 C177.92796435 -0.16142868 179.21148615 -0.16191242 180.53390255 -0.16241082 C201.3397072 -0.1707163 222.14545445 -0.19606141 242.95123402 -0.22852562 C264.29386685 -0.26155705 285.63647048 -0.27960418 306.97912902 -0.28280324 C318.96966719 -0.28497189 330.96012164 -0.29377235 342.95063496 -0.31926441 C353.15942829 -0.34091791 363.36811758 -0.34904826 373.57693128 -0.33929763 C378.78865671 -0.33473747 384.00016724 -0.33673842 389.21186352 -0.35605907 C393.9794749 -0.37358135 398.74671286 -0.37278263 403.51432761 -0.35716178 C405.24247905 -0.35476899 406.97065563 -0.359195 408.69876847 -0.37099043 C411.04206444 -0.38599886 413.38401821 -0.37651509 415.72727966 -0.36076355 C417.68216245 -0.36222876 417.68216245 -0.36222876 419.67653781 -0.36372358 C423.61638741 0.21740979 425.25771843 1.3536349 428.05240154 4.13422108 C429.56249336 7.15440471 428.64270761 9.58089906 428.17349529 12.90765858 C426.28928422 31.75213675 429.08962786 46.92818857 437.68521404 63.68890858 C438.0556716 64.41247421 438.42612915 65.13603985 438.80781269 65.88153172 C442.61780449 73.26355152 446.59370201 80.53491143 450.7976799 87.69972515 C463.45405186 109.3933711 468.94876618 130.14952595 463.34337139 155.31776905 C460.57277412 164.87360567 455.329744 172.47387144 447.05240154 178.13422108 C440.55417507 181.58804419 435.60481526 182.295064 428.05240154 183.13422108 C428.05240154 258.37422108 428.05240154 333.61422108 428.05240154 411.13422108 C435.64240154 411.13422108 443.23240154 411.13422108 451.05240154 411.13422108 C460.22221286 415.71912674 460.22221286 415.71912674 463.05240154 420.13422108 C464.23215798 423.6734904 464.21451502 426.89207557 464.22037029 430.57562733 C464.22369869 431.29910862 464.22702709 432.02258991 464.23045635 432.76799488 C464.23551327 434.29525588 464.23786506 435.82252789 464.23770428 437.34979725 C464.23989669 439.69153322 464.25808102 442.03280245 464.27701092 444.37445545 C464.27994387 445.8581778 464.28192932 447.34190238 464.28287029 448.82562733 C464.29005581 449.52772831 464.29724133 450.22982929 464.30464458 450.95320606 C464.28123518 455.90538744 464.28123518 455.90538744 462.05240154 458.13422108 C459.29463515 458.33156256 456.63727336 458.40186835 453.87826824 458.38590336 C453.01886591 458.38881024 452.15946359 458.39171712 451.27401876 458.39471209 C448.36251199 458.40207485 445.45121185 458.39503972 442.53970623 458.38818836 C440.44400581 458.39049032 438.3483062 458.39366505 436.2526083 458.39764285 C430.468967 458.40603594 424.68539122 458.40184521 418.90174961 458.39567041 C412.67400817 458.39116528 406.4462784 458.39812 400.21853924 458.40363026 C388.7152306 458.4120307 377.21195135 458.41127298 365.70864284 458.40580732 C355.08311451 458.4007833 344.4575939 458.39945949 333.83206463 458.40185261 C333.12822819 458.40200538 332.42439176 458.40215815 331.69922695 458.40231555 C328.84238282 458.40293819 325.9855387 458.40357498 323.12869458 458.40423508 C296.30969971 458.41035801 269.49071825 458.40479834 242.67172545 458.39404128 C218.82595405 458.38454953 194.98020401 458.38539876 171.13443279 458.39496326 C144.36561155 458.40566422 117.59680217 458.40992383 90.82797909 458.40373874 C87.97623221 458.40309727 85.12448534 458.40247159 82.27273846 458.40185261 C81.57052586 458.40169445 80.86831326 458.4015363 80.14482149 458.40137335 C69.5239644 458.39909497 58.90311585 458.40176534 48.28225994 458.40681171 C36.21020404 458.41251888 24.13817889 458.41093149 12.06612396 458.40025023 C5.90093649 458.394976 -0.26420752 458.39296638 -6.42939472 458.39954853 C-12.06460468 458.40547409 -17.69973056 458.40228949 -23.3349328 458.39159343 C-25.38200055 458.38934489 -27.42907528 458.39052785 -29.47613859 458.395345 C-32.24201753 458.40135829 -35.00760205 458.39525874 -37.77346516 458.38590336 C-38.58264692 458.39058569 -39.39182868 458.39526802 -40.2255311 458.40009224 C-45.71929772 458.36252182 -45.71929772 458.36252182 -47.94759846 456.13422108 C-48.15953935 453.69492272 -48.25159137 451.37203357 -48.24837971 448.93109608 C-48.25266483 448.21568653 -48.25694996 447.50027699 -48.26136494 446.76318836 C-48.26711297 445.24673998 -48.26760501 443.73026401 -48.26327229 442.21381092 C-48.26012928 439.90684505 -48.28350384 437.60118294 -48.30892658 435.29437733 C-48.31120142 433.81911852 -48.31190221 432.34385628 -48.31087971 430.86859608 C-48.32008945 430.18400318 -48.3292992 429.49941029 -48.33878803 428.79407215 C-48.29481965 424.17913377 -47.35030756 421.06140021 -44.94759846 417.13422108 C-35.1943215 407.89427449 -26.47109481 411.13422108 -11.94759846 411.13422108 C-11.94759846 335.89422108 -11.94759846 260.65422108 -11.94759846 183.13422108 C-14.91759846 182.80422108 -17.88759846 182.47422108 -20.94759846 182.13422108 C-30.25798585 179.88365261 -37.80734973 174.1535233 -42.87337971 166.05609608 C-50.46452163 151.34486161 -51.74469141 128.92812288 -47.31671619 112.84238148 C-43.98492755 103.21299013 -38.60684344 94.36907938 -33.47012043 85.61520863 C-29.26389324 78.43130471 -25.36338919 71.08546097 -21.56869221 63.67718983 C-21.20056416 62.95971514 -20.8324361 62.24224045 -20.45315266 61.5030241 C-11.84247335 44.48887459 -10.03062789 28.21205752 -12.95394611 9.38641834 C-12.94759846 6.13422108 -12.94759846 6.13422108 -11.10921955 3.25507069 C-7.4465303 -0.33853463 -5.05232237 0.00693633 0 0 Z " fill="#EBEBEC" transform="translate(47.947598457336426,26.865778923034668)"/>
<path d="M0 0 C0.33 0 0.66 0 1 0 C1.11214844 0.87398437 1.11214844 0.87398437 1.2265625 1.765625 C2.84917741 11.88310623 6.69033558 21.20396778 14.9453125 27.60546875 C21.33158539 31.9398783 26.86995499 33.57582626 34.55859375 34.60546875 C37 35 37 35 38 36 C38.09797065 38.93304728 38.12991804 41.84255388 38.12025452 44.77601624 C38.12153615 46.17387278 38.12153615 46.17387278 38.12284368 47.59996885 C38.12450134 50.74773593 38.11897247 53.89545066 38.11352539 57.04321289 C38.11324355 59.28963723 38.11340118 61.53606167 38.1139679 63.78248596 C38.11425601 69.90207429 38.10835706 76.02164321 38.10139394 82.14122701 C38.09516269 88.52875627 38.09455678 94.91628592 38.09336853 101.30381775 C38.09060882 112.03173219 38.08435329 122.75963811 38.07543945 133.48754883 C38.06626606 144.53930628 38.05918487 155.59106178 38.05493164 166.64282227 C38.05453756 167.66398067 38.05453756 167.66398067 38.05413551 168.70576853 C38.05283051 172.12086613 38.05156679 175.53596375 38.05032361 178.95106137 C38.03995012 207.30071251 38.02225692 235.65035587 38 264 C38.65484375 263.97905273 39.3096875 263.95810547 39.984375 263.93652344 C42.98942328 263.85269617 45.99422464 263.80113105 49 263.75 C50.02996094 263.71648437 51.05992187 263.68296875 52.12109375 263.6484375 C58.63075908 263.56551183 63.60784621 264.15614664 69 268 C73.66391697 272.9030922 74.15758865 276.91129133 74.16796875 283.44140625 C74.17129715 284.16488754 74.17462555 284.88836884 74.17805481 285.6337738 C74.18311173 287.1610348 74.18546352 288.68830681 74.18530273 290.21557617 C74.18749514 292.55731214 74.20567948 294.89858137 74.22460938 297.24023438 C74.22754232 298.72395672 74.22952778 300.2076813 74.23046875 301.69140625 C74.23765427 302.39350723 74.24483978 303.09560822 74.25224304 303.81898499 C74.22883364 308.77116636 74.22883364 308.77116636 72 311 C69.24223361 311.19734148 66.58487182 311.26764727 63.8258667 311.25168228 C62.96646437 311.25458916 62.10706204 311.25749604 61.22161722 311.26049101 C58.31011045 311.26785377 55.39881031 311.26081865 52.48730469 311.25396729 C50.39160427 311.25626924 48.29590466 311.25944397 46.20020676 311.26342177 C40.41656546 311.27181487 34.63298968 311.26762414 28.84934807 311.26144934 C22.62160663 311.2569442 16.39387685 311.26389892 10.1661377 311.26940918 C-1.33717095 311.27780962 -12.84045019 311.2770519 -24.3437587 311.27158624 C-34.96928703 311.26656222 -45.59480764 311.26523841 -56.22033691 311.26763153 C-56.92417335 311.2677843 -57.62800978 311.26793707 -58.3531746 311.26809447 C-61.21001872 311.26871711 -64.06686285 311.26935391 -66.92370696 311.270014 C-93.74270183 311.27613693 -120.56168329 311.27057727 -147.38067609 311.2598202 C-171.22644749 311.25032845 -195.07219754 311.25117768 -218.91796875 311.26074219 C-245.68678999 311.27144314 -272.45559938 311.27570276 -299.22442245 311.26951766 C-302.07616933 311.26887619 -304.92791621 311.26825051 -307.77966309 311.26763153 C-308.48187568 311.26747338 -309.18408828 311.26731522 -309.90758005 311.26715227 C-320.52843714 311.26487389 -331.14928569 311.26754427 -341.7701416 311.27259064 C-353.8421975 311.2782978 -365.91422265 311.27671041 -377.98627758 311.26602915 C-384.15146506 311.26075493 -390.31660906 311.2587453 -396.48179626 311.26532745 C-402.11700622 311.27125301 -407.7521321 311.26806842 -413.38733435 311.25737235 C-415.43440209 311.25512381 -417.48147682 311.25630677 -419.52854013 311.26112393 C-422.29441907 311.26713722 -425.06000359 311.26103766 -427.8258667 311.25168228 C-428.63504846 311.25636461 -429.44423022 311.26104695 -430.27793264 311.26587117 C-435.77169926 311.22830074 -435.77169926 311.22830074 -438 309 C-438.21194089 306.56070164 -438.30399292 304.23781249 -438.30078125 301.796875 C-438.30506638 301.08146545 -438.3093515 300.36605591 -438.31376648 299.62896729 C-438.31951451 298.1125189 -438.32000655 296.59604293 -438.31567383 295.07958984 C-438.31253082 292.77262397 -438.33590538 290.46696187 -438.36132812 288.16015625 C-438.36360297 286.68489744 -438.36430376 285.20963521 -438.36328125 283.734375 C-438.372491 283.0497821 -438.38170074 282.36518921 -438.39118958 281.65985107 C-438.34722119 277.0449127 -437.4027091 273.92717913 -435 270 C-428.60780803 263.94423919 -422.8957061 263.73432279 -414.5 263.8125 C-413.51717041 263.82148315 -412.53434082 263.83046631 -411.52172852 263.83972168 C-402.89448162 263.94091814 -394.2781761 264.19859691 -385.65625 264.51171875 C-384.32064273 264.55917394 -382.98503075 264.6064971 -381.64941406 264.65368652 C-378.4328944 264.76783516 -375.21642763 264.88329162 -372 265 C-372.00368717 264.06570789 -372.00737434 263.13141579 -372.01117325 262.1688118 C-372.09990992 239.45180884 -372.16567371 216.73482832 -372.20724869 194.01768875 C-372.22788763 183.0319122 -372.2560337 172.04625002 -372.30175781 161.06054688 C-372.34158477 151.48714776 -372.36742312 141.91383147 -372.37635398 132.34035182 C-372.38157574 127.26965634 -372.39387645 122.19919783 -372.42292023 117.12857819 C-372.45002389 112.35812813 -372.45845523 107.58801318 -372.45243073 102.81749344 C-372.45353323 101.06469274 -372.46151716 99.3118811 -372.4768219 97.55914688 C-372.49667136 95.16916411 -372.49195843 92.78045298 -372.48101807 90.39044189 C-372.49266943 89.69394067 -372.5043208 88.99743945 -372.51632524 88.27983212 C-372.47461051 84.91747745 -372.21384513 83.26933513 -370.09493637 80.60059738 C-366.03008336 77.49492163 -362.43834904 77.84547316 -357.4987793 77.83886719 C-356.61894379 77.83390228 -355.73910828 77.82893738 -354.83261108 77.82382202 C-351.9131391 77.80918107 -348.99372146 77.80239489 -346.07421875 77.796875 C-344.04881285 77.79112477 -342.02340696 77.78536702 -339.9980011 77.77960205 C-335.74679307 77.76908631 -331.49560398 77.76324752 -327.24438477 77.75976562 C-321.79675118 77.75428225 -316.34936771 77.73025991 -310.90181255 77.70179367 C-306.71622487 77.68316954 -302.53069742 77.67796179 -298.34507179 77.67642975 C-296.33681688 77.67340176 -294.32856306 77.66536834 -292.32034874 77.65224457 C-289.50984055 77.63519024 -286.69994324 77.63706295 -283.8894043 77.64355469 C-283.05960556 77.6343399 -282.22980682 77.62512512 -281.37486267 77.6156311 C-276.76448652 77.64899067 -273.74640006 78.00812107 -270 81 C-268.53153124 83.93693752 -268.86631856 86.89320798 -268.87974548 90.11196899 C-268.87846146 91.22053001 -268.87846146 91.22053001 -268.87715149 92.35148621 C-268.87548955 94.84844332 -268.88103085 97.34533412 -268.88647461 99.84228516 C-268.88678078 101.65475652 -268.88664774 103.46722801 -268.88610935 105.27969933 C-268.885883 110.1464118 -268.89169127 115.01309983 -268.89871979 119.87980652 C-268.90440226 124.44160034 -268.90468223 129.00338812 -268.90539551 133.56518555 C-268.91064901 146.91846029 -268.92461008 160.27173045 -268.9375 173.625 C-268.958125 203.44875 -268.97875 233.2725 -269 264 C-186.5 264 -104 264 -19 264 C-19 248.16 -19 232.32 -19 216 C-28.69262207 216.02356567 -28.69262207 216.02356567 -38.58105469 216.04760742 C-59.88707383 216.09722921 -81.1930952 216.13057191 -102.49915695 216.15543652 C-115.42199393 216.17091796 -128.34477623 216.19203189 -141.26757812 216.22631836 C-152.52858365 216.2561816 -163.78954959 216.2755657 -175.05059361 216.28226548 C-181.01549633 216.28618295 -186.9802858 216.29541609 -192.94515228 216.31719017 C-198.55603063 216.3375067 -204.16674873 216.34384358 -209.77766037 216.33932304 C-211.84006241 216.34015041 -213.90246964 216.3461447 -215.96483994 216.35761642 C-218.7749968 216.37248483 -221.58454415 216.36897426 -224.39471436 216.36076355 C-225.21572592 216.36950207 -226.03673749 216.3782406 -226.8826282 216.38724393 C-230.15625566 216.36129016 -232.56487288 216.234682 -235.47533035 214.66495228 C-238.21525447 211.67293174 -238.12938998 208.70836955 -238.14717102 204.84474182 C-238.15790398 203.24433044 -238.15790398 203.24433044 -238.16885376 201.61158752 C-238.17154266 200.44111374 -238.17423157 199.27063995 -238.17700195 198.06469727 C-238.18357315 196.8319809 -238.19014435 195.59926453 -238.19691467 194.32919312 C-238.21665961 190.24159504 -238.22831196 186.15403617 -238.23828125 182.06640625 C-238.24232924 180.6589398 -238.24644617 179.25147354 -238.25063133 177.84400749 C-238.26967427 171.2338858 -238.28390934 164.62377524 -238.2922433 158.0136314 C-238.30202442 150.38181251 -238.32837014 142.75028298 -238.36874419 135.1185661 C-238.39888212 129.21955096 -238.41370979 123.32061892 -238.41702431 117.42152828 C-238.41937675 113.89792374 -238.42836211 110.37462866 -238.45348549 106.85110664 C-238.48104827 102.92220862 -238.47694218 98.99369338 -238.4699707 95.06469727 C-238.48918579 93.31202293 -238.48918579 93.31202293 -238.50878906 91.52394104 C-238.49837334 89.91929993 -238.49837334 89.91929993 -238.48774719 88.28224182 C-238.49013555 87.35328378 -238.4925239 86.42432573 -238.49498463 85.46721745 C-237.84831022 82.24391254 -236.4970358 81.06528147 -234 79 C-230.76597786 77.38298893 -227.2257777 77.86717099 -223.67318726 77.87974548 C-222.365929 77.87846385 -222.365929 77.87846385 -221.03226149 77.87715632 C-218.09489208 77.87550152 -215.15757904 77.8810229 -212.22021484 77.88647461 C-210.12142437 77.88675651 -208.0226338 77.8865987 -205.92384338 77.8860321 C-200.2113255 77.88574423 -194.49882846 77.89163934 -188.78631544 77.89860606 C-182.82186964 77.90484127 -176.85742341 77.90544353 -170.89297485 77.90663147 C-159.59180167 77.90974429 -148.29063811 77.91795702 -136.98946917 77.92798096 C-124.12630726 77.93914362 -111.2631449 77.94465293 -98.39997935 77.94967639 C-71.93331422 77.96013967 -45.46665765 77.97773816 -19 78 C-19.01776489 77.42450409 -19.03552979 76.84900818 -19.05383301 76.256073 C-19.23112905 70.25412836 -19.35159966 64.25292943 -19.43945312 58.24902344 C-19.47963046 56.01010924 -19.53418502 53.77140425 -19.60351562 51.53320312 C-19.70082115 48.31067315 -19.74598331 45.09092076 -19.78125 41.8671875 C-19.82254028 40.87008759 -19.86383057 39.87298767 -19.90637207 38.84567261 C-19.91077225 31.99671773 -19.91077225 31.99671773 -17.26464844 29.10089111 C-15.12695312 27.51220703 -15.12695312 27.51220703 -12.99719238 26.22952271 C-7.47273114 22.82852309 -3.69215987 16.58919063 -2.05078125 10.44921875 C-1.80714844 9.20785156 -1.56351562 7.96648437 -1.3125 6.6875 C-1.06113281 5.43324219 -0.80976563 4.17898437 -0.55078125 2.88671875 C-0.36902344 1.93410156 -0.18726563 0.98148438 0 0 Z " fill="#8B8996" transform="translate(438,174)"/>
<path d="M0 0 C0.72681039 -0.00235223 1.45362078 -0.00470446 2.20245573 -0.00712797 C4.66289448 -0.01383921 7.12328068 -0.01335911 9.58372784 -0.01294994 C11.35555546 -0.01624724 13.12738234 -0.01997252 14.89920825 -0.02409142 C19.78771435 -0.03413468 24.67620817 -0.03783194 29.56472313 -0.04048073 C34.82932347 -0.04437687 40.09391401 -0.05395561 45.35850811 -0.0626936 C58.08157375 -0.08247679 70.8046402 -0.09252621 83.52771738 -0.10142139 C89.51372091 -0.10580094 95.49972354 -0.11116857 101.48572636 -0.11641026 C121.37472157 -0.1334238 141.26371622 -0.14791936 161.15271759 -0.155159 C166.31662592 -0.15706901 171.48053425 -0.15898932 176.64444256 -0.16094494 C177.92796435 -0.16142868 179.21148615 -0.16191242 180.53390255 -0.16241082 C201.3397072 -0.1707163 222.14545445 -0.19606141 242.95123402 -0.22852562 C264.29386685 -0.26155705 285.63647048 -0.27960418 306.97912902 -0.28280324 C318.96966719 -0.28497189 330.96012164 -0.29377235 342.95063496 -0.31926441 C353.15942829 -0.34091791 363.36811758 -0.34904826 373.57693128 -0.33929763 C378.78865671 -0.33473747 384.00016724 -0.33673842 389.21186352 -0.35605907 C393.9794749 -0.37358135 398.74671286 -0.37278263 403.51432761 -0.35716178 C405.24247905 -0.35476899 406.97065563 -0.359195 408.69876847 -0.37099043 C411.04206444 -0.38599886 413.38401821 -0.37651509 415.72727966 -0.36076355 C417.68216245 -0.36222876 417.68216245 -0.36222876 419.67653781 -0.36372358 C423.61638741 0.21740979 425.25771843 1.3536349 428.05240154 4.13422108 C429.56249336 7.15440471 428.64270761 9.58089906 428.17349529 12.90765858 C426.28928422 31.75213675 429.08962786 46.92818857 437.68521404 63.68890858 C438.0556716 64.41247421 438.42612915 65.13603985 438.80781269 65.88153172 C442.61780449 73.26355152 446.59370201 80.53491143 450.7976799 87.69972515 C463.45405186 109.3933711 468.94876618 130.14952595 463.34337139 155.31776905 C460.57127229 164.87878549 455.32769464 172.46520356 447.05240154 178.13422108 C436.82124625 183.65233598 426.17160583 184.24126911 415.05240154 181.13422108 C404.55944857 176.98747331 397.63824552 170.31883697 393.11490154 160.00922108 C390.554298 153.60337221 389.86934805 147.62753562 390.36880779 140.77093983 C391.51440911 112.70550883 381.35495652 88.83108878 371.05240154 63.13422108 C370.01820813 60.53959229 368.993399 57.94188321 367.97427654 55.34125233 C367.59368084 54.38323719 367.21308514 53.42522205 366.82095623 52.43817616 C366.05240154 50.13422108 366.05240154 50.13422108 366.05240154 47.13422108 C345.26240154 47.13422108 324.47240154 47.13422108 303.05240154 47.13422108 C304.43427654 53.75484608 305.81615154 60.37547108 307.23990154 67.19672108 C307.68672283 69.3641991 308.13354412 71.53167713 308.59390545 73.76483631 C310.93625767 85.27342923 310.93625767 85.27342923 313.76333904 96.66937733 C317.17255877 109.28945092 317.51838599 121.56592201 317.55240154 134.57172108 C317.55954678 135.93614338 317.55954678 135.93614338 317.56683636 137.32812977 C317.57202835 139.95029258 317.55200414 142.5708497 317.52115154 145.19281483 C317.52070339 145.97526066 317.52025524 146.75770649 317.51979351 147.5638628 C317.31519614 157.31949441 313.121808 165.98647942 306.28287029 172.93109608 C296.51559361 181.52800192 286.59861545 183.01351113 273.99917889 182.32953358 C269.78781335 181.90702387 266.54942932 180.4322679 263.05240154 178.13422108 C262.35888592 177.69851795 261.66537029 177.26281483 260.95083904 176.81390858 C252.12390684 170.76398875 247.12070646 162.32679583 244.52017498 152.02606678 C243.89760208 148.17722754 243.85640447 144.35901049 243.80630779 140.47015858 C243.77474192 138.70754008 243.7429109 136.94492632 243.71084881 135.18231678 C243.6954707 134.25746479 243.68009258 133.3326128 243.66424847 132.37973499 C243.40651286 117.38723712 242.99199513 102.41644431 242.11490154 87.44672108 C242.04021648 86.14718494 241.96553143 84.84764881 241.88858318 83.5087328 C241.14308412 71.36251574 240.06357876 59.26834768 239.05240154 47.13422108 C218.26240154 47.13422108 197.47240154 47.13422108 176.05240154 47.13422108 C175.72240154 55.05422108 175.39240154 62.97422108 175.05240154 71.13422108 C174.63960564 76.7832433 174.21915287 82.42636924 173.75290203 88.07040882 C172.77669726 99.94459521 171.9698526 111.77623662 171.81021404 123.69281483 C171.7962962 124.63965137 171.78237835 125.58648792 171.76803875 126.56201649 C171.70719896 131.11794682 171.67832944 135.67119132 171.69497967 140.2274828 C171.64658388 153.03839471 169.6317377 163.513019 160.44302654 173.15765858 C150.24316964 181.5908736 138.80443562 183.27041834 126.05240154 182.13422108 C122.62019961 181.30803767 119.99165028 180.06572739 117.05240154 178.13422108 C116.01212811 177.48066639 116.01212811 177.48066639 114.95083904 176.81390858 C106.05398442 170.7160644 101.01740602 162.19167601 98.49331951 151.75384998 C97.4830806 145.75171074 97.51689718 139.64430977 97.48990154 133.57172108 C97.48594372 132.82535389 97.48198589 132.0789867 97.47790813 131.31000233 C97.47810727 116.29676187 100.25384948 102.76072958 104.03824139 88.22601795 C105.95343956 80.67768063 107.39875859 73.01801414 108.92740154 65.38422108 C109.3700073 63.18647902 109.8138638 60.98900702 110.26008892 58.79199696 C110.64489987 56.89646211 111.02625951 55.00022754 111.40738201 53.10394764 C112.05240154 50.13422108 112.05240154 50.13422108 113.05240154 47.13422108 C92.26240154 47.13422108 71.47240154 47.13422108 50.05240154 47.13422108 C49.06240154 50.43422108 48.07240154 53.73422108 47.05240154 57.13422108 C46.35122327 59.22209129 45.63330091 61.30448474 44.89175701 63.3783617 C44.49479626 64.49231312 44.0978355 65.60626453 43.68884563 66.75397205 C43.26999096 67.92101673 42.85113628 69.08806141 42.41958904 70.29047108 C41.98228466 71.51455677 41.54498028 72.73864246 41.09442425 73.99982166 C40.17655156 76.56862436 39.25699991 79.13681714 38.33609295 81.70453358 C37.1554568 84.99661319 35.97823089 88.28989964 34.80212498 91.58360004 C33.67602963 94.73639782 32.54778429 97.88842408 31.41958904 101.04047108 C30.78523434 102.81532887 30.78523434 102.81532887 30.13806438 104.62604237 C29.74740795 105.7147765 29.35675152 106.80351063 28.95425701 107.9252367 C28.43821407 109.36558277 28.43821407 109.36558277 27.91174603 110.83502674 C27.05240154 113.13422108 27.05240154 113.13422108 26.05240154 115.13422108 C25.95574521 117.90915707 25.91531749 120.66360375 25.91177654 123.43890858 C25.89342368 125.15506742 25.87385114 126.87121356 25.85318279 128.58734608 C25.82442399 131.28384917 25.80240698 133.97954776 25.80191326 136.67621326 C25.78375354 150.69032953 24.65889182 162.54848114 14.41177654 173.16156483 C5.81941387 180.34557666 -4.88612581 183.68603065 -16.01009846 183.00922108 C-26.34528044 181.53976392 -34.12716939 177.0698666 -40.94759846 169.13422108 C-50.49770754 153.86954368 -51.0572376 132.62545922 -47.94759846 115.13422108 C-45.04165974 104.57766274 -38.97021215 94.98832297 -33.47012043 85.61520863 C-29.26389324 78.43130471 -25.36338919 71.08546097 -21.56869221 63.67718983 C-21.20056416 62.95971514 -20.8324361 62.24224045 -20.45315266 61.5030241 C-11.84247335 44.48887459 -10.03062789 28.21205752 -12.95394611 9.38641834 C-12.94759846 6.13422108 -12.94759846 6.13422108 -11.10921955 3.25507069 C-7.4465303 -0.33853463 -5.05232237 0.00693633 0 0 Z " fill="#FDC64F" transform="translate(47.947598457336426,26.865778923034668)"/>
<path d="M0 0 C1.41584405 -0.00935994 1.41584405 -0.00935994 2.860291 -0.01890898 C6.03109563 -0.03489585 9.20113757 -0.02221223 12.37194824 -0.00964355 C14.64188588 -0.01506213 16.91182 -0.02218329 19.18174744 -0.03088379 C25.3531573 -0.0491514 31.5243003 -0.04203529 37.69571495 -0.02936745 C44.14676013 -0.01925764 50.59778208 -0.0286275 57.04882812 -0.03491211 C68.57777822 -0.04266118 80.10659159 -0.03021142 91.63552028 -0.00987476 C102.09052921 0.00799652 112.54536049 0.00489249 123.00036621 -0.0135498 C135.13893644 -0.0349518 147.27736721 -0.04292616 159.41595984 -0.03110075 C165.84245921 -0.02485671 172.26883619 -0.02405528 178.69532776 -0.0372467 C184.73642757 -0.04878031 190.77719109 -0.04082472 196.81825447 -0.01766968 C199.03867598 -0.01236931 201.25912567 -0.01391892 203.47953606 -0.02272034 C206.50423943 -0.03360671 209.52785659 -0.01999542 212.55249023 0 C213.43691945 -0.00892289 214.32134866 -0.01784577 215.23257875 -0.02703905 C219.00864188 0.02157849 221.12859733 0.07518631 224.32056332 2.20800877 C226.07142134 4.97430258 226.28110126 6.55215418 226.29090881 9.81468201 C226.30363327 10.88996658 226.31635773 11.96525116 226.32946777 13.07312012 C226.32294189 14.24777832 226.31641602 15.42243652 226.30969238 16.63269043 C226.31830795 17.8737001 226.32692352 19.11470978 226.33580017 20.39332581 C226.35461628 23.79447481 226.35535385 27.19465001 226.3464787 30.59577632 C226.34136751 33.43626804 226.34866246 36.27667241 226.35595077 39.11715513 C226.37295153 45.81902583 226.36938264 52.52066886 226.35266113 59.22253418 C226.33574073 66.13349267 226.35157211 73.0438195 226.38388401 79.95470899 C226.41058708 85.8911719 226.41785403 91.82743825 226.40936893 97.76395518 C226.40444151 101.30826844 226.40664451 104.85220169 226.42715645 108.39646721 C226.44893697 112.34915743 226.43010661 116.30108735 226.40734863 120.25378418 C226.42488693 122.01273514 226.42488693 122.01273514 226.44277954 123.80722046 C226.43012558 124.88532486 226.41747162 125.96342926 226.4044342 127.07420349 C226.40384789 128.00831527 226.40326159 128.94242704 226.40265751 129.90484524 C225.46969015 133.78183973 223.99486548 135.1794767 220.77624512 137.50793457 C217.68068828 138.21688437 214.67297879 138.17473631 211.50816345 138.12939453 C210.5715801 138.13578335 209.63499675 138.14217217 208.67003208 138.1487546 C205.52979091 138.16402255 202.39080772 138.14353087 199.25061035 138.12316895 C197.00022971 138.12666956 194.74985154 138.13232746 192.4994812 138.13998413 C186.3859034 138.1542493 180.27277444 138.1371537 174.15923953 138.11369896 C167.76693292 138.09361747 161.37464545 138.09946807 154.98231506 138.10180664 C144.24792421 138.10175304 133.51374971 138.08210471 122.77941895 138.04992676 C111.73380113 138.01682795 100.6883666 138.00266983 89.6427002 138.00891113 C76.3320057 138.01639528 63.02142845 138.00903188 49.71074104 137.98725891 C44.62588436 137.97907367 39.54106809 137.97637743 34.45620537 137.97795105 C28.4717575 137.97882841 22.4875294 137.96465365 16.5031395 137.93872452 C14.30368553 137.9315476 12.10420821 137.92948639 9.9047451 137.93284225 C6.90870407 137.93654233 3.91330969 137.92186063 0.91734314 137.90234375 C0.04137794 137.90767168 -0.83458725 137.9129996 -1.73709685 137.91848898 C-5.25441174 137.87879808 -7.59350497 137.84384528 -10.73257351 136.170784 C-13.4290411 133.16389318 -13.35320542 130.20314465 -13.3709259 126.35267639 C-13.37808121 125.28573547 -13.38523651 124.21879456 -13.39260864 123.11952209 C-13.39529755 121.94904831 -13.39798645 120.77857452 -13.40075684 119.57263184 C-13.40732803 118.33991547 -13.41389923 117.1071991 -13.42066956 115.83712769 C-13.44041449 111.74952961 -13.45206684 107.66197074 -13.46203613 103.57434082 C-13.46608412 102.16687437 -13.47020105 100.75940811 -13.47438622 99.35194206 C-13.49342915 92.74182037 -13.50766423 86.13170981 -13.51599818 79.52156597 C-13.52577931 71.88974708 -13.55212502 64.25821755 -13.59249908 56.62650067 C-13.622637 50.72748553 -13.63746468 44.82855349 -13.6407792 38.92946285 C-13.64313163 35.40585831 -13.65211699 31.88256323 -13.67724037 28.35904121 C-13.70480316 24.43014319 -13.70069706 20.50162795 -13.69372559 16.57263184 C-13.70653564 15.40418228 -13.7193457 14.23573273 -13.73254395 13.03187561 C-13.72560013 11.96211487 -13.71865631 10.89235413 -13.71150208 9.79017639 C-13.71389043 8.86121835 -13.71627878 7.9322603 -13.71873951 6.97515202 C-12.21502574 -0.52000773 -6.30374504 -0.06359763 0 0 Z " fill="#00C6C8" transform="translate(213.2237548828125,252.4920654296875)"/>
<path d="M0 0 C0.87983551 -0.0049649 1.75967102 -0.00992981 2.66616821 -0.01504517 C5.5856402 -0.02968612 8.50505783 -0.0364723 11.42456055 -0.04199219 C13.44996645 -0.04774242 15.47537234 -0.05350017 17.5007782 -0.05926514 C21.75198623 -0.06978088 26.00317532 -0.07561967 30.25439453 -0.07910156 C35.70202812 -0.08458494 41.14941159 -0.10860728 46.59696674 -0.13707352 C50.78255443 -0.15569765 54.96808188 -0.1609054 59.1537075 -0.16243744 C61.16196242 -0.16546542 63.17021624 -0.17349884 65.17843056 -0.18662262 C67.98893875 -0.20367694 70.79883606 -0.20180424 73.609375 -0.1953125 C74.43917374 -0.20452728 75.26897247 -0.21374207 76.12391663 -0.22323608 C80.73429278 -0.18987652 83.75237924 0.16925388 87.4987793 3.16113281 C88.9719419 6.10745803 88.63242699 9.08178194 88.61903381 12.31106567 C88.61988824 13.05598105 88.62074266 13.80089643 88.62162298 14.568385 C88.62327687 17.07735235 88.61775789 19.5862536 88.61230469 22.09521484 C88.61202277 23.88859048 88.61218064 25.68196623 88.61274719 27.4753418 C88.61303499 32.35524307 88.60714111 37.23511993 88.60017323 42.11501551 C88.59393676 47.21061741 88.59333566 52.30621982 88.59214783 57.40182495 C88.58903538 67.05615645 88.58082316 76.71047667 88.57079834 86.36480319 C88.55754848 99.40711125 88.55213659 112.44942237 88.54629612 125.49173546 C88.53688322 146.0482097 88.51696371 166.60466013 88.4987793 187.16113281 C54.5087793 187.16113281 20.5187793 187.16113281 -14.5012207 187.16113281 C-14.66243284 141.68139775 -14.66243284 141.68139775 -14.6965332 122.66113281 C-14.72029178 109.51458514 -14.74826101 96.36813982 -14.80297852 83.22167969 C-14.84280547 73.64828058 -14.86864382 64.07496428 -14.87757468 54.50148463 C-14.88279645 49.43078915 -14.89509715 44.36033064 -14.92414093 39.289711 C-14.95124459 34.51926094 -14.95967593 29.74914599 -14.95365143 24.97862625 C-14.95475393 23.22582556 -14.96273786 21.47301392 -14.9780426 19.72027969 C-14.99789206 17.33029693 -14.99317913 14.94158579 -14.98223877 12.55157471 C-14.99389014 11.85507348 -15.0055415 11.15857226 -15.01754594 10.44096494 C-14.97583121 7.07861026 -14.71506584 5.43046795 -12.59615707 2.76173019 C-8.53130407 -0.34394555 -4.93956974 0.00660597 0 0 Z " fill="#0FB0C0" transform="translate(80.501220703125,251.8388671875)"/>
<path d="M0 0 C0.33 0 0.66 0 1 0 C1.11214844 0.87398437 1.11214844 0.87398437 1.2265625 1.765625 C2.84917741 11.88310623 6.69033558 21.20396778 14.9453125 27.60546875 C21.33158539 31.9398783 26.86995499 33.57582626 34.55859375 34.60546875 C37 35 37 35 38 36 C38.1001925 38.93075932 38.13438434 41.8380298 38.12698364 44.76928711 C38.12854363 45.70048591 38.13010362 46.6316847 38.13171089 47.59110165 C38.13572516 50.7365314 38.1325296 53.88191357 38.12939453 57.02734375 C38.13074838 59.27214588 38.13252822 61.51694779 38.13470459 63.76174927 C38.13928084 69.87727015 38.13748858 75.99277425 38.1343255 82.10829544 C38.13180289 88.49268897 38.13413916 94.87708102 38.13571167 101.26147461 C38.13765053 112.67310391 38.13453271 124.08472388 38.12945233 135.4963516 C38.12498429 145.85336581 38.12576022 156.21036881 38.13037109 166.56738281 C38.13571676 178.58061351 38.13771774 190.59383574 38.13475883 202.60706806 C38.1331956 208.97143638 38.13300354 215.33579697 38.13629532 221.70016479 C38.13917284 227.68200325 38.13720054 233.66382044 38.13140106 239.64565659 C38.13007282 241.84799031 38.13046865 244.05032581 38.13266373 246.25265884 C38.13537274 249.24536813 38.13199717 252.23800809 38.12698364 255.23071289 C38.12921436 256.11425414 38.13144509 256.99779539 38.13374341 257.90811062 C38.11414982 263.88585018 38.11414982 263.88585018 37 265 C35.36838617 265.09713175 33.73253908 265.12371579 32.09803677 265.12304783 C31.03012667 265.12503888 29.96221658 265.12702993 28.86194557 265.12908131 C27.67422823 265.12616847 26.4865109 265.12325563 25.26280212 265.12025452 C24.01238068 265.12110894 22.76195923 265.12196337 21.47364622 265.12284368 C17.98701255 265.12509099 14.50040931 265.12106417 11.01377952 265.11606562 C7.25984245 265.11176466 3.50590722 265.11320729 -0.24803162 265.1139679 C-6.75725273 265.11449336 -13.26646385 265.11134425 -19.77568245 265.10573006 C-29.18702853 265.09761804 -38.59836975 265.09500014 -48.00971895 265.09374207 C-63.27739675 265.09155107 -78.54506923 265.08488972 -93.81274414 265.07543945 C-108.64770481 265.06626655 -123.48266403 265.05918512 -138.31762695 265.05493164 C-139.23138488 265.05466892 -140.1451428 265.05440619 -141.08659036 265.05413551 C-145.67044552 265.05283051 -150.25430069 265.05156679 -154.83815587 265.05032361 C-192.89210764 265.03994953 -230.94605347 265.02232994 -269 265 C-269 264.67 -269 264.34 -269 264 C-186.5 264 -104 264 -19 264 C-19 248.16 -19 232.32 -19 216 C-14.05 215.67 -9.1 215.34 -4 215 C0.11402966 211.62625038 0.11402966 211.62625038 0.49498463 208.51716518 C0.49259627 207.5808328 0.49020792 206.64450041 0.48774719 205.67979431 C0.49816292 204.06253197 0.49816292 204.06253197 0.50878906 202.41259766 C0.48957397 200.64589722 0.48957397 200.64589722 0.4699707 198.84350586 C0.4732563 196.97717247 0.4732563 196.97717247 0.47660828 195.07313538 C0.47852384 191.66381758 0.46262328 188.25546921 0.43850732 184.84629512 C0.41720803 181.2789407 0.41780596 177.7115882 0.41581726 174.1441803 C0.40937062 168.15453738 0.38812649 162.16509875 0.35668945 156.17553711 C0.31638242 148.48585409 0.29899894 140.79630413 0.28938007 133.10652828 C0.2810796 126.49651269 0.26384337 119.88652531 0.24434257 113.27653432 C0.24029335 111.85748352 0.23655383 110.4384318 0.2331202 109.01937938 C0.22183249 104.35523367 0.20166952 99.69119821 0.17700195 95.02709961 C0.17431305 93.84727509 0.17162415 92.66745056 0.16885376 91.45187378 C0.1581208 89.83884117 0.1581208 89.83884117 0.14717102 88.19322205 C0.1407608 86.789289 0.1407608 86.789289 0.13422108 85.35699368 C0.09446116 82.8470834 0.09446116 82.8470834 -1 80 C-77.23 79.67 -153.46 79.34 -232 79 C-232 78.67 -232 78.34 -232 78 C-161.71 78 -91.42 78 -19 78 C-19 62.49 -19 46.98 -19 31 C-16.36 29.02 -13.72 27.04 -11 25 C-5.69391341 19.22226127 -2.82720288 14.40527179 -1.3125 6.6875 C-1.06113281 5.43324219 -0.80976563 4.17898437 -0.55078125 2.88671875 C-0.36902344 1.93410156 -0.18726563 0.98148438 0 0 Z " fill="#B8BCC2" transform="translate(438,174)"/>
<path d="M0 0 C21.12 0 42.24 0 64 0 C72.48524144 15.48645694 72.48524144 15.48645694 76.0859375 22.36523438 C78.50568124 26.98689573 80.9367794 31.59731915 83.47363281 36.15600586 C96.33230038 59.32787831 103.25115904 81.51477438 97.29069519 108.17228699 C94.51811167 117.73975877 89.28159646 125.32666435 81 131 C70.76884471 136.5181149 60.11920429 137.10704803 49 134 C38.50704703 129.85325223 31.58584397 123.18461589 27.0625 112.875 C24.50189646 106.46915113 23.8169465 100.49331454 24.31640625 93.63671875 C25.46200757 65.57128776 15.30255498 41.6968677 5 16 C3.96580659 13.40537121 2.94099745 10.80766214 1.921875 8.20703125 C1.5412793 7.24901611 1.16068359 6.29100098 0.76855469 5.30395508 C0 3 0 3 0 0 Z " fill="#FB502B" transform="translate(414,74)"/>
<path d="M0 0 C21.12 0 42.24 0 64 0 C60.62457919 11.25140271 60.62457919 11.25140271 58.83935547 16.24414062 C58.44239471 17.35809204 58.04543396 18.47204346 57.63644409 19.61975098 C57.21758942 20.78679565 56.79873474 21.95384033 56.3671875 23.15625 C55.92988312 24.38033569 55.49257874 25.60442139 55.04202271 26.86560059 C54.12415002 29.43440328 53.20459837 32.00259606 52.28369141 34.5703125 C51.10305525 37.86239211 49.92582935 41.15567857 48.74972343 44.44937897 C47.62362809 47.60217674 46.49538275 50.75420301 45.3671875 53.90625 C44.94428436 55.08948853 44.52138123 56.27272705 44.08566284 57.49182129 C43.69500641 58.58055542 43.30434998 59.66928955 42.90185547 60.79101562 C42.55782684 61.75124634 42.21379822 62.71147705 41.85934448 63.70080566 C41 66 41 66 40 68 C39.90334366 70.77493599 39.86291595 73.52938268 39.859375 76.3046875 C39.84102213 78.02084634 39.8214496 79.73699248 39.80078125 81.453125 C39.77202245 84.1496281 39.75000543 86.84532669 39.74951172 89.54199219 C39.731352 103.55610846 38.60649028 115.41426007 28.359375 126.02734375 C19.76701233 133.21135559 9.06147265 136.55180957 -2.0625 135.875 C-12.39768199 134.40554285 -20.17957093 129.93564552 -27 122 C-36.58992481 106.67168204 -37.03362748 85.55069964 -34 68 C-30.83487356 55.90277493 -24.27777389 44.78897376 -18.2388916 33.93719482 C-15.75663389 29.42967994 -13.39157968 24.85953599 -11.00527954 20.3007431 C-7.42115292 13.4837657 -3.70323618 6.75879503 0 0 Z " fill="#FB502A" transform="translate(34,74)"/>
<path d="M0 0 C20.79 0 41.58 0 63 0 C62.42826405 13.72166273 61.82882466 27.2776466 60.70050049 40.93618774 C59.72429571 52.81037413 58.91745106 64.64201555 58.7578125 76.55859375 C58.73693573 77.97884857 58.73693573 77.97884857 58.71563721 79.42779541 C58.65479742 83.98372575 58.6259279 88.53697025 58.64257812 93.09326172 C58.59418234 105.90417364 56.57933616 116.37879792 47.390625 126.0234375 C37.19076809 134.45665252 25.75203408 136.13619726 13 135 C9.56779807 134.17381659 6.93924874 132.93150631 4 131 C2.95972656 130.34644531 2.95972656 130.34644531 1.8984375 129.6796875 C-6.99841712 123.58184332 -12.03499553 115.05745494 -14.55908203 104.61962891 C-15.56932094 98.61748967 -15.53550436 92.51008869 -15.5625 86.4375 C-15.56645782 85.69113281 -15.57041565 84.94476563 -15.57449341 84.17578125 C-15.57429427 69.1625408 -12.79855207 55.6265085 -9.01416016 41.09179688 C-7.09896198 33.54345956 -5.65364295 25.88379306 -4.125 18.25 C-3.68239424 16.05225795 -3.23853775 13.85478595 -2.79231262 11.65777588 C-2.40750167 9.76224103 -2.02614203 7.86600647 -1.64501953 5.96972656 C-1 3 -1 3 0 0 Z " fill="#FB502B" transform="translate(161,74)"/>
<path d="M0 0 C20.46 0 40.92 0 62 0 C63.74127048 4.3531762 64.84387831 8.43733612 65.76953125 12.9921875 C65.93096115 13.7655394 66.09239105 14.5388913 66.25871277 15.3356781 C66.96358045 18.71950373 67.65547838 22.10593298 68.34692383 25.49252319 C68.88181309 28.11127715 69.41862302 30.72962356 69.95703125 33.34765625 C70.13251495 34.20189682 70.30799866 35.05613739 70.48880005 35.93626404 C71.41607688 40.39190872 72.42450305 44.79474736 73.63671875 49.18359375 C77.09013013 61.92271298 77.47031158 74.3087968 77.5 87.4375 C77.50467285 88.34666168 77.5093457 89.25582336 77.51416016 90.1925354 C77.51938242 92.81515166 77.49945743 95.43617324 77.46875 98.05859375 C77.46808533 99.23230026 77.46808533 99.23230026 77.46740723 100.42971802 C77.26273767 110.1853264 73.06939926 118.85226565 66.23046875 125.796875 C56.46319207 134.39378084 46.54621391 135.87929006 33.94677734 135.1953125 C29.73541181 134.77280279 26.49702778 133.29804683 23 131 C21.95972656 130.34644531 21.95972656 130.34644531 20.8984375 129.6796875 C12.0715053 123.62976768 7.06830492 115.19257475 4.46777344 104.8918457 C3.84519999 101.04300308 3.80402291 97.22479079 3.75390625 93.3359375 C3.72224978 91.57217984 3.69033783 89.80842675 3.65820312 88.04467773 C3.64281494 87.11968475 3.62742676 86.19469177 3.61157227 85.2416687 C3.34991915 69.95660311 2.90347928 54.69872041 2 39.4375 C1.95811554 38.71882751 1.91623108 38.00015503 1.87307739 37.25970459 C1.51154619 31.13020788 1.1406166 25.01167338 0.4375 18.91015625 C-0.12207162 12.629964 0 6.30507217 0 0 Z " fill="#FB502B" transform="translate(288,74)"/>
<path d="M0 0 C0.77256134 -0.00412399 1.54512268 -0.00824799 2.34109497 -0.01249695 C3.1740358 -0.00171112 4.00697662 0.00907471 4.86515808 0.02018738 C5.75346313 0.0197493 6.64176819 0.01931122 7.55699158 0.01885986 C10.48440253 0.0209449 13.41123621 0.04426264 16.33854675 0.0677948 C18.37163988 0.07339176 20.40473707 0.07766139 22.43783569 0.08065796 C27.78249836 0.0920988 33.1269155 0.12155959 38.47148132 0.1547699 C43.92778706 0.18548709 49.38413256 0.19916683 54.84049988 0.21427917 C65.54177948 0.24642988 76.24287705 0.29761718 86.9440155 0.36076355 C86.9440155 0.69076355 86.9440155 1.02076355 86.9440155 1.36076355 C70.4440155 1.36076355 53.9440155 1.36076355 36.9440155 1.36076355 C36.9440155 62.41076355 36.9440155 123.46076355 36.9440155 186.36076355 C21.7640155 186.36076355 6.5840155 186.36076355 -9.0559845 186.36076355 C-9.16875817 162.55233311 -9.2609025 138.74411818 -9.31504536 114.9354887 C-9.34085059 103.88126771 -9.37604543 92.82722417 -9.43318176 81.77311707 C-9.48294571 72.14076348 -9.51525862 62.50853838 -9.52642697 52.87605983 C-9.53295762 47.77348068 -9.54835452 42.67126917 -9.58463478 37.5688076 C-9.61848358 32.76958456 -9.62906003 27.97088181 -9.6215229 23.17155075 C-9.62290244 21.40703189 -9.63290108 19.64249627 -9.65201187 17.87808037 C-9.67677749 15.47437896 -9.67095188 13.07265907 -9.65725708 10.66891479 C-9.67182129 9.96560978 -9.68638549 9.26230477 -9.70139104 8.53768748 C-9.67122364 6.58788586 -9.67122364 6.58788586 -9.0559845 3.36076355 C-6.1594461 0.90790844 -3.76664372 -0.01562923 0 0 Z " fill="#01C6C8" transform="translate(76.05598449707031,251.6392364501953)"/>
<path d="M0 0 C17.16 0 34.32 0 52 0 C56.50021467 4.50021467 56.50021467 4.50021467 56.5146637 9.30674744 C56.52738815 10.38203201 56.54011261 11.45731659 56.55322266 12.56518555 C56.54669678 13.73984375 56.5401709 14.91450195 56.53344727 16.12475586 C56.54637062 17.98627037 56.54637062 17.98627037 56.55955505 19.88539124 C56.57837116 23.28654024 56.57910873 26.68671544 56.57023358 30.08784175 C56.56512239 32.92833347 56.57241734 35.76873784 56.57970566 38.60922056 C56.59670641 45.31109126 56.59313752 52.01273429 56.57641602 58.71459961 C56.55949561 65.6255581 56.57532699 72.53588493 56.6076389 79.44677442 C56.63434197 85.38323733 56.64160891 91.31950368 56.63312382 97.25602061 C56.62819639 100.80033387 56.6303994 104.34426712 56.65091133 107.88853264 C56.67269185 111.84122286 56.65386149 115.79315278 56.63110352 119.74584961 C56.64279572 120.91848358 56.65448792 122.09111755 56.66653442 123.29928589 C56.64755348 124.91644249 56.64755348 124.91644249 56.62818909 126.56626892 C56.62760278 127.5003807 56.62701647 128.43449247 56.62641239 129.39691067 C56 132 56 132 51 137 C34.17 137 17.34 137 0 137 C0 91.79 0 46.58 0 0 Z " fill="#0FB0C0" transform="translate(383,253)"/>
<path d="M0 0 C20.79 0 41.58 0 63 0 C66.27018229 8.9930013 69.54036458 17.9860026 72.81054688 26.97900391 C73.12930786 27.85535492 73.44806885 28.73170593 73.77648926 29.63461304 C74.43946143 31.45830183 75.1017533 33.282238 75.7635498 35.10635376 C77.59976083 40.16468092 79.44790096 45.21815259 81.31640625 50.26464844 C81.6880188 51.27304779 82.05963135 52.28144714 82.44250488 53.32040405 C83.15365937 55.24928801 83.86858468 57.17678704 84.58776855 59.10269165 C84.90491821 59.96518524 85.22206787 60.82767883 85.54882812 61.71630859 C85.82988403 62.47350189 86.11093994 63.23069519 86.4005127 64.01083374 C87 66 87 66 87 69 C51.36 69.495 51.36 69.495 15 70 C13.09179296 66.18358592 12.30867809 63.27166071 11.484375 59.12109375 C11.34792068 58.44459778 11.21146637 57.76810181 11.07087708 57.07110596 C10.62569106 54.86085466 10.18792538 52.64920016 9.75 50.4375 C9.13243663 47.35865781 8.51030483 44.28075252 7.88671875 41.203125 C7.73029404 40.42946091 7.57386932 39.65579681 7.41270447 38.85868835 C5.67469893 30.31286469 3.75402895 21.81010998 1.77832031 13.31616211 C1.54338867 12.2875708 1.30845703 11.25897949 1.06640625 10.19921875 C0.85959229 9.31065186 0.65277832 8.42208496 0.43969727 7.5065918 C0 5 0 5 0 0 Z " fill="#FEFEFD" transform="translate(351,74)"/>
<path d="M0 0 C20.79 0 41.58 0 63 0 C65.24942681 15.74598769 65.24942681 15.74598769 65.59765625 21.65625 C65.67693359 22.94660156 65.75621094 24.23695312 65.83789062 25.56640625 C65.91201172 26.86449219 65.98613281 28.16257812 66.0625 29.5 C66.2195844 32.11461147 66.3771337 34.72919506 66.53515625 37.34375 C66.61008301 38.61734375 66.68500977 39.8909375 66.76220703 41.203125 C67.06105863 45.97493209 67.42897595 50.74030229 67.81420898 55.50585938 C68.05306512 59.9979868 68 64.50152681 68 69 C32.36 69.495 32.36 69.495 -4 70 C-4 48.14990128 -4 48.14990128 -3.37890625 40.2734375 C-3.31468979 39.38943268 -3.25047333 38.50542786 -3.18431091 37.59463501 C-2.9834764 34.85423285 -2.77303754 32.11467153 -2.5625 29.375 C-2.42583688 27.51436655 -2.28976725 25.65368942 -2.15429688 23.79296875 C-2.02136851 21.99475202 -1.8879241 20.19657336 -1.75390625 18.3984375 C-1.6934462 17.58579437 -1.63298615 16.77315125 -1.57069397 15.93588257 C-1.48071388 14.76758408 -1.48071388 14.76758408 -1.38891602 13.57568359 C-1.33784195 12.9068515 -1.28676788 12.23801941 -1.23414612 11.54891968 C-0.87999232 7.69359381 -0.42754207 3.84787867 0 0 Z " fill="#FEFEFE" transform="translate(224,74)"/>
<path d="M0 0 C20.79 0 41.58 0 63 0 C61.82106181 7.07362916 60.64148668 14.0912128 59.1953125 21.10546875 C59.03006073 21.91381668 58.86480896 22.72216461 58.69454956 23.55500793 C58.34775281 25.24824068 57.99985646 26.94124858 57.65087891 28.6340332 C57.12966874 31.16483037 56.61342937 33.69660552 56.09765625 36.22851562 C54.42494536 44.39880509 52.68912917 52.55147117 50.8046875 60.67578125 C50.63824738 61.40178024 50.47180725 62.12777924 50.30032349 62.8757782 C49.12022882 67.87977118 49.12022882 67.87977118 48 69 C45.76142644 69.12411582 43.51894516 69.17803023 41.27709961 69.20532227 C40.5746965 69.21522186 39.8722934 69.22512146 39.14860535 69.23532104 C36.81655296 69.26702122 34.48448016 69.29172688 32.15234375 69.31640625 C30.53950965 69.33696844 28.92668104 69.35796471 27.31385803 69.37937927 C23.06090725 69.43467592 18.80790723 69.48405156 14.55487061 69.53222656 C10.21817625 69.58238631 5.88155373 69.63810115 1.54492188 69.69335938 C-6.96999141 69.80103375 -15.48496465 69.90245795 -24 70 C-23.45234154 65.49384388 -22.6313019 61.44587652 -21.09814453 57.17578125 C-20.7074881 56.0777417 -20.31683167 54.97970215 -19.91433716 53.84838867 C-19.49143402 52.68154541 -19.06853088 51.51470215 -18.6328125 50.3125 C-18.19742157 49.09602783 -17.76203064 47.87955566 -17.31344604 46.6262207 C-16.39448923 44.05955936 -15.47122386 41.49450705 -14.54443359 38.93066406 C-13.36274732 35.66150824 -12.18875439 32.38965995 -11.01761055 29.11671448 C-9.89213486 25.97263811 -8.76251773 22.83005933 -7.6328125 19.6875 C-7.00453049 17.93723511 -7.00453049 17.93723511 -6.36355591 16.15161133 C-5.96659515 15.05357178 -5.5696344 13.95553223 -5.16064453 12.82421875 C-4.81502472 11.86604248 -4.46940491 10.90786621 -4.11331177 9.9206543 C-2.83821593 6.57557681 -1.41017678 3.29041248 0 0 Z " fill="#FEFEFE" transform="translate(98,74)"/>
<path d="M0 0 C0.07481328 4.94381496 0.12891154 9.88729189 0.16479492 14.83154297 C0.17977234 16.50933583 0.20016154 18.18709028 0.22631836 19.86474609 C0.44714427 34.404617 -0.54344989 45.79781859 -10.81640625 56.9765625 C-18.11838744 63.90975676 -26.96589747 67.10436659 -37 67 C-47.79346997 66.31906968 -56.78614125 62.70545163 -64.375 54.875 C-73.33081984 43.49808861 -73.66530878 32.58276695 -73.3125 18.75 C-73.28736259 17.02216802 -73.26455911 15.29430044 -73.24414062 13.56640625 C-73.18962869 9.37670837 -73.10366634 5.18875802 -73 1 C-48.65878528 0.17776509 -24.35447815 -0.13679926 0 0 Z " fill="#E60D28" transform="translate(512,143)"/>
<path d="M0 0 C24.35447815 -0.13679926 48.65878528 0.17776509 73 1 C73.12496991 6.04955333 73.21497363 11.09817809 73.2746582 16.14892578 C73.29957583 17.86165069 73.33352329 19.57427181 73.37719727 21.28662109 C73.69902471 34.24301519 72.65404504 44.24852941 64.4375 54.875 C57.1657462 62.40645929 47.35103467 66.28350717 37 67 C25.94853451 67.11810726 17.23140363 63.21380755 9.26953125 55.640625 C2.04462425 47.23436488 -0.17087166 38.44109949 -0.09765625 27.63671875 C-0.0962413 26.84473587 -0.09482635 26.05275299 -0.09336853 25.23677063 C-0.08779457 22.72030781 -0.07524693 20.20393569 -0.0625 17.6875 C-0.05748163 15.97591275 -0.05291931 14.26432409 -0.04882812 12.55273438 C-0.03783368 8.36845492 -0.02058707 4.18424281 0 0 Z " fill="#E60D28" transform="translate(0,143)"/>
<path d="M0 0 C23.76 0 47.52 0 72 0 C72.061875 5.94 72.12375 11.88 72.1875 18 C72.22846802 20.78824219 72.22846802 20.78824219 72.27026367 23.6328125 C72.27903744 25.13020176 72.28667926 26.62759825 72.29296875 28.125 C72.3159906 29.26195312 72.3159906 29.26195312 72.33947754 30.421875 C72.34420072 40.19571061 68.06541554 48.85631093 61.23046875 55.796875 C51.46319207 64.39378084 41.54621391 65.87929006 28.94677734 65.1953125 C24.73541181 64.77280279 21.49702778 63.29804683 18 61 C17.30648438 60.56429687 16.61296875 60.12859375 15.8984375 59.6796875 C7.88880356 54.18993839 2.34002487 46.45020876 0 37 C-0.63945848 30.65317556 -0.37594861 24.24097756 -0.25 17.875 C-0.1675 11.97625 -0.085 6.0775 0 0 Z " fill="#E60D28" transform="translate(293,144)"/>
<path d="M0 0 C23.76 0 47.52 0 72 0 C72.103125 5.8575 72.20625 11.715 72.3125 17.75 C72.35802002 19.57241211 72.40354004 21.39482422 72.45043945 23.27246094 C72.63677829 36.06069266 70.53951433 46.42059565 61.390625 56.0234375 C51.19076809 64.45665252 39.75203408 66.13619726 27 65 C23.56779807 64.17381659 20.93924874 62.93150631 18 61 C17.30648437 60.56429687 16.61296875 60.12859375 15.8984375 59.6796875 C7.53444859 53.94706589 3.15299483 46.45898448 0 37 C-0.08518148 34.19597219 -0.11596128 31.41683278 -0.09765625 28.61328125 C-0.09664917 27.88894897 -0.09564209 27.1646167 -0.09460449 26.41833496 C-0.08937826 23.71637384 -0.07541698 21.0144353 -0.0625 18.3125 C-0.041875 12.269375 -0.02125 6.22625 0 0 Z " fill="#E60D28" transform="translate(147,144)"/>
<path d="M0 0 C7.02986961 -0.09186037 14.05765474 -0.17149334 21.08764648 -0.21972656 C23.47866881 -0.23983418 25.86964201 -0.2671243 28.26049805 -0.30175781 C31.69852831 -0.35031151 35.13590804 -0.37297774 38.57421875 -0.390625 C39.64210129 -0.41127014 40.70998383 -0.43191528 41.81022644 -0.45318604 C49.24432477 -0.45543057 49.24432477 -0.45543057 53.15161133 1.89941406 C56.7612045 6.00150621 56.12815961 9.94678761 56.09765625 15.1640625 C56.09664917 15.96803467 56.09564209 16.77200684 56.09460449 17.6003418 C56.08936564 20.60857567 56.0754044 23.61678924 56.0625 26.625 C56.041875 33.34875 56.02125 40.0725 56 47 C37.52 47 19.04 47 0 47 C0 31.49 0 15.98 0 0 Z " fill="#FCA629" transform="translate(421,27)"/>
<path d="M0 0 C1.48790039 -0.04350586 1.48790039 -0.04350586 3.00585938 -0.08789062 C9.30755495 -0.14225164 14.07885624 0.6455749 19.3125 4.3125 C23.97641697 9.2155922 24.47008865 13.22379133 24.48046875 19.75390625 C24.48546135 20.83912819 24.48546135 20.83912819 24.49055481 21.9462738 C24.49561173 23.4735348 24.49796352 25.00080681 24.49780273 26.52807617 C24.49999514 28.86981214 24.51817948 31.21108137 24.53710938 33.55273438 C24.54004232 35.03645672 24.54202778 36.5201813 24.54296875 38.00390625 C24.55015427 38.70600723 24.55733978 39.40810822 24.56474304 40.13148499 C24.54133364 45.08366636 24.54133364 45.08366636 22.3125 47.3125 C20.02194214 47.55300903 20.02194214 47.55300903 17.12841797 47.53955078 C16.04744843 47.53939972 14.96647888 47.53924866 13.85275269 47.53909302 C12.68189117 47.52877045 11.51102966 47.51844788 10.3046875 47.5078125 C9.10893097 47.5049826 7.91317444 47.50215271 6.68118286 47.49923706 C2.84985481 47.48801305 -0.98124222 47.46290431 -4.8125 47.4375 C-7.40494455 47.42747308 -9.99739275 47.41834673 -12.58984375 47.41015625 C-18.95589048 47.38976533 -25.32143566 47.35062015 -31.6875 47.3125 C-31.6875 32.1325 -31.6875 16.9525 -31.6875 1.3125 C-8.36931818 0.08522727 -8.36931818 0.08522727 0 0 Z " fill="#706F7F" transform="translate(487.6875,437.6875)"/>
<path d="M0 0 C0.66 -0.00128906 1.32 -0.00257813 2 -0.00390625 C5.11129965 0.87722353 6.14496841 1.8812098 8 4.5625 C8.64329085 7.88324069 8.64922272 11.12577488 8.625 14.5 C8.65722656 15.39396484 8.68945312 16.28792969 8.72265625 17.20898438 C8.73208051 23.55622411 8.73208051 23.55622411 6.73217773 26.30517578 C4.03653413 28.68223191 2.43199037 29.5625 -1.1875 29.5625 C-3.99964669 28.56262562 -5.25986102 27.94374281 -7 25.5625 C-8.26740158 21.76029525 -8.26228356 18.15125078 -8.3125 14.1875 C-8.35600586 13.05441406 -8.35600586 13.05441406 -8.40039062 11.8984375 C-8.44466216 8.00254249 -8.25281183 5.99166622 -6.23046875 2.55859375 C-3.88471753 0.45933127 -3.08265268 -0.1023537 0 0 Z " fill="#F5FBFC" transform="translate(140,328.4375)"/>
</svg>
