<?xml version="1.0" encoding="UTF-8"?>
<svg version="1.1" xmlns="http://www.w3.org/2000/svg" width="512" height="512">
<path d="M0 0 C1.2370166 0.00491455 2.4740332 0.0098291 3.74853516 0.01489258 C12.61590012 0.12860665 20.71384068 0.75372409 29.25 3.3125 C30.3740625 3.64121094 31.498125 3.96992187 32.65625 4.30859375 C46.45426563 8.79916415 59.39366658 15.66026796 70.25 25.3125 C71.34634766 26.19615234 71.34634766 26.19615234 72.46484375 27.09765625 C88.91389601 40.71365557 100.11204805 60.76069218 105.25 81.3125 C130 81.6425 154.75 81.9725 180.25 82.3125 C186.0078125 99.20703125 186.0078125 99.20703125 188.03277588 105.14956665 C191.64700974 115.74381187 195.29044922 126.32738452 198.96777344 136.89990234 C202.76776146 147.82556858 206.53073882 158.76339244 210.26218796 169.71265984 C212.41189223 176.01560764 214.57805422 182.31191263 216.78369141 188.59545898 C238.70043102 251.09992795 238.70043102 251.09992795 229.25 279.3125 C224.94385882 286.86985944 218.32378149 293.00958939 210.25 296.3125 C209.26 296.3125 208.27 296.3125 207.25 296.3125 C207.25 335.2525 207.25 374.1925 207.25 414.3125 C208.9 414.6425 210.55 414.9725 212.25 415.3125 C216.94491072 417.74568851 220.89028949 420.58153262 224 424.875 C227.41525129 429.22515249 231.98519597 430.29668459 237.05859375 432.0859375 C245.78045762 435.43803696 250.15785621 441.0891155 254.25 449.3125 C262.05313327 468.82033318 256.25 491.30192065 256.25 512.3125 C87.29 512.3125 -81.67 512.3125 -255.75 512.3125 C-255.75 449.77195946 -255.75 449.77195946 -247.4375 439.4375 C-237.58346826 431.64594002 -237.58346826 431.64594002 -231.1875 430 C-226.19853042 428.55605213 -223.99925694 425.47215832 -220.80078125 421.54296875 C-217.68987109 418.15948361 -214.01574392 415.98682552 -209.75 414.3125 C-208.76 414.3125 -207.77 414.3125 -206.75 414.3125 C-206.75 375.3725 -206.75 336.4325 -206.75 296.3125 C-208.73 295.9825 -210.71 295.6525 -212.75 295.3125 C-220.58183502 291.0818452 -227.38044994 283.80750206 -230.2421875 275.3671875 C-236.48804478 250.09548804 -229.78906067 227.10863617 -221.48454785 203.44139385 C-220.02524365 199.25092682 -218.6187455 195.04275839 -217.20579529 190.83648682 C-214.53752038 182.91877006 -211.82364884 175.0175312 -209.09202951 167.12147546 C-205.98074393 158.12008853 -202.92409971 149.10044336 -199.87058747 140.07932806 C-195.3738168 126.79898015 -190.85628325 113.52581198 -186.2895813 100.26933479 C-185.79773563 98.8415737 -185.30631773 97.41366517 -184.81535149 95.98560143 C-184.14720623 94.04308622 -183.47687163 92.10132446 -182.80641174 90.15960693 C-182.431242 89.07214046 -182.05607225 87.984674 -181.66953373 86.864254 C-180.75 84.3125 -180.75 84.3125 -179.75 82.3125 C-155 81.9825 -130.25 81.6525 -104.75 81.3125 C-102.275 73.8875 -102.275 73.8875 -99.75 66.3125 C-98.55603816 63.49018778 -97.39578086 60.82805778 -96 58.125 C-95.66347412 57.46483887 -95.32694824 56.80467773 -94.98022461 56.12451172 C-91.57841219 49.6586444 -87.4130658 43.93229826 -82.75 38.3125 C-82.06421875 37.46300781 -81.3784375 36.61351562 -80.671875 35.73828125 C-60.64944385 12.11922821 -30.58112282 -0.14356358 0 0 Z " fill="#020101" transform="translate(255.75,-0.3125)"/>
<path d="M0 0 C0.54527344 0.38671875 1.09054688 0.7734375 1.65234375 1.171875 C11.98864172 8.31010471 20.08312496 11.79032662 33 10 C38.21277355 8.13996111 42.82647732 5.67430369 47.2109375 2.296875 C49 1 49 1 50.9375 1.0625 C53 2 53 2 55.1875 3.8125 C63.05556818 9.93210859 71.24467982 11.2484165 81.02832031 10.33105469 C88.36813307 9.09866414 94.40516116 4.63716373 100 0 C100.825 0.7425 101.65 1.485 102.5 2.25 C110.58149835 9.00697724 119.53372442 11.10362155 129.93066406 10.33447266 C137.27872658 9.1467844 144.27435761 4.5275761 150 0 C150.40089844 0.38671875 150.80179688 0.7734375 151.21484375 1.171875 C158.77286774 8.09577906 165.61837871 10.6451731 175.89501953 10.61987305 C182.76322537 10.31341555 188.33030149 7.86442137 194 4 C194.51949219 3.41863281 195.03898438 2.83726562 195.57421875 2.23828125 C197 1 197 1 198.9140625 1.12890625 C202.1344121 2.47373389 204.76462418 4.49859018 207.5859375 6.52734375 C214.86176466 10.96583378 222.73370497 10.71501708 231 10 C236.62846284 8.45773758 241.27631398 5.37406144 246 2 C247.485 1.01 247.485 1.01 249 0 C249.40089844 0.38671875 249.80179687 0.7734375 250.21484375 1.171875 C257.77286774 8.09577906 264.61837871 10.6451731 274.89501953 10.61987305 C281.76322537 10.31341555 287.33030149 7.86442137 293 4 C293.51949219 3.41863281 294.03898437 2.83726562 294.57421875 2.23828125 C296 1 296 1 297.9140625 1.12890625 C301.1344121 2.47373389 303.76462418 4.49859018 306.5859375 6.52734375 C313.86176466 10.96583378 321.73370497 10.71501708 330 10 C335.62846284 8.45773758 340.27631398 5.37406144 345 2 C346.485 1.01 346.485 1.01 348 0 C348.40089844 0.38671875 348.80179687 0.7734375 349.21484375 1.171875 C350.06755859 1.95304687 350.06755859 1.95304687 350.9375 2.75 C351.75541016 3.51570313 351.75541016 3.51570313 352.58984375 4.296875 C356.0623617 6.75071264 360.11445223 8.27308988 364 10 C364 47.29 364 84.58 364 123 C358.06 121.515 358.06 121.515 352 120 C343.72812346 119.39474074 335.94815714 120.14388633 329.0625 125.125 C325.81336729 127.11426492 324.39405273 127.28438336 320.6875 127.5 C312.70512303 127.9669962 307.05394842 130.86331649 301 136 C300.34 136 299.68 136 299 136 C298.731875 136.5775 298.46375 137.155 298.1875 137.75 C295.11651341 143.56871142 295.11651341 143.56871142 291.8359375 144.8359375 C291.02382813 145.01382813 290.21171875 145.19171875 289.375 145.375 C280.72414096 147.74578936 275.06107364 151.98197957 270.2890625 159.55859375 C266.75054832 166.26032516 265.54431892 171.10430432 265.48828125 178.65234375 C265.47033005 179.55247696 265.45237885 180.45261017 265.43388367 181.38002014 C265.38004755 184.23246691 265.34597112 187.08474893 265.3125 189.9375 C265.27930332 191.88088217 265.2448115 193.82424267 265.20898438 195.76757812 C265.12433659 200.51159936 265.05739864 205.255574 265 210 C259.39 210 253.78 210 248 210 C248 149.94 248 89.88 248 28 C199.16 28 150.32 28 100 28 C100 88.06 100 148.12 100 210 C94.39 210 88.78 210 83 210 C83.00902344 207.20273437 83.01804687 204.40546875 83.02734375 201.5234375 C83.01225922 198.76612525 82.9853092 196.00916071 82.95727539 193.25195312 C82.94426439 191.35909408 82.94328156 189.46610765 82.95532227 187.57324219 C83.02309851 175.37351903 82.52180372 165.10249519 75 155 C72.01110715 152.15034957 68.86726292 149.65779478 65.125 147.875 C64.45210938 147.55144531 63.77921875 147.22789062 63.0859375 146.89453125 C61.00054564 146.00023399 58.90216774 145.27855581 56.75 144.5625 C53.00008601 143.21902688 51.12062252 141.44601159 49 138 C49 137.34 49 136.68 49 136 C48.14728516 135.58234375 48.14728516 135.58234375 47.27734375 135.15625 C45.79163838 134.4019296 44.32362946 133.6113672 42.87890625 132.78125 C38.10107035 130.1385347 34.06562674 128.69604237 28.625 128.0625 C22.52172709 127.3266444 17.98878907 125.33573452 12.65625 122.33984375 C8.2614019 120.12303067 4.1232708 119.8273535 -0.75 119.75 C-1.71421875 119.72421875 -2.6784375 119.6984375 -3.671875 119.671875 C-8.04473573 119.97887674 -8.04473573 119.97887674 -16 123 C-16 85.71 -16 48.42 -16 10 C-12.04 8.02 -8.08 6.04 -4 4 C-2.68 2.68 -1.36 1.36 0 0 Z " fill="#EAEAEA" transform="translate(82,286)"/>
<path d="M0 0 C38.28 0 76.56 0 116 0 C116 54.78 116 109.56 116 166 C77.72 166 39.44 166 0 166 C0 111.22 0 56.44 0 0 Z " fill="#E9BC8B" transform="translate(198,330)"/>
<path d="M0 0 C1.545511 1.28706435 3.08725071 2.5786721 4.625 3.875 C5.84123047 4.78765625 5.84123047 4.78765625 7.08203125 5.71875 C19.78200376 16.48739029 28.59471168 33.02642659 32.625 48.875 C32.92277344 49.84179688 33.22054687 50.80859375 33.52734375 51.8046875 C39.88036179 74.34765475 34.56173936 97.43018666 23.55859375 117.55859375 C21.18012509 121.63802788 18.72443915 125.31777443 15.625 128.875 C14.95855469 129.67164063 14.29210937 130.46828125 13.60546875 131.2890625 C8.52774239 137.17602371 3.08488633 142.50328108 -3.375 146.875 C-4.035 146.875 -4.695 146.875 -5.375 146.875 C-5.375 129.715 -5.375 112.555 -5.375 94.875 C-2.405 93.555 0.565 92.235 3.625 90.875 C10.61125009 86.54104195 15.57011767 79.84692389 17.625 71.875 C18.73392975 63.52146716 18.51204311 55.03470504 18.5 46.625 C18.51814992 44.31898773 18.53895975 42.01299479 18.5625 39.70703125 C18.61404013 34.09610757 18.62945228 28.48614722 18.625 22.875 C13.345 22.875 8.065 22.875 2.625 22.875 C2.64594727 24.16599609 2.66689453 25.45699219 2.68847656 26.78710938 C2.76118646 31.60275059 2.80691225 36.41834381 2.84472656 41.234375 C2.86477159 43.31388525 2.89201513 45.39333963 2.92675781 47.47265625 C2.97558948 50.47149487 2.99804028 53.46958463 3.015625 56.46875 C3.03627014 57.38990601 3.05691528 58.31106201 3.07818604 59.26013184 C3.08019047 65.1005064 2.35159095 70.17329259 -1.375 74.875 C-3.355 75.865 -3.355 75.865 -5.375 76.875 C-5.375 59.055 -5.375 41.235 -5.375 22.875 C-10.985 22.875 -16.595 22.875 -22.375 22.875 C-22.375 41.025 -22.375 59.175 -22.375 77.875 C-26.88168935 75.62165533 -28.70485995 73.50438088 -30.375 68.875 C-30.8864329 65.27986044 -30.8427777 61.75412325 -30.765625 58.12890625 C-30.75996521 57.11779282 -30.75430542 56.10667938 -30.74847412 55.06492615 C-30.72619521 51.85528977 -30.67601377 48.64679541 -30.625 45.4375 C-30.60492407 43.2532714 -30.58667522 41.0690252 -30.5703125 38.88476562 C-30.52635807 33.54774124 -30.45738861 28.21156384 -30.375 22.875 C-35.985 22.875 -41.595 22.875 -47.375 22.875 C-47.30564564 28.94024961 -47.21745191 35.00484095 -47.11254883 41.06958008 C-47.07950027 43.12842443 -47.05140735 45.18735502 -47.02856445 47.24633789 C-47.16401649 68.55439668 -47.16401649 68.55439668 -37.375 86.875 C-32.6456984 90.83882169 -28.11282312 93.57987075 -22.375 95.875 C-22.375 116.005 -22.375 136.135 -22.375 156.875 C-44.0860361 164.76992222 -65.45939072 165.37697624 -87.375 157.875 C-88.375 156.875 -88.375 156.875 -88.49525452 154.43894958 C-88.49303391 153.35751175 -88.49081329 152.27607391 -88.48852539 151.16186523 C-88.48844986 149.9406749 -88.48837433 148.71948456 -88.48829651 147.46128845 C-88.48318911 146.11872314 -88.47797311 144.77615825 -88.47265625 143.43359375 C-88.47079199 142.06738842 -88.46936813 140.70118243 -88.46836853 139.3349762 C-88.46454394 135.73298305 -88.45471417 132.13103 -88.44366455 128.52905273 C-88.43344916 124.85596255 -88.42887064 121.18286591 -88.42382812 117.50976562 C-88.41309184 110.29815877 -88.39601614 103.086585 -88.375 95.875 C-87.47789307 95.40811768 -86.58078613 94.94123535 -85.65649414 94.46020508 C-84.47006076 93.83443918 -83.28378999 93.20836493 -82.09765625 92.58203125 C-80.93242432 91.97077393 -79.76719238 91.3595166 -78.56665039 90.72973633 C-74.44174187 88.33266373 -71.81326836 85.94432843 -69.375 81.875 C-68.76205078 80.85212891 -68.76205078 80.85212891 -68.13671875 79.80859375 C-63.17900198 69.73982877 -64.1806797 56.36490738 -67.2734375 45.84375 C-71.35049896 34.85592479 -76.73657 23.4259432 -87.25 17.3125 C-93.00832621 14.84626206 -99.36612527 14.8344156 -105.1875 17.125 C-110.94124489 20.28391877 -114.48365132 23.96514942 -117.9375 29.5 C-118.32881104 30.11955566 -118.72012207 30.73911133 -119.12329102 31.37744141 C-126.73301767 43.7028081 -130.36329564 57.41652198 -128.375 71.875 C-125.92851468 79.72813081 -121.70049503 85.70917906 -115.375 90.875 C-112.075 92.525 -108.775 94.175 -105.375 95.875 C-105.375 112.705 -105.375 129.535 -105.375 146.875 C-109.93804573 145.04978171 -112.65460236 143.20017052 -116.125 139.9375 C-116.64868164 139.44733398 -117.17236328 138.95716797 -117.71191406 138.45214844 C-131.41987551 125.37982156 -139.25001691 110.95762264 -143.87158203 92.7644043 C-144.34249798 90.99698502 -144.91021647 89.25615864 -145.484375 87.51953125 C-150.25137135 68.0124804 -145.04865059 45.13806918 -135.375 27.875 C-121.91299455 6.19943977 -102.45548339 -9.39129018 -77.7890625 -16.58203125 C-51.16848273 -22.56950793 -21.45730596 -17.08343857 0 0 Z " fill="#FCE7A5" transform="translate(311.375,35.125)"/>
<path d="M0 0 C21.78 0 43.56 0 66 0 C66 21.78 66 43.56 66 66 C44.22 66 22.44 66 0 66 C0 44.22 0 22.44 0 0 Z " fill="#000000" transform="translate(355,322)"/>
<path d="M0 0 C21.78 0 43.56 0 66 0 C66 21.78 66 43.56 66 66 C44.22 66 22.44 66 0 66 C0 44.22 0 22.44 0 0 Z " fill="#000000" transform="translate(91,322)"/>
<path d="M0 0 C8.25 0 16.5 0 25 0 C28.92237719 15.8906563 32.49372012 31.81582415 35.88461304 47.82629395 C38.70448103 61.12556032 41.66073536 74.3857833 44.75 87.625 C47.28632165 98.5015016 49.78647606 109.37783549 52.0625 120.3125 C52.26649414 121.29105957 52.47048828 122.26961914 52.68066406 123.27783203 C54 129.72356067 54 129.72356067 54 132 C43.44 132 32.88 132 22 132 C19.74993752 122.99975009 19.74993752 122.99975009 19.00021362 118.46452332 C18.82918121 117.43974884 18.6581488 116.41497437 18.48193359 115.35914612 C18.30210937 114.2611821 18.12228516 113.16321808 17.93701172 112.03198242 C17.74164825 110.85545105 17.54628479 109.67891968 17.34500122 108.46673584 C16.81375687 105.26296375 16.28544754 102.05872553 15.75863028 98.85422301 C15.20552604 95.49339696 14.64903944 92.13313077 14.0930481 88.77278137 C13.16112505 83.13706703 12.23185135 77.50092077 11.30419922 71.86450195 C10.23174233 65.34843499 9.15520997 58.83305134 8.07648647 52.31801909 C7.03732743 46.04143236 6.00089697 39.7643981 4.96576309 33.48714638 C4.52564143 30.81841122 4.0845872 28.14983267 3.64278793 25.48137474 C3.02755579 21.76165046 2.41543967 18.04142692 1.80419922 14.32104492 C1.62032654 13.21295975 1.43645386 12.10487457 1.24700928 10.96321106 C1.08161652 9.95253571 0.91622375 8.94186035 0.74581909 7.90055847 C0.60092985 7.02141879 0.45604061 6.14227911 0.30676079 5.23649883 C0 3 0 3 0 0 Z " fill="#F85866" transform="translate(365,99)"/>
<path d="M0 0 C8.25 0 16.5 0 25 0 C22.89710694 15.95876004 20.46123296 31.82819781 17.8046875 47.703125 C17.40761776 50.08824579 17.01074039 52.4733986 16.61404419 54.85858154 C15.79085815 59.80353505 14.96537561 64.7480979 14.13818359 69.69238281 C13.07675386 76.0379269 12.02126102 82.38444242 10.96742058 88.73125076 C10.15308953 93.6316412 9.33568987 98.53151587 8.5173378 103.43123627 C8.12644316 105.77393469 7.73651312 108.11679428 7.34756088 110.45981598 C6.80758969 113.70974549 6.26349726 116.95895795 5.71826172 120.20800781 C5.47825439 121.66019714 5.47825439 121.66019714 5.23339844 123.14172363 C5.08490448 124.02140808 4.93641052 124.90109253 4.78341675 125.80743408 C4.65549681 126.57344563 4.52757687 127.33945717 4.39578056 128.12868118 C4 130 4 130 3 132 C-7.56 132 -18.12 132 -29 132 C-27.15579948 121.04498496 -25.00961355 110.25742978 -22.44207764 99.45187378 C-18.89056908 84.48764158 -15.56070865 69.48349491 -12.375 54.4375 C-8.51654761 36.23051937 -4.5144001 18.05760039 0 0 Z " fill="#F85866" transform="translate(122,99)"/>
<path d="M0 0 C3.42052347 1.71026173 5.34112961 3.16806228 7.6953125 6.140625 C11.7127978 9.38185043 16.3499872 8.06573228 21.2734375 7.75 C25.72070081 8.0483489 27.60408465 9.17334214 31 12 C32.6796875 14 32.6796875 14 33.875 16 C34.28492188 16.66 34.69484375 17.32 35.1171875 18 C36 20 36 20 36 24 C36.79664063 23.96519531 37.59328125 23.93039062 38.4140625 23.89453125 C49.37322205 23.61455272 49.37322205 23.61455272 54 27 C58.71316237 31.60842542 59.00823496 33.05764474 60 40 C16.77 40 -26.46 40 -71 40 C-71 33.76131024 -70.84101524 32.53042823 -67 28 C-62.39427519 24.44975379 -59.66312768 23.89633217 -53.875 23.875 C-50.77210079 23.84361809 -50.77210079 23.84361809 -48 23 C-46.07554136 20.59112386 -45.11505215 18.32476308 -44.015625 15.453125 C-42.40345508 11.55911458 -39.65187856 9.82593928 -36 8 C-33.60343665 8.1101202 -31.20766926 8.23786296 -28.8125 8.375 C-24.97671071 8.49835338 -21.89304386 8.54794016 -18.5234375 6.48046875 C-16.8513141 4.73363345 -15.43113814 2.94392379 -14 1 C-9.81880486 -1.09059757 -4.55316867 -0.43505407 0 0 Z " fill="#91DEBE" transform="translate(435,422)"/>
<path d="M0 0 C4.54615693 0.93335903 7.10211548 2.78004273 10.14453125 6.2578125 C12.66159208 8.90914879 12.66159208 8.90914879 16.35546875 8.921875 C17.63550781 8.82777344 18.91554688 8.73367188 20.234375 8.63671875 C26.2218569 8.20774679 29.13339886 8.67900313 33.796875 12.57421875 C35.44140625 14.609375 35.44140625 14.609375 36.609375 16.63671875 C37.00769531 17.30832031 37.40601562 17.97992188 37.81640625 18.671875 C38.796875 20.57421875 38.796875 20.57421875 39.796875 23.57421875 C40.52132812 23.61160156 41.24578125 23.64898437 41.9921875 23.6875 C50.75679615 24.28349339 55.75011336 26.02278094 61.6953125 32.5625 C62.796875 34.57421875 62.796875 34.57421875 62.796875 40.57421875 C19.566875 40.57421875 -23.663125 40.57421875 -68.203125 40.57421875 C-67.07267162 32.6610451 -67.07267162 32.6610451 -64.390625 29.76171875 C-63.88917969 29.19839844 -63.38773438 28.63507813 -62.87109375 28.0546875 C-58.89045144 24.52151786 -55.71888487 24.34390355 -50.453125 24.44921875 C-49.28265625 24.46726562 -48.1121875 24.4853125 -46.90625 24.50390625 C-46.01421875 24.52710938 -45.1221875 24.5503125 -44.203125 24.57421875 C-44.00783203 23.18589844 -44.00783203 23.18589844 -43.80859375 21.76953125 C-42.84196863 16.66824512 -40.49908805 13.63283973 -36.515625 10.37890625 C-32.50656443 8.19472467 -30.38702406 8.39465622 -25.890625 8.82421875 C-21.93503306 9.0549496 -19.02794322 9.1442766 -15.6484375 6.80859375 C-14.2428868 5.33611206 -12.84550691 3.85578095 -11.45703125 2.3671875 C-7.846494 -0.50497298 -4.4581053 -0.17101198 0 0 Z " fill="#91DEBE" transform="translate(85.203125,421.42578125)"/>
<path d="M0 0 C5.61 0 11.22 0 17 0 C22.61177866 16.76593884 28.21880507 33.53345686 33.81951141 50.30309772 C36.42003753 58.08919621 39.02225026 65.87472342 41.62841797 73.65893555 C43.89950532 80.44232962 46.16744446 87.22676653 48.43158293 94.0124833 C49.63093206 97.60661406 50.83186899 101.20019676 52.03657532 104.79253578 C53.16984884 108.17203246 54.2989156 111.55290481 55.42473793 114.93489075 C56.03718719 116.77101641 56.65411787 118.60564535 57.27116394 120.44023132 C57.63297256 121.52978119 57.99478119 122.61933105 58.36755371 123.74189758 C58.84319889 125.16468505 58.84319889 125.16468505 59.32845306 126.61621571 C60 129 60 129 60 132 C49.77 132 39.54 132 29 132 C26.07856317 121.44343725 23.60618561 110.86956261 21.36663818 100.14962769 C18.20623785 85.03808248 14.88793118 69.97082919 11.375 54.9375 C8.44917069 42.39823153 5.616819 29.8444089 2.9375 17.25 C2.70906403 16.18324539 2.70906403 16.18324539 2.47601318 15.09494019 C2.05201726 13.11093568 1.63329086 11.12580721 1.21484375 9.140625 C0.97886475 8.02204102 0.74288574 6.90345703 0.49975586 5.75097656 C0 3 0 3 0 0 Z " fill="#F75766" transform="translate(407,99)"/>
<path d="M0 0 C5.61 0 11.22 0 17 0 C15.36146009 10.52611765 13.18356773 20.90345554 10.9375 31.3125 C10.74125031 32.22606262 10.54500061 33.13962524 10.34280396 34.08087158 C7.14181363 48.97091499 3.782145 63.82039013 0.32397461 78.65258789 C-2.72144402 91.7214181 -5.64866052 104.81449406 -8.52563477 117.92138672 C-8.6853627 118.64645416 -8.84509064 119.37152161 -9.00965881 120.11856079 C-9.43942179 122.0699564 -9.86724303 124.02177937 -10.29492188 125.97363281 C-11 129 -11 129 -12 132 C-22.23 132 -32.46 132 -43 132 C-40.75 121.875 -40.75 121.875 -39.20297241 117.24815369 C-38.85524277 116.20084076 -38.50751312 115.15352783 -38.14924622 114.07447815 C-37.77305649 112.95669479 -37.39686676 111.83891144 -37.00927734 110.68725586 C-36.40899467 108.88575073 -36.40899467 108.88575073 -35.79658508 107.04785156 C-34.70778766 103.7806045 -33.61348138 100.5152273 -32.51811934 97.25017619 C-31.37110582 93.82798918 -30.22924693 90.40408304 -29.08682251 86.98036194 C-26.92658763 80.50895238 -24.76177209 74.03908504 -22.59527552 67.56976944 C-20.12736943 60.19967439 -17.66462207 52.827859 -15.2022903 45.45590007 C-10.14056709 30.30202198 -5.07223999 15.15036143 0 0 Z " fill="#F75766" transform="translate(88,99)"/>
<path d="M0 0 C38.28 0 76.56 0 116 0 C116 54.78 116 109.56 116 166 C77.72 166 39.44 166 0 166 C0 111.22 0 56.44 0 0 Z M1 1 C1 49.84 1 98.68 1 149 C38.62 149 76.24 149 115 149 C115 100.16 115 51.32 115 1 C77.38 1 39.76 1 1 1 Z " fill="#C79969" transform="translate(198,330)"/>
<path d="M0 0 C43.23 0 86.46 0 131 0 C131 5.28 131 10.56 131 16 C87.77 16 44.54 16 0 16 C0 10.72 0 5.44 0 0 Z " fill="#D3A06C" transform="translate(364,479)"/>
<path d="M0 0 C43.23 0 86.46 0 131 0 C131 5.28 131 10.56 131 16 C87.77 16 44.54 16 0 16 C0 10.72 0 5.44 0 0 Z " fill="#D3A06C" transform="translate(17,479)"/>
<path d="M0 0 C2.74295453 2.74295453 2.8308471 5.63341307 3.42041016 9.32373047 C3.54749863 10.07837585 3.6745871 10.83302124 3.80552673 11.61053467 C4.22459773 14.11150928 4.63197859 16.61423607 5.0390625 19.1171875 C5.32705284 20.85362781 5.61566589 22.58996494 5.90487671 24.32620239 C6.50991595 27.96878369 7.10957293 31.61219575 7.70507812 35.25634766 C8.46849799 39.92730259 9.24177176 44.596555 10.01865578 49.2652874 C10.6150411 52.85246033 11.20789643 56.44020896 11.79951096 60.02817154 C12.08350117 61.74987285 12.36818856 63.47145931 12.65358353 65.19292831 C13.05184295 67.60058075 13.44576354 70.00890207 13.83837891 72.41748047 C13.95679642 73.12931488 14.07521393 73.84114929 14.19721985 74.57455444 C14.71655957 77.78788453 15 80.73017448 15 84 C4.44 84 -6.12 84 -17 84 C-18.56862916 76.15685419 -19.75194211 68.6029279 -20.625 60.6875 C-20.7590625 59.55376953 -20.893125 58.42003906 -21.03125 57.25195312 C-21.67452226 51.49204076 -22.15066509 45.7431542 -22.33203125 39.94921875 C-22.36530518 38.92272217 -22.3985791 37.89622559 -22.43286133 36.83862305 C-21.72807767 32.2167846 -18.84321431 29.87985469 -15.5859375 26.73046875 C-8.59460273 19.34837962 -3.77481818 9.35498418 0 0 Z " fill="#F75766" transform="translate(355,147)"/>
<path d="M0 0 C3.25233447 1.62616724 4.08117025 5.13408475 5.5625 8.3125 C9.50642628 16.49752282 14.1061345 24.8178973 21.10668945 30.80029297 C24.74947319 35.03259232 23.35810112 40.70813559 23 46 C22.56645141 51.12827783 21.98085342 56.23545525 21.34594727 61.34228516 C21.0586972 63.65562547 20.78339048 65.97016834 20.50976562 68.28515625 C20.33140924 69.76570708 20.1523977 71.24617918 19.97265625 72.7265625 C19.8491555 73.7577269 19.8491555 73.7577269 19.72315979 74.8097229 C19.36303339 77.68379857 18.91932674 80.24201977 18 83 C7.44 83 -3.12 83 -14 83 C-12.72897505 72.3757246 -11.23272463 61.83860355 -9.43359375 51.2890625 C-9.1920186 49.8594404 -8.95065443 48.42978264 -8.70948792 47.00009155 C-8.2099874 44.04362607 -7.70808618 41.08758185 -7.2043457 38.13183594 C-6.55865076 34.34203516 -5.91906152 30.55123239 -5.28117275 26.76011086 C-4.7868121 23.82586105 -4.28938587 20.89213751 -3.79100227 17.95856857 C-3.55363889 16.55925642 -3.31721563 15.15978444 -3.08175468 13.76015091 C-2.75480304 11.81955357 -2.42329237 9.87972598 -2.09155273 7.93994141 C-1.81081154 6.28691513 -1.81081154 6.28691513 -1.5243988 4.60049438 C-1 2 -1 2 0 0 Z " fill="#F75766" transform="translate(156,148)"/>
<path d="M0 0 C7.12979046 3.15037253 10.72333247 12.40906406 13.6875 19.1875 C16.41080023 26.31995298 17.23064534 34.48068282 14.125 41.625 C11.81787365 45.5127873 9.05331219 47.9245329 4.6875 49.1875 C-0.23797057 49.95041256 -4.99427552 50.3771688 -9.53515625 48.046875 C-13.83772318 44.57558958 -16.66047437 40.66053447 -17.6953125 35.1484375 C-18.50235835 24.65684142 -13.32515731 12.63524447 -6.70703125 4.66796875 C-6.24683594 4.17941406 -5.78664062 3.69085938 -5.3125 3.1875 C-4.55453125 2.3521875 -4.55453125 2.3521875 -3.78125 1.5 C-2.3125 0.1875 -2.3125 0.1875 0 0 Z " fill="#FAE6A4" transform="translate(215.3125,65.8125)"/>
<path d="M0 0 C1.3912047 0.00025098 2.78241565 0.0058083 4.17358398 0.01586914 C4.82129761 0.01687622 5.46901123 0.0178833 6.13635254 0.0189209 C8.56414552 0.02416696 10.99191334 0.03812814 13.41967773 0.05102539 C21.55624023 0.08196289 21.55624023 0.08196289 29.85717773 0.11352539 C29.85717773 11.33352539 29.85717773 22.55352539 29.85717773 34.11352539 C18.63717773 34.11352539 7.41717773 34.11352539 -4.14282227 34.11352539 C-4.16344727 28.68915039 -4.18407227 23.26477539 -4.20532227 17.67602539 C-4.21442627 15.96229736 -4.22353027 14.24856934 -4.23291016 12.48291016 C-4.23582943 11.13191812 -4.23837796 9.7809252 -4.24047852 8.42993164 C-4.24559448 7.72251831 -4.25071045 7.01510498 -4.25598145 6.28625488 C-4.25629259 4.56159922 -4.20507987 2.83705701 -4.14282227 1.11352539 C-3.14282227 0.11352539 -3.14282227 0.11352539 0 0 Z " fill="#35B8ED" transform="translate(375.142822265625,337.886474609375)"/>
<path d="M0 0 C5.424375 -0.020625 10.84875 -0.04125 16.4375 -0.0625 C18.15122803 -0.071604 19.86495605 -0.08070801 21.63061523 -0.09008789 C22.98160727 -0.09300716 24.33260019 -0.09555569 25.68359375 -0.09765625 C26.39100708 -0.10277222 27.09842041 -0.10788818 27.82727051 -0.11315918 C29.55192617 -0.11347032 31.27646838 -0.06225761 33 0 C34 1 34 1 34.11352539 4.14282227 C34.11327441 5.53402696 34.10771709 6.92523791 34.09765625 8.31640625 C34.09664917 8.96411987 34.09564209 9.6118335 34.09460449 10.2791748 C34.08935843 12.70696779 34.07539725 15.13473561 34.0625 17.5625 C34.041875 22.986875 34.02125 28.41125 34 34 C22.78 34 11.56 34 0 34 C0 22.78 0 11.56 0 0 Z " fill="#35B8ED" transform="translate(107,338)"/>
<path d="M0 0 C10.89 0 21.78 0 33 0 C33.0825 3.135 33.165 6.27 33.25 9.5 C33.28641602 10.47130859 33.32283203 11.44261719 33.36035156 12.44335938 C33.43679295 18.50442188 32.4911052 22.97599058 29 28 C25.62786395 31.40047333 21.67365107 33.27937236 16.875 33.5 C9.97120389 32.6091876 6.52551272 29.89667664 2.19921875 24.71875 C0.05234176 21.64179276 -0.12077097 18.96104184 -0.09765625 15.33203125 C-0.09515869 14.52741455 -0.09266113 13.72279785 -0.09008789 12.89379883 C-0.08098389 11.87697021 -0.07187988 10.8601416 -0.0625 9.8125 C-0.041875 6.574375 -0.02125 3.33625 0 0 Z " fill="#CA2B58" transform="translate(388,248)"/>
<path d="M0 0 C10.89 0 21.78 0 33 0 C33.061875 3.17625 33.12375 6.3525 33.1875 9.625 C33.22846802 11.1092749 33.22846802 11.1092749 33.27026367 12.62353516 C33.32836217 18.80446561 32.63078594 23.14798888 28.28125 27.86328125 C27.6934375 28.34152344 27.105625 28.81976563 26.5 29.3125 C25.9121875 29.80363281 25.324375 30.29476563 24.71875 30.80078125 C21.50235879 33.04494511 18.13077376 33.46346338 14.26171875 33.40625 C9.83021909 32.61026388 6.13767919 30.16243406 3 27 C-0.31967537 21.19056811 -0.37080111 16.14241502 -0.1875 9.5625 C-0.125625 6.406875 -0.06375 3.25125 0 0 Z " fill="#CA2B58" transform="translate(91,248)"/>
<path d="M0 0 C10.89 0 21.78 0 33 0 C33.1546875 4.7025 33.1546875 4.7025 33.3125 9.5 C33.35802002 10.47130859 33.40354004 11.44261719 33.45043945 12.44335938 C33.55237025 18.90906021 32.15662093 23.0226643 28 28 C24.60105741 31.25647194 20.73046291 33.27184167 16 33.625 C11.29874587 33.28258582 7.3820633 31.23285463 4 28 C-0.38719272 22.06802111 -0.50463279 17.28291688 -0.25 10.0625 C-0.1675 6.741875 -0.085 3.42125 0 0 Z " fill="#CA2B58" transform="translate(438,248)"/>
<path d="M0 0 C10.89 0 21.78 0 33 0 C33.061875 3.17625 33.12375 6.3525 33.1875 9.625 C33.22846802 11.1092749 33.22846802 11.1092749 33.27026367 12.62353516 C33.32836217 18.80446561 32.63078594 23.14798888 28.28125 27.86328125 C27.6934375 28.34152344 27.105625 28.81976563 26.5 29.3125 C25.9121875 29.80363281 25.324375 30.29476563 24.71875 30.80078125 C20.87146461 33.48513719 16.51542947 33.69220487 12 33 C6.34408325 30.81127272 3.33655581 27.76980723 0.77636719 22.3359375 C-0.63249756 18.09693815 -0.41560123 13.91700974 -0.25 9.5 C-0.1675 6.365 -0.085 3.23 0 0 Z " fill="#CB2B59" transform="translate(190,248)"/>
<path d="M0 0 C10.89 0 21.78 0 33 0 C33.0825 3.320625 33.165 6.64125 33.25 10.0625 C33.28641602 11.09511963 33.32283203 12.12773926 33.36035156 13.19165039 C33.43427637 19.37212233 32.67987425 22.98559325 29 28 C23.7036416 32.10737998 19.70760029 33.55896669 13 33 C7.3874724 30.8440395 3.94325044 27.30326537 0.90673828 22.14160156 C-0.140174 19.66892667 -0.22963278 17.91135711 -0.1953125 15.234375 C-0.19031738 14.43225586 -0.18532227 13.63013672 -0.18017578 12.80371094 C-0.16196777 11.79598633 -0.14375977 10.78826172 -0.125 9.75 C-0.08375 6.5325 -0.0425 3.315 0 0 Z " fill="#CA2B58" transform="translate(41,248)"/>
<path d="M0 0 C10.89 0 21.78 0 33 0 C33.0825 3.135 33.165 6.27 33.25 9.5 C33.28641602 10.47130859 33.32283203 11.44261719 33.36035156 12.44335938 C33.43579322 18.42515273 32.54544169 23.0744136 29 28 C23.73420218 32.19114521 19.70117072 33.45431666 13 33 C7.56415241 31.11409369 4.23188892 27.6320232 1 23 C0.03911617 20.11734851 -0.11670941 18.32337729 -0.09765625 15.33203125 C-0.09515869 14.52741455 -0.09266113 13.72279785 -0.09008789 12.89379883 C-0.08098389 11.87697021 -0.07187988 10.8601416 -0.0625 9.8125 C-0.041875 6.574375 -0.02125 3.33625 0 0 Z " fill="#CB2B59" transform="translate(289,248)"/>
<path d="M0 0 C10.56 0 21.12 0 32 0 C32.0825 3.50625 32.165 7.0125 32.25 10.625 C32.28641602 11.71893066 32.32283203 12.81286133 32.36035156 13.93994141 C32.42709468 19.80795295 32.09544426 23.44309724 28 28 C24.5323197 31.13256833 20.71451035 33.29090084 16 33.625 C10.32962532 33.24473819 5.79884954 29.97293176 2.0625 25.875 C0.17554422 22.54507803 -0.12036337 19.85995555 -0.09765625 16.11328125 C-0.09515869 15.26805908 -0.09266113 14.42283691 -0.09008789 13.55200195 C-0.08098389 12.48296631 -0.07187988 11.41393066 -0.0625 10.3125 C-0.041875 6.909375 -0.02125 3.50625 0 0 Z " fill="#CB2B59" transform="translate(339,248)"/>
<path d="M0 0 C10.56 0 21.12 0 32 0 C32.061875 3.34125 32.12375 6.6825 32.1875 10.125 C32.22846802 11.68758545 32.22846802 11.68758545 32.27026367 13.28173828 C32.31796883 18.61548328 32.0549796 22.4175306 29 27 C26.5625 29.25 26.5625 29.25 24 31 C23.401875 31.4125 22.80375 31.825 22.1875 32.25 C18.10693829 33.64904973 14.09497136 33.78296909 10.06640625 32.27734375 C5.06222808 29.6192104 1.79109688 26.37329064 0 21 C-0.08143855 19.37280518 -0.1075302 17.74248281 -0.09765625 16.11328125 C-0.09515869 15.26805908 -0.09266113 14.42283691 -0.09008789 13.55200195 C-0.08098389 12.48296631 -0.07187988 11.41393066 -0.0625 10.3125 C-0.041875 6.909375 -0.02125 3.50625 0 0 Z " fill="#CB2B59" transform="translate(240,248)"/>
<path d="M0 0 C10.56 0 21.12 0 32 0 C32.061875 3.34125 32.12375 6.6825 32.1875 10.125 C32.22846802 11.68758545 32.22846802 11.68758545 32.27026367 13.28173828 C32.31798593 18.61739415 32.05057226 22.41322071 29 27 C24.87559561 30.90733047 21.26088796 32.74879023 15.625 33.375 C9.9126928 32.78407167 6.44843917 30.60090645 2.625 26.375 C0.25485844 22.91094695 -0.12158178 21.15522983 -0.09765625 16.9921875 C-0.09515869 16.1038623 -0.09266113 15.21553711 -0.09008789 14.30029297 C-0.08098389 13.16994629 -0.07187988 12.03959961 -0.0625 10.875 C-0.041875 7.28625 -0.02125 3.6975 0 0 Z " fill="#CB2B59" transform="translate(141,248)"/>
<path d="M0 0 C1.78535871 3.13565708 2.41395159 5.82417704 2.8515625 9.39453125 C2.98046875 10.43287109 3.109375 11.47121094 3.2421875 12.54101562 C3.36851562 13.62060547 3.49484375 14.70019531 3.625 15.8125 C3.7590625 16.88048828 3.893125 17.94847656 4.03125 19.04882812 C4.68848599 24.47102503 5 29.49564685 5 35 C-5.89 35 -16.78 35 -28 35 C-28 27.74 -28 20.48 -28 13 C-25.6075 12.154375 -23.215 11.30875 -20.75 10.4375 C-13.28783865 7.71778295 -6.70201475 4.2903049 0 0 Z " fill="#F65766" transform="translate(316,196)"/>
<path d="M0 0 C2.6875 1.34375 2.6875 1.34375 5.375 2.6875 C6.46941406 3.2340625 7.56382812 3.780625 8.69140625 4.34375 C10.72218318 5.36033727 12.75124235 6.38037587 14.77734375 7.40625 C15.61394531 7.8290625 16.45054687 8.251875 17.3125 8.6875 C18.05113281 9.06261719 18.78976563 9.43773437 19.55078125 9.82421875 C22.65518086 11.31452861 25.83484025 12.64350296 29 14 C29 20.93 29 27.86 29 35 C18.11 35 7.22 35 -4 35 C-2.84966216 16.59459459 -2.84966216 16.59459459 -1.4375 8.5 C-1.22963867 7.24896484 -1.22963867 7.24896484 -1.01757812 5.97265625 C-0.68556231 3.98056139 -0.34393626 1.99007143 0 0 Z " fill="#F75766" transform="translate(195,196)"/>
<path d="M0 0 C9.9 0 19.8 0 30 0 C31 4 31 4 31 17 C20.44 17 9.88 17 -1 17 C-1 4 -1 4 0 0 Z " fill="#F25564" transform="translate(241,214)"/>
<path d="M0 0 C0.33 0 0.66 0 1 0 C1 54.45 1 108.9 1 165 C5.95 165 10.9 165 16 165 C16 159.39 16 153.78 16 148 C16.33 148 16.66 148 17 148 C17 159.22 17 170.44 17 182 C11.39 182 5.78 182 0 182 C0 121.94 0 61.88 0 0 Z " fill="#A9AFB6" transform="translate(330,314)"/>
<path d="M0 0 C0.33 0 0.66 0 1 0 C1 60.06 1 120.12 1 182 C-4.61 182 -10.22 182 -16 182 C-16 170.78 -16 159.56 -16 148 C-15.67 148 -15.34 148 -15 148 C-15 153.61 -15 159.22 -15 165 C-10.05 165 -5.1 165 0 165 C0 110.55 0 56.1 0 0 Z " fill="#A9AFB6" transform="translate(181,314)"/>
<path d="M0 0 C5.28 0 10.56 0 16 0 C16 5.28 16 10.56 16 16 C10.72 16 5.44 16 0 16 C0 10.72 0 5.44 0 0 Z " fill="#000000" transform="translate(215,405)"/>
</svg>
